<?xml version="1.0" encoding="utf-8"?>
<svg version="1.1" xmlns:xlink="http://www.w3.org/1999/xlink" width="24px" height="24px" xmlns="http://www.w3.org/2000/svg">
  <g>
    <path d="M 19.6268060371873 17.90398847271  C 19.6268060371873 14.6821279290033  17.6647867643781 12.0549993594085  15.2175284312241 12  C 14.9830519326574 8.28815165126224  12.6428002488808 5.41963693122284  9.81340874418603 5.37601293972477  C 6.98401724837774 5.41963694676667  4.64376557792587 8.28815166272204  4.40928908022355 12  C 1.96203074706958 12.0549993594085  1.1474260288326E-05 14.6821279290033  1.1474260288326E-05 17.90398847271  C 1.1474260288326E-05 21.165146468096  2.00839680970674 23.8088373688369  4.48586567441862 23.8088373688369  C 4.51139260069372 23.8088373688369  4.53691906198752 23.8085505505828  4.56244226861366 23.8079769454201  L 15.064375242834 23.8079769454201  C 15.0898984494601 23.8085505505828  15.1154249107539 23.8088373688369  15.140951837029 23.8088373688369  C 17.6184207017409 23.8088373688369  19.6268060371873 21.165146468096  19.6268060371873 17.90398847271  Z M 15.064375242834 21.5039814409112  L 4.56244226861366 21.5039814409113  C 3.05201064728115 21.5039814409113  1.82756388967008 19.8922096885456  1.82756388967008 17.90398847271  C 1.82756388967008 15.9157672568745  3.05201064728115 14.3039955045087  4.56244226861366 14.3039955045087  C 4.74334439929346 14.3041492000414  4.92373670626294 14.3292460875333  5.10066632341805 14.3788753526341  C 5.16073055947036 14.3957556219545  5.22197786724236 14.4042660982191  5.28339579249359 14.4042660982191  C 5.76673391233953 14.4042660982191  6.15855687560159 13.8884991363743  6.15855687560159 13.2522683459648  C 6.15855687560159 13.2187971705552  6.15744867642671 13.1853418966438  6.15523543248602 13.1519977522544  L 6.15523543248602 12.6796786635026  C 6.12825115576129 9.97539472924143  7.75942688108632 7.74604690960194  9.81340874418603 7.68000844423352  C 11.8794700380719 7.73359521192333  13.5232441483586 9.97719111417433  13.4890852886245 12.6969586331277  L 13.4890852886245 13.1692777218794  C 13.4868720446838 13.2026218662689  13.4857638455089 13.2360771401802  13.4857638455089 13.2695483155898  C 13.4857638455089 13.9057791059993  13.877586808771 14.4215460678441  14.3609249286169 14.4215460678441  C 14.4223428538682 14.4215460678441  14.4835901616402 14.4130355915796  14.5436543976924 14.3961553222591  C 14.7144066233407 14.3422845173362  14.888877392516 14.3114057951955  15.064375242834 14.3039955045087  C 16.5748068641665 14.3039955045087  17.7992536217776 15.9157672568745  17.7992536217776 17.90398847271  C 17.7992536217776 19.8922096885456  16.5748068641665 21.5039814409113  15.064375242834 21.5039814409113  Z M 15.9964217919596 2.49601855908867  C 15.9964217919596 3.13224934949818  16.3882447552216 3.64801631134321  16.8715828750676 3.64801631134321  C 17.3549209949136 3.64801631134321  17.7467439581756 3.13224934949818  17.7467439581756 2.49601855908867  L 17.7467439581756 1.34402080683429  C 17.7467439581756 0.707790016424951  17.3549209949136 0.19202305457992  16.8715828750676 0.19202305457992  C 16.3882447552216 0.19202305457992  15.9964217919596 0.707790016424951  15.9964217919596 1.34402080683429  L 15.9964217919596 2.49601855908867  Z M 22.9408249677303 8.23296735073558  L 22.0656638846223 8.23296735073558  C 21.5823257647764 8.23296735073558  21.1905028015143 8.74873431258061  21.1905028015143 9.38496510298995  C 21.1905028015143 10.0211958933995  21.5823257647764 10.5369628552445  22.0656638846223 10.5369628552445  L 22.9408249677303 10.5369628552445  C 23.4241630875763 10.5369628552445  23.8159860508383 10.0211958933995  23.8159860508383 9.38496510298995  C 23.8159860508383 8.74873431258061  23.4241630875763 8.23296735073558  22.9408249677303 8.23296735073558  Z M 21.7899881362899 4.5120146103464  C 22.1264190110289 4.06337231623104  22.1264190110289 3.34210009383054  21.7899881362899 2.89345779971518  C 21.6258356974831 2.67713907091655  21.4030875167295 2.5555922351673  21.170811673337 2.5555922351673  C 20.9385358299444 2.5555922351673  20.7157876491908 2.67713907091655  20.551635210384 2.89345779971518  L 19.93464664287 3.70561618984334  C 19.7719359545265 3.92282386835615  19.6807169222244 4.21560966679795  19.6807169222244 4.52065461034641  C 19.6807169222244 5.16175382731535  20.0755381077507 5.68146742867128  20.5625747221922 5.68146742867128  C 20.7986031098056 5.68146742867128  21.0247808167141 5.55692058488091  21.1905028015143 5.33569303084948  L 21.7899881362899 4.5120146103464  Z " fill-rule="nonzero" fill="#e4e4e4" stroke="none" />
  </g>
</svg>