<?xml version="1.0" encoding="utf-8"?>
<svg version="1.1" xmlns:xlink="http://www.w3.org/1999/xlink" width="7px" height="9px" xmlns="http://www.w3.org/2000/svg">
  <g transform="matrix(1 0 0 1 -14 -5 )">
    <path d="M 3.13991306813225 0.154298982845432  C 3.13892590887356 0.154298982845432  3.13793874965068 0.154299482251304  3.13695159069768 0.154300481063046  C 2.13797275861394 0.149266257239105  1.17905996947719 0.658976077255602  0.474492775193815 1.56952970631221  C 0.297960783639965 1.79649941396804  0.198786143734972 2.10433639606975  0.198786143734972 2.42532003189365  C 0.198786143734972 3.09373385969184  0.620230063650515 3.63559032815476  1.14010748527133 3.63559032815476  C 1.38976143032375 3.63559032815476  1.62919019949704 3.50808007065677  1.80572219534884 3.28111035747509  C 2.54991043786382 2.36409759199796  3.72399274353151 2.36409759199796  4.46818098604652 3.28111035747509  C 4.82150158401258 3.73487460032311  5.02002808722501 4.35061422110147  5.02002808722501 4.99269102458476  C 5.02002808722501 5.63476782806805  4.82150158401254 6.25050744884641  4.46818098604652 6.70427169169443  C 4.29164899234369 6.9312413978837  4.19247435095492 7.23907838053503  4.19247435095492 7.5600620172757  C 4.19247435095492 8.22847583884629  4.61391826694384 8.77033230226067  5.13379568372094 8.77033230226067  C 5.38344962340822 8.77033230226067  5.62287838769253 8.6428220490464  5.79941038139535 8.41585234285714  C 6.50605227568144 7.50832373862892  6.90310572549658 6.27684386830157  6.90310572549658 4.99268954231377  C 6.90310572549658 2.32052022259415  5.2182669834698 0.154298982845432  3.13991306813225 0.154298982845432  Z " fill-rule="nonzero" fill="#e4e4e4" stroke="none" transform="matrix(1 0 0 1 14 5 )" />
  </g>
</svg>