<?xml version="1.0" encoding="utf-8"?>
<svg version="1.1" xmlns:xlink="http://www.w3.org/1999/xlink" width="24px" height="24px" xmlns="http://www.w3.org/2000/svg">
  <g>
    <path d="M 23.9996464466114 16.1481481406251  C 23.9996464466114 20.0753222756626  21.6120472510564 23.2589989126774  18.66666665625 23  L 5.33333334374999 23  C 2.38795274894359 23.2589989126774  0.000353553388582181 20.0753222756626  0.000353553388582181 16.1481481406251  C 0.000353553388582181 12.2209740055874  2.38795274894359 9.03729736857262  5.33333334374999 9.03703703125003  C 5.33333339861455 4.12783931437367  8.31810171234279 0.148148288704847  12 0.148148288704847  C 15.6818983264524 0.148148288704847  18.66666665625 4.12783939510163  18.66666665625 9.03703716370468  C 21.6120472510564 9.03729736857262  23.9996464466114 12.2209740055874  23.9996464466114 16.1481481406251  Z M 6.06666665624997 11.490370375  C 5.8249855102722 11.4294269738374  5.57926050109758 11.4016277781513  5.33333334374999 11.40740740625  C 3.36976696957825 11.407619968539  1.77806645637565 13.5300596331004  1.77806645637565 16.1481481406251  C 1.77806645637565 18.7662366481496  3.36976696957825 20.888676312711  5.33333334374999 20.888888875  L 18.66666665625 20.888888875  C 20.6302330304217 20.888676312711  22.2219335436243 18.7662366481496  22.2219335436243 16.1481481406251  C 22.2219335436243 13.5300596331004  20.6302330304217 11.407619968539  18.66666665625 11.40740740625  C 18.4202823611549 11.4074810596597  18.1745529859515 11.4412378263755  17.93333334375 11.5081481562501  C 17.8732132202352 11.5249952344296  17.8119451775176 11.53348685406  17.7505116339463 11.53348685406  C 17.2595918553601 11.53348685406  16.8616227433213 11.0028613713416  16.8616227433213 10.3483016665601  C 16.8616227433213 10.3061855438079  16.8633064361195 10.2640993576895  16.86666665625 10.2222222187499  C 16.86666665625 10.0207407499999  16.888888875 9.81925925000004  16.8888888984375 9.62962962500006  C 16.8888888984375 6.02955134583473  14.7000587822241 3.11111119088344  12 3.11111119088344  C 9.29994124622564 3.11111119088344  7.1111111417965 6.02955128663425  7.11111110156253 9.62962962500006  C 7.11111110156253 9.83703703125  7.11111110156253 10.0385185  7.13333334374998 10.2222222187499  C 7.13579411875383 10.2581035307093  7.13702642621495 10.2941157998291  7.13702642621495 10.3301468104683  C 7.13702642621495 10.98470651525  6.73905731417615 11.5153319979683  6.24813753558991 11.5153319979683  C 6.18716525776699 11.5153319979683  6.1263547744103 11.5069674142755  6.06666665624997 11.490370375  Z " fill-rule="nonzero" fill="#e4e4e4" stroke="none" />
  </g>
</svg>