<?xml version="1.0" encoding="utf-8"?>
<svg version="1.1" xmlns:xlink="http://www.w3.org/1999/xlink" width="24px" height="24px" xmlns="http://www.w3.org/2000/svg">
  <g>
    <path d="M 4.45130130957763 16.0904817101601  C 4.47665625734304 16.0904817101601  4.5020107423578 16.0902650738847  4.52736198831605 16  L 14.9585408424022 16  C 16.4988569341011 16.0774409897899  17.9175541513432 15.2506943569516  18.687687278555 13.9166695590124  L 19.3048653515678 13.9166695590124  C 19.3302165975264 13.9171028078429  19.3555710825409 13.9173194441189  19.3809260303065 13.9173194441189  C 21.8393035111434 13.9173194441189  23.8322122220585 11.924410733204  23.8322122220585 9.46603325236702  C 23.8322122220585 7.0373084686625  21.8853569003919 5.05689741267867  19.4569867090449 5.01539694572153  C 19.2283271831283 2.21111057286416  16.9026718907252 0.0417543689744174  14.0892759359849 0.00843107925780779  C 12.4444920987496 0.00988015591987538  10.8928693279509 0.772052663601154  9.88638011827113 2.07293522626855  C 9.86054038245831 2.10738214818397  9.83729599072363 2.14370151314226  9.81683892759143 2.1815933453007  L 9.74295140389898 2.1815933453007  C 6.92955545725272 2.21491663395566  4.60390016794034 4.38427282503173  4.37524063083921 7.18855918884439  C 1.94687043316299 7.23005965580283  1.51063673651411E-05 9.21047071691726  1.51063673651411E-05 11.6391955069499  C 1.51063673651411E-05 14.0975729941151  1.99292382241245 16.0904817101601  4.45130130957763 16.0904817101601  Z M 11.7857239316875 2.59449417928689  C 12.4286143250171 2.04748048889938  13.2451598143795 1.74705337396897  14.0892759359849 1.74696089209212  C 16.1414176638869 1.78739595067616  17.7741172613998 3.48034993274043  17.7401885383531 5.53260954280724  L 17.7401885383531 5.88900816223115  C 17.7377247242998 5.91563470554833  17.7364908490202 5.94236075580733  17.7364908490202 5.96910104729248  C 17.7364908490202 6.44918279866977  18.12567400406 6.83836595370969  18.6057557554375 6.83836595370969  C 18.6668961383483 6.83836595370969  18.7278659132023 6.83191547306527  18.787652731562 6.81912161622313  C 18.957405210448 6.7799360889715  19.1306986008946 6.75809238009871  19.3048653515678 6.75392673563576  C 20.7593252762791 6.81218665227677  21.9084226363315 8.00823379780521  21.9084226363315 9.46386008586074  C 21.9084226363315 10.9194863739162  20.7593252762791 12.1155335194447  19.3048653515678 12.1737934360857  L 19.270094756228 12.1737934360857  C 19.2921633950648 11.9964306368496  19.3037736693555 11.8179226610225  19.3048653515678 11.6391955069499  C 19.3310015081414 9.26919865146943  17.4780411882215 7.30294852061365  15.110662199879 7.18855918884439  C 14.9338567558394 5.16140699443676  13.6560996713987 3.39593087462432  11.7857239316875 2.59449417928689  Z M 1.92380498965213 11.6370223404436  C 1.92380498965213 10.1813961632962  3.07290218057486 8.98534906743449  4.52736198831605 8.92708900167871  C 4.70704533659487 8.92720497597866  4.88622229597162 8.94614237712749  5.06195989453174 8.98359121624104  C 5.12161946296874 8.99632858981875  5.1824541324786 9.00275035439179  5.2434582699755 9.00275035439179  C 5.72354002135268 9.00275035439179  6.11272317639279 8.61356719935193  6.11272317639279 8.13348544797464  C 6.11272317639279 8.10822904612571  6.11162244342969 8.08298464309723  6.10942411066104 8.05782409526155  L 6.10942411066104 7.70142549875772  C 6.0778076063047 5.65748262484297  7.6993718463491 3.96996959370068  9.74295140389898 3.92012315813507  C 11.795093131801 3.96055821671911  13.4277927293141 5.65351219878332  13.3938640062671 7.70577180885018  L 13.3938640062671 8.06217042827404  C 13.3916656734985 8.08733097610977  13.3905649405354 8.1125753791382  13.3905649405354 8.13783178098712  C 13.3905649405354 8.61791353236442  13.7797480955755 9.00709668740434  14.2598298469527 9.00709668740434  C 14.3208339844496 9.00709668740434  14.3816686539594 9.00067492283124  14.4413282223964 8.98793754925353  C 14.6112308328853 8.95021470641921  14.7845224216183 8.92982745933077  14.9585408424022 8.92708900167871  C 16.4130006501434 8.98534906743449  17.5620978410661 10.1813961632962  17.5620978410661 11.6370223404436  C 17.5620978410661 13.092648517591  16.4130006501434 14.2886956134528  14.9585408424022 14  L 4.52736198831605 14  C 3.07290218057486 14.2886956134528  1.92380498965213 13.092648517591  1.92380498965213 11.6370223404436  Z M 9.30831895069059 20.4578879763637  L 9.30831895069059 20.4535416433512  L 8.6172533539853 20.4535416433512  L 9.10404171166374 19.9667532856727  C 9.20713100228646 19.8842716588928  9.26714096090629 19.7594038063928  9.26714096090629 19.6273787307542  C 9.26714096090629 19.3873378550656  9.07254938338649 19.1927462775457  8.8325085076979 19.1927462775457  C 8.69939831707987 19.1927462775457  8.57362763201257 19.2537420296221  8.49120994874309 19.3582678557647  L 8.00442159106465 19.8407098804306  L 8.00442159106465 19.1496442837254  C 8.00442159106465 18.9096034080367  7.80983001354486 18.7150118305168  7.56978913785627 18.7150118305168  C 7.32974826216741 18.7150118305168  7.13515668464762 18.9096034080367  7.13515668464762 19.1496442837254  L 7.13515668464762 19.8407098804306  L 6.64836834988923 19.3582678557647  C 6.56579486108421 19.2618461010372  6.44519307249331 19.2063449076592  6.31824609207173 19.2063449076592  C 6.07820521638314 19.2063449076592  5.88361363886309 19.4009364851791  5.88361363886309 19.6409773608678  C 5.88361363886309 19.7679243412894  5.9391148322411 19.8885261298802  6.03553658696858 19.9710996186852  L 6.52232494464702 20.4578879763637  L 5.83125932502194 20.4578879763637  C 5.59121844933309 20.4578879763637  5.3966268718133 20.6524795538836  5.3966268718133 20.8925204295723  C 5.3966268718133 21.1325613052609  5.59121844933309 21.3271528827808  5.83125932502194 21.3271528827808  L 6.52232494464702 21.3271528827808  L 6.03553658696858 21.8139412175392  C 5.96809352785463 21.892695042745  5.93102639157769 21.9929649897413  5.93102639157769 22.0966507226423  C 5.93102639157769 22.3366915983309  6.12561796909748 22.5312831758509  6.36565884478607 22.5312831758509  C 6.46934457768709 22.5312831758509  6.5696145246836 22.4942160395739  6.64836834988923 22.4267729804598  L 7.13515668464762 21.9399846227813  L 7.13515668464762 22.6310502194865  C 7.13515668464762 22.8710910951752  7.32974826216741 23.0656826726951  7.56978913785627 23.0656826726951  C 7.80983001354486 23.0656826726951  8.00442159106465 22.8710910951752  8.00442159106465 22.6310502194865  L 8.00442159106465 21.9399846227813  L 8.49120994874309 22.4267729804598  C 8.56996377394898 22.4942160395739  8.67023372094523 22.5312831758509  8.77391945384625 22.5312831758509  C 9.01396032953484 22.5312831758509  9.20855190705489 22.3366915983309  9.20855190705489 22.0966507226423  C 9.20855190705489 21.9929649897413  9.17148477077795 21.892695042745  9.10404171166374 21.8139412175392  L 8.6172533539853 21.3271528827808  L 9.30831895069059 21.3271528827808  C 9.54835982637919 21.3271528827808  9.74295140389898 21.1325613052609  9.74295140389898 20.8925204295723  C 9.74295140389898 20.6524795538836  9.54835982637919 20.4578879763637  9.30831895069059 20.4578879763637  Z M 18.0009679919422 20.4578879763637  L 18.0009679919422 20.4535416433512  L 17.3099023952369 20.4535416433512  L 17.7966907529153 19.9667532856727  C 17.8571469462466 19.8900800123811  17.8900246471694 19.795283294279  17.8900246471694 19.6976424106832  C 17.8900246471694 19.4576015349946  17.6954330696494 19.2630099574746  17.4553921939608 19.2630099574746  C 17.3566905642365 19.2630099574746  17.260928296279 19.2966047895167  17.1838589899949 19.3582678557647  L 16.6970706552365 19.8407098804306  L 16.6970706552365 19.1496442837254  C 16.6970706552365 18.9096034080367  16.5024790777165 18.7150118305168  16.2624382020279 18.7150118305168  C 16.0223973263393 18.7150118305168  15.8278057488192 18.9096034080367  15.8278057488192 19.1496442837254  L 15.8278057488192 19.8407098804306  L 15.3410173911408 19.3582678557647  C 15.2622635659352 19.2908247966505  15.1619936189389 19.2537576603736  15.0583078860379 19.2537576603736  C 14.8182670103491 19.2537576603736  14.6236754328293 19.4483492378935  14.6236754328293 19.6883901135822  C 14.6236754328293 19.7920758464831  14.6607425691062 19.8923457934795  14.7281856282204 19.9710996186852  L 15.2149739858989 20.4578879763637  L 14.5239083891936 20.4578879763637  C 14.283867513505 20.4578879763637  14.0892759359849 20.6524795538836  14.0892759359849 20.8925204295723  C 14.0892759359849 21.1325613052609  14.283867513505 21.3271528827808  14.5239083891936 21.3271528827808  L 15.2149739858989 21.3271528827808  L 14.7281856282204 21.8139412175392  C 14.6607425691062 21.892695042745  14.6236754328293 21.9929649897413  14.6236754328293 22.0966507226423  C 14.6236754328293 22.3366915983309  14.8182670103491 22.5312831758509  15.0583078860379 22.5312831758509  C 15.1619936189389 22.5312831758509  15.2622635659352 22.4942160395739  15.3410173911408 22.4267729804598  L 15.8278057488192 21.9399846227813  L 15.8278057488192 22.6310502194865  C 15.8278057488192 22.8710910951752  16.0223973263393 23.0656826726951  16.2624382020279 23.0656826726951  C 16.5024790777165 23.0656826726951  16.6970706552365 22.8710910951752  16.6970706552365 22.6310502194865  L 16.6970706552365 21.9399846227813  L 17.1838589899949 22.4267729804598  C 17.2626128152006 22.4942160395739  17.3628827621971 22.5312831758509  17.4665684950978 22.5312831758509  C 17.7066093707867 22.5312831758509  17.9012009483065 22.3366915983309  17.9012009483065 22.0966507226423  C 17.9012009483065 21.9929649897413  17.8641338120295 21.892695042745  17.7966907529153 21.8139412175392  L 17.3099023952369 21.3271528827808  L 18.0009679919422 21.3271528827808  C 18.2410088676308 21.3271528827808  18.4356004451508 21.1325613052609  18.4356004451508 20.8925204295723  C 18.4356004451508 20.6524795538836  18.2410088676308 20.4578879763637  18.0009679919422 20.4578879763637  Z M 4.9619944415247 18.2629940910983  L 4.27092882189936 18.2629940910983  L 4.7577171795778 17.7762057334199  C 4.85413893430528 17.6936322446149  4.90964012768329 17.573030456024  4.90964012768329 17.4460834756024  C 4.90964012768329 17.2060425999138  4.7150485501635 17.0114510223939  4.47500767447491 17.0114510223939  C 4.34806069405334 17.0114510223939  4.22745890546243 17.0669522157718  4.14488541665742 17.1633739704994  L 3.65809708189902 17.6458159951653  L 3.65809708189902 16.9590967314725  C 3.65809708189902 16.7190558557839  3.46350550437897 16.524464278264  3.22346462869038 16.524464278264  C 2.98342375300178 16.524464278264  2.78883217548173 16.7190558557839  2.78883217548173 16.9590967314725  L 2.78883217548173 17.6501623281778  L 2.30204381780329 17.1590276604069  C 2.21947032899828 17.0626059056794  2.09886854040737 17.0071047123014  1.9719215599858 17.0071047123014  C 1.7318806842972 17.0071047123014  1.53728910677741 17.2016962898213  1.53728910677741 17.44173716551  C 1.53728910677741 17.5686841459316  1.59279030015542 17.6892859345224  1.6892120548829 17.7718594233274  L 2.17600041256134 18.2586477580858  L 1.48493481585605 18.2586477580858  C 1.24489394016746 18.2586477580858  1.05030236264741 18.4532393356058  1.05030236264741 18.6932802112944  C 1.05030236264741 18.9333210869831  1.24489394016746 19.127912664503  1.48493481585605 19.127912664503  L 2.17600041256134 19.127912664503  L 1.68486574479045 19.6190473322739  C 1.61860977724116 19.6974830725948  1.58226094969411 19.7968422556967  1.58226094969411 19.8995165883976  C 1.58226094969411 20.1395574640863  1.7768525272139 20.3341490416062  2.01689340290276 20.3341490416062  C 2.12168854777623 20.3341490416062  2.22295514828771 20.2962859784217  2.30204381780329 20.2275327621819  L 2.78883217548173 19.745090737516  L 2.78883217548173 20.4361563342212  C 2.78883217548173 20.6761972099098  2.98342375300178 20.8707887874298  3.22346462869038 20.8707887874298  C 3.46350550437897 20.8707887874298  3.65809708189902 20.6761972099098  3.65809708189902 20.4361563342212  L 3.65809708189902 19.745090737516  L 4.14488541665742 20.2275327621819  C 4.22363924186305 20.294975821296  4.32390918885929 20.332042957573  4.42759492176031 20.332042957573  C 4.6676357974489 20.332042957573  4.86222737496895 20.1374513800531  4.86222737496895 19.8974105043644  C 4.86222737496895 19.7937247714635  4.82516023869201 19.6934548244671  4.7577171795778 19.6147009992614  L 4.27092882189936 19.1322589975155  L 4.9619944415247 19.1322589975155  C 5.20203531721329 19.1322589975155  5.39662689473334 18.9376674199956  5.39662689473334 18.6976265443069  C 5.39662689473334 18.4575856686183  5.20203531721329 18.2629940910983  4.9619944415247 18.2629940910983  Z M 13.6546434827763 18.3108036625557  L 13.6546434827763 18.2977646864382  L 12.963577886071 18.2977646864382  L 13.4503662208296 17.8109763287598  C 13.5345038576722 17.7285915566553  13.5819220630393 17.615796618583  13.5819220630393 17.4980409707008  C 13.5819220630393 17.2561558668607  13.3858354432094 17.0600692470307  13.1439503393693 17.0600692470307  C 13.0293896684884 17.0600692470307  12.9193892504084 17.1049561256966  12.837534457909 17.1851056126419  L 12.3507461231506 17.6849329235177  L 12.3507461231506 16.9938673268124  C 12.3507461231506 16.7538264511238  12.1561545456305 16.5592348736039  11.9161136699419 16.5592348736039  C 11.6760727942534 16.5592348736039  11.4814812167336 16.7538264511238  11.4814812167336 16.9938673268124  L 11.4814812167336 17.6849329235177  L 10.9946928590551 17.1851056126419  C 10.9121193691203 17.0886837622492  10.7915175183901 17.0331825049505  10.6645704645718 17.0331825049505  C 10.4245295888832 17.0331825049505  10.2299380113631 17.2277740824704  10.2299380113631 17.4678149581591  C 10.2299380113631 17.5947620119773  10.285439268662 17.7153638627077  10.3818611190545 17.7979373526423  L 10.8686494538129 18.2847257103207  L 10.1775838571076 18.2847257103207  C 9.93754298141903 18.2847257103207  9.74295140389898 18.4793172878407  9.74295140389898 18.7193581635293  C 9.74295140389898 18.959399039218  9.93754298141903 19.1539906167379  10.1775838571076 19.1539906167379  L 10.8686494538129 19.1539906167379  L 10.3818611190545 19.6407789514963  C 10.2854393127938 19.7233524409098  10.2299380849828 19.8439542629742  10.2299380849828 19.9709012829335  C 10.2299380849828 20.2109421586221  10.4245296625026 20.405533736142  10.6645705381912 20.405533736142  C 10.791517552472 20.405533736142  10.9121193697288 20.3500325132763  10.9946928590551 20.2536107144168  L 11.4814812167336 19.7929003089733  L 11.4814812167336 20.4839659056785  C 11.4814812167336 20.7240067813672  11.6760727942534 20.9185983588871  11.9161136699419 20.9185983588871  C 12.1561545456305 20.9185983588871  12.3507461231506 20.7240067813672  12.3507461231506 20.4839659056785  L 12.3507461231506 19.7929003089733  L 12.837534457909 20.2796886666517  C 12.920107946714 20.3761104213792  13.0407097353049 20.4316116147573  13.1676567157265 20.4316116147573  C 13.4076975914151 20.4316116147573  13.6022891689351 20.2370200372373  13.6022891689351 19.9969791615487  C 13.6022891689351 19.8700321811271  13.5467879755571 19.7494303925362  13.4503662208296 19.6668569037312  L 12.963577886071 19.1800685689728  L 13.6546434827763 19.1800685689728  C 13.8946843584651 19.1800685689728  14.0892759359849 18.9854769914529  14.0892759359849 18.7454361157642  C 14.0892759359849 18.5053952400756  13.8946843584651 18.3108036625557  13.6546434827763 18.3108036625557  Z M 22.3472925240281 18.2847257103207  L 22.3472925240281 18.2803793773082  L 21.6562269273228 18.2803793773082  L 22.1430152620812 17.7935910425499  C 22.2034714308237 17.7169177774882  22.2363491171631 17.6221210791488  22.2363491171631 17.5244802172403  C 22.2363491171631 17.2844393415516  22.0417575396431 17.0898477640317  21.8017166639545 17.0898477640317  C 21.7030150615059 17.0898477640317  21.6072528183491 17.123442577535  21.5301835220806 17.1851056126419  L 21.0433951644022 17.6675476143877  L 21.0433951644022 16.9764820176824  C 21.0433951644022 16.7364411419939  20.8488035868824 16.5418495644739  20.6087627111938 16.5418495644739  C 20.3687218355049 16.5418495644739  20.1741302579851 16.7364411419938  20.1741302579851 16.9764820176824  L 20.1741302579851 17.6675476143877  L 19.6873419232267 17.1851056126419  C 19.6085881083062 17.1176625927785  19.5083181913014 17.080595480297  19.4046324917433 17.080595480297  C 19.1645916160547 17.080595480297  18.9700000385349 17.2751870578169  18.9700000385349 17.5152279335056  C 18.9700000385349 17.6189136274717  19.0070671470255 17.7191835394466  19.0745101603061 17.7979373526423  L 19.5612984950645 18.2847257103207  L 18.8702328983595 18.2847257103207  C 18.6301920226706 18.2847257103207  18.4356004451508 18.4793172878407  18.4356004451508 18.7193581635293  C 18.4356004451508 18.959399039218  18.6301920226706 19.1539906167379  18.8702328983595 19.1539906167379  L 19.5612984950645 19.1539906167379  L 19.0745101603061 19.6407789514963  C 19.0070671011919 19.719532776702  18.9699999649149 19.8198027236984  18.9699999649149 19.9234884565993  C 18.9699999649149 20.163529332288  19.164591542435 20.358120909808  19.4046324181236 20.358120909808  C 19.5083181510246 20.358120909808  19.6085880980208 20.321053773531  19.6873419232267 20.2536107144168  L 20.1741302579851 19.7668223796584  L 20.1741302579851 20.4578879763637  C 20.1741302579851 20.6979288520523  20.3687218355049 20.8925204295723  20.6087627111938 20.8925204295723  C 20.8488035868824 20.8925204295723  21.0433951644022 20.6979288520523  21.0433951644022 20.4578879763637  L 21.0433951644022 19.7668223796584  L 21.5301835220806 20.2536107144168  C 21.6089373352765 20.3210537276974  21.7092072472515 20.3581208361882  21.8128929412173 20.3581208361882  C 22.0529338169061 20.3581208361882  22.2475253944259 20.1635292586683  22.2475253944259 19.9234883829797  C 22.2475253944259 19.8198026834217  22.2104582819445 19.7195327664168  22.1430152620812 19.6407789514963  L 21.6562269273228 19.1539906167379  L 22.3472925240281 19.1539906167379  C 22.5873333997167 19.1539906167379  22.7819249772365 18.959399039218  22.7819249772365 18.7193581635293  C 22.7819249772365 18.4793172878407  22.5873333997167 18.2847257103207  22.3472925240281 18.2847257103207  Z " fill-rule="nonzero" fill="#e4e4e4" stroke="none" />
  </g>
</svg>