<?xml version="1.0" encoding="utf-8"?>
<svg version="1.1" xmlns:xlink="http://www.w3.org/1999/xlink" width="24px" height="24px" xmlns="http://www.w3.org/2000/svg">
  <g>
    <path d="M 11.05185185 2.99259260000002  C 11.05185185 3.51624036382522  11.4763522361747 3.94074075  12 3.94074075  C 12.5236477638253 3.94074075  12.94814815 3.51624036382522  12.94814815 2.99259260000002  L 12.94814815 1.09629630000005  C 12.94814815 0.572648536174711  12.5236477638253 0.148148150000062  12 0.148148150000062  C 11.4763522361747 0.148148150000062  11.05185185 0.572648536174711  11.05185185 1.09629630000005  L 11.05185185 2.99259260000002  Z M 3.61837037500001 4.96000000000004  L 4.95999999999997 6.31111109999996  C 5.13916847166261 6.49027957166267  5.38217306742503 6.59093537094642  5.63555555 6.59093537094642  C 6.16319725540481 6.59093537094642  6.59093537094642 6.16319725540481  6.59093537094642 5.63555555  C 6.59093537094642 5.3821730674251  6.4902795716626 5.13916847166261  6.31111110000003 4.96000000000004  L 4.95999999999997 3.61837037500001  C 4.78208885009638 3.44045922509641  4.54078954859109 3.3405097818217  4.28918518750002 3.3405097818217  C 3.76524622840433 3.3405097818217  3.34050978182177 3.76524622840433  3.34050978182177 4.28918518750002  C 3.34050978182177 4.54078954859116  3.44045922509635 4.78208885009644  3.61837037500001 4.96000000000004  Z M 2.99259260000002 12.94814815  C 3.51624036382529 12.94814815  3.94074075 12.5236477638253  3.94074075 12  C 3.94074075 11.4763522361747  3.51624036382529 11.05185185  2.99259260000002 11.05185185  L 1.09629629999998 11.05185185  C 0.572648536174711 11.05185185  0.148148149999997 11.4763522361747  0.148148149999997 12  C 0.148148149999997 12.5236477638253  0.572648536174711 12.94814815  1.09629629999998 12.94814815  L 2.99259260000002 12.94814815  Z M 5.63555555 17.4090646290536  C 5.38217306742503 17.4090646290536  5.13916847166261 17.5097204283373  4.95999999999997 17.6888889  L 3.61837037500001 19.04  C 3.44045922509635 19.2179111499037  3.34050978182177 19.459210451409  3.34050978182177 19.7108148125  C 3.34050978182177 20.2347537715957  3.76524622840433 20.6594902181783  4.28918518750002 20.6594902181783  C 4.54078954859109 20.6594902181783  4.78208885009638 20.5595407749036  4.95999999999997 20.381629625  L 6.31111110000003 19.04  C 6.4902795716626 18.8608315283374  6.59093537094642 18.6178269325749  6.59093537094642 18.36444445  C 6.59093537094642 17.8368027445952  6.16319725540481 17.4090646290536  5.63555555 17.4090646290536  Z M 12.94814815 21.0074074  C 12.94814815 20.4837596361748  12.5236477638253 20.05925925  12 20.05925925  C 11.4763522361747 20.05925925  11.05185185 20.4837596361748  11.05185185 21.0074074  L 11.05185185 22.9037037  C 11.05185185 23.4273514638253  11.4763522361747 23.8518518499999  12 23.8518518499999  C 12.5236477638253 23.8518518499999  12.94814815 23.4273514638253  12.94814815 22.9037037  L 12.94814815 21.0074074  Z M 20.37214815 19.04  L 19.04 17.6888889  C 18.8608315283374 17.5097204283373  18.617826932575 17.4090646290536  18.36444445 17.4090646290536  C 17.8368027445952 17.4090646290536  17.4090646290536 17.8368027445952  17.4090646290536 18.36444445  C 17.4090646290536 18.6178269325749  17.5097204283374 18.8608315283374  17.6888889 19.04  L 19.030518525 20.381629625  C 19.2084296749036 20.5595407749036  19.4497289764089 20.6594902181783  19.7013333375 20.6594902181783  C 20.2252722965956 20.6594902181783  20.6500087431783 20.2347537715957  20.6500087431783 19.7108148125  C 20.6500087431783 19.459210451409  20.5500592999036 19.2179111499037  20.37214815 19.04  Z M 22.9037037 11.05185185  L 21.0074074 11.05185185  C 20.4837596361747 11.05185185  20.05925925 11.4763522361747  20.05925925 12  C 20.05925925 12.5236477638253  20.4837596361747 12.94814815  21.0074074 12.94814815  L 22.9037037 12.94814815  C 23.4273514638253 12.94814815  23.85185185 12.5236477638253  23.85185185 12  C 23.85185185 11.4763522361747  23.4273514638253 11.05185185  22.9037037 11.05185185  Z M 18.36444445 6.59093537094642  C 18.617826932575 6.59093537094642  18.8608315283374 6.49027957166267  19.04 6.31111109999996  L 20.381629625 4.96948147499994  C 20.5595407749037 4.79157032509634  20.6594902181782 4.55027102359106  20.6594902181782 4.29866666250005  C 20.6594902181782 3.77472770340436  20.2347537715957 3.34999125682173  19.7108148125 3.34999125682173  C 19.4592104514089 3.34999125682173  19.2179111499036 3.44994070009631  19.04 3.62785185000004  L 17.6888889 4.96000000000004  C 17.5097204283374 5.13916847166261  17.4090646290536 5.3821730674251  17.4090646290536 5.63555555  C 17.4090646290536 6.16319725540481  17.8368027445952 6.59093537094642  18.36444445 6.59093537094642  Z " fill-rule="nonzero" fill="#e4e4e4" stroke="none" />
  </g>
</svg>