<?xml version="1.0" encoding="utf-8"?>
<svg version="1.1" xmlns:xlink="http://www.w3.org/1999/xlink" width="15px" height="15px" xmlns="http://www.w3.org/2000/svg">
  <g transform="matrix(1 0 0 1 -5 -5 )">
    <path d="M 14.9074073958333 7.5  C 14.9074073958333 3.40900185949736  11.5909981405026 0.0925926041666205  7.5 0.0925926041666205  C 3.40900185949743 0.0925926041666205  0.0925926041666862 3.40900185949736  0.0925926041666862 7.5  C 0.0925926041666862 11.5909981405026  3.40900185949743 14.9074073958334  7.5 14.9074073958334  C 11.5909981405026 14.9074073958334  14.9074073958333 11.5909981405026  14.9074073958333 7.5  Z M 12.9320987760417 7.5  C 12.9320987760417 10.5000653135823  10.5000653135823 12.9320987760416  7.5 12.9320987760416  C 4.49993468641769 12.9320987760416  2.06790122395832 10.5000653135823  2.06790122395832 7.5  C 2.06790122395832 4.49993468641769  4.49993468641769 2.06790122395839  7.5 2.06790122395839  C 10.5000653135823 2.06790122395839  12.9320987760417 4.49993468641769  12.9320987760417 7.5  Z " fill-rule="nonzero" fill="#e4e4e4" stroke="none" transform="matrix(1 0 0 1 5 5 )" />
  </g>
</svg>