<?xml version="1.0" encoding="utf-8"?>
<svg version="1.1" xmlns:xlink="http://www.w3.org/1999/xlink" width="21px" height="18px" xmlns="http://www.w3.org/2000/svg">
  <g transform="matrix(1 0 0 1 -1809 -22 )">
    <path d="M 20.9747268493813 7.51333644341014  C 20.9747268493813 13.2097864363098  16.2847429258106 17.8289108626437  10.496416451613 17.8333333333333  C 10.4943856481943 17.8333344944603  10.4923548444754 17.8333350750239  10.4903240407141 17.8333350750239  C 4.69881673506893 17.8333350750239  0.00387242781084751 13.2129136932777  0.00387242781084751 7.51333507502389  C 0.00387242781084751 4.81075289678622  1.08112776904704 2.21601117953373  3.00415838709682 0.286666666666665  C 3.17707129165683 0.144758163765481  3.39508652981431 0.0670359009209172  3.62023481035453 0.0670359009209172  C 4.15149710841752 0.0670359009209172  4.58217029422553 0.490873004414432  4.58217029422553 1.01370256758758  C 4.58217029422553 1.23527706589709  4.50319444649631 1.44983174471879  4.35899709677415 1.62  C 2.80392499224263 3.19311740833952  1.93385400670263 5.30124104912368  1.93385400670263 7.49595904866469  C 1.93385400670263 12.1498785405722  5.76745194234491 15.9226257153313  10.4964346518639 15.9226257153313  C 15.2185243106217 15.9226257153313  19.0492609895794 12.160459310233  19.0589970967742 7.51333333333334  C 19.0672908872534 5.27668662497539  18.1645281597525 3.13004001579879  16.552545483871 1.55333333333333  C 16.4083481341488 1.38316507805212  16.3293722864196 1.16861039923042  16.3293722864196 0.947035900920916  C 16.3293722864196 0.424206337747766  16.7600454722276 0.000369234254250728  17.2913077702906 0.000369234254250728  C 17.5164560508308 0.000369234254250728  17.7344712889885 0.0780914970988142  17.9073841935483 0.219999999999999  C 19.8714866871544 2.15504882754879  20.9747268493813 4.77826461522811  20.9747268493813 7.51333644341014  Z " fill-rule="nonzero" fill="#ec808d" stroke="none" fill-opacity="0.698039215686274" transform="matrix(1 0 0 1 1809 22 )" />
  </g>
</svg>