<?xml version="1.0" encoding="utf-8"?>
<svg version="1.1" xmlns:xlink="http://www.w3.org/1999/xlink" width="24px" height="23px" xmlns="http://www.w3.org/2000/svg">
  <g>
    <path d="M 5.21333334374997 19.1130555468749  C 5.45832624034782 18.6883483191145  5.3131605948716 18.1454685767304  4.88888889843747 17.8997222109375  C 4.46418167067688 17.6547293143397  3.92130192829284 17.7998949598159  3.67555556250006 18.22416665625  L 2.78666667187502 19.7619444374999  C 2.69605105747191 19.9044895517608  2.64792525658153 20.0699023865508  2.64792525658153 20.2388115312802  C 2.64792525658153 20.7297313098664  3.04589436862027 21.1277004219052  3.53681414720644 21.1277004219052  C 3.86764144548241 21.1277004219052  4.1710978883084 20.9439741344682  4.32444445312506 20.650833328125  L 5.21333334374997 19.1130555468749  Z M 13.2133333359375 19.1130555468749  C 13.4583262325353 18.6883483191145  13.313160587059 18.1454685767304  12.888888890625 17.8997222109375  C 12.4641816628644 17.6547293143397  11.9213019204804 17.7998949598159  11.6755555546875 18.22416665625  L 10.7866666640625 19.7619444374999  C 10.6960510496595 19.9044895517608  10.647925248769 20.0699023865506  10.647925248769 20.2388115312802  C 10.647925248769 20.7297313098664  11.0458943608077 21.1277004219052  11.536814139394 21.1277004219052  C 11.86764143767 21.1277004219052  12.1710978804958 20.9439741344682  12.3244444453125 20.650833328125  L 13.2133333359375 19.1130555468749  Z M 21.213333328125 19.1130555468749  C 21.4583262247228 18.6883483191145  21.3131605792466 18.1454685767304  20.8888888828125 17.8997222109375  C 20.4641816550519 17.6547293143397  19.9213019126679 17.7998949598159  19.6755555468749 18.22416665625  L 18.78666665625 19.7619444374999  C 18.6960510418469 19.9044895517608  18.6479252409564 20.0699023865506  18.6479252409564 20.2388115312802  C 18.6479252409564 20.7297313098664  19.0458943529953 21.1277004219052  19.5368141315815 21.1277004219052  C 19.8676414298574 21.1277004219052  20.1710978726834 20.9439741344682  20.3244444374999 20.650833328125  L 21.213333328125 19.1130555468749  Z M 8.76888888281246 20.890833328125  C 9.01388177941031 20.4661261003644  8.86871613393409 19.9232463579804  8.44444443749996 19.6774999921875  C 8.01973720973936 19.4325070955896  7.47685746735533 19.5776727410659  7.23111110156255 20.0019444375  L 6.34222221093751 21.53972221875  C 6.2516065965344 21.6822673330107  6.20348079564402 21.8476801678007  6.20348079564402 22.0165893125302  C 6.20348079564402 22.5075090911165  6.60144990768276 22.9054782031552  7.09236968626893 22.9054782031552  C 7.4231969845449 22.9054782031552  7.72665342737089 22.7217519157182  7.87999999218755 22.4286111093749  L 8.76888888281246 20.890833328125  Z M 16.7688888984375 20.890833328125  C 17.0138817950353 20.4661261003644  16.8687161495591 19.9232463579804  16.444444453125 19.6774999921875  C 16.0197372253644 19.4325070955896  15.4768574829803 19.5776727410659  15.2311111171875 20.0019444375  L 14.3422222265625 21.53972221875  C 14.2516066121594 21.6822673330107  14.203480811269 21.8476801678007  14.203480811269 22.0165893125302  C 14.203480811269 22.5075090911165  14.6014499233078 22.9054782031552  15.0923697018939 22.9054782031552  C 15.42319700017 22.9054782031552  15.7266534429959 22.7217519157182  15.8800000078125 22.4286111093749  L 16.7688888984375 20.890833328125  Z M 18.66666665625 6.22416665625003  C 18.4273526711474 2.72710166680567  15.5207994401366 0.0126542247039002  12.0155555507812 0.0126542247039002  C 8.51031166142587 0.0126542247039002  5.60375843041506 2.72710166680567  5.36444444531246 6.22416665625003  C 2.4189258861869 6.22416665625003  0.0311112139540585 8.61198132848274  0.0311112139540585 11.5575  C 0.0311112139540585 14.5030186715172  2.4189258861869 16.89083334375  5.36444455770405 16.89083334375  L 18.66666665625 16.89083334375  C 21.6121852482943 16.89083334375  23.9999999205272 14.5030186715172  23.9999999205272 11.5575  C 23.9999999205272 8.61198132848274  21.6121852482943 6.22416665625003  18.6666665767772 6.22416665625003  Z M 18.66666665625 15.1130555625001  C 18.66666665625 15.1130555625001  18.66666665625 15.1130555625001  18.66666665625 15  L 5.33333334374999 15  C 5.33333334374999 15.1130555625001  5.33333334374999 15.1130555625001  5.33333334374999 15.1130555625001  C 3.36965422940518 15.1130555625001  1.77777778124995 13.5211791143448  1.77777778124995 11.5575  C 1.77777778124995 9.59382088565521  3.36965422940518 8.00194443749998  5.33333334374999 8.00194443749998  C 5.5797176388452 8.00199967755725  5.82544701404848 8.02731725259413  6.06666665625003 8.07749999999994  C 6.1263547744103 8.08994777945658  6.18716525776706 8.09622121722623  6.24813753558997 8.09622121722623  C 6.73905731417615 8.09622121722623  7.13702642621489 7.69825210518749  7.13702642621489 7.20733232660132  C 7.13702642621489 7.18030906862181  7.13579411875383 7.15329986678197  7.13333334375004 7.12638888281253  C 7.13333334375004 6.97527778125004  7.11111112499995 6.82416665625  7.11111110156253 6.68194443750001  C 7.11111110156253 3.98188565527588  9.29994121777587 1.79305553906254  12 1.79305553906254  C 14.7000587822241 1.79305553906254  16.8888888984375 3.98188565527588  16.8888888984375 6.68194443750001  C 16.8888888984375 6.83749999218747  16.8888888984375 6.98861109374996  16.86666665625 7.12638888281253  C 16.8642058812462 7.15329986678197  16.8629735737851 7.18030906862181  16.8629735737851 7.20733232660132  C 16.8629735737851 7.69825210518749  17.2609426858239 8.09622121722623  17.75186246441 8.09622121722623  C 17.8128347422329 8.09622121722623  17.8736452255897 8.08994777945658  17.93333334375 8.07749999999994  C 18.1745529859515 8.02731725259413  18.4202823611548 8.00199967755725  18.66666665625 8.00194443749998  C 20.6303457705948 8.00194443749998  22.22222221875 9.59382088565521  22.22222221875 11.5575  C 22.22222221875 13.5211791143448  20.6303457705948 15.1130555625001  18.66666665625 15.1130555625001  Z " fill-rule="nonzero" fill="#e4e4e4" stroke="none" />
  </g>
</svg>