<?xml version="1.0" encoding="utf-8"?>
<svg version="1.1" xmlns:xlink="http://www.w3.org/1999/xlink" width="24px" height="18px" xmlns="http://www.w3.org/2000/svg">
  <g>
    <path d="M 18.5345646377119 6.86878329066082  C 18.5323488585949 6.86878329066082  18.5301330796946 6.86878482066818  18.5279173023256 6.86878788068186  C 18.2904584643943 3.05380789219714  15.4064366537789 0.092592500813404  11.9283651976744 0.092592500813404  C 8.45029374156989 0.092592500813404  5.5662719309545 3.05380789219714  5.32881309302326 6.86878788068186  C 5.31670806877498 6.86869654961864  5.30460279512045 6.86865088368383  5.2924974858362 6.86865088368383  C 2.36981229239278 6.86865088368383  0.000507811417589567 9.47353961702874  0.000507811417589567 12.6868327132293  C 0.000507811417589567 14.8216161931117  1.06388109252469 16.7849588877913  2.77101809302323 17.80212121875  C 2.89143867326636 17.8666886643108  3.02365597937335 17.9002459853417  3.15763394621211 17.9002459853417  C 3.64474814511933 17.9002459853417  4.03963222528189 17.4660978631176  4.03963222528189 16.9305490137508  C 4.03963222528189 16.5908031047053  3.87790623645385 16.2758358750939  3.61332644186047 16.1003030369319  C 2.47506866135999 15.4222514890994  1.76602098115375 14.1132556813215  1.76602098115375 12.689932801961  C 1.76602098115375 10.547737404494  3.3455573018039 8.81114491559738  5.2940140974328 8.81114491559738  C 5.53987918349971 8.81114491559738  5.78507077697935 8.83940167349946  6.02559172093022 8.89545454261365  C 6.08481714050017 8.90903393838448  6.14515622476106 8.91587768867865  6.20565584926752 8.91587768867865  C 6.69277004817475 8.91587768867865  7.0876541283373 8.4817295664545  7.0876541283373 7.94618071708775  C 7.0876541283373 7.91670079929198  7.08643137364723 7.88723621546673  7.08398967441859 7.8578787784091  C 7.08398967441859 7.69303030397722  7.06193972093024 7.52818180397721  7.0619396976744 7.37303029261357  C 7.0619396976744 4.42751154162365  9.23380213856834 2.03969686939081  11.9129302325581 2.03969686939081  C 14.592058326548 2.03969686939081  16.7639207674418 4.42751154162365  16.7639207674418 7.37303021314072  C 16.7639207674418 7.54272726136363  16.7639207674418 7.70757573579551  16.7418707906977 7.8578787784091  C 16.7394290914691 7.88723621546673  16.738206336779 7.91670079929198  16.738206336779 7.94618071708775  C 16.738206336779 8.4817295664545  17.1330904169415 8.91587768867865  17.6202046158488 8.91587768867865  C 17.6807042403552 8.91587768867865  17.7410433246161 8.90903393838448  17.8002687441861 8.89545454261365  C 18.0398297844018 8.83986486515179  18.2840034826373 8.81184351451444  18.5288422597315 8.81184351451444  C 20.4772990553604 8.81184351451444  22.0568353760105 10.5484360034109  22.0568353760105 12.6906314008781  C 22.0568353760105 14.1244556037253  21.3373856308322 15.4413270330677  20.1860740697675 16.1148484943182  C 19.9058158884291 16.2857913132018  19.7319574745649 16.6104268640012  19.7319574745649 16.9627935993847  C 19.7319574745649 17.4983424487515  20.1268415547274 17.9324905709756  20.6139557536347 17.9324905709756  C 20.7534394229156 17.9324905709756  20.8909343625915 17.8961195946834  21.0151524651162 17.8263636392045  C 22.7450417619507 16.8171171951842  23.8265543121305 14.840052264187  23.8265543121305 12.6869651202063  C 23.8265543121305 9.47367202400574  21.4572498311554 6.86878329066082  18.5345646377119 6.86878329066082  Z " fill-rule="nonzero" fill="#e4e4e4" stroke="none" />
  </g>
</svg>