<?xml version="1.0" encoding="utf-8"?>
<svg version="1.1" xmlns:xlink="http://www.w3.org/1999/xlink" width="28px" height="16px" xmlns="http://www.w3.org/2000/svg">
  <g transform="matrix(1 0 0 1 -6 -65 )">
    <path d="M 27.9727095482456 8.06201548837203  C 27.9727095482456 3.56382427906976  21.6849902499999 0.124030976744336  14 0.124031023255725  C 6.31500975000006 0.124031023255725  0.0272904517544248 3.56382432558132  0.0272904517544248 8.06201548837191  C 0.0272904517544248 12.5602066511626  6.31500975000006 16  14.0000000000001 15.9999999999999  C 21.6849902499999 15.9999999999999  27.9727095482453 12.5602066976746  27.9727095482456 8.06201548837203  Z M 26.2261208508774 8.06201548837225  C 26.2261208508774 10.9726097674418  20.8116958859648 13.3540051627907  13.9999999999999 13.3540051627907  C 7.18830408333315 13.3540051627907  1.77387914912265 10.9726098139533  1.77387914912265 8.06201548837203  C 1.77387914912265 5.1514211627906  7.18830411403519 2.7700258139534  14 2.77002586046513  C 20.8116958859648 2.77002590697668  26.2261208508774 5.15142120930238  26.2261208508774 8.06201548837225  Z " fill-rule="nonzero" fill="#b43008" stroke="none" transform="matrix(1 0 0 1 6 65 )" />
  </g>
</svg>