<?xml version="1.0" encoding="utf-8"?>
<svg version="1.1" xmlns:xlink="http://www.w3.org/1999/xlink" width="14px" height="9px" xmlns="http://www.w3.org/2000/svg">
  <g transform="matrix(1 0 0 1 -6 -15 )">
    <path d="M 2.73362962152778 4.1246511540698  C 2.98769632911072 3.65055936494171  2.83715417824645 3.04455407111756  2.39716871527778 2.77023254651163  C 1.9567315901927 2.49675210379775  1.39374519068334 2.65879747549213  1.13889710763891 3.13240309011623  L 0.217086430555544 4.84899224127901  C 0.148106859151881 4.99093116645071  0.112077640833046 5.14873659571482  0.112077640833046 5.30892331699707  C 0.112077640833046 5.8569267907677  0.524786349613994 6.3011713809505  1.03388834222191 6.3011713809505  C 1.34921091604258 6.3011713809505  1.64265601731586 6.12767965183738  1.81181892013891 5.84124030523258  L 2.73362962152778 4.1246511540698  Z M 13.7953580138889 4.1246511540698  C 14.0494247214718 3.65055936494171  13.8988825706076 3.04455407111756  13.4588971076389 2.77023254651163  C 13.0184599879759 2.49675212158094  12.4554736066553 2.65879749117019  12.2006255243055 3.13240309011623  L 11.2788148229167 4.84899224127901  C 11.2098351784627 4.99093122542354  11.1738059202581 5.14873673939992  11.1738059202581 5.30892354938484  C 11.1738059202581 5.85692702315561  11.5865146290391 6.30117161333841  12.095616621647 6.30117161333841  C 12.4109392863539 6.30117161333841  12.7043844590739 6.12767978493181  12.8735473368055 5.84124030523258  L 13.7953580138889 4.1246511540698  Z M 9.77165432638889 4.47689922383714  C 9.77405722421985 4.43559600605891  9.77405722421985 4.3941714270806  9.77165432638889 4.35286820930236  L 9.77165432638889 4.25860464244184  C 9.7640475974627 4.22503395317528  9.75481691185464 4.19191389685675  9.74399999999997 4.15937985174413  C 9.74399999999997 4.13457365406982  9.74399999999997 4.10480620639542  9.71634567361112 4.08000000872096  C 9.69987900118591 4.04410205952544  9.68140902623823 4.00930976584597  9.66103704513892 3.97581394186042  L 9.62877365624998 3.92124032267446  C 9.6035593019215 3.88278589023061  9.57583497961154 3.84631136166994  9.54581070138886 3.81209303197673  L 9.51354733680556 3.77736433430226  L 9.41675719444444 3.68806201744181  L 9.37066666666665 3.65333334593023  L 9.31074897569442 3.62852712209302  L 9.24161315972223 3.59379845058143  L 9.18169546875001 3.56403100290704  L 9.07568724999999 3.51937985755819  L 6.7573333333333 3.51937985755819  L 7.8035884791667 1.53488372965119  C 7.87256812362061 1.39294474550666  7.90859738182521 1.23513923153043  7.90859738182521 1.07495242154536  C 7.90859738182521 0.526948947774729  7.49588867304426 0.0827043575917834  6.98678668043634 0.0827043575917834  C 6.67146401572951 0.0827043575917834  6.37801884300939 0.256196185998387  6.20885596527776 0.542635665697617  L 4.36523456249997 3.9807751918605  C 4.36523456249997 3.9807751918605  4.36523456249997 4.0254263633721  4.33758023611112 4.04527131104648  L 4.30531687152775 4.1246511540698  C 4.29278384289629 4.15871209515082  4.28201289500678 4.1934940440099  4.27305350694444 4.2288372209302  L 4.27305350694444 4.31317828779071  C 4.27119311391726 4.34953316211439  4.27119311391726 4.38597070416459  4.27305350694444 4.42232557848843  L 4.27305350694444 4.51162789534887  C 4.27135851036065 4.54633262101999  4.27135851036065 4.58110923653814  4.27305350694444 4.61581396220926  L 4.27305350694444 4.7051162790697  C 4.28066022707682 4.73868697667592  4.2898909045762 4.77180704174265  4.30070780902779 4.80434109593016  C 4.30070780902779 4.82914729360462  4.30070780902779 4.85891474127902  4.32836213541665 4.88372093895349  C 4.34482881658805 4.91961887987146  4.363298799647 4.95441116480361  4.38367078819441 4.98790697965113  L 4.41593415277779 5.04248062499999  C 4.44114850710633 5.08093505744383  4.46887282941623 5.11740958600451  4.49889710763891 5.15162791569771  L 4.53116049652778 5.18635658720929  L 4.62795061458332 5.27565890406973  L 4.67404114236112 5.31038760174421  L 4.71091356944444 5.34015504941861  L 4.78004938541664 5.37488372093019  L 4.83996707638886 5.40465116860459  L 4.94597531944444 5.43937984011632  L 7.26432921180556 5.43937984011632  L 6.21807406597224 7.38914729651159  C 6.12410231770237 7.54826742405841  6.07419407974189 7.73291430940546  6.07419407974189 7.92146405235933  C 6.07419407974189 8.46946752612996  6.4869027885229 8.91371211631276  6.99600478113082 8.91371211631276  C 7.33908494230591 8.91371211631276  7.65378051264387 8.70862230708074  7.8128065798611 8.38139536046516  L 9.6564279826389 4.94325580813953  C 9.6564279826389 4.94325580813953  9.6564279826389 4.89860463662793  9.68408230902775 4.87875968895355  L 9.71634567361112 4.79937984593023  C 9.72887870962243 4.76531891394164  9.73964966562116 4.73053697383281  9.74860906249999 4.69519380523258  L 9.74860906249999 4.61085271220933  C 9.75046945552717 4.57449783788549  9.75046945552717 4.53806029583544  9.74860906249999 4.5017054215116  L 9.77165432638889 4.51162789534887  L 9.77165432638889 4.47689922383714  Z " fill-rule="nonzero" fill="#e4e4e4" stroke="none" transform="matrix(1 0 0 1 6 15 )" />
  </g>
</svg>