<?xml version="1.0" encoding="utf-8"?>
<svg version="1.1" xmlns:xlink="http://www.w3.org/1999/xlink" width="22px" height="22px" xmlns="http://www.w3.org/2000/svg">
  <g transform="matrix(1 0 0 1 -989 -199 )">
    <path d="M 7.575365342439 7.33131953560977  C 7.575365342439 6.90649756097559  7.2954281990244 6.6262712195122  6.87725760780495 6.6262712195122  C 6.45995461073176 6.6262712195122  6.0386029268293 6.90649756097559  6.0386029268293 7.33131953560977  C 6.0386029268293 7.75440636487804  6.45995461073176 8.03810299707317  6.87725760780495 8.03810299707317  C 7.2951390009755 8.03810299707317  7.575365342439 7.75440636487804  7.575365342439 7.33131953560977  Z M 9.94123911804877 7.33160873365853  C 9.94152831609745 7.75440636487804  10.3611448546342 8.03839219512196  10.7784478517074 8.03839219512196  C 11.1997995356098 8.03839219512196  11.4782907317074 7.75440636487804  11.4782907317074 7.33160873365853  C 11.4782907317074 6.90649756097562  11.1997995356098 6.62656041756097  10.7784478517074 6.62656041756097  C 10.3611448546342 6.62656041756097  9.94123911804877 6.90678675902439  9.94123911804877 7.33160873365853  Z M 21.9788257834146 11  C 21.9788257834146 4.93016441365853  17.0591038790244 0.0107317073170634  10.9892682926829 0.0107317073170634  C 4.91972190439014 0.0107317073170634  0 4.93016441365853  0 11  C 0 17.0695463882927  4.91972190439014 21.9892682926829  10.9892682926829 21.9892682926829  C 17.0591038790244 21.9892682926829  21.9788257834146 17.0695463882927  21.9788257834146 11  Z M 9.20900680780483 13.8135418809756  C 9.03722722341467 13.8277122419512  8.86486922146332 13.8349420214634  8.6893301053658 13.8349420214634  C 7.99295751609748 13.8349420214634  7.4325048331707 13.6923707317073  6.73671063999996 13.5512453892683  L 4.7878506634147 14.5425930556098  L 5.34454385756089 12.8424375843902  C 3.94919598243905 11.8536926360976  3.11401159219508 10.5809618360976  3.11401159219508 9.02945068487804  C 3.11401159219508 6.34055024390244  5.62505939707307 4.22367015024389  8.6893301053658 4.22367015024389  C 11.4308633463415 4.22367015024389  13.8320184682927 5.9157282692683  14.3135219512194 8.19050680585366  C 14.1379828565853 8.17055261268291  13.9581058770732 8.15753900097562  13.7767829502438 8.15753900097562  C 11.1283692917073 8.15753900097562  9.03722720195128 10.1616345170732  9.03722720195128 12.6281468526829  C 9.03722720195128 13.0405336117073  9.10113846829267 13.4361472702439  9.20900680780483 13.8135418809756  Z M 18.8651033463414 12.5622112429268  C 18.8648141697561 13.8349420214634  18.0319433209756 14.9633663648781  16.9124839024389 15.8130103141463  L 17.3318112429267 17.2271556331707  L 15.8031461795122 16.3789576312195  C 15.2441394439024 16.5200829736585  14.686000302439 16.6612083160976  14.1307530556098 16.6612083160976  C 11.4785799082927 16.6612083160976  9.38714864195117 14.8239761678049  9.38714864195117 12.5622112429268  C 9.38714864195117 10.3024706614634  11.4785799082927 8.46147902439026  14.1307530556098 8.46147902439026  C 16.6342818829269 8.46147902439026  18.8651033463414 10.3021814634146  18.8651033463414 12.5622112429268  Z M 16.3578150517073 11.2894804643902  C 16.3575258536584 11.0072297795122  16.0775887102438 10.7232439492683  15.658261369756 10.7232439492683  C 15.3835296624391 10.7232439492683  15.1067736117072 11.0072297795122  15.1067736117072 11.2894804643902  C 15.1067736117072 11.57288792  15.3835296624391 11.8534034380488  15.658261369756 11.8534034380488  C 16.0775887102438 11.8534034380488  16.3578150517073 11.5728878985366  16.3578150517073 11.2894804643902  Z M 13.289784854634 11.2894804643902  C 13.289784854634 11.0072297795122  13.0147639492684 10.7232439492683  12.59167712 10.7232439492683  C 12.3154994653657 10.7232439492683  12.0352731239025 11.0072297795122  12.0352731239025 11.2894804643902  C 12.0352731239025 11.57288792  12.3154994653657 11.8534034380488  12.59167712 11.8534034380488  C 13.0147639492684 11.8534034380488  13.289784854634 11.5728878985366  13.289784854634 11.2894804643902  Z " fill-rule="nonzero" fill="#999999" stroke="none" transform="matrix(1 0 0 1 989 199 )" />
  </g>
</svg>