<?xml version="1.0" encoding="utf-8"?>
<svg version="1.1" xmlns:xlink="http://www.w3.org/1999/xlink" width="22px" height="22px" xmlns="http://www.w3.org/2000/svg">
  <g transform="matrix(1 0 0 1 -1069 -199 )">
    <path d="M 22 11  C 22 4.92249999999999  17.0774999999999 0  11 0  C 4.92250000000013 0  0 4.92249999999999  0 11  C 0 17.0775  4.92250000000013 22  11 22  C 17.0774999999999 22  22 17.0775  22 11  Z M 16.665 12.0725  C 17.105 13.1725  17.1875 14.2175  16.8025 14.41  C 16.5550000000001 14.5475  16.1424999999999 14.245  15.7574999999999 13.6675  C 15.6200000000001 14.2725  15.2350000000001 14.8225  14.7124999999999 15.2625  C 15.2625 15.455  15.6200000000001 15.8125  15.6200000000001 16.17  C 15.6200000000001 16.8025  14.6299999999999 17.2975  13.4200000000001 17.2975  C 12.3199999999999 17.2975  11.4125000000001 16.885  11.2474999999999 16.3625  C 11.1925000000001 16.3625  11.0275000000001 16.3625  10.9724999999999 16.3625  C 10.8075000000001 16.885  9.89999999999986 17.2975  8.79999999999995 17.2975  C 7.59000000000015 17.2975  6.60000000000014 16.8025  6.60000000000014 16.17  C 6.60000000000014 15.785  6.95749999999998 15.455  7.50749999999994 15.2625  C 6.98500000000013 14.8225  6.60000000000014 14.2725  6.46249999999986 13.6675  C 6.07749999999987 14.2175  5.66499999999996 14.52  5.41750000000002 14.41  C 5.03250000000003 14.2175  5.11500000000001 13.1725  5.58249999999998 12.1  C 5.94000000000005 11.2475  6.43499999999995 10.615  6.81999999999994 10.4775  C 6.81999999999994 10.4225  6.81999999999994 10.3675  6.81999999999994 10.3125  C 6.81999999999994 9.98250000000002  6.90250000000015 9.68000000000001  7.06749999999988 9.4325  C 7.06749999999988 9.405  7.06749999999988 9.405  7.06749999999988 9.37750000000003  C 7.06749999999988 9.21250000000001  7.09500000000003 9.07499999999999  7.17750000000001 8.96499999999998  C 7.31500000000005 6.70999999999998  8.77250000000004 4.94999999999999  11.1375 4.94999999999999  C 13.5025000000001 4.94999999999999  14.96 6.70999999999998  15.0699999999999 8.9375  C 15.125 9.04749999999999  15.1800000000001 9.21250000000001  15.1800000000001 9.34999999999999  C 15.1800000000001 9.37749999999997  15.1800000000001 9.37749999999997  15.1800000000001 9.405  C 15.345 9.65249999999998  15.4275 9.95499999999998  15.4275 10.285  C 15.4275 10.34  15.4275 10.395  15.4275 10.45  C 15.8125 10.5875  16.3075000000001 11.22  16.665 12.0725  Z " fill-rule="nonzero" fill="#999999" stroke="none" transform="matrix(1 0 0 1 1069 199 )" />
  </g>
</svg>