<?xml version="1.0" encoding="utf-8"?>
<svg version="1.1" xmlns:xlink="http://www.w3.org/1999/xlink" width="22px" height="22px" xmlns="http://www.w3.org/2000/svg">
  <g transform="matrix(1 0 0 1 -1149 -199 )">
    <path d="M 13.230984950244 12.4893767765853  C 13.2309068663415 11.1905833385366  11.6526795804878 10.3869475707317  9.70327924097569 10.4768910614634  C 7.75442542439032 10.5668345521951  6.17939925658538 11.6105538731707  6.17939925658538 12.9125484292683  C 6.17939925658538 14.2124349346342  7.75434734048781 15.1897116156098  9.70327924097569 15.0989092878049  C 11.6526796019511 15.0099026965854  13.230984950244 13.7894194282927  13.230984950244 12.4893767765853  Z M 9.31422677658543 11.3343211434146  C 11.2772123414634 11.1068078321951  11.6269925951219 12.9807868273171  11.0304142595121 13.7513964526829  C 10.4336016936586 14.5218499317073  9.25301522146356 14.8975514224391  8.106469875122 14.276613377561  C 7.56087513365856 13.9807055219512  7.58109680390248 13.3993519804878  7.58109680390248 13.3993519804878  C 7.58109680390248 13.3993519804878  7.35475462243903 11.5636302126829  9.31422677658543 11.3343211434146  Z M 10.0776534341464 12.5534771356098  C 10.0121476936586 12.445263857561  9.86107073170729 12.4138773268293  9.71600560780485 12.522090604878  C 9.59092792390243 12.6130490790244  9.56516287609747 12.7870803902439  9.63363548292682 12.8954498146342  C 9.6989069717074 13.0065518965854  9.85115508487797 13.0192782634146  9.97513970146338 12.9267582614634  C 10.0963916604878 12.8310371414634  10.1436276136585 12.6644230712195  10.0776534341464 12.5534771356098  Z M 9.48130928585374 13.2825503746342  C 9.48130930731713 12.9764145580488  9.20749694243909 12.7341448917073  8.78705794731695 12.7745101482927  C 8.42103789463408 12.8125331453658  8.1591711434146 13.131551475122  8.1591711434146 13.4365942243903  C 8.1591711434146 13.7424177268292  8.4542201619513 13.9536912604878  8.81961560780496 13.9106714087805  C 9.1846206770731 13.8689788546342  9.48130928585374 13.5873588936585  9.48130928585374 13.2825503746342  Z M 21.9786145404878 11.0000780195122  C 21.9786145190244 4.93084392390247  17.0585023024391 0.0107317073170634  10.9892682282928 0.0107317073170634  C 4.92011221658527 0.0107317073170634  0 4.93084392390247  0 11.0000780195122  C 0 17.0692340097561  4.92011221658527 21.9892681639025  10.9892682282928 21.9892681639025  C 17.0585023024391 21.9892681639025  21.9786145404878 17.0692340097561  21.9786145404878 11.0000780195122  Z M 13.8517668273171 10.8741414985366  C 14.3163968253659 10.9670518770732  15.7760267258536 11.6431896175609  14.9727032721951 13.352272195122  C 14.1698482575609 15.058700177561  11.5204189287806 15.8890379356098  9.55790182439023 15.7352283160975  C 7.69219888585371 15.5885236019512  5.2936275941463 14.9686786243903  5.0458925912194 12.7112686478049  C 5.0458925912194 12.7112686478049  4.91417846243894 11.6886298341464  5.90566497560962 10.3654766868293  C 5.90566497560962 10.3654766868293  7.33187837853666 8.37461800195123  8.99224155902448 7.80653737170732  C 10.654400497561 7.24111133658536  10.8481849970733 8.19793211707318  10.8481849970733 8.76351429853662  C 10.7598030126828 9.24305679804877  10.5941258419512 9.52553557463415  11.218265004878 9.33159492878048  C 11.218265004878 9.33159492878048  12.8519262165853 8.57371167024388  13.5245505248781 9.24602368585366  C 14.0669441482926 9.78857347707316  13.6143378692684 10.5355261053659  13.6143378692684 10.5355261053659  C 13.6143378692684 10.5355261053659  13.389088755122 10.7844322380488  13.8517668273171 10.8741414985366  Z M 14.4831670634146 9.75859230634148  C 14.4831670419512 9.75867039024391  14.8007019492682 8.32058943609755  13.362074472195 8.63773394536588  C 13.1841393736586 8.63773394536588  13.0418069287805 8.49415226536584  13.0418069287805 8.31785677853657  C 13.0418069287805 8.13820400585368  13.1840613112195 7.99423197073168  13.362074472195 7.99423197073168  C 13.362074472195 7.99423197073168  15.3647226243902 7.62415196292679  15.1253417619512 9.77569094243901  C 15.1253417619512 9.7884173307317  15.1237802341464 9.79856718634144  15.1210475765854 9.81004436097561  C 15.0987959395122 9.96252670439026  14.9641149229269 10.0794063941463  14.8064795785365 10.0794063941463  C 14.6277637268292 10.0794063941463  14.4831670634146 9.93691778146342  14.4831670634146 9.75859230634148  Z M 14.573032470244 6.3232504097561  C 15.8121758809755 6.61236569560975  17.5125920253658 7.80997271999999  16.7475257775611 10.3590744507317  L 16.7447931199999 10.3590744507317  C 16.691701475122 10.7233768292683  16.5110337190245 10.7523430165854  16.2955441053659 10.7523430165854  C 16.0381276858536 10.7523430165854  15.8304456682927 10.5905696546342  15.8304456682927 10.3328409209756  C 15.8304456682927 10.1093875434146  15.9228875863414 9.88257690146341  15.9228875863414 9.88257690146341  C 15.9500580156098 9.78849537170728  16.1676557014634 9.20433111024391  15.779383990244 8.33128581463416  C 15.0666286341464 7.13484994146341  13.6327637814634 7.11759515902438  13.4631828234146 7.18591159804879  C 13.2921184214633 7.25258846829269  13.0401673170732 7.28647342634144  13.0401673170732 7.28647342634144  C 12.7807990146341 7.28647342634144  12.5729608292684 7.07543412292685  12.5729608292684 6.81926693853657  C 12.5729608292684 6.60408961756099  12.7167767395122 6.42193841756097  12.9137623570732 6.36603603121952  C 12.9137623570732 6.36603603121952  12.918056542439 6.35916535609755  12.9247710712195 6.3576038282927  C 12.9389809034146 6.35471502439023  12.9537372585366 6.34066133853662  12.9689620526829 6.33941212487804  C 13.168602265366 6.30076452097558  13.8804207004878 6.16100856585362  14.573032470244 6.3232504097561  Z " fill-rule="nonzero" fill="#999999" stroke="none" transform="matrix(1 0 0 1 1149 199 )" />
  </g>
</svg>