<?xml version="1.0" encoding="utf-8"?>
<svg version="1.1" xmlns:xlink="http://www.w3.org/1999/xlink" width="22px" height="23px" xmlns="http://www.w3.org/2000/svg">
  <g transform="matrix(1 0 0 1 -1229 -199 )">
    <path d="M 14.6069196428571 5.71361607142859  C 14.6069196428571 5.55892857142857  14.4816964285715 5.43370535714286  14.3270089285713 5.43370535714286  L 7.58950892857138 5.43370535714286  C 7.43482142857147 5.43370535714286  7.30959821428564 5.55892857142857  7.30959821428564 5.71361607142859  L 7.30959821428564 15.2575892857143  C 7.30959821428564 15.4122767857143  7.43482142857147 15.5375  7.58950892857138 15.5375  L 14.3270089285713 15.5375  C 14.4816964285715 15.5375  14.6069196428571 15.4122767857143  14.6069196428571 15.2575892857143  L 14.6069196428571 5.71361607142859  Z M 10.2412946428572 16.9444196428572  C 10.2412946428572 17.3403880840305  10.5622904873981 17.6613839285714  10.9582589285715 17.6613839285714  C 11.3542273697446 17.6613839285714  11.6752232142858 17.3403880840305  11.6752232142858 16.9444196428572  C 11.6752232142858 16.5484512016838  11.3542273697446 16.2274553571428  10.9582589285715 16.2274553571428  C 10.5622904873981 16.2274553571428  10.2412946428572 16.5484512016838  10.2412946428572 16.9444196428572  Z M 10.1160714285713 4.59151785714283  C 10.1160714285713 4.74620535714286  10.2412946428572 4.87142857142857  10.3959821428571 4.87142857142857  L 11.5180803571429 4.87142857142857  C 11.6727678571428 4.87142857142857  11.7979910714287 4.74620535714286  11.7979910714287 4.59151785714283  C 11.7979910714287 4.43683035714287  11.6727678571428 4.31160714285716  11.5180803571429 4.31160714285716  L 10.3959821428571 4.31160714285716  C 10.2412946428572 4.31160714285716  10.1160714285713 4.43683035714287  10.1160714285713 4.59151785714283  Z M 21.9140625 11.0491071428571  C 21.9140625 4.99910714285716  17.0082589285714 0.0933035714285779  10.9582589285715 0.0933035714285779  C 4.90825892857151 0.0933035714285779  0.0024553571429351 4.99665178571428  0.0024553571429351 11.0491071428571  C 0.0024553571429351 17.1015625  4.90825892857151 22.0049107142857  10.9582589285715 22.0049107142857  C 17.0082589285714 22.0049107142857  21.9140625 17.0991071428571  21.9140625 11.0491071428571  Z M 15.7290178571429 16.6620535714285  C 15.7314732142856 17.5926339285714  14.9776785714287 18.3464285714285  14.0470982142858 18.3464285714285  L 7.86941964285711 18.3464285714285  C 6.93883928571427 18.3464285714285  6.18504464285706 17.5926339285714  6.18504464285706 16.6620535714285  L 6.18504464285706 5.43370535714286  C 6.18504464285706 4.50312500000001  6.93883928571427 3.74933035714287  7.86941964285711 3.74933035714287  L 14.0446428571429 3.74933035714287  C 14.9752232142857 3.74933035714287  15.7290178571429 4.50312500000001  15.7290178571429 5.43370535714286  L 15.7290178571429 16.6620535714285  Z " fill-rule="nonzero" fill="#999999" stroke="none" transform="matrix(1 0 0 1 1229 199 )" />
  </g>
</svg>