<?xml version="1.0" encoding="utf-8"?>
<svg version="1.1" xmlns:xlink="http://www.w3.org/1999/xlink" width="15px" height="13px" xmlns="http://www.w3.org/2000/svg">
  <g transform="matrix(1 0 0 1 -1313 -204 )">
    <path d="M 14.8725925925926 6.10670422535213  C 14.8725925925926 2.75819718309856  11.568888888889 0.0424788732394745  7.49481481481484 0.0424788732394745  C 5.81481481481478 0.0424788732394745  4.25925925925935 0.508281690140848  3.01481481481483 1.29047887323941  C 1.75851851851849 2.07853521126765  0.825185185185092 3.1947042253521  0.389629629629553 4.47785915492955  C 0.214814814814872 4.99346478873235  0.119999999999891 5.54129577464789  0.119999999999891 6.10377464788735  C 0.119999999999891 8.21307042253522  1.42666666666673 10.0616338028169  3.41185185185191 11.1514366197183  C 3.5896296296296 11.2481126760564  3.68148148148157 11.4590422535211  3.60444444444443 11.6465352112676  C 3.45629629629639 12.0039436619718  3.26666666666665 12.3467042253521  3.04148148148147 12.6689577464789  C 2.97037037037035 12.7685633802816  3.05925925925931 12.9062535211268  3.1807407407407 12.8740281690141  C 3.86222222222227 12.6953239436619  4.49925925925936 12.4375211267605  5.07703703703714 12.112338028169  C 5.2874074074075 11.9922253521127  5.52740740740751 11.9541408450705  5.76444444444451 12.001014084507  C 6.31851851851843 12.1094084507042  6.89925925925922 12.168  7.49777777777786 12.168  C 11.5718518518518 12.168  14.8725925925926 9.45228169014081  14.8725925925926 6.10670422535213  Z " fill-rule="nonzero" fill="#ffffff" stroke="none" transform="matrix(1 0 0 1 1313 204 )" />
  </g>
</svg>