<?xml version="1.0" encoding="utf-8"?>
<svg version="1.1" xmlns:xlink="http://www.w3.org/1999/xlink" width="22px" height="22px" xmlns="http://www.w3.org/2000/svg">
  <g transform="matrix(1 0 0 1 -1389 -199 )">
    <path d="M 19.4519774088983 11.9943502669491  L 19.4519774088983 10.0056497097457  L 17.4632768516949 10.0056497097457  L 17.4632768516949 11.9943502669491  L 19.4519774088983 11.9943502669491  Z M 13.4858757139831 15.4745762711865  L 13.4858757139831 13.4858757139831  L 11.4971751567797 13.4858757139831  L 11.4971751567797 15.4745762711865  L 13.4858757139831 15.4745762711865  Z M 13.4858757139831 18.9548022521186  L 13.4858757139831 16.9661016949152  L 11.4971751567797 16.9661016949152  L 11.4971751567797 18.9548022521186  L 13.4858757139831 18.9548022521186  Z M 16.4689265614406 15.4745762711865  L 16.4689265614406 13.4858757139831  L 14.4802260042372 13.4858757139831  L 14.4802260042372 15.4745762711865  L 16.4689265614406 15.4745762711865  Z M 13.4858757139831 11.9943502669491  L 13.4858757139831 10.0056497097457  L 11.4971751567797 10.0056497097457  L 11.4971751567797 11.9943502669491  L 13.4858757139831 11.9943502669491  Z M 19.4519774088983 15.4745762711865  L 19.4519774088983 13.4858757139831  L 17.4632768516949 13.4858757139831  L 17.4632768516949 15.4745762711865  L 19.4519774088983 15.4745762711865  Z M 16.4689265614406 11.9943502669491  L 16.4689265614406 10.0056497097457  L 14.4802260042372 10.0056497097457  L 14.4802260042372 11.9943502669491  L 16.4689265614406 11.9943502669491  Z M 10.5028248665254 11.9943502669491  L 10.5028248665254 10.0056497097457  L 8.51412430932203 10.0056497097457  L 8.51412430932203 11.9943502669491  L 10.5028248665254 11.9943502669491  Z M 4.5367231483051 15.4745762711865  L 4.53672317161022 13.4858757139831  L 2.5480225911017 13.4858757139831  L 2.5480225911017 15.4745762711865  L 4.5367231483051 15.4745762711865  Z M 7.51977401906777 18.9548022521186  L 7.51977401906777 16.9661016949152  L 5.53107346186437 16.9661016949152  L 5.53107346186437 18.9548022521186  L 7.51977401906777 18.9548022521186  Z M 4.5367231483051 11.9943502669491  L 4.53672317161022 10.0056497097457  L 2.5480225911017 10.0056497097457  L 2.5480225911017 11.9943502669491  L 4.5367231483051 11.9943502669491  Z M 4.5367231483051 18.9548022521186  L 4.53672317161022 16.9661016949152  L 2.5480225911017 16.9661016949152  L 2.5480225911017 18.9548022521186  L 4.5367231483051 18.9548022521186  Z M 10.5028248665254 15.4745762711865  L 10.5028248665254 13.4858757139831  L 8.51412430932203 13.4858757139831  L 8.51412430932203 15.4745762711865  L 10.5028248665254 15.4745762711865  Z M 21.9378530995763 4.03954801483053  C 21.9378530995763 2.9457627118644  21.042937845339 2.05084745762713  19.9491525423729 2.05084745762713  L 17.9604519851695 2.05084745762713  L 17.9604519851695 0.559322033898297  C 17.9604519851695 0.261016949152577  17.7615819364407 0.062146900423727  17.4632768516949 0.062146900423727  C 17.1649717669492 0.062146900423727  16.9661017182203 0.261016949152577  16.9661017182203 0.559322033898297  L 16.9661017182203 2  L 5.03389830508479 2  L 5.03389830508479 0.559322033898297  C 5.03389830508479 0.261016949152577  4.83502825635594 0.062146900423727  4.53672317161022 0.062146900423727  C 4.23841808686439 0.062146900423727  4.03954803813554 0.261016949152577  4.03954803813554 0.559322033898297  L 4.03954803813554 2.05084745762713  L 2.05084745762713 2.05084745762713  C 0.957062154661003 2.05084745762713  0.062146900423727 2.9457627118644  0.062146900423727 4.03954801483053  L 0.062146900423727 7.02259886228808  L 0 8.01694915254234  L 0 19.9491525423729  C 0.062146900423727 21.042937845339  0.957062154661003 21.9378530995763  2.05084745762713 22  L 19.9491525423729 22  C 21.042937845339 21.9378530995763  21.9378530995763 21.042937845339  22 19.9491525423729  L 22 8.01694915254234  L 21.9378530995763 7.02259886228808  L 21.9378530995763 4.03954801483053  Z M 21 8  L 21 19.9491525423729  C 20.9435028326271 20.4960452055085  20.4960452055085 20.9435028326271  19.9491525423729 21  L 2.05084745762713 21  C 1.50395479449151 20.9435028326271  1.05649716737287 20.4960452055085  1 19.9491525423729  L 1 8  L 21 8  Z M 20.9435028326271 4.03954803813554  L 20.9435028326271 7  L 1.05649716737287 7  L 1.05649716737287 4.03954801483053  C 1.05649716737287 3.49265535169491  1.50395479449151 3.04519772457627  2.05084745762713 3.04519772457627  L 4.03954801483053 3.04519772457627  L 4.03954801483053 4.5367231483051  C 4.03954801483053 4.83502823305082  4.23841806355927 5.03389828177967  4.5367231483051 5.03389828177967  C 4.83502823305082 5.03389828177967  5.03389828177967 4.83502823305082  5.03389828177967 4.5367231483051  L 5.03389830508479 3  L 16.9661016949152 3  L 16.9661016949152 4.53672317161022  C 16.9661016949152 4.83502825635594  17.1649717436441 5.03389830508479  17.4632768283898 5.03389830508479  C 17.7615819131356 5.03389830508479  17.9604519618645 4.83502825635594  17.9604519618645 4.53672317161022  L 17.9604519851695 3.04519774788139  L 19.9491525423729 3.04519774788139  C 20.4960452055085 3.04519774788139  20.9435028326271 3.49265537500003  20.9435028326271 4.03954803813554  Z M 7.51977401906777 15.4745762711865  L 7.51977401906777 13.4858757139831  L 5.53107346186437 13.4858757139831  L 5.53107346186437 15.4745762711865  L 7.51977401906777 15.4745762711865  Z M 10.5028248665254 18.9548022521186  L 10.5028248665254 16.9661016949152  L 8.51412430932203 16.9661016949152  L 8.51412430932203 18.9548022521186  L 10.5028248665254 18.9548022521186  Z M 7.51977401906777 11.9943502669491  L 7.51977401906777 10.0056497097457  L 5.53107346186437 10.0056497097457  L 5.53107346186437 11.9943502669491  L 7.51977401906777 11.9943502669491  Z " fill-rule="nonzero" fill="#999999" stroke="none" transform="matrix(1 0 0 1 1389 199 )" />
  </g>
</svg>