<?xml version="1.0" encoding="utf-8"?>
<svg version="1.1" xmlns:xlink="http://www.w3.org/1999/xlink" width="19px" height="22px" xmlns="http://www.w3.org/2000/svg">
  <g transform="matrix(1 0 0 1 -1309 -598 )">
    <path d="M 15.2080967308111 0.244502401759462  L 18.6028423081098 0.244502401759462  L 11.8616677569528 9.80079371786525  L 17.1745342026411 9.80079371786525  L 17.1745342026411 11.9133455977481  L 10.9853505713311 11.9133455977481  L 10.9853505713311 14.822794778938  L 17.1745342026411 14.822794778938  L 17.1745342026411 16.961763143947  L 10.9853505713311 16.961763143947  L 10.9853505713311 21.1982856424445  L 7.80105632553773 21.1982856424445  L 7.80105632553773 16.961763143947  L 1.3853158282418 16.961763143947  L 1.3853158282418 14.822794778938  L 7.80105632553773 14.822794778938  L 7.80105632553773 11.9133455977481  L 1.3853158282418 11.9133455977481  L 1.3853158282418 9.80079371786525  L 6.85920921390903 9.80079371786525  L 0.182456800672753 0.244502401759462  L 3.77268436790519 0.244502401759462  C 6.89258488060091 4.99046539567473  8.7865900545039 8.00112096020302  9.45819368280922 9.2741398998815  L 9.52258741590708 9.2741398998815  C 9.7503088796243 8.74975846771503  10.373567499666 7.69406482663931  11.3901476998615 6.10705897665429  L 15.2080967308111 0.244502401759462  Z " fill-rule="nonzero" fill="#999999" stroke="none" transform="matrix(1 0 0 1 1309 598 )" />
  </g>
</svg>