<?xml version="1.0" encoding="utf-8"?>
<svg version="1.1" xmlns:xlink="http://www.w3.org/1999/xlink" width="22px" height="22px" xmlns="http://www.w3.org/2000/svg">
  <g transform="matrix(1 0 0 1 -1549 -199 )">
    <path d="M 19.0578560437073 9.53071978770731  C 19.0578560437073 14.783082579252  14.7844276656911 19.0565343781464  9.53204145326822 19.0565343781464  C 4.27965524084561 19.0565343781464  0.00620344195112921 14.783082579252  0.00620344195112921 9.53071978770731  C 0.00620344195112921 4.27833357528456  4.27963181996756 0.00488177639024912  9.53204145326822 0.00488177639024912  C 14.7844276656911 0.00488177639024912  19.0578560437073 4.2783570190569  19.0578560437073 9.53071978770731  Z M 16.1268163538211 9.53071981060162  C 16.1268163538211 5.89413883004877  13.1685989900489 2.93587462452032  9.53204145326822 2.93587462452032  C 5.89543705183746 2.93587462452032  2.93719626718689 5.89416227382114  2.93719626718689 9.53071981060162  C 2.93719626718689 13.1672773473821  5.89543705183746 16.1254947111545  9.53204145326822 16.1254947111545  C 13.1685989900489 16.1254947111545  16.1268163538211 13.1673007911545  16.1268163538211 9.53071981060162  Z M 20.5233641667642 19.0565343781464  C 21.331969660878 19.0565343781464  21.9888957335934 19.7120547173984  21.9888957335934 20.5220893658537  C 21.9888957335934 21.3320771725528  21.33194624 21.9875506471545  20.5233641667642 21.9875506471545  C 19.7146883871219 21.9875506471545  19.057856020813 21.3320771725528  19.057856020813 20.5220893658537  C 19.057856020813 19.712054694504  19.7147118079999 19.0565343781464  20.5233641667642 19.0565343781464  Z M 15.0053770011057 17.0760596417561  L 17.0776832374634 15.0037534053984  L 21.4741585670245 19.4002287349593  L 19.4018523306668 21.4725349713171  L 15.0053770011057 17.0760596417561  Z " fill-rule="nonzero" fill="#999999" stroke="none" transform="matrix(1 0 0 1 1549 199 )" />
  </g>
</svg>