<?xml version="1.0" encoding="utf-8"?>
<svg version="1.1" xmlns:xlink="http://www.w3.org/1999/xlink" width="14px" height="10px" xmlns="http://www.w3.org/2000/svg">
  <g transform="matrix(1 0 0 1 -113 -370 )">
    <path d="M 6.44731445312505 9.01041666666669  C 6.22548828124991 9.22526041666669  5.93222656250009 9.33626302083337  5.63896484375005 9.33626302083337  C 5.40585937500009 9.33626302083337  5.16899414062505 9.26822916666663  4.9697265625 9.12858072916669  L 1.40170898437509 6.62565104166663  C 0.901660156250045 6.27473958333337  0.792626953124909 5.6015625  1.16108398437495 5.12532552083331  C 1.529541015625 4.64908854166663  2.23637695312505 4.54524739583337  2.73642578125009 4.89615885416674  L 5.514892578125 6.84407552083331  L 11.1958984375001 1.2939453125  C 11.63203125 0.867838541666742  12.34638671875 0.860677083333258  12.7900390625 1.27604166666669  C 13.2374511718749 1.69140625000006  13.2449707031251 2.37174479166674  12.808837890625 2.79427083333326  L 6.44731445312505 9.01041666666669  Z " fill-rule="nonzero" fill="#ffffff" stroke="none" transform="matrix(1 0 0 1 113 370 )" />
  </g>
</svg>