<?xml version="1.0" encoding="utf-8"?>
<svg version="1.1" xmlns:xlink="http://www.w3.org/1999/xlink" width="10px" height="10px" xmlns="http://www.w3.org/2000/svg">
  <g transform="matrix(1 0 0 1 -195 -370 )">
    <path d="M 9.5546875 7.57714843749994  L 6.92929687500003 5  L 9.54609375000007 2.42285156250006  C 10.07890625 1.89811197916669  10.07890625 1.04752604166674  9.54609375000007 0.522786458333371  C 9.01328125000003 -0.00195312500005684  8.14960937500001 -0.00195312500005684  7.61679687499998 0.522786458333371  L 5 3.09993489583343  L 2.38320312500002 0.522786458333371  C 1.85039062499999 -0.00195312500005684  0.986718749999966 -0.00195312500005684  0.453906249999932 0.522786458333371  C -0.0789062499999886 1.04752604166674  -0.0789062499999886 1.89811197916669  0.453906249999932 2.42285156250006  L 3.07070312499997 5  L 0.453906249999932 7.57714843749994  C -0.0789062499999886 8.10188802083331  -0.0789062499999886 8.95247395833326  0.453906249999932 9.47721354166663  C 0.720312499999977 9.73958333333337  1.068359375 9.87076822916674  1.42070312499993 9.87076822916674  C 1.77304687500003 9.87076822916674  2.12109375 9.73958333333337  2.38749999999993 9.47721354166663  L 5.00429687499997 6.90006510416657  L 7.62109375 9.47721354166663  C 7.88749999999999 9.73958333333337  8.23554687500001 9.87076822916674  8.587890625 9.87076822916674  C 8.93593749999997 9.87076822916674  9.28828125000007 9.73958333333337  9.5546875 9.47721354166663  C 10.0875 8.95247395833326  10.0875 8.10188802083331  9.5546875 7.57714843749994  Z " fill-rule="nonzero" fill="#ffffff" stroke="none" transform="matrix(1 0 0 1 195 370 )" />
  </g>
</svg>