<?xml version="1.0" encoding="utf-8"?>
<svg version="1.1" xmlns:xlink="http://www.w3.org/1999/xlink" width="22px" height="19px" xmlns="http://www.w3.org/2000/svg">
  <g transform="matrix(1 0 0 1 -269 -437 )">
    <path d="M 1.73684210526318 12.350877180921  L 2.19999999999999 12.350877180921  L 4.05263157894734 12.350877180921  C 4.51578947368421 12.350877180921  4.82456139144739 12.0421052631579  4.82456139144739 11.578947368421  C 4.82456139144739 11.1157894736842  4.51578947368421 10.807017555921  4.05263157894734 10.807017555921  L 2.19999999999999 10.807017555921  C 1.58245612828949 10.807017555921  1.27368421052631 10.807017555921  0.964912292763131 10.9614034967105  C 0.656140375000007 11.1157894736842  0.501754398026321 11.2701754144737  0.347368421052636 11.578947368421  C 0.19298244407895 11.8877192861842  0.19298244407895 12.0421052631579  0.19298244407895 12.8140350756579  L 0.19298244407895 16.5192982335526  C 0.19298244407895 17.1368421052631  0.19298244407895 17.4456140230262  0.347368421052636 17.7543859769736  C 0.501754398026321 18.0631578947368  0.656140338815817 18.2175438717105  0.964912292763131 18.3719298125  C 1.27368421052631 18.5263157894736  1.4280701875 18.5263157894736  2.19999999999999 18.5263157894736  L 19.8 18.5263157894736  C 20.4175438717105 18.5263157894736  20.7263157894737 18.5263157894736  21.0350877072369 18.3719298125  C 21.343859625 18.2175438355263  21.4982456019737 18.0631578947368  21.6526315789474 17.7543859769736  C 21.8070175559211 17.4456140592105  21.8070175559211 17.2912280822368  21.8070175559211 16.5192982335526  L 21.8070175559211 12.8140350756579  C 21.8070175559211 12.1964912039473  21.8070175559211 11.8877192861842  21.6526315789474 11.578947368421  C 21.4982456019737 11.2701754506579  21.3438596611842 11.1157894736842  21.0350877072369 10.9614034967105  C 20.7263157894737 10.8070175197369  20.5719298125 10.8070175197369  19.8 10.807017555921  L 17.9473684210526 10.807017555921  C 17.4842105263158 10.807017555921  17.1754386085526 11.1157894736842  17.1754386085526 11.578947368421  C 17.1754386085526 12.0421052631579  17.4842105263158 12.350877180921  17.9473684210526 12.350877180921  L 20.2631578947368 12.350877180921  L 20.2631578947368 17  L 1.73684210526318 17  L 1.73684210526318 12.8140350756579  L 1.73684210526318 12.350877180921  Z M 11.7719298125 12.8140350756579  L 11.7719298125 2.6245613914474  L 14.8596491348684 5.71228071381574  C 15.1684210526316 6.02105263157898  15.6315789473684 6.02105263157898  15.9403508651316 5.71228071381574  C 16.2491227828947 5.40350879605262  16.2491227828947 4.94035090131581  15.9403508651316 4.63157894736844  L 11.6175438717106 0.308771917763124  C 11.3087719539474 0  10.8456140592105 0  10.5368421052631 0.308771917763124  L 6.05964913486844 4.63157894736844  C 5.75087721710526 4.94035086513156  5.75087721710526 5.40350875986837  6.05964913486844 5.71228071381574  C 6.36842105263156 6.02105263157898  6.83157894736843 6.02105263157898  7.14035086513155 5.71228071381574  L 10.2280701875 2.6245613914474  L 10.2280701875 12.8140350756579  C 10.2280701875 13.2771929703947  10.5368421052631 13.5859648881578  11 13.5859649243421  C 11.4631578947369 13.5859649605263  11.7719298125 13.277193006579  11.7719298125 12.8140350756579  Z " fill-rule="nonzero" fill="#999999" stroke="none" transform="matrix(1 0 0 1 269 437 )" />
  </g>
</svg>