<?xml version="1.0" encoding="utf-8"?>
<svg version="1.1" xmlns:xlink="http://www.w3.org/1999/xlink" width="22px" height="22px" xmlns="http://www.w3.org/2000/svg">
  <g transform="matrix(1 0 0 1 -349 -279 )">
    <path d="M 19.3879172413793 17.6873931034483  L 19.3867034482759 17.6886068965517  C 19.4340413793103 17.7238068965517  19.4777379310345 17.7614344827586  19.5202206896552 17.8039172413793  L 21.236524137931 19.5202206896552  C 21.4733382977866 19.7489434583485  21.6070808566071 20.0640537159955  21.6070808566071 20.3932877531588  C 21.6070808566071 21.063647173643  21.063647173643 21.6070808566071  20.3932877531588 21.6070808566071  C 20.0640537159955 21.6070808566071  19.7489434583485 21.4733382977866  19.5202206896552 21.236524137931  L 17.8039172413793 19.5202206896552  C 17.7623176942198 19.4785476529775  17.723780759702 19.4339259393252  17.6886068965517 19.3867034482759  C 15.8090860666832 20.8819460766651  13.4782577031944 21.6959948060178  11.0765189439488 21.6959948060178  C 5.21087401471144 21.6959948060178  0.455829288776421 16.9409500800828  0.455829288776421 11.0753051508454  C 0.455829288776421 5.209660221608  5.21087401471144 0.454615495672982  11.0765189439488 0.454615495672982  C 16.9421638731862 0.454615495672982  21.6972085991212 5.209660221608  21.6972085991212 11.0753051508454  C 21.6972085991212 13.4770439100909  20.8831598697686 15.8078722735797  19.3879172413793 17.6873931034483  Z M 7.73793103448276 10.1655172413793  L 10.1655172413793 10.1655172413793  L 10.1655172413793 7.73793103448276  C 10.1655172413793 7.06757161399848  10.7089509243433 6.52413793103449  11.3793103448276 6.52413793103449  C 12.0496697653119 6.52413793103449  12.5931034482759 7.06757161399848  12.5931034482759 7.73793103448276  L 12.5931034482759 10.1655172413793  L 15.0206896551724 10.1655172413793  C 15.6910490244991 10.1655172413793  16.2344827074631 10.7089509243433  16.2344827074631 11.3793103448276  C 16.2344827074631 12.0496697653119  15.6910490244991 12.5931034482759  15.0206896040149 12.5931034482759  L 12.5931034482759 12.5931034482759  L 12.5931034482759 15.0206896551724  C 12.5931034482759 15.6910490244991  12.0496697653119 16.2344827074631  11.3793103448276 16.2344827074631  C 10.7089509443216 16.2344827074631  10.1655172696329 15.6910490556784  10.1655172413793 15.0206896551724  L 10.1655172413793 12.5931034482759  L 7.73793103448276 12.5931034482759  C 7.06757166515604 12.5931034482759  6.52413798219204 12.0496697653119  6.52413798219204 11.3793103448276  C 6.52413798219204 10.7089509243433  7.06757166515604 10.1655172413793  7.73793108564031 10.1655172413793  Z M 11.0758620689655 19.2689655172414  C 15.6007881572344 19.2689655172414  19.2689655172414 15.6007881572344  19.2689655172414 11.0758620689655  C 19.2689655172414 6.55093598069666  15.6007881572344 2.88275862068966  11.0758620689655 2.88275862068966  C 6.55093598069667 2.88275862068966  2.88275862068965 6.55093598069666  2.88275862068965 11.0758620689655  C 2.88275862068965 15.6007881572344  6.55093598069667 19.2689655172414  11.0758620689655 19.2689655172414  Z " fill-rule="nonzero" fill="#999999" stroke="none" transform="matrix(1 0 0 1 349 279 )" />
  </g>
</svg>