<?xml version="1.0" encoding="utf-8"?>
<svg version="1.1" xmlns:xlink="http://www.w3.org/1999/xlink" width="19px" height="22px" xmlns="http://www.w3.org/2000/svg">
  <g transform="matrix(1 0 0 1 -830 -279 )">
    <path d="M 19 4.65172093023256  L 18.9864285714286 4.65172093023256  C 18.9239650130349 3.57446319905938  18.0376774010367 2.73250901852862  16.9642857142857 2.73072868217054  L 14.9285714285714 2.73072868217054  L 14.9285714285714 2.0471937984496  C 14.9285714285714 0.916936636005176  14.0171510978698 0.000682170542631866  12.8928571428571 0.000682170542631866  L 6.10714285714289 0.000682170542631866  C 4.98284890213017 0.000682170542631866  4.07142857142856 0.916936636005176  4.07142857142856 2.0471937984496  L 4.07142857142856 2.7300465116279  L 2.03571428571433 2.7300465116279  C 0.962060622943227 2.73146626405997  0.0753721620719716 3.57351867448102  0.0128928571427878 4.65103875968993  L 0 4.65103875968993  L 0 6.14021705426359  C 0 6.89372182922654  0.607613553801116 7.50455813953488  1.35714285714289 7.50455813953488  L 1.35714285714289 19.1014573643411  C 1.35714285714289 20.608466914267  2.57236996474501 21.8301395348837  4.07142857142856 21.8301395348837  L 14.9285714285714 21.8301395348837  C 16.427630035255 21.8301395348837  17.6428571428571 20.608466914267  17.6428571428571 19.1014573643411  L 17.6428571428571 7.50455813953488  C 18.3923864461989 7.50455813953488  19 6.89372182922648  19 6.14021705426359  L 19 4.65172093023256  Z M 5.42857142857144 2.7300465116279  L 5.42857142857144 2.04787596899223  C 5.42857142857144 1.67112358151081  5.73237820547206 1.36570542635661  6.10714285714289 1.36570542635661  L 12.8928571428571 1.36570542635661  C 13.2676217945279 1.36570542635661  13.5714285714286 1.67112358151081  13.5714285714286 2.04787596899223  L 13.5714285714286 2.7300465116279  L 5.42857142857144 2.7300465116279  Z M 16 7.50524031007751  L 16 19.1021395348837  C 16.2857142857143 19.8538914728682  15.6763571428571 20.466480620155  14.9285714285714 20.466480620155  L 4.07142857142856 20.466480620155  C 3.32296428571431 20.466480620155  2.71428571428567 19.8538914728682  3 19.1021395348837  L 3 7.50524031007751  L 16 7.50524031007751  Z M 17.6428571428571 4.77655813953487  L 17.6428571428571 5.45804651162791  L 17.6428571428571 6.14021705426359  L 1.35714285714289 6.14021705426359  L 1.35714285714289 4.77655813953487  C 1.35714285714289 4.3998057520534  1.66094963404339 4.0943875968992  2.03571428571433 4  L 16.9642857142857 4  C 17.3390503659566 4.0943875968992  17.6428571428571 4.3998057520534  17.6428571428571 4.77655813953487  Z " fill-rule="nonzero" fill="#999999" stroke="none" transform="matrix(1 0 0 1 830 279 )" />
  </g>
</svg>