<?xml version="1.0" encoding="utf-8"?>
<svg version="1.1" xmlns:xlink="http://www.w3.org/1999/xlink" width="11px" height="11px" xmlns="http://www.w3.org/2000/svg">
  <g transform="matrix(1 0 0 1 -834 -288 )">
    <path d="M 0 10.1026885245901  C 0 10.5010578523369  0.3078042344913 10.824  0.6875 10.824  L 2.0625 10.824  C 2.4421957655087 10.824  2.75 10.5010578523369  2.75 10.1026885245901  L 2.75 0.725639344262333  C 2.75 0.327270016515513  2.4421957655087 0.00432786885244241  2.0625 0.00432786885244241  L 0.6875 0.00432786885244241  C 0.3078042344913 0.00432786885244241  0 0.327270016515513  0 0.725639344262333  L 0 10.1026885245901  Z M 0.6875 10.1019672131147  L 0.6875 0.724918032786888  L 2.0625 0.724918032786888  L 2.0625 10.1019672131147  L 0.6875 10.1019672131147  Z M 4.125 10.1026885245901  C 4.125 10.5010578523369  4.4328042344913 10.824  4.8125 10.824  L 6.1875 10.824  C 6.5671957655087 10.824  6.875 10.5010578523369  6.875 10.1026885245901  L 6.875 0.725639344262333  C 6.875 0.327270016515513  6.5671957655087 0.00432786885244241  6.1875 0.00432786885244241  L 4.8125 0.00432786885244241  C 4.4328042344913 0.00432786885244241  4.125 0.327270016515513  4.125 0.725639344262333  L 4.125 10.1026885245901  Z M 4.8125 10.1019672131147  L 4.8125 0.724918032786888  L 6.1875 0.724918032786888  L 6.1875 10.1019672131147  L 4.8125 10.1019672131147  Z M 8.25 10.1026885245901  C 8.25 10.5010578523369  8.5578042344913 10.824  8.9375 10.824  L 10.3125 10.824  C 10.6921957655087 10.824  11 10.5010578523369  11 10.1026885245901  L 11 0.725639344262333  C 11 0.327270016515513  10.6921957655087 0.00432786885244241  10.3125 0.00432786885244241  L 8.9375 0.00432786885244241  C 8.5578042344913 0.00432786885244241  8.25 0.327270016515513  8.25 0.725639344262333  L 8.25 10.1026885245901  Z M 8.9375 10.1019672131147  L 8.9375 0.724918032786888  L 10.3125 0.724918032786888  L 10.3125 10.1019672131147  L 8.9375 10.1019672131147  Z " fill-rule="nonzero" fill="#999999" stroke="none" transform="matrix(1 0 0 1 834 288 )" />
  </g>
</svg>