<?xml version="1.0" encoding="utf-8"?>
<svg version="1.1" xmlns:xlink="http://www.w3.org/1999/xlink" width="22px" height="15px" xmlns="http://www.w3.org/2000/svg">
  <g transform="matrix(1 0 0 1 -750 -283 )">
    <path d="M 10.78631640625 0.164999999999992  C 12.281736328125 0.167857421874999  13.629751953125 0.476136718750013  14.92377734375 1.033484375  C 16.40473828125 1.671333984375  17.71227734375 2.57599804687501  18.917765625 3.63702539062501  C 19.937091796875 4.53416992187499  20.85827734375 5.524384765625  21.709208984375 6.580943359375  C 22.00090234375 6.94314843750001  21.982361328125 7.24298437499999  21.75555078125 7.57893554687502  C 21.130548828125 8.50458984375001  20.416021484375 9.35562890624999  19.641853515625 10.157919921875  C 18.5907734375 11.24719921875  17.425955078125 12.192748046875  16.100369140625 12.931294921875  C 14.970505859375 13.560787109375  13.773375 14.000958984375  12.488201171875 14.180912109375  C 10.896251953125 14.4038125  9.34903320312498 14.215802734375  7.84246289062497 13.663181640625  C 6.24946093749998 13.078892578125  4.85609179687498 12.166  3.57558007812497 11.06939453125  C 2.34798437500001 10.018099609375  1.26459179687498 8.83040039062499  0.278523437499985 7.55223046875  C 0.00973242187501455 7.20381835937499  0.00541406249999454 7.00173632812499  0.261228515625021 6.64032617187499  C 1.40922460937497 5.01834179687501  2.77676953125001 3.61126562500002  4.38566992187498 2.44245117187501  C 5.44903906249999 1.66991601562501  6.59514453125001 1.05460351562499  7.84841406250001 0.647882812500001  C 8.82973437499999 0.329419921875001  9.83670703125 0.16837304687499  10.786380859375 0.165064453125012  Z M 15.679919921875 2.929458984375  C 17.0220703125 5.39021484374999  16.2551640625 8.15740234374999  14.493982421875 9.6484609375  C 12.65416796875 11.20612109375  10.054236328125 11.375890625  8.07241015624999 10.054923828125  C 6.88138085937499 9.26105468750001  6.11432421874997 8.16058203124999  5.80091015624998 6.75988671875001  C 5.48811914062497 5.36200585937499  5.72577929687498 4.04632421874999  6.436826171875 2.80616015625  C 4.52312695312497 3.86948632812499  2.99498632812498 5.35639843749999  1.66239648437499 7.066791015625  C 2.26982421874999 7.82630664062501  2.901744140625 8.546076171875  3.58269140624998 9.22143750000001  C 4.19443749999999 9.828220703125  4.84154687500001 10.394333984375  5.54275390624997 10.897583984375  C 6.81196484374999 11.808521484375  8.18546093750001 12.480703125  9.73674023437502 12.753984375  C 10.726138671875 12.9283515625  11.7142265625 12.927943359375  12.699048828125 12.728138671875  C 14.156763671875 12.432384765625  15.458158203125 11.784029296875  16.6516796875 10.91711328125  C 18.069068359375 9.8875390625  19.26662890625 8.63478515624999  20.302046875 7.22429296875001  C 20.352943359375 7.15494140625  20.353201171875 7.11128515625001  20.295580078125 7.04743359375001  C 19.905724609375 6.61568359374999  19.528845703125 6.171859375  19.129794921875 5.748853515625  C 18.238666015625 4.80414257812501  17.268453125 3.95007421874999  16.176703125 3.240595703125  C 16.01290625 3.13414062500001  15.8455859375 3.03303515625001  15.67994140625 2.9295234375  Z M 7.28219335937501 5.80694726562501  C 7.30670703125003 5.88946874999999  7.32372265625003 6.0196640625  7.38205273437501 6.12755859375  C 7.48848632812502 6.324462890625  7.75386132812503 6.405244140625  8.00709765624998 6.342552734375  C 8.24709960937503 6.28310546874999  8.38208593749999 6.098662109375  8.41744921874999 5.83938867187499  C 8.458548828125 5.53787695312499  8.49477148437501 5.23039257812499  8.58541406249998 4.94192187499999  C 8.93507226562502 3.82873046875  9.71364453125 3.21934765624999  10.86271484375 3.07389843749999  C 11.19692578125 3.03159570312499  11.42534765625 2.78055078124999  11.4200625 2.44258007812499  C 11.41520703125 2.1332265625  11.21901171875 1.94156445312501  10.910625 1.954841796875  C 10.79112890625 1.9599765625  10.67176171875 1.98019335937499  10.553490234375 2.00023828125001  C 9.86266015625 2.117349609375  9.22607812500002 2.365107421875  8.68424218749999 2.8178046875  C 7.768384765625 3.582970703125  7.402291015625 4.61164257812499  7.28221484375001 5.80696875000001  Z " fill-rule="nonzero" fill="#999999" stroke="none" transform="matrix(1 0 0 1 750 283 )" />
  </g>
</svg>