<?xml version="1.0" encoding="utf-8"?>
<svg version="1.1" xmlns:xlink="http://www.w3.org/1999/xlink" width="22px" height="22px" xmlns="http://www.w3.org/2000/svg">
  <g transform="matrix(1 0 0 1 -429 -279 )">
    <path d="M 22 11  C 22 4.95000000000005  17.05 0  11 0  C 4.94999999999999 0  0 4.95000000000005  0 11  C 0 17.05  4.94999999999999 22  11 22  C 17.05 22  22 17.05  22 11  Z M 16.5 11  C 16.5 11.66  16.06 12.1  15.4 12.1  L 12.1 12.1  L 12.1 15.4  C 12.1 16.0599999999999  11.66 16.5  11 16.5  C 10.34 16.5  9.89999999999998 16.0599999999999  9.89999999999998 15.4  L 9.89999999999998 12.1  L 6.60000000000002 12.1  C 5.94 12.1  5.5 11.66  5.5 11  C 5.5 10.34  5.94 9.89999999999998  6.60000000000002 9.89999999999998  L 9.89999999999998 9.89999999999998  L 9.89999999999998 6.60000000000002  C 9.89999999999998 5.94000000000005  10.34 5.5  11 5.5  C 11.66 5.5  12.1 5.94000000000005  12.1 6.60000000000002  L 12.1 9.89999999999998  L 15.4 9.89999999999998  C 16.06 9.89999999999998  16.5 10.34  16.5 11  Z " fill-rule="nonzero" fill="#999999" stroke="none" transform="matrix(1 0 0 1 429 279 )" />
  </g>
</svg>