<?xml version="1.0" encoding="utf-8"?>
<svg version="1.1" xmlns:xlink="http://www.w3.org/1999/xlink" width="22px" height="22px" xmlns="http://www.w3.org/2000/svg">
  <defs>
    <mask fill="white" id="clip1">
      <path d="M 7.49235871999997 12.03531824  L 6.62873023999998 14.40449912  L 7.61393864000001 15.39243992  L 9.98680232000004 14.52698192  L 7.49235871999997 12.03531824  Z M 21.4501232 11.00907632  C 21.4501232 5.254238  16.78453832 0.5891996  11.030294 0.5891996  C 5.27495671999998 0.5891996  0.610488560000022 5.254238  0.610488560000022 11.00907632  C 0.610488560000022 16.76332064  5.27498047999995 21.42888176  11.030294 21.42888176  C 16.78453832 21.42888176  21.4501232 16.76332064  21.4501232 11.00907632  Z M 14.81794688 10.74032696  L 10.50907088 15.04920296  L 10.50351104 15.04271648  C 10.47471392 15.06685664  10.44316064 15.08911976  10.40604752 15.10211648  L 5.60650376000001 16.85348984  C 5.48124103999999 16.89801608  5.34024920000002 16.86831608  5.24751391999996 16.77182672  C 5.15294912000002 16.67906768  5.12227496000003 16.53805208  5.16865447999999 16.41381104  L 6.91815080000004 11.61602552  C 6.93119504000003 11.57988656  6.95158112000001 11.54923616  6.97660040000005 11.51953616  L 6.97284632000003 11.51492672  L 11.28272024 7.20607448  C 11.75026952 7.6726496  12.1351815199999 8.05665872  12.1351815199999 8.05665872  L 8.75860039999998 11.42772752  C 8.70388112000001 11.48061728  8.67974096 11.5501628  8.67974096 11.62065872  C 8.67974096 11.690228  8.70388112000001 11.7598448  8.75860039999998 11.81363744  C 8.81151392000004 11.86555304  8.88108320000003 11.8943264  8.95340864000002 11.8943264  C 9.02573408000001 11.8943264  9.09442423999997 11.86555304  9.14724272000001 11.81363744  L 12.52204184 8.44444568  L 13.58228432 9.50290616  L 10.22240648 12.8591012  C 10.1166507200001 12.96573608  10.1166507200001 13.13920784  10.22240648 13.24586648  C 10.27434584 13.29692672  10.34488928 13.32565256  10.41723848 13.32565256  C 10.49053808 13.32565256  10.5591332 13.29692672  10.61109632 13.24679312  C 10.61109632 13.24586648  13.97007128 9.89062184  13.97007128 9.89062184  C 13.97007128 9.89062184  14.46359024 10.3841408  14.81794688 10.74032696  Z M 16.55171408 7.25663576  C 17.03406584 7.73853608  17.03316296 8.5251584  16.55169032 9.0093872  L 15.20661296 10.35353792  C 14.51555336 9.6633812  12.9098288 8.05665872  11.67143384 6.820616  L 13.01831696 5.47463576  C 13.50069248 4.99271168  14.2891918400001 4.99178504  14.77066448 5.47463576  L 16.55171408 7.25663576  Z " fill-rule="evenodd" />
    </mask>
  </defs>
  <g transform="matrix(1 0 0 1 -668 -436 )">
    <path d="M 7.49235871999997 12.03531824  L 6.62873023999998 14.40449912  L 7.61393864000001 15.39243992  L 9.98680232000004 14.52698192  L 7.49235871999997 12.03531824  Z M 21.4501232 11.00907632  C 21.4501232 5.254238  16.78453832 0.5891996  11.030294 0.5891996  C 5.27495671999998 0.5891996  0.610488560000022 5.254238  0.610488560000022 11.00907632  C 0.610488560000022 16.76332064  5.27498047999995 21.42888176  11.030294 21.42888176  C 16.78453832 21.42888176  21.4501232 16.76332064  21.4501232 11.00907632  Z M 14.81794688 10.74032696  L 10.50907088 15.04920296  L 10.50351104 15.04271648  C 10.47471392 15.06685664  10.44316064 15.08911976  10.40604752 15.10211648  L 5.60650376000001 16.85348984  C 5.48124103999999 16.89801608  5.34024920000002 16.86831608  5.24751391999996 16.77182672  C 5.15294912000002 16.67906768  5.12227496000003 16.53805208  5.16865447999999 16.41381104  L 6.91815080000004 11.61602552  C 6.93119504000003 11.57988656  6.95158112000001 11.54923616  6.97660040000005 11.51953616  L 6.97284632000003 11.51492672  L 11.28272024 7.20607448  C 11.75026952 7.6726496  12.1351815199999 8.05665872  12.1351815199999 8.05665872  L 8.75860039999998 11.42772752  C 8.70388112000001 11.48061728  8.67974096 11.5501628  8.67974096 11.62065872  C 8.67974096 11.690228  8.70388112000001 11.7598448  8.75860039999998 11.81363744  C 8.81151392000004 11.86555304  8.88108320000003 11.8943264  8.95340864000002 11.8943264  C 9.02573408000001 11.8943264  9.09442423999997 11.86555304  9.14724272000001 11.81363744  L 12.52204184 8.44444568  L 13.58228432 9.50290616  L 10.22240648 12.8591012  C 10.1166507200001 12.96573608  10.1166507200001 13.13920784  10.22240648 13.24586648  C 10.27434584 13.29692672  10.34488928 13.32565256  10.41723848 13.32565256  C 10.49053808 13.32565256  10.5591332 13.29692672  10.61109632 13.24679312  C 10.61109632 13.24586648  13.97007128 9.89062184  13.97007128 9.89062184  C 13.97007128 9.89062184  14.46359024 10.3841408  14.81794688 10.74032696  Z M 16.55171408 7.25663576  C 17.03406584 7.73853608  17.03316296 8.5251584  16.55169032 9.0093872  L 15.20661296 10.35353792  C 14.51555336 9.6633812  12.9098288 8.05665872  11.67143384 6.820616  L 13.01831696 5.47463576  C 13.50069248 4.99271168  14.2891918400001 4.99178504  14.77066448 5.47463576  L 16.55171408 7.25663576  Z " fill-rule="nonzero" fill="#aaaaaa" stroke="none" fill-opacity="0.996078431372549" transform="matrix(1 0 0 1 668 436 )" />
    <path d="M 7.49235871999997 12.03531824  L 6.62873023999998 14.40449912  L 7.61393864000001 15.39243992  L 9.98680232000004 14.52698192  L 7.49235871999997 12.03531824  Z " stroke-width="2" stroke="#f2f2f2" fill="none" transform="matrix(1 0 0 1 668 436 )" mask="url(#clip1)" />
    <path d="M 21.4501232 11.00907632  C 21.4501232 5.254238  16.78453832 0.5891996  11.030294 0.5891996  C 5.27495671999998 0.5891996  0.610488560000022 5.254238  0.610488560000022 11.00907632  C 0.610488560000022 16.76332064  5.27498047999995 21.42888176  11.030294 21.42888176  C 16.78453832 21.42888176  21.4501232 16.76332064  21.4501232 11.00907632  Z " stroke-width="2" stroke="#f2f2f2" fill="none" transform="matrix(1 0 0 1 668 436 )" mask="url(#clip1)" />
    <path d="M 14.81794688 10.74032696  L 10.50907088 15.04920296  L 10.50351104 15.04271648  C 10.47471392 15.06685664  10.44316064 15.08911976  10.40604752 15.10211648  L 5.60650376000001 16.85348984  C 5.48124103999999 16.89801608  5.34024920000002 16.86831608  5.24751391999996 16.77182672  C 5.15294912000002 16.67906768  5.12227496000003 16.53805208  5.16865447999999 16.41381104  L 6.91815080000004 11.61602552  C 6.93119504000003 11.57988656  6.95158112000001 11.54923616  6.97660040000005 11.51953616  L 6.97284632000003 11.51492672  L 11.28272024 7.20607448  C 11.75026952 7.6726496  12.1351815199999 8.05665872  12.1351815199999 8.05665872  L 8.75860039999998 11.42772752  C 8.70388112000001 11.48061728  8.67974096 11.5501628  8.67974096 11.62065872  C 8.67974096 11.690228  8.70388112000001 11.7598448  8.75860039999998 11.81363744  C 8.81151392000004 11.86555304  8.88108320000003 11.8943264  8.95340864000002 11.8943264  C 9.02573408000001 11.8943264  9.09442423999997 11.86555304  9.14724272000001 11.81363744  L 12.52204184 8.44444568  L 13.58228432 9.50290616  L 10.22240648 12.8591012  C 10.1166507200001 12.96573608  10.1166507200001 13.13920784  10.22240648 13.24586648  C 10.27434584 13.29692672  10.34488928 13.32565256  10.41723848 13.32565256  C 10.49053808 13.32565256  10.5591332 13.29692672  10.61109632 13.24679312  C 10.61109632 13.24586648  13.97007128 9.89062184  13.97007128 9.89062184  C 13.97007128 9.89062184  14.46359024 10.3841408  14.81794688 10.74032696  Z " stroke-width="2" stroke="#f2f2f2" fill="none" transform="matrix(1 0 0 1 668 436 )" mask="url(#clip1)" />
    <path d="M 16.55171408 7.25663576  C 17.03406584 7.73853608  17.03316296 8.5251584  16.55169032 9.0093872  L 15.20661296 10.35353792  C 14.51555336 9.6633812  12.9098288 8.05665872  11.67143384 6.820616  L 13.01831696 5.47463576  C 13.50069248 4.99271168  14.2891918400001 4.99178504  14.77066448 5.47463576  L 16.55171408 7.25663576  Z " stroke-width="2" stroke="#f2f2f2" fill="none" transform="matrix(1 0 0 1 668 436 )" mask="url(#clip1)" />
  </g>
</svg>