<?xml version="1.0" encoding="utf-8"?>
<svg version="1.1" xmlns:xlink="http://www.w3.org/1999/xlink" width="22px" height="22px" xmlns="http://www.w3.org/2000/svg">
  <defs>
    <mask fill="white" id="clip6">
      <path d="M 21.9791902321952 11.0004085346342  C 21.9791902321952 4.94066032390245  17.0492615941464 0.0107317073170634  10.9896768273171 0.0107317073170634  C 4.92992861658536 0.0107317073170634  0 4.94066032390245  0 11.0004085346342  C 0 17.0596664995122  4.92992861658536 21.9892682926829  10.9896768273171 21.9892682926829  C 17.0492616156098 21.9892682926829  21.9791902321952 17.0596664780488  21.9791902321952 11.0004085346342  Z M 15.3089407551219 15.4865144741464  C 15.3087773541463 15.9610582946342  14.9241092429269 16.3473605014634  14.4513629190244 16.3473605014634  L 7.5752163219513 16.3473605229269  C 7.10247001951223 16.3473605229269  6.71796530926827 15.9612217170731  6.71796530926827 15.4865144956098  L 6.71796530926827 8.64092564097557  C 6.71796530926827 8.47555430243903  6.85245208195124 8.34090412878047  7.01798682146341 8.34090412878047  C 7.18335816000001 8.34090412878047  7.31784491121959 8.47555430243903  7.31784491121959 8.64092564097557  L 7.31784491121959 15.4865144956098  C 7.31784491121959 15.6304790614634  7.4333760760976 15.7474809209756  7.5752163004878 15.7474809209756  L 14.451362897561 15.7474809209756  C 14.5932031219512 15.7474809209756  14.7087342868292 15.6304790614634  14.7087342868292 15.4865144956098  L 14.7087343082927 8.64092564097557  C 14.7087343082927 8.47555430243903  14.8432210809756 8.34090412878047  15.0087558204877 8.34090412878047  C 15.17429056 8.34090412878047  15.308777332683 8.47555430243903  15.308777332683 8.64092564097557  L 15.308777332683 15.4865144741464  Z M 9.57111105365857 14.9052636565854  C 9.40590313756093 14.9052636565854  9.27125296390238 14.7707768839025  9.27125296390238 14.6054055668293  L 9.27125296390238 8.64092564097557  C 9.27125296390238 8.47555430243903  9.40573973658536 8.34090412878047  9.57111105365857 8.34090412878047  C 9.73664579317074 8.34090412878047  9.87113256585371 8.47555430243903  9.87113256585371 8.64092564097557  L 9.87113256585371 14.6052421443903  C 9.87113256585371 14.7707768839024  9.73664579317074 14.9052636565854  9.57111105365857 14.9052636565854  Z M 12.4556315882927 14.9052636565854  C 12.2900968487804 14.9052636565854  12.1556100760976 14.7707768839025  12.1556100760976 14.6054055668293  L 12.1556100760976 8.64092564097557  C 12.1556100760976 8.47555430243903  12.2900968487804 8.34090412878047  12.4556315882927 8.34090412878047  C 12.6210029268293 8.34090412878047  12.7554896780488 8.47555430243903  12.7554896780488 8.64092564097557  L 12.7554896780488 14.6052421443903  C 12.7554896780488 14.7707768839024  12.6210029053659 14.9052636565854  12.4556315882927 14.9052636565854  Z M 16.656259582439 7.15846637268289  C 16.6564229834146 7.32383773268285  16.521772809756 7.45848790634141  16.3564014712196 7.45848790634141  L 13.21189496 7.45848790634141  C 13.1318238673171 7.45848790634141  13.0564916604877 7.42727651707319  12.9997882595121 7.37057311609758  L 11.881897644878 6.25268250146343  L 10.1304648956097 6.25268250146343  L 8.79589209560982 7.38691415804877  C 8.74229348487802 7.43283249365851  8.67317087999993 7.45848792780484  8.60176053268299 7.45848792780484  L 5.62295216195116 7.45848790634141  C 5.45741742243899 7.45848790634141  5.32293064975613 7.32383773268285  5.32293064975613 7.15846639414632  C 5.32293064975613 6.99309505560968  5.45741742243899 6.85844488195122  5.62295216195116 6.85844488195122  L 8.49162190048787 6.85844488195122  L 9.82603129951212 5.72421322536588  C 9.88044695804876 5.67813148878044  9.94940616195129 5.65280287804884  10.020326284878 5.65280287804884  L 12.0060895765853 5.65280287804884  C 12.0861606692683 5.65280287804884  12.1614928760976 5.68401426731706  12.2181962770732 5.74071766829268  L 13.3360868917073 6.85860828292683  L 16.3562380702439 6.85860828292683  C 16.521772809756 6.85860828292683  16.656259582439 6.99309505560968  16.656259582439 7.15846637268289  Z " fill-rule="evenodd" />
    </mask>
  </defs>
  <g transform="matrix(1 0 0 1 -830 -364 )">
    <path d="M 21.9791902321952 11.0004085346342  C 21.9791902321952 4.94066032390245  17.0492615941464 0.0107317073170634  10.9896768273171 0.0107317073170634  C 4.92992861658536 0.0107317073170634  0 4.94066032390245  0 11.0004085346342  C 0 17.0596664995122  4.92992861658536 21.9892682926829  10.9896768273171 21.9892682926829  C 17.0492616156098 21.9892682926829  21.9791902321952 17.0596664780488  21.9791902321952 11.0004085346342  Z M 15.3089407551219 15.4865144741464  C 15.3087773541463 15.9610582946342  14.9241092429269 16.3473605014634  14.4513629190244 16.3473605014634  L 7.5752163219513 16.3473605229269  C 7.10247001951223 16.3473605229269  6.71796530926827 15.9612217170731  6.71796530926827 15.4865144956098  L 6.71796530926827 8.64092564097557  C 6.71796530926827 8.47555430243903  6.85245208195124 8.34090412878047  7.01798682146341 8.34090412878047  C 7.18335816000001 8.34090412878047  7.31784491121959 8.47555430243903  7.31784491121959 8.64092564097557  L 7.31784491121959 15.4865144956098  C 7.31784491121959 15.6304790614634  7.4333760760976 15.7474809209756  7.5752163004878 15.7474809209756  L 14.451362897561 15.7474809209756  C 14.5932031219512 15.7474809209756  14.7087342868292 15.6304790614634  14.7087342868292 15.4865144956098  L 14.7087343082927 8.64092564097557  C 14.7087343082927 8.47555430243903  14.8432210809756 8.34090412878047  15.0087558204877 8.34090412878047  C 15.17429056 8.34090412878047  15.308777332683 8.47555430243903  15.308777332683 8.64092564097557  L 15.308777332683 15.4865144741464  Z M 9.57111105365857 14.9052636565854  C 9.40590313756093 14.9052636565854  9.27125296390238 14.7707768839025  9.27125296390238 14.6054055668293  L 9.27125296390238 8.64092564097557  C 9.27125296390238 8.47555430243903  9.40573973658536 8.34090412878047  9.57111105365857 8.34090412878047  C 9.73664579317074 8.34090412878047  9.87113256585371 8.47555430243903  9.87113256585371 8.64092564097557  L 9.87113256585371 14.6052421443903  C 9.87113256585371 14.7707768839024  9.73664579317074 14.9052636565854  9.57111105365857 14.9052636565854  Z M 12.4556315882927 14.9052636565854  C 12.2900968487804 14.9052636565854  12.1556100760976 14.7707768839025  12.1556100760976 14.6054055668293  L 12.1556100760976 8.64092564097557  C 12.1556100760976 8.47555430243903  12.2900968487804 8.34090412878047  12.4556315882927 8.34090412878047  C 12.6210029268293 8.34090412878047  12.7554896780488 8.47555430243903  12.7554896780488 8.64092564097557  L 12.7554896780488 14.6052421443903  C 12.7554896780488 14.7707768839024  12.6210029053659 14.9052636565854  12.4556315882927 14.9052636565854  Z M 16.656259582439 7.15846637268289  C 16.6564229834146 7.32383773268285  16.521772809756 7.45848790634141  16.3564014712196 7.45848790634141  L 13.21189496 7.45848790634141  C 13.1318238673171 7.45848790634141  13.0564916604877 7.42727651707319  12.9997882595121 7.37057311609758  L 11.881897644878 6.25268250146343  L 10.1304648956097 6.25268250146343  L 8.79589209560982 7.38691415804877  C 8.74229348487802 7.43283249365851  8.67317087999993 7.45848792780484  8.60176053268299 7.45848792780484  L 5.62295216195116 7.45848790634141  C 5.45741742243899 7.45848790634141  5.32293064975613 7.32383773268285  5.32293064975613 7.15846639414632  C 5.32293064975613 6.99309505560968  5.45741742243899 6.85844488195122  5.62295216195116 6.85844488195122  L 8.49162190048787 6.85844488195122  L 9.82603129951212 5.72421322536588  C 9.88044695804876 5.67813148878044  9.94940616195129 5.65280287804884  10.020326284878 5.65280287804884  L 12.0060895765853 5.65280287804884  C 12.0861606692683 5.65280287804884  12.1614928760976 5.68401426731706  12.2181962770732 5.74071766829268  L 13.3360868917073 6.85860828292683  L 16.3562380702439 6.85860828292683  C 16.521772809756 6.85860828292683  16.656259582439 6.99309505560968  16.656259582439 7.15846637268289  Z " fill-rule="nonzero" fill="#f2f2f2" stroke="none" fill-opacity="0.796078431372549" transform="matrix(1 0 0 1 830 364 )" />
    <path d="M 21.9791902321952 11.0004085346342  C 21.9791902321952 4.94066032390245  17.0492615941464 0.0107317073170634  10.9896768273171 0.0107317073170634  C 4.92992861658536 0.0107317073170634  0 4.94066032390245  0 11.0004085346342  C 0 17.0596664995122  4.92992861658536 21.9892682926829  10.9896768273171 21.9892682926829  C 17.0492616156098 21.9892682926829  21.9791902321952 17.0596664780488  21.9791902321952 11.0004085346342  Z " stroke-width="2" stroke="#f2f2f2" fill="none" transform="matrix(1 0 0 1 830 364 )" mask="url(#clip6)" />
    <path d="M 15.3089407551219 15.4865144741464  C 15.3087773541463 15.9610582946342  14.9241092429269 16.3473605014634  14.4513629190244 16.3473605014634  L 7.5752163219513 16.3473605229269  C 7.10247001951223 16.3473605229269  6.71796530926827 15.9612217170731  6.71796530926827 15.4865144956098  L 6.71796530926827 8.64092564097557  C 6.71796530926827 8.47555430243903  6.85245208195124 8.34090412878047  7.01798682146341 8.34090412878047  C 7.18335816000001 8.34090412878047  7.31784491121959 8.47555430243903  7.31784491121959 8.64092564097557  L 7.31784491121959 15.4865144956098  C 7.31784491121959 15.6304790614634  7.4333760760976 15.7474809209756  7.5752163004878 15.7474809209756  L 14.451362897561 15.7474809209756  C 14.5932031219512 15.7474809209756  14.7087342868292 15.6304790614634  14.7087342868292 15.4865144956098  L 14.7087343082927 8.64092564097557  C 14.7087343082927 8.47555430243903  14.8432210809756 8.34090412878047  15.0087558204877 8.34090412878047  C 15.17429056 8.34090412878047  15.308777332683 8.47555430243903  15.308777332683 8.64092564097557  L 15.308777332683 15.4865144741464  Z " stroke-width="2" stroke="#f2f2f2" fill="none" transform="matrix(1 0 0 1 830 364 )" mask="url(#clip6)" />
    <path d="M 9.57111105365857 14.9052636565854  C 9.40590313756093 14.9052636565854  9.27125296390238 14.7707768839025  9.27125296390238 14.6054055668293  L 9.27125296390238 8.64092564097557  C 9.27125296390238 8.47555430243903  9.40573973658536 8.34090412878047  9.57111105365857 8.34090412878047  C 9.73664579317074 8.34090412878047  9.87113256585371 8.47555430243903  9.87113256585371 8.64092564097557  L 9.87113256585371 14.6052421443903  C 9.87113256585371 14.7707768839024  9.73664579317074 14.9052636565854  9.57111105365857 14.9052636565854  Z " stroke-width="2" stroke="#f2f2f2" fill="none" transform="matrix(1 0 0 1 830 364 )" mask="url(#clip6)" />
    <path d="M 12.4556315882927 14.9052636565854  C 12.2900968487804 14.9052636565854  12.1556100760976 14.7707768839025  12.1556100760976 14.6054055668293  L 12.1556100760976 8.64092564097557  C 12.1556100760976 8.47555430243903  12.2900968487804 8.34090412878047  12.4556315882927 8.34090412878047  C 12.6210029268293 8.34090412878047  12.7554896780488 8.47555430243903  12.7554896780488 8.64092564097557  L 12.7554896780488 14.6052421443903  C 12.7554896780488 14.7707768839024  12.6210029053659 14.9052636565854  12.4556315882927 14.9052636565854  Z " stroke-width="2" stroke="#f2f2f2" fill="none" transform="matrix(1 0 0 1 830 364 )" mask="url(#clip6)" />
    <path d="M 16.656259582439 7.15846637268289  C 16.6564229834146 7.32383773268285  16.521772809756 7.45848790634141  16.3564014712196 7.45848790634141  L 13.21189496 7.45848790634141  C 13.1318238673171 7.45848790634141  13.0564916604877 7.42727651707319  12.9997882595121 7.37057311609758  L 11.881897644878 6.25268250146343  L 10.1304648956097 6.25268250146343  L 8.79589209560982 7.38691415804877  C 8.74229348487802 7.43283249365851  8.67317087999993 7.45848792780484  8.60176053268299 7.45848792780484  L 5.62295216195116 7.45848790634141  C 5.45741742243899 7.45848790634141  5.32293064975613 7.32383773268285  5.32293064975613 7.15846639414632  C 5.32293064975613 6.99309505560968  5.45741742243899 6.85844488195122  5.62295216195116 6.85844488195122  L 8.49162190048787 6.85844488195122  L 9.82603129951212 5.72421322536588  C 9.88044695804876 5.67813148878044  9.94940616195129 5.65280287804884  10.020326284878 5.65280287804884  L 12.0060895765853 5.65280287804884  C 12.0861606692683 5.65280287804884  12.1614928760976 5.68401426731706  12.2181962770732 5.74071766829268  L 13.3360868917073 6.85860828292683  L 16.3562380702439 6.85860828292683  C 16.521772809756 6.85860828292683  16.656259582439 6.99309505560968  16.656259582439 7.15846637268289  Z " stroke-width="2" stroke="#f2f2f2" fill="none" transform="matrix(1 0 0 1 830 364 )" mask="url(#clip6)" />
  </g>
</svg>