<?xml version="1.0" encoding="utf-8"?>
<svg version="1.1" xmlns:xlink="http://www.w3.org/1999/xlink" width="22px" height="22px" xmlns="http://www.w3.org/2000/svg">
  <defs>
    <mask fill="white" id="clip9">
      <path d="M 21.75624 11.0943799999999  C 21.75624 5.14162000000002  16.91338 0.298760000000039  10.96117 0.298760000000039  C 5.00797 0.298760000000039  0.164999999999964 5.14172999999994  0.164999999999964 11.0943799999999  C 0.164999999999964 17.04703  5.00797 21.89  10.96117 21.89  C 16.91338 21.89  21.75624 17.0471399999999  21.75624 11.0943799999999  Z M 17.6539 11.2025099999999  C 17.6539 11.2025099999999  15.6321 15.66851  10.93697 15.66851  C 6.23952999999995 15.66851  4.21927000000005 11.09977  4.21927000000005 11.09977  C 4.21927000000005 11.09977  6.43719999999996 6.60462000000004  10.98306 6.61111000000006  C 15.53013 6.61781999999993  17.6539 11.2025099999999  17.6539 11.2025099999999  Z M 13.77277 11.09977  C 13.77277 9.52082999999999  12.59676 8.29532000000003  10.9692 8.29532000000003  C 9.33977000000004 8.29532000000003  8.16287999999997 9.52082999999999  8.16287999999997 11.09977  C 8.16287999999997 12.6758500000001  9.33977000000004 13.90521  10.9692 13.90521  C 12.59665 13.90521  13.77277 12.6758500000001  13.77277 11.09977  Z M 12.65198 11.09977  C 12.65209 12.0012200000001  11.89892 12.78244  10.9692 12.78244  C 10.0375 12.78244  9.28565000000003 12.0011100000001  9.28565000000003 11.09977  C 9.28565000000003 10.19832  10.03739 9.41809000000007  10.9692 9.41534000000001  C 11.89892 9.41413000000006  12.65198 10.19832  12.65198 11.09977  Z " fill-rule="evenodd" />
    </mask>
  </defs>
  <g transform="matrix(1 0 0 1 -750 -364 )">
    <path d="M 21.75624 11.0943799999999  C 21.75624 5.14162000000002  16.91338 0.298760000000039  10.96117 0.298760000000039  C 5.00797 0.298760000000039  0.164999999999964 5.14172999999994  0.164999999999964 11.0943799999999  C 0.164999999999964 17.04703  5.00797 21.89  10.96117 21.89  C 16.91338 21.89  21.75624 17.0471399999999  21.75624 11.0943799999999  Z M 17.6539 11.2025099999999  C 17.6539 11.2025099999999  15.6321 15.66851  10.93697 15.66851  C 6.23952999999995 15.66851  4.21927000000005 11.09977  4.21927000000005 11.09977  C 4.21927000000005 11.09977  6.43719999999996 6.60462000000004  10.98306 6.61111000000006  C 15.53013 6.61781999999993  17.6539 11.2025099999999  17.6539 11.2025099999999  Z M 13.77277 11.09977  C 13.77277 9.52082999999999  12.59676 8.29532000000003  10.9692 8.29532000000003  C 9.33977000000004 8.29532000000003  8.16287999999997 9.52082999999999  8.16287999999997 11.09977  C 8.16287999999997 12.6758500000001  9.33977000000004 13.90521  10.9692 13.90521  C 12.59665 13.90521  13.77277 12.6758500000001  13.77277 11.09977  Z M 12.65198 11.09977  C 12.65209 12.0012200000001  11.89892 12.78244  10.9692 12.78244  C 10.0375 12.78244  9.28565000000003 12.0011100000001  9.28565000000003 11.09977  C 9.28565000000003 10.19832  10.03739 9.41809000000007  10.9692 9.41534000000001  C 11.89892 9.41413000000006  12.65198 10.19832  12.65198 11.09977  Z " fill-rule="nonzero" fill="#f2f2f2" stroke="none" fill-opacity="0.796078431372549" transform="matrix(1 0 0 1 750 364 )" />
    <path d="M 21.75624 11.0943799999999  C 21.75624 5.14162000000002  16.91338 0.298760000000039  10.96117 0.298760000000039  C 5.00797 0.298760000000039  0.164999999999964 5.14172999999994  0.164999999999964 11.0943799999999  C 0.164999999999964 17.04703  5.00797 21.89  10.96117 21.89  C 16.91338 21.89  21.75624 17.0471399999999  21.75624 11.0943799999999  Z " stroke-width="2" stroke="#f2f2f2" fill="none" transform="matrix(1 0 0 1 750 364 )" mask="url(#clip9)" />
    <path d="M 17.6539 11.2025099999999  C 17.6539 11.2025099999999  15.6321 15.66851  10.93697 15.66851  C 6.23952999999995 15.66851  4.21927000000005 11.09977  4.21927000000005 11.09977  C 4.21927000000005 11.09977  6.43719999999996 6.60462000000004  10.98306 6.61111000000006  C 15.53013 6.61781999999993  17.6539 11.2025099999999  17.6539 11.2025099999999  Z " stroke-width="2" stroke="#f2f2f2" fill="none" transform="matrix(1 0 0 1 750 364 )" mask="url(#clip9)" />
    <path d="M 13.77277 11.09977  C 13.77277 9.52082999999999  12.59676 8.29532000000003  10.9692 8.29532000000003  C 9.33977000000004 8.29532000000003  8.16287999999997 9.52082999999999  8.16287999999997 11.09977  C 8.16287999999997 12.6758500000001  9.33977000000004 13.90521  10.9692 13.90521  C 12.59665 13.90521  13.77277 12.6758500000001  13.77277 11.09977  Z " stroke-width="2" stroke="#f2f2f2" fill="none" transform="matrix(1 0 0 1 750 364 )" mask="url(#clip9)" />
    <path d="M 12.65198 11.09977  C 12.65209 12.0012200000001  11.89892 12.78244  10.9692 12.78244  C 10.0375 12.78244  9.28565000000003 12.0011100000001  9.28565000000003 11.09977  C 9.28565000000003 10.19832  10.03739 9.41809000000007  10.9692 9.41534000000001  C 11.89892 9.41413000000006  12.65198 10.19832  12.65198 11.09977  Z " stroke-width="2" stroke="#f2f2f2" fill="none" transform="matrix(1 0 0 1 750 364 )" mask="url(#clip9)" />
  </g>
</svg>