<?xml version="1.0" encoding="utf-8"?>
<svg version="1.1" xmlns:xlink="http://www.w3.org/1999/xlink" width="22px" height="22px" xmlns="http://www.w3.org/2000/svg">
  <g transform="matrix(1 0 0 1 -509 -278 )">
    <path d="M 15.2472563244048 21.1016462053571  C 13.8989583333333 21.6734375  12.4635974702381 21.9628627232143  10.9835286458333 21.9628627232143  C 9.50581287202381 21.9628627232143  8.07045200892857 21.6734375  6.71980096726191 21.1016462053571  C 5.4162109375 20.5486793154762  4.24439174107143 19.7604073660714  3.23728608630952 18.7533017113095  C 2.23018043154762 17.7461960565476  1.44190848214286 16.5767299107143  0.888941592261905 15.2707868303571  C 0.317150297619048 13.9201357886905  0.027725074404762 12.4871279761905  0.027725074404762 11.0070591517857  C 0.027725074404762 9.52699032738095  0.317150297619048 8.09398251488095  0.888941592261905 6.74333147321429  C 1.44190848214286 5.43974144345238  2.23018043154762 4.26792224702381  3.23728608630952 3.26081659226191  C 4.24439174107143 2.2537109375  5.41385788690476 1.46543898809524  6.71980096726191 0.912472098214286  C 8.07045200892857 0.340680803571429  9.50581287202381 0.051255580357143  10.9835286458333 0.051255580357143  C 12.4612444196429 0.051255580357143  13.8966052827381 0.340680803571429  15.2472563244048 0.912472098214286  C 16.5508463541667 1.46543898809524  17.7226655505952 2.2537109375  18.7297712053571 3.26081659226191  C 19.736876860119 4.26792224702381  20.5251488095238 5.43738839285714  21.0781156994048 6.74333147321429  C 21.6499069940476 8.09398251488095  21.9393322172619 9.52934337797619  21.9393322172619 11.0070591517857  C 21.9393322172619 12.4847749255952  21.6499069940476 13.9201357886905  21.0781156994048 15.2707868303571  C 20.5251488095238 16.574376860119  19.736876860119 17.7461960565476  18.7297712053571 18.7533017113095  C 17.7226655505952 19.7604073660714  16.5531994047619 20.5486793154762  15.2472563244048 21.1016462053571  Z M 21.0757626488095 11.0070591517857  C 21.0757626488095 5.44209449404762  16.5484933035714 0.914825148809523  10.9835286458333 0.914825148809523  C 5.41856398809524 0.914825148809523  0.891294642857144 5.44209449404762  0.891294642857144 11.0070591517857  C 0.891294642857144 16.5720238095238  5.41856398809524 21.0992931547619  10.9835286458333 21.0992931547619  C 16.5484933035714 21.0992931547619  21.0757626488095 16.5720238095238  21.0757626488095 11.0070591517857  Z " fill-rule="nonzero" fill="#999999" stroke="none" transform="matrix(1 0 0 1 509 278 )" />
  </g>
</svg>