<?xml version="1.0" encoding="utf-8"?>
<svg version="1.1" xmlns:xlink="http://www.w3.org/1999/xlink" width="18px" height="16px" xmlns="http://www.w3.org/2000/svg">
  <g transform="matrix(1 0 0 1 -511 -281 )">
    <path d="M 13.6974243164062 14.9231481481481  C 13.7024780273438 15.1893518518518  13.4952758789062 15.4076388888889  13.2375366210938 15.4076388888889  L 4.7296142578125 15.4076388888889  C 4.47440185546875 15.4076388888889  4.2646728515625 15.1893518518518  4.2646728515625 14.9178240740741  L 4.2646728515625 8.52893518518519  L 3.95892333984375 8.85104166666667  C 3.87301025390625 8.94155092592593  3.754248046875 8.99479166666667  3.63043212890625 8.99479166666667  C 3.5066162109375 8.99479166666667  3.390380859375 8.94421296296296  3.30194091796875 8.85104166666667  L 0.64874267578125 6.05590277777778  C 0.46680908203125 5.86423611111111  0.46680908203125 5.55543981481481  0.64874267578125 5.36377314814815  L 5.5887451171875 0.164814814814815  C 5.6696044921875 0.0796296296296298  5.77825927734375 0.0290509259259263  5.8919677734375 0.0210648148148146  L 5.897021484375 0.0210648148148146  C 6.15223388671875 0.00775462962962942  6.36954345703125 0.212731481481482  6.38470458984375 0.481597222222223  C 6.46556396484375 1.92708333333333  7.60517578125 3.05844907407407  8.98231201171875 3.05844907407407  C 10.35439453125 3.05844907407407  11.4914794921875 1.93506944444445  11.577392578125 0.494907407407407  C 11.5799194335938 0.425694444444445  11.5925537109375 0.359143518518519  11.6228759765625 0.295254629629629  C 11.7087890625 0.108912037037036  11.8957763671875 -0.00289351851851852  12.0903442382812 0.0210648148148146  C 12.204052734375 0.0343749999999998  12.3026000976562 0.0876157407407405  12.37587890625 0.167476851851852  L 17.3133544921875 5.36909722222222  C 17.4952880859375 5.56076388888889  17.4952880859375 5.86956018518519  17.3133544921875 6.06122685185185  L 14.66015625 8.85636574074074  C 14.5742431640625 8.946875  14.4554809570313 9.00011574074074  14.3316650390625 9.00011574074074  C 14.2078491210937 9.00011574074074  14.0916137695313 8.94953703703704  14.003173828125 8.85636574074074  L 13.6974243164062 8.53425925925926  L 13.6974243164062 14.9231481481481  Z M 5.1945556640625 14.4306712962963  L 5.19202880859375 14.4306712962963  L 12.7725952148438 14.4306712962963  L 12.7725952148438 7.36030092592593  L 12.7725952148438 6.63090277777778  C 12.7725952148438 6.36203703703704  12.9797973632813 6.14108796296296  13.2375366210938 6.14108796296296  C 13.4927490234375 6.14108796296296  13.7024780273438 6.359375  13.7024780273438 6.63090277777778  L 13.7024780273438 7.15  L 14.33671875 7.8181712962963  L 16.3329345703125 5.71516203703704  L 12.3303955078125 1.49849537037037  C 11.860400390625 2.97858796296296  10.5312744140625 4.03541666666667  8.98231201171875 4.03541666666667  C 7.43587646484375 4.03541666666667  6.10675048828125 2.97858796296296  5.634228515625 1.49849537037037  L 1.63421630859375 5.71516203703704  L 3.63043212890625 7.8181712962963  L 4.2646728515625 7.15  L 4.2646728515625 6.63090277777778  C 4.2646728515625 6.36203703703703  4.471875 6.14108796296296  4.7296142578125 6.14108796296296  C 4.987353515625 6.14108796296296  5.1945556640625 6.359375  5.1945556640625 6.63090277777778  L 5.1945556640625 14.4306712962963  Z " fill-rule="nonzero" fill="#999999" stroke="none" transform="matrix(1 0 0 1 511 281 )" />
  </g>
</svg>