<?xml version="1.0" encoding="utf-8"?>
<svg version="1.1" xmlns:xlink="http://www.w3.org/1999/xlink" width="22px" height="22px" xmlns="http://www.w3.org/2000/svg">
  <g transform="matrix(1 0 0 1 -1309 -279 )">
    <path d="M 1.20483729813375 10.9968357286159  C 1.21145752297474 5.58977240874549  5.59309754667517 1.20813228665162  11.0001607451254 1.20151206166197  C 11.001161849444 1.20151175481063  11.0021629537968 1.20151160138496  11.0031640581624 1.20151160138496  C 16.4146307557892 1.20151160138496  20.8014912784681 5.58837222257451  20.8014912784681 10.9998390417203  C 20.8014912784681 16.4113058608662  16.4146307557892 20.7981664820557  11.0031640581624 20.7981664820557  C 5.59169736053564 20.7981664820557  1.20483683785675 16.4113058608662  1.20483683785675 10.9998390417203  C 1.20483683785675 10.9988379373417  1.20483699128242 10.9978368329475  1.20483729813375 10.9968357286159  Z M 11.0031645184394 0  C 11.0021632606575 0  11.0011620028699 0  11.0001607451254 0  C 4.92511791070135 0  0.000322310504058289 4.92479612102642  0.000322310504058289 10.9998395019973  C 0.000322310504058289 17.0748828829682  4.92511791070135 21.999678593756  11.000161155252 21.999678593756  C 17.0752043998027 21.999678593756  22 17.0748828829682  22 10.9998395019973  C 22 10.9988382441779  21.9999998632911 10.997836986398  21.9999995898733 10.9968357286159  C 21.9999995898733 4.9234508756368  17.0765488247968 0  11.0031645184394 0  Z M 10.9641154009038 17.9445767943723  C 10.8466664221627 18.0645539469816  10.6843698400381 18.129908275985  10.5165523177375 18.1248035410116  C 10.1947588889213 18.1114118983517  9.94077573785282 17.8466392309172  9.94077573785282 17.524567264467  C 9.94077573785282 17.3756253259393  9.99610335349344 17.2319936309929  10.0960232588507 17.1215413194853  L 11.898290684772 15.2441793896491  C 12.0726578837631 15.0553401068717  12.3171276088314 14.9466868906998  12.5741409694925 14.9438014714222  L 14.2953063655442 14.9438014714222  C 15.0731553664053 14.9421569803262  15.7037812660075 14.3128728212737  15.7070825086877 13.5350290699575  L 15.7070825086877 8.31746475904741  C 15.7054260631336 7.53893561137904  15.0738372579028 6.90869059540791  14.2953063655442 6.90869235758271  L 7.72003403424548 6.90869235758271  C 6.94267592983131 6.91034455583251  6.31291386262866 7.540106637177  6.31126166441596 8.31746475904741  L 6.31126166441596 13.532025296576  C 6.31291386262866 14.3093834184464  6.94267592983131 14.9391454997909  7.72003403424548 14.9407976980407  L 9.09576483316749 14.9407976980407  C 9.4275531006967 14.9407976980407  9.69652063464646 15.2097652380304  9.69652063464646 15.5415535130102  C 9.69652063464646 15.87334178799  9.4275531006967 16.1423093279796  9.09576483316749 16.1423093279796  L 7.71703026093145 16.1423093279796  C 6.27726962150568 16.1390004658053  5.111401169582 14.9717888238083  5.10975006145802 13.532025296576  L 5.10975006145802 8.31746475904741  C 5.11140535439272 6.87653089404398  6.27910020161306 5.70883601099115  7.72003403424548 5.70718070615943  L 14.2953063655442 5.70718070615943  C 15.7367288111827 5.70883181151436  16.9052852724715 6.87604513322947  16.9085941331301 8.31746475904741  L 16.9085941331301 13.532025296576  C 16.9052852606541 14.9734449140018  15.7367288028178 16.1406582226614  14.2953063655442 16.1423093279796  L 12.6882845702696 16.1423093279796  L 10.9641154009038 17.9445767943723  Z M 12.8204508538996 9.93950547880087  L 8.2547067153938 9.93950547880087  C 7.92291844193185 9.93950547880087  7.65395090317264 9.67053793400177  7.65395090317264 9.33874965308923  C 7.65395090317264 9.00696137217668  7.92291844193184 8.73799382737759  8.2547067153938 8.73799382737759  L 12.8204508538996 8.73799382737758  C 13.1522391273616 8.73799382737759  13.4212066661208 9.00696137217668  13.4212066661208 9.33874965308923  C 13.4212066661208 9.67053793400177  13.1522391273616 9.93950547880087  12.8204508538996 9.93950547880087  Z M 13.7606336843959 12.0421508634205  L 8.2547067153938 12.0421508634205  C 7.92291844193184 12.0421508634205  7.65395090317264 11.7731833186214  7.65395090317264 11.4413950377089  C 7.65395090317264 11.1096067567963  7.92291844193184 10.8406392119972  8.2547067153938 10.8406392119972  L 13.7606336843959 10.8406392119972  C 14.0924219578578 10.8406392119972  14.361389496617 11.1096067567963  14.361389496617 11.4413950377089  C 14.361389496617 11.7731833186214  14.0924219578578 12.0421508634205  13.7606336843959 12.0421508634205  Z " fill-rule="nonzero" fill="#999999" stroke="none" transform="matrix(1 0 0 1 1309 279 )" />
  </g>
</svg>