<?xml version="1.0" encoding="utf-8"?>
<svg version="1.1" xmlns:xlink="http://www.w3.org/1999/xlink" width="22px" height="16px" xmlns="http://www.w3.org/2000/svg">
  <g>
    <path d="M 0.0397767857142858 7.78552631578947  C 1.80566964285714 3.20684210526316  6.12513392857143 0.140263157894737  11 0.140263157894737  C 15.8748660714286 0.140263157894737  20.1943303571429 3.20684210526316  21.9602232142857 7.78552631578948  C 22.013207190835 7.92287045064074  22.013207190835 8.07712954935926  21.9602232142857 8.21447368421053  C 20.1943303571429 12.7931578947368  15.8748660714286 15.8597368421053  11 15.8597368421053  C 6.12513392857143 15.8597368421053  1.80566964285714 12.7931578947368  0.0397767857142862 8.21447368421053  C -0.0132071908350139 8.07712954935926  -0.0132071908350134 7.92287045064074  0.0397767857142858 7.78552631578947  Z M 20.906875 8  C 19.2524553571429 3.96184210526316  15.3756919642857 1.26315789473684  11 1.26315789473684  C 6.62430803571428 1.26315789473684  2.74754464285714 3.96184210526316  1.093125 8  C 2.74754464285714 12.0381578947368  6.62430803571429 14.7368421052632  11 14.7368421052632  C 15.3756919642857 14.7368421052632  19.2524553571429 12.0381578947368  20.906875 8  Z M 11 11.9297368421053  C 8.97500111916394 11.9297368421053  7.33341517857143 10.170333728743  7.33341517857143 8  C 7.33341517857143 5.82966627125704  8.97500111916394 4.07026315789474  11 4.07026315789474  C 13.0249988808361 4.07026315789474  14.6665848214286 5.82966627125704  14.6665848214286 8  C 14.6665848214286 10.170333728743  13.0249988808361 11.9297368421053  11 11.9297368421053  Z M 10.9999999884909 10.8068421052632  C 12.4465052494484 10.8068421052632  13.6191294527766 9.55005827011713  13.6191294527766 7.99973684210526  C 13.6191294527766 6.4494154140934  12.4465052494484 5.19263157894737  10.9999999884909 5.19263157894737  C 9.55349472753338 5.19263157894737  8.38087052420516 6.4494154140934  8.38087052420516 7.99973684210526  C 8.38087053571429 9.55032142801186  9.5534947390425 10.8071052631579  11 10.8071052631579  Z " fill-rule="nonzero" fill="#999999" stroke="none" />
  </g>
</svg>