<?xml version="1.0" encoding="utf-8"?>
<svg version="1.1" xmlns:xlink="http://www.w3.org/1999/xlink" width="22px" height="16px" xmlns="http://www.w3.org/2000/svg">
  <g>
    <path d="M 18.7328539823009 14.9034567901235  L 4.1958185840708 0.154814814814816  C 4.09845420743026 0.0560298580437168  3.96639977414944 0.000533047200046136  3.82870575221239 0.000533047200046136  C 3.54197279490378 0.000533047200046136  3.30952980647704 0.23636745970035  3.30952980647704 0.527283950617284  C 3.30952980647704 0.666986976241412  3.36422854371344 0.800968129648654  3.46159292035398 0.899753086419753  L 4.83561946902655 2.29382716049383  C 2.80110619469027 3.54716049382716  1.16911504424779 5.40493827160494  0.234115044247788 7.70123456790123  C 0.18139849269947 7.83031670959884  0.18139849269947 7.97536230274685  0.234115044247788 8.10444444444444  C 2.00920353982301 12.4602469135802  6.27340707964602 15.276049382716  11.0973451327434 15.276049382716  C 12.935552492257 15.2740462876321  14.7490927784378 14.8466635542201  16.3999778761062 14.0264197530864  L 17.9986283185841 15.6483950617284  C 18.0959926952246 15.7471800184995  18.2280471285054 15.8026768293432  18.3657411504425 15.8026768293432  C 18.6524741077511 15.8026768293432  18.8849170961778 15.5668424168429  18.8849170961778 15.2759259259259  C 18.8849170961778 15.1362229003018  18.8302183589414 15.0022417468946  18.7328539823009 14.9034567901235  Z M 8.93360619469027 6.45111111111111  L 12.5263716814159 10.0965432098765  C 12.1015182916817 10.3826769389085  11.6029120291327 10.5352974263264  11.0929756561318 10.5352974263264  C 9.66155622155932 10.5352974263264  8.50116149683979 9.35797213884442  8.50116149683979 7.90566779669678  C 8.50116149683979 7.38829127459487  8.65158722061115 6.88241017319836  8.93360619469027 6.45135802469136  Z M 15.6044247787611 13.2195061728395  C 14.2230973451327 13.8493827160494  12.7035398230088 14.2222222222222  11.0973451327434 14.2222222222222  C 6.77035398230088 14.2222222222222  2.94055309734513 11.7493827160494  1.2778982300885 7.90123456790123  C 2.17371681415929 5.82716049382716  3.71444690265487 4.17876543209877  5.60975663716814 3.07802469135802  L 8.19670353982301 5.7037037037037  C 7.7421017699115 6.31925925925926  7.46296460176991 7.07506172839506  7.46296460176991 7.90123456790123  C 7.46296460176991 9.93407407407408  9.09349557522124 11.5883950617284  11.0971017699115 11.5883950617284  C 11.9116371681416 11.5883950617284  12.6565707964602 11.3051851851852  13.2630309734513 10.843950617284  L 15.6044247787611 13.2195061728395  Z M 21.9603318584071 8.10320987654321  C 22.0130484099554 7.97412773484561  22.0130484099554 7.8290821416976  21.9603318584071 7.7  C 20.1852433628319 3.34296296296296  15.920796460177 0.52716049382716  11.0973451327434 0.52716049382716  C 9.79354150568022 0.527620451130776  8.4982108858054 0.7397678067207  7.26048672566372 1.15555555555556  L 8.09327433628319 2  C 9.07129333379175 1.72278991106449  10.081879429231 1.58158264219674  11.0973451327434 1.58024691358025  C 15.424092920354 1.58024691358025  19.2541371681416 4.05358024691358  20.9165486725664 7.90123456790123  C 20.2271017699115 9.49703703703704  19.1499778761062 10.8377777777778  17.8341150442478 11.8822222222222  L 18.5856194690266 12.6446913580247  C 20.0472566371681 11.4567901234568  21.2212389380531 9.91654320987654  21.9603318584071 8.10320987654321  Z M 11.3382743362832 5.29283950617284  C 12.5741773848707 5.41019156870682  13.55292326793 6.40311399525864  13.6687168141593 7.65703703703704  L 14.6536061946903 8.6562962962963  C 14.7050792792143 8.40816132404737  14.7311762105785 8.15529933992484  14.731482300885 7.90172839506173  C 14.731482300885 5.86888888888889  13.1009513274336 4.21456790123457  11.0973451327434 4.21456790123457  C 10.8473385936807 4.21484739090316  10.5980290616045 4.24132532821581  10.3533849557522 4.29358024691358  L 11.3382743362832 5.29283950617284  Z " fill-rule="nonzero" fill="#999999" stroke="none" />
  </g>
</svg>