<?xml version="1.0" encoding="utf-8"?>
<svg version="1.1" xmlns:xlink="http://www.w3.org/1999/xlink" width="22px" height="22px" xmlns="http://www.w3.org/2000/svg">
  <g transform="matrix(1 0 0 1 -670 -364 )">
    <path d="M 8.91 0.70125  C 7.58410891719085 0.969142985265815  6.32292145826626 1.49217308324338  5.19658332617188 2.24125  C 5.0048411405987 2.36867546521998  4.88960685122791 2.58361662604687  4.88960685122791 2.8138389423303  C 4.88960685122791 2.9727176356126  4.94463441953936 3.12669244212383  5.04533332617187 3.24958332617187  C 5.2296302687525 3.47699764626481  5.33019909690771 3.76082706038138  5.33019909690771 4.05354302514569  C 5.33019909690771 4.75876463090562  4.75850402883952 5.33045969897381  4.05328242307959 5.33045969897381  C 3.80453074103939 5.33045969897381  3.56119541349506 5.25780378022171  3.35316667382813 5.12141667382812  L 3.24958332617188 5.04441667382812  C 3.12669244212383 4.94371776719561  2.9727176356126 4.88869019888416  2.8138389423303 4.88869019888416  C 2.58361662604687 4.88869019888416  2.36867546521998 5.00392448825495  2.24125 5.19566667382813  C 1.49154076563231 6.32233626948441  0.968467506537539 7.58425050705054  0.70125 8.91091667382813  C 0.692428735559868 8.95517127060789  0.68798595997751 9.000186857599  0.68798595997751 9.04531206167014  C 0.68798595997751 9.39890331531095  0.956195514041003 9.69483384467487  1.30808332617188 9.7295  C 1.95958701357523 9.79615025586407  2.45504688188289 10.3448826836101  2.45504688188289 10.9997867310147  C 2.45504688188289 11.6089686651986  2.02472613257254 12.1333184515352  1.42725 12.2521666738281  L 1.30625 12.2705  C 0.954674092274489 12.3055085283009  0.686871618249673 12.6013021129789  0.686871618249673 12.9546167262442  C 0.686871618249673 13.0000785728145  0.691380928179614 13.0454283266662  0.700333326171875 13.09  C 0.968226311437692 14.4158910828092  1.49125640941525 15.6770785417337  2.24033332617188 16.8034166738281  C 2.36775879025921 16.9951588659768  2.58269995494389 17.11039316017  2.81292227607682 17.11039316017  C 2.97180097553357 17.11039316017  3.12577578763823 17.0553655875886  3.24866667382812 16.9546666738281  C 3.47608098670535 16.7703697545044  3.7599103824469 16.6698009402407  4.05262632696246 16.6698009402407  C 4.7578479327224 16.6698009402407  5.32954300079059 17.2414960083089  5.32954300079059 17.9467176140688  C 5.32954300079059 18.1954692809861  5.25688709086517 18.4388045944075  5.1205 18.6468333261719  L 5.0435 18.7504166738281  C 4.94280109336749 18.8733075578762  4.88777352505604 19.0272823643874  4.88777352505604 19.1861610576697  C 4.88777352505604 19.4163833739531  5.00300781442683 19.63132453478  5.19475 19.75875  C 6.3195 20.5058333261719  7.57808332617187 21.0301666738281  8.90908332617187 21.2978333261719  C 8.95365500017867 21.3067857244436  8.99900475473988 21.3112950345153  9.04446660202508 21.3112950345153  C 9.39778120718643 21.3112950345153  9.69357478784934 21.0434925724117  9.72858332617187 20.6919166738281  C 9.79523358203594 20.0404129864248  10.3439660097819 19.5449531181171  10.9988700571865 19.5449531181171  C 11.6080519913704 19.5449531181171  12.1324017777071 19.9752738674275  12.25125 20.57275  L 12.2695833261719 20.6919166738281  C 12.3041637642262 21.043882444888  12.6001285098515 21.3121938575181  12.9537889553268 21.3121938575181  C 12.9992205018508 21.3121938575181  13.0445401799945 21.3076905563687  13.0890833261719 21.29875  C 14.414974408981 21.0308570147342  15.6761618679056 20.5078269167566  16.8025 19.75875  C 16.9942421855732 19.63132453478  17.109476474944 19.4163833739531  17.109476474944 19.1861610576697  C 17.109476474944 19.0272823643874  17.0544489066325 18.8733075578762  16.95375 18.7504166738281  C 16.7694530421718 18.5230023490044  16.6688842049091 18.2391729228409  16.6688842049091 17.9464569448012  C 16.6688842049091 17.2412353390413  17.2405792729773 16.6695402709731  17.9458008787372 16.6695402709731  C 18.1945525794384 16.6695402709731  18.4378879244097 16.7421962006169  18.6459166738281 16.8785833261719  L 18.7495 16.9555833261719  C 18.872390884048 17.0562822328044  19.0263656905593 17.1113098011158  19.1852443838416 17.1113098011158  C 19.415466700125 17.1113098011158  19.6304078609519 16.996075511745  19.7578333261719 16.8043333261719  C 20.5069443011953 15.6777809820718  21.029686364721 14.416225998385  21.2969166738281 13.09  C 21.3058690718204 13.0454283266662  21.3103783817503 13.0000785728145  21.3103783817503 12.9546167262442  C 21.3103783817503 12.6013021129789  21.0425759077255 12.3055085283009  20.691 12.2705  C 20.0394963125966 12.2038497441359  19.544036444289 11.6551173163899  19.544036444289 11.0002132689853  C 19.544036444289 10.3910313348014  19.9743571935993 9.86668154846481  20.5718333261719 9.74783332617187  L 20.691 9.7295  C 21.0429657710599 9.6949195619457  21.3112771836899 9.39895481632036  21.3112771836899 9.04529437084503  C 21.3112771836899 8.99986282432107  21.3067738825406 8.95454314617735  21.2978333261719 8.91  C 21.0299403409061 7.58410891719083  20.5069102429285 6.32292145826626  19.7578333261719 5.19658332617187  C 19.6304078609519 5.0048411405987  19.415466700125 4.88960685122791  19.1852443838416 4.88960685122791  C 19.0263656905593 4.88960685122791  18.872390884048 4.94463441953936  18.7495 5.04533332617187  C 18.5220856871228 5.22963024549559  18.2382562913812 5.33019905975933  17.9455403468657 5.33019905975933  C 17.2403187411057 5.33019905975933  16.6686236730375 4.75850399169113  16.6686236730375 4.0532823859312  C 16.6686236730375 3.80453071901389  16.741279582963 3.56119540559246  16.8776666738281 3.35316667382812  L 16.9546666738281 3.24958332617187  C 17.0553655804606 3.12669244212383  17.1103931487721 2.9727176356126  17.1103931487721 2.81383894233029  C 17.1103931487721 2.58361662604687  16.9951588594013 2.36867546521998  16.8034166738281 2.24125  C 15.6770057305325 1.49211816724296  14.4158684234682 0.968797550373191  13.09 0.700333326171875  C 13.0453442577377 0.691345980930539  12.999905858766 0.686818937071655  12.9543547040991 0.686818937071655  C 12.6052491023617 0.686818937071655  12.3115670867083 0.948460920717019  12.2714166738281 1.29525  L 12.26225 1.37775  C 12.1661512202416 2.0000212133265  11.6296448893599 2.45860360667375  11 2.45666667382813  C 10.384 2.45666667382813  9.86333332617188 2.01758334765625  9.74783332617188 1.42725  L 9.7295 1.30808332617187  C 9.69534868014357 0.955728057511665  9.39921305777232 0.686907072949683  9.04520663410102 0.686907072949683  C 8.99980498928493 0.686907072949683  8.95451499175427 0.691404448239898  8.91 0.700333326171875  Z M 13.39525 2.32008332617188  L 13.4475 2.2  L 13.5034166738281 2.21558332617188  C 14.18175 2.40808332617188  14.8316666738281 2.6785  15.444 3.02041667382813  L 15.4916666738281 3.04791667382813  L 15.4623333261719 3.11941667382812  C 15.0940925631651 4.0944776747264  15.3311635886502 5.19483152607225  16.06825 5.93175  L 16.1975 6.05275  C 16.9337232602019 6.69656933706768  17.9643926633661 6.88325928039181  18.8796666738281 6.53858332617188  L 18.9511666738281 6.50741667382812  L 18.9795833261719 6.556  C 19.3215 7.16833332617187  19.5919166523438 7.81916667382812  19.7844166738281 8.49658332617187  L 19.7990833261719 8.55158332617187  L 19.7899166738281 8.55616667382813  C 18.8072868796308 8.97075733016375  18.1684753561098 9.93348853517997  18.1683333261719 11  L 18.1738333261719 11.1631666738281  C 18.2320898580996 12.1064262019758  18.7875886879343 12.947530334283  19.63225 13.3714166738281  L 19.7990833261719 13.4475  L 19.7853333261719 13.5043333261719  C 19.5932554061497 14.1799375476083  19.3231586757564 14.8308768285967  18.9805 15.444  L 18.9520833261719 15.4925833261719  L 18.8815 15.4623333261719  C 17.9064389991017 15.0940925631651  16.8060851477559 15.3311635886502  16.0691666738281 16.06825  L 15.9481666738281 16.1975  C 15.3043473293775 16.9337232558727  15.1176573777165 17.9643926594843  15.4623333261719 18.8796666738281  L 15.4925833261719 18.9511666738281  L 15.4449166738281 18.9795833261719  C 14.8314526199858 19.3222025619023  14.1802146578514 19.5922955882175  13.5043333261719 19.7844166738281  L 13.4484166738281 19.7990833261719  L 13.44475 19.7899166738281  C 13.0300297713805 18.8069797369551  12.0668448052856 18.16810676355  11 18.1683333261719  L 10.8368333261719 18.1738333261719  C 9.89357379802421 18.2320898580996  9.05246966571703 18.7875886879343  8.62858332617187 19.63225  L 8.55158332617187 19.7990833261719  L 8.49658332617187 19.7853333261719  C 7.82066368908025 19.5933223024407  7.16941322428915 19.3232240950204  6.556 18.9805  L 6.5065 18.9520833261719  L 6.53766667382813 18.8815  C 6.9059074368349 17.9064389991017  6.66883641134982 16.8060851477559  5.93175 16.0691666738281  L 5.8025 15.9481666738281  C 5.06627674412729 15.3043473293775  4.03560734051573 15.1176573777165  3.12033332617187 15.4623333261719  L 3.04791667382812 15.4925833261719  L 3.02041667382812 15.4449166738281  C 2.67779743809773 14.8314526199858  2.40770441178247 14.1802146578514  2.21558332617187 13.5043333261719  L 2.2 13.4475  L 2.21008332617188 13.44475  C 3.19337953514558 13.0303124749362  3.83265446003725 12.0670660203113  3.83258332617187 11  L 3.82708332617188 10.8368333261719  C 3.76900872664402 9.89377103982296  3.21388956868965 9.05271314579021  2.36958332617187 8.62858332617187  L 2.2 8.5525  L 2.21558332617188 8.49566667382813  C 2.40808332617188 7.81916667382812  2.67758332617188 7.16925  3.0195 6.556  L 3.047 6.50741667382812  L 3.1185 6.53766667382813  C 4.09356100089828 6.9059074368349  5.19391485224412 6.66883641134982  5.93083332617188 5.93175  L 6.05183332617188 5.8025  C 6.69565267062255 5.06627674412729  6.88234262228346 4.03560734051573  6.53766667382813 3.12033332617187  L 6.5065 3.04791667382812  L 6.55508332617188 3.02041667382812  C 7.16854738001417 2.67779743809773  7.81978534214859 2.40770441178247  8.49566667382813 2.21558332617187  L 8.5525 2.2  L 8.55616667382813 2.21008332617188  C 8.97078085752562 3.19288813060864  9.93371623113051 3.83177291749982  11.0003980979245 3.83177291749982  C 12.0233772228824 3.83177291749982  12.9552049327864 3.2435802828104  13.39525 2.32008332617188  Z M 11 7.5625  C 9.10152117245665 7.5625  7.5625 9.10152117245665  7.5625 11  C 7.5625 12.8984788275434  9.10152117245665 14.4375  11 14.4375  C 12.8984788275434 14.4375  14.4375 12.8984788275434  14.4375 11  C 14.4375 9.10152117245665  12.8984788275434 7.5625  11 7.5625  Z M 11 8.9375  C 12.139087296526 8.9375  13.0625 9.86091270347399  13.0625 11  C 13.0625 12.139087296526  12.139087296526 13.0625  11 13.0625  C 9.86091270347399 13.0625  8.9375 12.139087296526  8.9375 11  C 8.9375 9.86091270347399  9.86091270347399 8.9375  11 8.9375  Z " fill-rule="nonzero" fill="#999999" stroke="none" transform="matrix(1 0 0 1 670 364 )" />
  </g>
</svg>