<?xml version="1.0" encoding="utf-8"?>
<svg version="1.1" xmlns:xlink="http://www.w3.org/1999/xlink" width="22px" height="22px" xmlns="http://www.w3.org/2000/svg">
  <g transform="matrix(1 0 0 1 -910 -279 )">
    <path d="M 5.24 7.16  C 5.24 9.21184  7.1408 12.32992  10.97056 16.41568  C 12.79712 14.23584  14.01056 12.73696  14.60576 11.92544  C 14.7264453103018 11.7614056659305  14.9179527390897 11.6645489320132  15.1216 11.6645489320132  C 15.475289266472 11.6645489320132  15.7620110679868 11.951270733528  15.7620110679868 12.30496  C 15.7620110679868 12.4415122471048  15.7183635058728 12.5744895350195  15.63744 12.68448  C 14.97184 13.59072  13.59072 15.28928  11.49024 17.78912  L 11.03072 18.33568  L 10.53792 17.81984  C 6.1616 13.2528  3.96 9.73536  3.96 7.16  C 3.96 3.27191536119121  7.11191536119122 0.12  11 0.12  C 14.8880846388088 0.12  18.04 3.27191536119121  18.04 7.16  C 18.04 8.00224  17.80576 8.93664  17.34624 9.96576  C 17.2473794147573 10.2053281272023  17.0137976440971 10.3616264708227  16.7546330190309 10.3616264708227  C 16.4011707791392 10.3616264708227  16.1146330190309 10.0750887107144  16.1146330190309 9.72162647082267  C 16.1146330190309 9.62580065310151  16.1361513704165 9.53119790765741  16.1776 9.4448  C 16.56928 8.568  16.76 7.80512  16.76 7.16  C 16.76 3.97883984097463  14.1811601590254 1.4  11 1.4  C 7.81883984097463 1.4  5.24 3.97883984097463  5.24 7.16  Z M 0.12 18.68  C 0.12 17.61248  1.28992 16.8752  3.28288 16.33248  C 3.33773725222367 16.3175292670105  3.39434190876882 16.3099539324164  3.4512 16.3099539324164  C 3.80473186509556 16.3099539324164  4.09132606758357 16.5965481349044  4.09132606758357 16.95008  C 4.09132606758357 17.2387872291238  3.89806760762974 17.491764952532  3.61952 17.56768  C 2.17184 17.96192  1.4 18.44832  1.4 18.68  C 1.4 19.50816  5.76992 20.6  11 20.6  C 16.23008 20.6  20.6 19.50816  20.6 18.68  C 20.6 18.6224  20.50016 18.488  20.22624 18.30752  C 19.864 18.06816  19.30208 17.83392  18.57888 17.624  C 18.3128072059751 17.5398013118624  18.1319704321285 17.2929002273138  18.1319704321285 17.0138229068374  C 18.1319704321285 16.6603606669457  18.4185081922368 16.3738229068374  18.7719704321285 16.3738229068374  C 18.8273414860656 16.3738229068374  18.8824784338418 16.381008609297  18.936 16.3952  C 20.792 16.9328  21.88 17.6496  21.88 18.68  C 21.88 20.68064  17.08 21.88  11 21.88  C 4.92 21.88  0.12 20.68064  0.12 18.68  Z M 11 9.08  C 9.58615104043317 9.08  8.44 7.93384895956683  8.44 6.52  C 8.44 5.10615104043317  9.58615104043317 3.96  11 3.96  C 12.4138489595668 3.96  13.56 5.10615104043317  13.56 6.52  C 13.56 7.93384895956683  12.4138489595668 9.08  11 9.08  Z M 11 7.8  C 11.7069244797834 7.8  12.28 7.22692447978342  12.28 6.52  C 12.28 5.81307552021658  11.7069244797834 5.24  11 5.24  C 10.2930755202166 5.24  9.72 5.81307552021658  9.72 6.52  C 9.72 7.22692447978342  10.2930755202166 7.8  11 7.8  Z " fill-rule="nonzero" fill="#999999" stroke="none" transform="matrix(1 0 0 1 910 279 )" />
  </g>
</svg>