<?xml version="1.0" encoding="utf-8"?>
<svg version="1.1" xmlns:xlink="http://www.w3.org/1999/xlink" width="17px" height="22px" xmlns="http://www.w3.org/2000/svg">
  <g transform="matrix(1 0 0 1 -992 -279 )">
    <path d="M 16.8117456833333 8.68667426096491  C 16.8117457069444 4.00193033552632  13.0833398722222 0.192723111842105  8.49796927916667 0.192723111842105  C 3.91666012777778 0.192723111842105  0.188254293055555 4.00193033552632  0.188254293055555 8.6825248004386  C 0.188254293055555 13.2012902083333  7.63694310277778 21.2263520285088  7.95373574166667 21.5666080087719  C 8.09588629444444 21.7201381447368  8.29489705416667 21.8072768640351  8.50203072083333 21.8072768640351  C 8.5060921625 21.8072768640351  8.51421504583333 21.8072768640351  8.5182764875 21.8072768640351  C 8.72947159583333 21.8072768640351  8.93254379722222 21.7076897390351  9.07063290833333 21.5417112214912  L 11.6496500194444 18.5250514890351  C 15.0775089819444 14.2386560153509  16.8117456833333 10.9273843925439  16.8117456833333 8.68667426096491  Z M 12.2751124611111 8.6825248004386  C 12.2751124611111 10.8153488859649  10.5855516416667 12.5415255745614  8.49796927916667 12.5415255745614  C 6.41038691666667 12.5415255745614  4.72082609722222 10.8153488859649  4.72082609722222 8.6825248004386  C 4.72082609722222 6.54970071491228  6.41038691666667 4.82352402631579  8.49796927916667 4.82352402631579  C 10.5855516416667 4.82352402631579  12.2751124611111 6.54970071491228  12.2751124611111 8.6825248004386  Z " fill-rule="nonzero" fill="#999999" stroke="none" transform="matrix(1 0 0 1 992 279 )" />
  </g>
</svg>