<?xml version="1.0" encoding="utf-8"?>
<svg version="1.1" xmlns:xlink="http://www.w3.org/1999/xlink" width="17px" height="20px" xmlns="http://www.w3.org/2000/svg">
  <g transform="matrix(1 0 0 1 -1071 -279 )">
    <path d="M 9.26232267708333 19.3772332391304  L 8.47070610026042 19.9860752391304  L 7.42975074479167 19.1925734565217  C 6.16173442178852 18.1768725422866  4.9772254162658 17.0645759451905  3.88723250651042 15.8660213043478  C 1.38294462109375 13.0947865869565  0.113088072916667 10.5135640869565  0.113088072916667 8.20264069565218  C 0.174742410986385 3.70937236778593  3.90116698148431 0.0986466676753214  8.47675924962674 0.0986466676753214  C 13.0571281679797 0.0986466676753214  16.7855829675575 3.71664064596718  16.8405866835937 8.21468371739131  C 16.8405866835937 10.5282833478261  15.5720926588542 13.1068296086957  13.0678047513021 15.8767262173913  C 11.9860278752106 17.0583236703505  10.8125699807748 18.1557456888057  9.55798669921875 19.1591206086957  L 9.28548528776042 19.3772332391304  L 9.26232267708333 19.3772332391304  Z M 15.1987657304688 8.21468371739131  C 15.1950119102759 4.56671377904829  12.1851746543437 1.61016246673343  8.47070610026042 1.60573717391304  C 4.75924269261718 1.60646756064235  1.74879697114423 4.55763031932812  1.74128396875 8.20264069565217  C 1.74128396875 10.1121298043478  2.87216478645833 12.3320614347826  5.10258875911458 14.7982060869565  C 6.13416356203874 15.9315494912197  7.25536723573187 16.9830154732018  8.45571851953125 17.9427746956522  L 8.47070610026041 17.9534796304348  L 8.538831453125 17.9066456086957  C 9.71895492466286 16.9601529408867  10.8222835992361 15.9248949589188  11.8388234414062 14.8102491086957  C 14.0678849127604 12.3441044565217  15.1987657304688 10.1268490434783  15.1987657304688 8.21468371739131  Z " fill-rule="nonzero" fill="#999999" stroke="none" transform="matrix(1 0 0 1 1071 279 )" />
  </g>
</svg>