<?xml version="1.0" encoding="utf-8"?>
<svg version="1.1" xmlns:xlink="http://www.w3.org/1999/xlink" width="22px" height="18px" xmlns="http://www.w3.org/2000/svg">
  <g transform="matrix(1 0 0 1 -1069 -283 )">
    <path d="M 14.8393224153226 3.81360165144231  C 14.8370652116217 5.90362197142364  13.1008227953034 7.59736894398588  10.9583646895161 7.59957090144231  C 8.81497092281523 7.59957090144231  7.07740696370968 5.90453473154563  7.07740696370968 3.81360165144231  C 7.07740696370968 1.72266857133898  8.81497092281523 0.0276324014423083  10.9583646895161 0.0276324014423083  C 13.101758456217 0.0276324014423083  14.8393224153226 1.72266857133898  14.8393224153226 3.81360165144231  Z M 13.2012115302419 3.81360165144231  C 13.1997072013881 2.6058375197671  12.1964311470757 1.62711717307769  10.9583646895161 1.62564966346154  C 9.71967458317709 1.62564966346154  8.71551784879032 2.60522913511856  8.71551784879032 3.81360165144231  C 8.71551784879032 5.02197416776605  9.71967458317709 6.00155363942308  10.9583646895161 6.00155363942308  C 12.1970547958552 6.00155363942308  13.2012115302419 5.02197416776605  13.2012115302419 3.81360165144231  Z M 21.8627228830645 16.9040264927885  L 19.4178423689516 10.9420903774038  L 17.6541429758065 10.9420903774038  L 19.8928945342742 16.4019827163462  L 2.10847055241936 16.4019827163462  L 4.3472221108871 10.9420903774038  L 2.58352271774194 10.9420903774038  L 0.138642203629032 16.9106848918269  C 0.101648799810182 17.0032200364953  0.0826655475603822 17.1016725888529  0.0826655475603822 17.2009957716425  C 0.0826655475603822 17.6412392960111  0.447712095261275 17.9985367393394  0.898998663306452 18  L 21.1023664233871 18  C 21.5547077218651 17.9999854626422  21.9213948937587 17.642261366802  21.9213948937587 17.2009913586067  C 21.9213948937587 17.0992620446661  21.901480899232 16.9984685548476  21.8627228830645 16.9040264927885  Z " fill-rule="nonzero" fill="#999999" stroke="none" transform="matrix(1 0 0 1 1069 283 )" />
  </g>
</svg>