<?xml version="1.0" encoding="utf-8"?>
<svg version="1.1" xmlns:xlink="http://www.w3.org/1999/xlink" width="17px" height="22px" xmlns="http://www.w3.org/2000/svg">
  <g transform="matrix(1 0 0 1 -1232 -364 )">
    <path d="M 16.9927977934211 8.62086275  C 16.9927977934211 3.87495563636364  13.2145876315789 0.0275823409090918  8.55401662763158 0.0275823181818182  C 3.89344562368421 0.0275823181818182  0.115235461842105 3.87495561363636  0.115235461842105 8.62086275  C 0.115235461842105 13.366962  8.55401662763158 21.8592738636364  8.55401662763158 21.8592738636364  C 8.55401662763158 21.8592738636364  16.9927977934211 13.366962  16.9927977934211 8.62086275  Z M 14.0144044368421 8.601745  C 14.0144044368421 11.6658673409091  11.5697580894737 14.1497326136364  8.55401662763158 14.1497326136364  C 5.53827516578947 14.1497326136364  3.09362881842105 11.6658673409091  3.09362881842105 8.601745  C 3.09362881842105 5.53762265909091  5.53827516578947 3.05375738636364  8.55401662763158 3.05375738636364  C 11.5697580894737 3.05375738636364  14.0144044368421 5.53762265909091  14.0144044368421 8.601745  Z " fill-rule="nonzero" fill="#999999" stroke="none" transform="matrix(1 0 0 1 1232 364 )" />
  </g>
</svg>