<?xml version="1.0" encoding="utf-8"?>
<svg version="1.1" xmlns:xlink="http://www.w3.org/1999/xlink" width="9px" height="8px" xmlns="http://www.w3.org/2000/svg">
  <g transform="matrix(1 0 0 1 -1237 -368 )">
    <path d="M 2.39911468085106 4.74476741860465  L 1.85922296808511 5.51762727906977  L 0.779641922872339 5.51762727906977  L 0.869590148936169 4.31528067441861  L 0.149903162234042 4.05762795348837  L 0.149903162234042 7.83640348837209  L 0.779743101063829 7.57875076744186  L 0.779743101063829 6.29058544186046  L 2.39911468085106 6.20476674418604  L 3.20874989361702 5.26007286046511  L 2.39911468085106 4.74476741860465  Z M 6.44759423138298 6.3764041627907  L 0.779641922872339 2.76936434883721  L 0.329799614361701 3.19875276744186  L 6.177648375 6.80569427906977  L 6.8073871356383 6.89161130232558  L 7.43722705053191 5.86109872093023  L 6.44759423138298 6.3764041627907  Z M 6.35754482712766 5.86109872093023  L 6.89733536170213 5.86109872093023  L 8.87660102393617 4.31518237209302  L 2.12916882446809 0.0211013953488375  L 1.22948423138298 0.0211013953488375  L 0.149903162234044 1.56701774418605  L 0.149903162234044 2.08232318604651  L 6.35754482712766 5.86109872093023  Z " fill-rule="nonzero" fill="#999999" stroke="none" transform="matrix(1 0 0 1 1237 368 )" />
  </g>
</svg>