<?xml version="1.0" encoding="utf-8"?>
<svg version="1.1" xmlns:xlink="http://www.w3.org/1999/xlink" width="22px" height="22px" xmlns="http://www.w3.org/2000/svg">
  <g transform="matrix(1 0 0 1 -1469 -279 )">
    <path d="M 21.0833333234863 11  C 21.0833333234863 16.5691510219727  16.5691510219727 21.0833333234863  11 21.0833333234863  C 5.43084894848633 21.0833333234863  0.916666676513673 16.5691510219727  0.916666676513673 11  C 0.916666676513673 5.43084897802734  5.43084894848633 0.916666676513671  11 0.916666676513671  C 16.5691510515137 0.916666676513671  21.0833333234863 5.43084897802734  21.0833333234863 11  Z M 2.80729167651367 11  C 2.80729167651367 15.5248958234863  6.47510417651367 19.1927083234863  11 19.1927083234863  C 15.5248958234863 19.1927083234863  19.1927083234863 15.5248958234863  19.1927083234863 11  C 19.1927083234863 6.47510417651367  15.5248958234863 2.80729167651367  11 2.80729167651367  C 6.47510417651367 2.80729167651367  2.80729167651367 6.47510417651367  2.80729167651367 11  Z " fill-rule="nonzero" fill="#999999" stroke="none" transform="matrix(1 0 0 1 1469 279 )" />
  </g>
</svg>