<?xml version="1.0" encoding="utf-8"?>
<svg version="1.1" xmlns:xlink="http://www.w3.org/1999/xlink" width="7px" height="7px" xmlns="http://www.w3.org/2000/svg">
  <g transform="matrix(1 0 0 1 -1479 -286 )">
    <path d="M 2.04166665664063 1.3125  L 2.04166665664063 4.2  L 4.92916665664062 4.2  C 5.46074072835277 4.2  5.89166665664062 4.63092592828786  5.89166665664062 5.1625  C 5.89166665664062 5.69407407171214  5.46074072835277 6.125  4.92916665664062 6.125  L 1.07916665664063 6.125  C 0.813516656640627 6.125  0.572250000000002 6.0172  0.399000000000003 5.84266665664063  C 0.218145115370698 5.66253663496571  0.116537787431855 5.41775535723196  0.116666656640625 5.1625  L 0.116666656640625 1.3125  C 0.116666656640625 0.780925928287862  0.547592584928487 0.35  1.07916665664063 0.35  C 1.61074072835276 0.35  2.04166665664063 0.780925928287862  2.04166665664063 1.3125  Z " fill-rule="nonzero" fill="#999999" stroke="none" transform="matrix(1 0 0 1 1479 286 )" />
  </g>
</svg>