<?xml version="1.0" encoding="utf-8"?>
<svg version="1.1" xmlns:xlink="http://www.w3.org/1999/xlink" width="22px" height="16px" xmlns="http://www.w3.org/2000/svg">
  <g transform="matrix(1 0 0 1 -987 -517 )">
    <path d="M 15.08375 5.26666665848214  L 15.08375 4.63809522991072  L 14.251875 4.63809522991072  L 14.251875 5.26666665848214  L 15.08375 5.26666665848214  Z M 14.2266666587891 5.79047619866071  L 14.2266666587891 6.44523808705357  L 14.8316666587891 6.44523808705357  C 14.9072916587891 6.23571428571428  14.9829166587891 6.02619045982143  15.008125 5.79047619866071  L 14.2266666587891 5.79047619866071  Z M 20.9572916587891 1.46904762723214  C 20.9320833175781 0.709523825892857  20.2010416587891 0.0809523973214285  19.2683333412109 0  L 2.2275 0  C 1.29479165878906 0.0809523727678574  0.56375 0.709523801339286  1 1.46904762723214  L 1 12.7309523727679  C 0.56375 13.123809515625  0.765416658789063 13.4904761741071  1.06791665878906 13.726190484375  C 1.395625 13.9880952544643  1.82416665878906 14.1190476272321  2.2275 14.1190476272321  C 2.53 14.1190476272321  2.80729165878906 14.0404761986607  3.08458334121094 13.9095238013393  C 3.36187502363281 13.7785714040179  3.63916668242187 13.7261904598214  3.94166665878906 13.726190484375  C 4.24416665878906 13.726190484375  4.52145831757812 13.7785714285714  4.79875 13.9095238013393  L 6.48770834121094 14.7214285714286  C 6.765 14.8523809441964  7.04229168242188 14.9047619129464  7.34479165878906 14.9047619129464  C 7.64729165878906 14.9047619129464  7.92458331757812 14.85238096875  8.201875 14.7214285714286  L 9.89083334121094 13.9095238013393  C 10.168125 13.7785714285714  10.4454166824219 13.7261904598214  10.7479166587891 13.726190484375  L 10.773125 13.726190484375  C 10.7479166587891 13.5166666830357  10.7479166587891 13.3333333415179  10.7479166587891 13.15  C 10.7479166587891 11.4476190558036  11.4285416587891 9.92857142857143  12.5125 8.82857142857143  L 12.5125 7.54523808705357  L 11.75625 7.54523808705357  C 11.7310416587891 8.46190474553571  11.5797916587891 9.37857142857142  11.3025 10.2428571428571  C 11.1260416587891 10.1380952299107  10.924375 10.0857142857143  10.7227083412109 10.0333333415179  C 11.075625 8.85476191294643  11.226875 7.62380954017857  11.1764583412109 6.36666665848214  L 11.1764583412109 3.56428571428571  L 11.75625 3.56428571428571  L 11.75625 5.39761905580357  L 12.285625 5.39761905580357  L 12.285625 3.40714285714286  L 12.8402083412109 3.40714285714286  L 12.8402083412109 5.39761905580357  L 13.3191666587891 5.39761905580357  L 13.3191666587891 6  L 11.75625 6  L 11.75625 6.96904762723214  L 13.0670833412109 6.96904762723214  L 13.0670833412109 8.33095237276786  C 13.2435416824219 8.173809515625  13.4452083412109 8.04285714285714  13.646875 7.93809522991071  C 13.5964583412109 7.91190474553571  13.57125 7.88571428571428  13.5460416587891 7.83333334151786  C 13.9241666587891 7.62380954017857  14.251875 7.33571428571428  14.5039583412109 6.99523808705357  L 13.6216666587891 6.99523808705357  L 13.6216666587891 4.11428571428571  L 14.6804166587891 4.11428571428571  C 14.7560416587891 3.87857142857143  14.8064583175781 3.66904762723214  14.856875 3.43333334151786  L 15.613125 3.51190477008928  C 15.5375 3.72142857142857  15.461875 3.93095239732143  15.3610416587891 4.11428571428571  L 17.0752083412109 4.11428571428571  L 17.0752083412109 6.99523808705357  L 15.2602083412109 6.99523808705357  C 15.2097916824219 7.1  15.1341666824219 7.20476188839286  15.0585416587891 7.30952380133928  C 15.1845833175781 7.28333331696428  15.310625 7.23095237276786  15.461875 7.20476191294643  L 15.461875 7.1  L 16.0920833412109 7.1  C 16.2685416824219 7.073809515625  16.4197916824219 7.073809515625  16.59625 7.073809515625  C 18.335625 7.073809515625  19.8733333412109 7.85952380133929  20.9572916587891 9.11666665848214  L 20.9572916587891 1.46904762723214  Z M 10.54625 8.173809515625  L 10.54625 8.85476191294643  L 8.10104165878906 8.85476191294643  L 8.10104165878906 10.1904761986607  L 7.39520834121094 10.1904761986607  L 7.39520834121094 8.85476191294643  L 4.269375 8.85476191294643  L 4.269375 8.173809515625  L 7.39520834121094 8.173809515625  L 7.39520834121094 7.20476191294643  L 5.83229165878906 7.20476191294643  C 5.555 7.17857142857143  5.30291665878906 7.20476191294643  5.05083334121094 7.30952380133929  C 4.97520834121094 7.073809515625  4.89958334121094 6.83809522991071  4.79875 6.60238094419643  C 4.97520834121094 6.55  5.12645834121094 6.36666665848214  5.30291665878906 6.026190484375  C 5.479375 5.73809525446429  5.65583331757813 5.42380954017857  5.80708334121094 5.10952380133929  L 4.39541665878906 5.10952380133929  L 4.39541665878906 4.45476191294643  L 6.10958334121094 4.45476191294643  C 6.26083334121094 4.08809525446429  6.41208334121094 3.72142857142857  6.51291665878906 3.35476191294643  L 7.26916665878906 3.56428571428571  C 7.16833331757813 3.85238094419643  7.04229165878906 4.16666665848214  6.89104165878906 4.45476191294643  L 10.4202083412109 4.45476191294643  L 10.4202083412109 5.10952380133929  L 6.58854165878906 5.10952380133929  C 6.33645831757812 5.60714285714286  6.05916665878906 6.07857142857143  5.75666665878906 6.55  L 7.39520834121094 6.55  L 7.39520834121094 5.50238094419643  L 8.10104165878906 5.50238094419643  L 8.10104165878906 6.55  L 9.94125 6.55  L 9.94125 7.20476191294643  L 8.10104165878906 7.20476191294643  L 8.10104165878906 8.173809515625  L 10.54625 8.173809515625  Z M 16.4197916587891 4.63809522991071  L 15.6635416587891 4.63809522991071  L 15.6635416587891 5.26666665848214  L 16.4197916587891 5.26666665848214  L 16.4197916587891 4.63809522991071  Z M 15.6383333412109 5.79047619866071  C 15.613125 6  15.5627083412109 6.23571428571428  15.4870833412109 6.44523808705357  L 16.445 6.44523808705357  L 16.445 5.79047619866071  L 15.6383333412109 5.79047619866071  Z " fill-rule="nonzero" fill="#aaaaaa" stroke="none" transform="matrix(1 0 0 1 987 517 )" />
  </g>
</svg>