<?xml version="1.0" encoding="utf-8"?>
<svg version="1.1" xmlns:xlink="http://www.w3.org/1999/xlink" width="11px" height="9px" xmlns="http://www.w3.org/2000/svg">
  <g transform="matrix(1 0 0 1 -998 -525 )">
    <path d="M 10.4614583412109 4.50625  C 10.43625 2.05416667382813  8.26833334121094 0.0833333261718749  5.59625 0.0833333261718749  C 2.92416665878906 0.0833333261718749  0.731041658789061 2.05416665234375  0.731041658789061 4.50625  C 0.731041658789061 6.93541667382813  2.89895831757813 8.92916667382813  5.59625 8.92916667382813  C 8.26833334121094 8.92916667382813  10.4614583412109 6.95833334765625  10.4614583412109 4.50625  Z M 6.9575 2.925  C 7.38604165878906 2.42083332617188  8.394375 2.90208332617188  7.96583334121094 3.42916667382813  C 7.20958334121094 4.36875  6.45333334121094 5.30833334765625  5.671875 6.225  C 5.520625 6.43125  5.1425 6.56875  4.89041665878906 6.38541667382813  C 4.33583331757812 6.04166667382813  3.80645831757812 5.69791667382813  3.251875 5.35416667382813  C 2.99979165878906 5.19375  2.87375 4.94166667382813  3.05020834121094 4.68958332617188  C 3.20145834121094 4.48333332617188  3.57958334121094 4.36875  3.83166665878906 4.52916667382813  L 5.04166665878906 5.28541667382813  C 5.671875 4.50625  6.32729165878906 3.70416667382813  6.9575 2.925  Z " fill-rule="nonzero" fill="#aaaaaa" stroke="none" transform="matrix(1 0 0 1 998 525 )" />
  </g>
</svg>