<?xml version="1.0" encoding="utf-8"?>
<svg version="1.1" xmlns:xlink="http://www.w3.org/1999/xlink" width="22px" height="22px" xmlns="http://www.w3.org/2000/svg">
  <g transform="matrix(1 0 0 1 -1548 -279 )">
    <path d="M 9.955 21.7834920634921  L 10.01 21.8393650793651  C 9.52261157005149 21.8273319874969  9.03614537931493 21.7900347892853  8.5525 21.727619047619  L 8.415 21.727619047619  C 4.7025 21.1549206349206  2.1725 17.5371428571429  2.0625 17.3415873015873  C -1.09439792290377 12.8635010019657  -0.405461876516395 6.68532465603752  3.6575 3.03809523809524  C 7.50666710993899 -0.672666486820429  13.4858132698615 -0.853083909844965  17.545 2.61904761904762  C 19.487459359014 4.28977819850235  20.9187898260026 6.49024052912792  21.67 8.96063492063492  C 22.12375 11.4888888888889  21.7525 13.3466666666667  20.55625 14.5479365079365  C 18.71375 16.335873015873  15.675 15.7631746031746  15.2625 15.6793650793651  C 14.7810683804001 15.6004360497753  14.2945003467195 15.7864596707763  13.98375 16.168253968254  C 13.6924216036216 16.5313731483895  13.585534479942 17.0122440177325  13.695 17.4673015873016  C 13.9887961983215 18.1558850347484  14.0326458950164 18.9280109109412  13.81875 19.6463492063492  C 13.1008029355142 21.1126912674738  11.5570143343935 21.9666017901068  9.955 21.7834920634921  Z M 8.6625 20.3866666666667  L 8.635 20.4425396825397  L 8.75875 20.4425396825397  C 10.87625 20.7777777777778  12.16875 20.3587301587302  12.69125 19.1574603174603  C 12.7449764647795 18.7479194205283  12.6829833141328 18.3313012261947  12.5125 17.9561904761905  C 12.2610100245043 17.0753220135435  12.4511565645294 16.1251603240487  13.02125 15.4139682539683  C 13.6192262423427 14.6596584452307  14.5680237619441 14.286895761041  15.51 14.4361904761905  L 15.57875 14.4361904761905  C 15.57875 14.4361904761905  18.32875 15.0228571428571  19.70375 13.6539682539683  C 20.55625 12.815873015873  20.8175 11.3492063492063  20.44625 9.30984126984127  C 19.7466152363467 7.12467675094149  18.449456612922 5.18681139381769  16.70625 3.72253968253968  C 13.1772226903086 0.632658707475952  7.91828949792567 0.759427718516444  4.5375 4.01587301587302  C 0.939090291172014 7.20990221629849  0.342029612058537 12.6687427110503  3.1625 16.5873015873016  C 3.1625 16.5873015873016  5.4725 19.911746031746  8.6625 20.3866666666667  Z " fill-rule="nonzero" fill="#999999" stroke="none" transform="matrix(1 0 0 1 1548 279 )" />
  </g>
</svg>