<?xml version="1.0" encoding="utf-8"?>
<svg version="1.1" xmlns:xlink="http://www.w3.org/1999/xlink" width="4px" height="4px" xmlns="http://www.w3.org/2000/svg">
  <g transform="matrix(1 0 0 1 -1551 -289 )">
    <path d="M 3.92 2.04  C 3.92 3.10775051633954  3.0544171830062 3.97333333333333  1.98666666666667 3.97333333333333  C 1.98223740422592 3.97336356826084  1.97780805149069 3.97337868585667  1.97337868585667 3.97337868585667  C 0.898264372852726 3.97337868585667  0.0267120191900041 3.10182633219395  0.0267120191900041 2.02671201919001  C 0.0267120191900041 0.95159770618606  0.898264372852726 0.0800453525233375  1.97337868585667 0.0800453525233375  C 3.04849299886062 0.0800453525233375  3.92004535252334 0.95159770618606  3.92004535252334 2.02671201919001  C 3.92004535252334 2.03114138482427  3.92003023492751 2.03557073755901  3.92 2.04  Z M 2.07586058773506 1.43333333333333  C 2.0460048239438 1.43333333333333  2.01619069974914 1.43556174560161  1.98666666666667 1.44  C 1.95714263358419 1.43556174560161  1.92732850938954 1.43333333333333  1.89747274559827 1.43333333333333  C 1.56610189569979 1.43333333333333  1.29747274559827 1.70196248343486  1.29747274559827 2.03333333333333  C 1.29747274559827 2.36470418323181  1.56610189569979 2.63333333333334  1.89747274559827 2.63333333333334  C 1.92732850938954 2.63333333333334  1.95714263358418 2.63110492106506  1.98666666666667 2.62666666666667  C 2.01619069974914 2.63110492106506  2.0460048239438 2.63333333333334  2.07586058773506 2.63333333333334  C 2.40723143763354 2.63333333333334  2.67586058773506 2.36470418323181  2.67586058773506 2.03333333333333  C 2.67586058773506 1.70196248343486  2.40723143763354 1.43333333333333  2.07586058773506 1.43333333333333  Z " fill-rule="nonzero" fill="#999999" stroke="none" transform="matrix(1 0 0 1 1551 289 )" />
  </g>
</svg>