<?xml version="1.0" encoding="utf-8"?>
<svg version="1.1" xmlns:xlink="http://www.w3.org/1999/xlink" width="12px" height="7px" xmlns="http://www.w3.org/2000/svg">
  <g transform="matrix(1 0 0 1 -1552 -282 )">
    <path d="M 3.91333333333333 4.79783783783784  C 3.90600505434922 6.0123230933963  3.03659544102728 6.9924609210769  1.96666666666667 6.99243243243243  C 0.891570186282332 6.99240380618914  0.0200456626323368 6.00308249219074  0.0200456626323368 4.78270270331062  C 0.0200456626323368 3.56230267233317  0.891598016295059 2.57297297358089  1.966712329299 2.57297297358089  C 3.04182664230295 2.57297297358089  3.91337899596567 3.56230267233317  3.91337899596567 4.78270270331062  C 3.91337899596567 4.78774779253117  3.91336377499897 4.7927928669591  3.91333333333333 4.79783783783784  Z M 1.96666666666667 4.16216216216216  C 1.63529581676819 4.16216216216216  1.36666666666667 4.46709254876389  1.36666666666667 4.84324324324324  C 1.36666666666667 5.21939393772259  1.63529581676819 5.52432432432432  1.96666666666667 5.52432432432432  C 2.29803751656514 5.52432432432432  2.56666666666667 5.21939393772259  2.56666666666667 4.84324324324324  C 2.56666666666667 4.38918918918919  2.56666666666667 5.2972972972973  2.56666666666667 4.84324324324324  C 2.56666666666667 4.38918918918919  2.56666666666667 5.2972972972973  2.56666666666667 4.84324324324324  C 2.56666666666667 4.46709254876389  2.29803751656514 4.16216216216216  1.96666666666667 4.16216216216216  Z M 7.72666666666667 2.39135135135135  C 7.72666666666667 3.6117513823288  6.85511431300394 4.60108108108108  5.78 4.60108108108108  C 4.70488568699605 4.60108108108108  3.83333333333333 3.6117513823288  3.83333333333333 2.39135135135135  C 3.83333333333333 1.1709513203739  4.70488568699605 0.181621621621622  5.78 0.181621621621622  C 6.85511431300394 0.181621621621622  7.72666666666667 1.1709513203739  7.72666666666667 2.39135135135135  Z M 5.78 1.71027027027027  C 5.44862915010152 1.71027027027027  5.18 2.015200656872  5.18 2.39135135135135  C 5.18 2.7675020458307  5.44862915010152 3.07243243243243  5.78 3.07243243243243  C 6.11137084989848 3.07243243243243  6.38 2.7675020458307  6.38 2.39135135135135  C 6.38 2.015200656872  6.11137084989848 1.71027027027027  5.78 1.71027027027027  Z M 10.0200462974127 5.79680931057655  C 10.0155863804468 5.79680931057655  10.0111264768312 5.79679179253174  10.0066666666667 5.79675675675676  C 8.93155235366272 5.79675675675676  8.06 4.80742705800448  8.06 3.58702702702703  C 8.06 2.36662699604958  8.93155235366272 1.3772972972973  10.0066666666667 1.3772972972973  C 11.0817809796706 1.3772972972973  11.9533333333333 2.36662699604958  11.9533333333333 3.58702702702703  C 11.9533641981827 3.59208951424108  11.953379630746 3.59715210753394  11.953379630746 3.60221471598196  C 11.953379630746 4.81425584263764  11.0877968137522 5.79680931057655  10.0200462974127 5.79680931057655  Z M 10.6066666666667 3.58702702702703  C 10.6066666666667 3.21087633254768  10.3380375165651 2.90594594594595  10.0066666666667 2.90594594594595  C 9.68051428630825 2.91417523407815  9.41991943893047 3.21670856426489  9.42 3.58702702702703  C 9.41556174560161 3.62054079430984  9.41333333333334 3.65438385420647  9.41333333333334 3.68827418067224  C 9.41333333333334 4.06442487515159  9.68196248343486 4.36935526175332  10.0133333333333 4.36935526175332  C 10.3447041832318 4.36935526175332  10.6133333333333 4.06442487515159  10.6133333333333 3.68827418067224  C 10.6133333333333 3.65438385420647  10.6111049210651 3.62054079430984  10.6066666666667 3.58702702702703  Z " fill-rule="nonzero" fill="#999999" stroke="none" transform="matrix(1 0 0 1 1552 282 )" />
  </g>
</svg>