<?xml version="1.0" encoding="utf-8"?>
<svg version="1.1" xmlns:xlink="http://www.w3.org/1999/xlink" width="4px" height="4px" xmlns="http://www.w3.org/2000/svg">
  <g transform="matrix(1 0 0 1 -1563 -287 )">
    <path d="M 1.96 3.99333333333333  C 0.884885686996055 3.99333333333333  0.013333333333333 3.12178097967061  0.013333333333333 2.04666666666666  C 0.013333333333333 0.971552353662721  0.884885686996055 0.0999999999999979  1.96 0.0999999999999979  C 3.03511431300394 0.0999999999999979  3.90666666666667 0.971552353662721  3.90666666666667 2.04666666666666  C 3.90666666666667 3.12178097967061  3.03511431300394 3.99333333333333  1.96 3.99333333333333  Z M 2.0491939210684 1.45333333333333  C 2.01933815727713 1.45333333333333  1.98952403308248 1.45556174560161  1.96 1.46  C 1.93047596691752 1.45556174560161  1.90066184272287 1.45333333333333  1.8708060789316 1.45333333333333  C 1.53943522903312 1.45333333333333  1.2708060789316 1.72196248343486  1.2708060789316 2.05333333333333  C 1.2708060789316 2.38470418323181  1.53943522903312 2.65333333333333  1.8708060789316 2.65333333333333  C 1.90066184272287 2.65333333333333  1.93047596691752 2.65110492106506  1.96 2.64666666666666  C 1.98952403308247 2.65110492106506  2.01933815727713 2.65333333333333  2.0491939210684 2.65333333333333  C 2.38056477096688 2.65333333333333  2.6491939210684 2.38470418323181  2.6491939210684 2.05333333333333  C 2.6491939210684 1.72196248343486  2.38056477096688 1.45333333333333  2.0491939210684 1.45333333333333  Z " fill-rule="nonzero" fill="#999999" stroke="none" transform="matrix(1 0 0 1 1563 287 )" />
  </g>
</svg>