<?xml version="1.0" encoding="utf-8"?>
<svg version="1.1" xmlns:xlink="http://www.w3.org/1999/xlink" width="22px" height="22px" xmlns="http://www.w3.org/2000/svg">
  <g transform="matrix(1 0 0 1 -1629 -279 )">
    <path d="M 7.5625 6.545  L 7.5625 0.605  L 14.7019230769231 0.605  L 14.7019230769231 6.545  L 7.5625 6.545  Z M 8.99038461538462 21.395  L 8.99038461538462 15.455  L 13.2740384615385 15.455  L 13.2740384615385 21.395  L 8.99038461538462 21.395  Z M 0.423076923076923 21.395  L 0.423076923076923 15.455  L 4.70673076923077 15.455  L 4.70673076923077 21.395  L 0.423076923076923 21.395  Z M 17.5576923076923 21.395  L 17.5576923076923 15.455  L 21.8413461538462 15.455  L 21.8413461538462 21.395  L 17.5576923076923 21.395  Z M 3.27884615384615 13.97  L 3.27884615384615 11  L 10.4182692307692 11  L 10.4182692307692 13.97  L 11.8461538461538 13.97  L 11.8461538461538 11  L 18.9855769230769 11  L 18.9855769230769 13.97  L 20.4134615384615 13.97  L 20.4134615384615 9.515  L 11.8461538461538 9.515  L 11.8461538461538 8.03  L 10.4182692307692 8.03  L 10.4182692307692 9.515  L 1.85096153846154 9.515  L 1.85096153846154 13.97  L 3.27884615384615 13.97  Z " fill-rule="nonzero" fill="#999999" stroke="none" transform="matrix(1 0 0 1 1629 279 )" />
  </g>
</svg>