<?xml version="1.0" encoding="utf-8"?>
<svg version="1.1" xmlns:xlink="http://www.w3.org/1999/xlink" width="7px" height="9px" xmlns="http://www.w3.org/2000/svg">
  <g transform="matrix(1 0 0 1 -1157 -368 )">
    <path d="M 6.93445594817073 5.10643199202128  C 6.71262665243903 1.31504854787234  3.82830456707317 1.24907976861702  3.82830456707317 1.24907976861702  L 3.78392066158537 0.111624271276596  L 2.76336157317073 0.0622488590425537  L 2.76336157317073 1.29855635904255  C 2.76336157317073 1.29855635904255  0.248905338414634 1.5293458962766  0.10095899390244 5.10643199202128  L 6.93445594817073 5.10643199202128  Z M 5.9138968597561 5.74932401329787  L 3.51770746036585 5.74932401329787  L 1.12151808231707 5.74932401329787  C 1.12151808231707 5.74932401329787  0.973571737804878 8.667025875  3.51770746036585 8.86483103457447  C 6.03216369512195 8.65053368617021  5.91389683841463 5.74932401329787  5.9138968597561 5.74932401329787  Z M 4.22766946341463 7.20822554521277  C 4.22766946341463 7.57692220212766  3.89984202743902 7.87580528457447  3.49551551829268 7.87580528457447  C 3.09118900914634 7.87580528457447  2.76336157317073 7.57692220212766  2.76336157317073 7.20822554521277  C 2.76336157317073 6.83942771010638  3.09118900914634 6.54054462765957  3.49551551829268 6.54054462765957  C 3.89984202743902 6.54054462765957  4.22766946341463 6.83942771010638  4.22766946341463 7.20822554521277  Z " fill-rule="nonzero" fill="#999999" stroke="none" transform="matrix(1 0 0 1 1157 368 )" />
  </g>
</svg>