<?xml version="1.0" encoding="utf-8"?>
<svg version="1.1" xmlns:xlink="http://www.w3.org/1999/xlink" width="19px" height="19px" xmlns="http://www.w3.org/2000/svg">
  <g transform="matrix(1 0 0 1 -1070 -365 )">
    <path d="M 18.83985078125 9.4755078125  C 18.83985078125 14.639440625  14.63895078125 18.83985078125  9.4755078125 18.83985078125  C 4.31206484375 18.83985078125  0.11116484375 14.639440625  0.11116484375 9.4755078125  C 0.11116484375 4.311575  4.31206484375 0.11116484375  9.4755078125 0.11116484375  C 14.63895078125 0.11116484375  18.83985078125 4.311575  18.83985078125 9.4755078125  Z M 17.2346328125 9.4755078125  C 17.2346328125 5.19672265625  13.753803125 1.7163828125  9.4755078125 1.7163828125  C 5.1972125 1.7163828125  1.7163828125 5.19672265625  1.7163828125 9.4755078125  C 1.7163828125 13.75429296875  5.1972125 17.2346328125  9.4755078125 17.2346328125  C 13.753803125 17.2346328125  17.2346328125 13.75429296875  17.2346328125 9.4755078125  Z " fill-rule="nonzero" fill="#999999" stroke="none" transform="matrix(1 0 0 1 1070 365 )" />
  </g>
</svg>