<?xml version="1.0" encoding="utf-8"?>
<svg version="1.1" xmlns:xlink="http://www.w3.org/1999/xlink" width="22px" height="22px" xmlns="http://www.w3.org/2000/svg">
  <g transform="matrix(1 0 0 1 -1069 -364 )">
    <path d="M 14.9815584590517 10.975552262931  C 14.9815584590517 13.1841608297414  13.1846497844828 14.9815584590517  10.975552262931 14.9815584590517  C 8.76645474137931 14.9815584590517  6.96954606681034 13.1841608297414  6.96954606681034 10.975552262931  C 6.96954606681034 8.76694369612069  8.76645474137931 6.96954606681034  10.975552262931 6.96954606681034  C 13.1846497844828 6.96954606681034  14.9815584590517 8.76694369612069  14.9815584590517 10.975552262931  Z M 13.3792537715517 10.975552262931  C 13.3792537715517 9.6504849137931  12.3011085668103 8.57185075431034  10.975552262931 8.57185075431035  C 9.64999595905172 8.57185075431035  8.57185075431035 9.6504849137931  8.57185075431035 10.975552262931  C 8.57185075431035 12.300619612069  9.64999595905173 13.3792537715517  10.975552262931 13.3792537715517  C 12.3011085668103 13.3792537715517  13.3792537715517 12.300619612069  13.3792537715517 10.975552262931  Z M 11.776704606681 4.03166150323276  C 11.776704606681 4.47416554418103  11.4178118265086 4.83281384698276  10.975552262931 4.83281384698276  C 10.5332926993534 4.83281384698276  10.174399919181 4.47392106681034  10.174399919181 4.03166150323276  L 10.174399919181 0.826807650862069  C 10.174399919181 0.384548087284483  10.5332926993534 0.0256553071120687  10.975552262931 0.0256553071120687  C 11.4178118265086 0.0256553071120687  11.776704606681 0.384548087284483  11.776704606681 0.826807650862069  L 11.776704606681 4.03166150323276  Z M 4.83281384698276 10.975552262931  C 4.83281384698276 11.4178118265086  4.47416554418103 11.776704606681  4.03166150323276 11.776704606681  L 0.826807650862069 11.776704606681  C 0.384548087284483 11.776704606681  0.0256553071120687 11.4178118265086  0.0256553071120687 10.975552262931  C 0.0256553071120687 10.5332926993534  0.384548087284483 10.174399919181  0.826807650862069 10.174399919181  L 4.03166150323276 10.174399919181  C 4.47392106681034 10.174399919181  4.83281384698276 10.5332926993534  4.83281384698276 10.975552262931  Z M 11.776704606681 21.124296875  C 11.776704606681 21.5665564385776  11.4178118265086 21.92544921875  10.975552262931 21.92544921875  C 10.5332926993534 21.92544921875  10.174399919181 21.5665564385776  10.174399919181 21.124296875  L 10.174399919181 17.9194430226293  C 10.174399919181 17.4771834590517  10.5332926993534 17.1182906788793  10.975552262931 17.1182906788793  C 11.4178118265086 17.1182906788793  11.776704606681 17.4771834590517  11.776704606681 17.9194430226293  L 11.776704606681 21.124296875  Z M 21.92544921875 10.975552262931  C 21.92544921875 11.4178118265086  21.5665564385776 11.776704606681  21.124296875 11.776704606681  L 17.9194430226293 11.776704606681  C 17.4771834590517 11.776704606681  17.1182906788793 11.4178118265086  17.1182906788793 10.975552262931  C 17.1182906788793 10.5332926993534  17.4771834590517 10.174399919181  17.9194430226293 10.174399919181  L 21.124296875 10.174399919181  C 21.5665564385776 10.174399919181  21.92544921875 10.5332926993534  21.92544921875 10.975552262931  Z " fill-rule="nonzero" fill="#999999" stroke="none" transform="matrix(1 0 0 1 1069 364 )" />
  </g>
</svg>