<?xml version="1.0" encoding="utf-8"?>
<svg version="1.1" xmlns:xlink="http://www.w3.org/1999/xlink" width="22px" height="6px" xmlns="http://www.w3.org/2000/svg">
  <g transform="matrix(1 0 0 1 -1629 -372 )">
    <path d="M 5.5 3  C 5.5 4.654  4.26616666666667 6  2.75 6  C 1.23383333333333 6  0 4.654  0 3  C 0 1.346  1.23383333333333 0  2.75 0  C 4.26616666666667 0  5.5 1.346  5.5 3  Z M 13.75 3  C 13.75 4.654  12.5161666666667 6  11 6  C 9.48383333333333 6  8.25 4.654  8.25 3  C 8.25 1.346  9.48383333333333 0  11 0  C 12.5161666666667 0  13.75 1.346  13.75 3  Z M 22 3  C 22 4.654  20.7661666666667 6  19.25 6  C 17.7338333333333 6  16.5 4.654  16.5 3  C 16.5 1.346  17.7338333333333 0  19.25 0  C 20.7661666666667 0  22 1.346  22 3  Z " fill-rule="nonzero" fill="#999999" stroke="none" transform="matrix(1 0 0 1 1629 372 )" />
  </g>
</svg>