<?xml version="1.0" encoding="utf-8"?>
<svg version="1.1" xmlns:xlink="http://www.w3.org/1999/xlink" width="24px" height="22px" xmlns="http://www.w3.org/2000/svg">
  <g transform="matrix(1 0 0 1 -349 -364 )">
    <path d="M 23.8054753647431 5.03251250091463  C 23.8054753647431 4.67512575928742  23.5800331067676 4.35627537390393  23.2421946902655 4.23584615384615  C 23.1505539598495 4.20327659662838  23.0539767552664 4.18662866903988  22.9566764433887 4.18662866903988  C 22.5974755766734 4.18662866903988  22.2770919983316 4.4116319868645  22.1564601769912 4.74861538461538  L 21.4989026548673 6.58138461538462  C 20.720520383537 4.84004429306192  19.5030124995917 3.32892069494476  17.9647433628319 2.19492307692308  C 13.0441061946903 -1.43507692307692  6.03355752212389 -0.443384615384615  2.34477876106195 4.40676923076923  C 0.56650041857385 6.72704151088073  -0.19735215297741 9.66344341172939  0.225982300884955 12.5518461538462  C 0.639579008795909 15.4574211209501  2.21201061930735 18.0741485494596  4.58761061946903 19.8101538461538  C 6.51973483012072 21.2348930030666  8.86110815900518 22.0021364445445  11.2651327433628 21.9983076923077  C 14.6633628318584 21.9983076923077  18.0225132743363 20.4786153846154  20.2109734513274 17.6016923076923  C 21.1794690265487 16.3290769230769  21.8421238938053 14.9024615384615  22.1819469026549 13.3607692307692  C 22.1950272815882 13.3012910523722  22.2016247675461 13.2405805807894  22.2016247675461 13.1796923076923  C 22.2016247675461 12.7122985094668  21.8212031055393 12.3334009727085  21.3519292035398 12.3334009727085  C 20.9527114639479 12.3334009727085  20.6073302212836 12.6102054076833  20.5219115044248 12.9986153846154  C 20.2358410065923 14.2994808233289  19.6675120111773 15.5222687425578  18.8567787610619 16.5812307692308  C 15.7270088495575 20.6935384615385  9.77840707964602 21.5312307692308  5.59858407079646 18.4495384615385  C 3.58869794554309 16.981763557397  2.25768109740434 14.7690360978366  1.90640707964602 12.3115384615385  C 1.54883580246501 9.87076483059123  2.19446630683123 7.38949413581509  3.69727433628318 5.42892307692307  C 6.82704424778761 1.31492307692307  12.7722477876106 0.472153846153844  16.9554690265487 3.55553846153846  C 18.4611041019188 4.66665095077993  19.5979809057047 6.20156324186426  20.2194690265487 7.96230769230769  L 17.2986902654867 6.82676923076923  C 17.2092625436002 6.79591975878337  17.1152879548849 6.78016973694602  17.0206482213802 6.78016973694602  C 16.5514505578071 6.78016973694602  16.1710906992563 7.15900571785843  16.1710906992563 7.62632358309987  C 16.1710906992563 7.96320151766672  16.3717274150198 8.26798726950146  16.6819115044248 8.40230769230769  L 20.9789734513274 10.0726153846154  C 21.0809203539823 10.1132307692308  21.1845663716814 10.1318461538462  21.2865132743363 10.1318461538462  C 21.3018053097345 10.1318461538462  21.3136991150443 10.1267692307692  21.3289911504425 10.1267692307692  C 21.3612743362832 10.1301538461538  21.3935575221239 10.1436923076923  21.4258407079646 10.1436923076923  C 21.7844061587118 10.1430271166741  22.103947200309 9.91821308420995  22.2244247787611 9.58184615384615  L 23.7553274336283 5.31892307692308  C 23.7885089999766 5.22704957437815  23.8054753647431 5.13014933946243  23.8054753647431 5.03251250091463  Z " fill-rule="nonzero" fill="#999999" stroke="none" transform="matrix(1 0 0 1 349 364 )" />
  </g>
</svg>