<?xml version="1.0" encoding="utf-8"?>
<svg version="1.1" xmlns:xlink="http://www.w3.org/1999/xlink" width="22px" height="20px" xmlns="http://www.w3.org/2000/svg">
  <g transform="matrix(1 0 0 1 -509 -365 )">
    <path d="M 21.2142857142857 10.7692307692308  L 0.785714285714286 10.7692307692308  C 0.351776267990091 10.7692307692308  0 10.4248344229468  0 10  C 0 9.57516557705324  0.351776267990091 9.23076923076923  0.785714285714286 9.23076923076923  L 21.2142857142857 9.23076923076923  C 21.6482237320099 9.23076923076923  22 9.57516557705324  22 10  C 22 10.4248344229468  21.6482237320099 10.7692307692308  21.2142857142857 10.7692307692308  Z M 21.2142857142857 17.6923076923077  C 21.2142857142857 18.9646153846154  20.1567142857143 20  18.8571428571429 20  L 14.1428571428571 20  C 13.7089191251329 20  13.3571428571429 19.655603653716  13.3571428571429 19.2307692307692  C 13.3571428571429 18.8059348078225  13.7089191251329 18.4615384615385  14.1428571428571 18.4615384615385  L 18.8571428571429 18.4615384615385  C 19.2910808748671 18.4615384615385  19.6428571428571 18.1171421152545  19.6428571428571 17.6923076923077  L 19.6428571428571 13.8461538461538  C 19.6428571428571 13.4213194232071  19.9946334108472 13.0769230769231  20.4285714285714 13.0769230769231  C 20.8625094462956 13.0769230769231  21.2142857142857 13.4213194232071  21.2142857142857 13.8461538461538  L 21.2142857142857 17.6923076923077  Z M 7.07142857142857 20  L 3.14285714285714 20  C 1.84328571428571 20  0.785714285714286 18.9646153846154  0.785714285714286 17.6923076923077  L 0.785714285714286 13.8461538461538  C 0.785714285714286 13.4213194232071  1.13749055370438 13.0769230769231  1.57142857142857 13.0769230769231  C 2.00536658915277 13.0769230769231  2.35714285714286 13.4213194232071  2.35714285714286 13.8461538461538  L 2.35714285714286 17.6923076923077  C 2.35714285714286 18.1171421152545  2.70891912513295 18.4615384615385  3.14285714285714 18.4615384615385  L 7.07142857142857 18.4615384615385  C 7.50536658915277 18.4615384615385  7.85714285714286 18.8059348078225  7.85714285714286 19.2307692307692  C 7.85714285714286 19.655603653716  7.50536658915277 20  7.07142857142857 20  Z M 2.35714285714286 6.15384615384615  C 2.35714285714286 6.57868057679292  2.00536658915277 6.92307692307692  1.57142857142857 6.92307692307692  C 1.13749055370438 6.92307692307692  0.785714285714286 6.57868057679292  0.785714285714286 6.15384615384615  L 0.785714285714286 2.30769230769231  C 0.785714285714286 1.03538461538462  1.84328571428571 0  3.14285714285714 0  L 7.07142857142857 0  C 7.50536658915277 0  7.85714285714286 0.344396346284005  7.85714285714286 0.769230769230769  C 7.85714285714286 1.19406519217753  7.50536658915277 1.53846153846154  7.07142857142857 1.53846153846154  L 3.14285714285714 1.53846153846154  C 2.70891912513295 1.53846153846154  2.35714285714286 1.88285788474554  2.35714285714286 2.30769230769231  L 2.35714285714286 6.15384615384615  Z M 21.2142857142857 6.15384615384615  C 21.2142857142857 6.57868057679292  20.8625094462956 6.92307692307692  20.4285714285714 6.92307692307692  C 19.9946334108472 6.92307692307692  19.6428571428571 6.57868057679292  19.6428571428571 6.15384615384615  L 19.6428571428571 2.30769230769231  C 19.6428571428571 1.88285788474554  19.2910808748671 1.53846153846154  18.8571428571429 1.53846153846154  L 14.1428571428571 1.53846153846154  C 13.7089191251329 1.53846153846154  13.3571428571429 1.19406519217753  13.3571428571429 0.769230769230769  C 13.3571428571429 0.344396346284005  13.7089191251329 0  14.1428571428571 0  L 18.8571428571429 0  C 20.1567142857143 0  21.2142857142857 1.03538461538462  21.2142857142857 2.30769230769231  L 21.2142857142857 6.15384615384615  Z " fill-rule="nonzero" fill="#999999" stroke="none" transform="matrix(1 0 0 1 509 365 )" />
  </g>
</svg>