<?xml version="1.0" encoding="utf-8"?>
<svg version="1.1" xmlns:xlink="http://www.w3.org/1999/xlink" width="22px" height="21px" xmlns="http://www.w3.org/2000/svg">
  <g transform="matrix(1 0 0 1 -589 -436 )">
    <path d="M 12 19.3846153846154  C 12.2222222222222 20.5040769230769  11.541037037037 20.8998461538462  10.9608888888889 20.8998461538462  C 10.4263703703704 20.8998461538462  9.83644444444445 20.5832307692308  9.20414814814815 19.9580769230769  L 4.55155555555556 15.3461538461538  L 2.44444444444444 15.3461538461538  C 1.09674074074074 15.3461538461538  0 14.259  0 12.9230769230769  L 0 8.07692307692308  C 0 6.741  1.09674074074074 5.65384615384615  2.44444444444444 5.65384615384615  L 4.55155555555556 5.65384615384615  L 9.20088888888889 1.04515384615385  C 9.8282962962963 0.424846153846154  10.4182222222222 0.109846153846154  10.956 0.109846153846154  C 11.5394074074074 0.109846153846154  12.2222222222222 0.504  12 1.61538461538462  L 12 19.3846153846154  Z M 4.88888888888889 7.26923076923077  L 2.44444444444444 7.26923076923077  C 1.99443464828602 7.26923076923077  1.62962962962963 7.63084693282897  1.62962962962963 8.07692307692308  L 1.62962962962963 12.9230769230769  C 1.62962962962963 13.369153067171  1.99443464828602 13.7307692307692  2.44444444444444 13.7307692307692  L 4.88888888888889 13.7307692307692  C 5.10562962962963 13.7307692307692  5.31259259259259 13.8163846153846  5.46577777777778 13.9666153846154  L 10.3546666666667 18.816  C 10.441037037037 18.9016153846154  10.5208888888889 18.9726923076923  11 19.0324615384615  L 11 1.96915384615385  C 10.5101209289108 2.03838019205268  10.4307367423907 2.11114174197578  10.3546666666667 2.18723076923077  L 5.46577777777778 7.03338461538462  C 5.31277448843009 7.18491981492889  5.10517429824404 7.26979180212804  4.88888888888889 7.26923076923077  Z M 15.7275555555556 15.6756923076923  C 15.5737378240725 15.8876333094787  15.3260548795729 16.0127992894531  15.0626666666667 16.0116923076923  C 15.0610090173547 16.0117023767446  15.0593513408106 16.0117074113062  15.057693660376 16.0117074113062  C 14.6094839034022 16.0117074113062  14.2461381048204 15.6515377123623  14.2461381048204 15.2072458728446  C 14.2461381048204 15.0364774463086  14.3009593150614 14.8701392040121  14.4026666666667 14.7323076923077  L 14.7253333333333 14.2945384615385  C 15.5678518518519 13.1621538461538  16.2962962962963 12.1816153846154  16.2962962962963 10.5  C 16.2962962962963 8.757  15.650962962963 7.91215384615384  14.8328888888889 6.84276923076923  C 14.6870135552223 6.65290322766209  14.5435944141677 6.46119523563419  14.4026666666667 6.26769230769231  C 14.303054143428 6.13023157016398  14.2494717135302 5.96524950324348  14.2494717135302 5.796  C 14.2494717135302 5.34947243222766  14.614645910466 4.98749031743291  15.0651111111111 4.98749031743291  C 15.3277540852289 4.98749031743291  15.5743271239956 5.11285944737095  15.7275555555556 5.32430769230769  C 15.8611851851852 5.50846153846154  15.9980740740741 5.68938461538461  16.1333333333333 5.86707692307692  C 17.014962962963 7.02207692307692  17.9259259259259 8.21584615384615  17.9259259259259 10.5  C 17.9259259259259 12.7130769230769  16.9220740740741 14.0619230769231  16.0371851851852 15.2540769230769  L 15.7275555555556 15.6756923076923  Z M 18.4474074074074 18.4783846153846  C 18.2925678153756 18.653095084435  18.06927214171 18.7531707334485  17.8346666666667 18.753  C 17.8337421933845 18.7530031254436  17.8328177153969 18.7530046881687  17.831893236738 18.7530046881687  C 17.3827834601719 18.7530046881687  17.0187080515528 18.3921117568977  17.0187080515528 17.9469277650918  C 17.0187080515528 17.7506339071936  17.0909664603418 17.5610854774497  17.2219259259259 17.4138461538461  C 18.8580740740741 15.5658461538462  20.3703703703704 13.4496923076923  20.3703703703704 10.5  C 20.3703703703704 7.55030769230769  18.8580740740741 5.43415384615385  17.2235555555556 3.58615384615385  C 17.0994754817053 3.44042976118633  17.0314109130555 3.25588758159447  17.0314109130555 3.06519570556408  C 17.0314109130555 2.61911956146998  17.3962159317119 2.25750339787177  17.8462257278703 2.25750339787177  C 18.0749005818881 2.25750339787177  18.2930509189357 2.35275533946823  18.4474074074074 2.52  C 20.2041481481482 4.50692307692308  22 7.00753846153846  22 10.5  C 22 13.9924615384615  20.2041481481482 16.4930769230769  18.4474074074074 18.4783846153846  Z " fill-rule="nonzero" fill="#999999" stroke="none" transform="matrix(1 0 0 1 589 436 )" />
  </g>
</svg>