<?xml version="1.0" encoding="utf-8"?>
<svg version="1.1" xmlns:xlink="http://www.w3.org/1999/xlink" width="22px" height="18px" xmlns="http://www.w3.org/2000/svg">
  <g>
    <path d="M 12.9873333333333 17.06544  C 12.3273333333333 17.71488  11.6644 18  11 18  C 10.3370666666667 18  9.67266666666667 17.71488  9.01413333333333 17.06976  L 1.70133333333333 9.81072  C 0.825733333333333 8.73792  0 7.72416  0 5.76  C 0 2.5848  2.63266666666667 0  5.86666666666667 0  C 7.084 0  8.25 0.36288  9.24146666666667 1.04832  C 9.44584210128033 1.18179446191593  9.56864900656269 1.40681031087377  9.56864900656269 1.64780755981141  C 9.56864900656269 2.04545257968958  9.24032448977193 2.36780755981141  8.83531567322935 2.36780755981141  C 8.67722136965998 2.36780755981141  8.52336002499501 2.31764596108294  8.39666666666667 2.2248  C 7.65638935409057 1.71607287543681  6.77465716916671 1.44320467066474  5.87105999865376 1.44320467066474  C 3.44156949356829 1.44320467066474  1.47089417895389 3.37468566078914  1.46666666666667 5.76  C 1.46666666666667 7.1424  1.9316 7.78896  2.82186666666667 8.88192  L 10.054 16.056  C 10.4206666666667 16.41456  10.7154666666667 16.55712  11 16.56144  C 11.2904 16.56576  11.572 16.42176  11.9474666666667 16.05168  L 19.2045333333333 8.85456  C 19.8014666666667 8.22095999999999  20.5333333333333 7.1496  20.5333333333333 5.76144  C 20.5333333333333 3.37968  18.5606666666667 1.44144  16.1333333333333 1.44144  C 15.0318666666667 1.44144  13.9773333333333 1.8432  13.1648 2.57184  L 10.0921333333333 5.58864  C 9.95394666058114 5.72911385391433  9.76356754658601 5.80844750812377  9.56465531579987 5.80844750812377  C 9.15964649925728 5.80844750812377  8.83132198246653 5.48609252800194  8.83132198246653 5.08844750812377  C 8.83132198246653 4.89315186335192  8.91212477842059 4.70623418779307  9.0552 4.57056  L 12.1513333333333 1.52928  C 13.2357766779248 0.546344642337158  14.6574287784152 0.000361687983067043  16.1333333333333 0  C 19.3688 0  22 2.5848  22 5.76  C 22 7.61328  21.0569333333333 9.0072  20.2664 9.84816  L 12.9873333333333 17.06544  Z " fill-rule="nonzero" fill="#999999" stroke="none" />
  </g>
</svg>