<?xml version="1.0" encoding="utf-8"?>
<svg version="1.1" xmlns:xlink="http://www.w3.org/1999/xlink" width="22px" height="19px" xmlns="http://www.w3.org/2000/svg">
  <g>
    <path d="M 22 6.20792079207921  C 22 2.88950495049505  19.3688 0.188118811881188  16.1333333333333 0.188118811881188  C 14.6226666666667 0.188118811881188  13.1868 0.776554455445545  12.0912 1.84506930693069  C 11.7267732623064 2.21608896370663  11.3649858816224 2.58982825678923  11.0058666666667 2.96625742574257  L 9.922 1.85861386138614  C 8.83207960783966 0.783880100862582  7.37827230950546 0.185019860487408  5.86666666666667 0.188118811881188  C 2.63266666666667 0.188118811881188  0 2.88950495049505  0 6.20792079207921  C 0 8.14629702970297  0.943066666666667 9.60158415841584  1.75266666666667 10.4985346534653  L 9.01413333333333 18.026297029703  C 9.59053333333333 18.6162376237624  10.2270666666667 19  11 19  C 11.7729333333333 19  12.4109333333333 18.6162376237624  12.9873333333333 18.0232871287129  L 20.2473333333333 10.4985346534653  L 20.2972 10.4413465346535  C 21.1728 9.32015841584158  22 8.26217821782178  22 6.20792079207921  Z " fill-rule="nonzero" fill="#999999" stroke="none" />
  </g>
</svg>