<?xml version="1.0" encoding="utf-8"?>
<svg version="1.1" xmlns:xlink="http://www.w3.org/1999/xlink" width="22px" height="22px" xmlns="http://www.w3.org/2000/svg">
  <g transform="matrix(1 0 0 1 -109 -678 )">
    <path d="M 22 11  C 22 4.95  17.05 0  11 0  C 4.95 0  0 4.95  0 11  C 0 17.05  4.95 22  11 22  C 17.05 22  22 17.05  22 11  Z M 15.7142857142857 11.1571428571429  C 15.7142857142857 11.3928571428571  15.6357142857143 11.7071428571429  15.4 11.7857142857143  L 9.11428571428572 15.6357142857143  C 8.95714285714286 15.7142857142857  8.8 15.7142857142857  8.64285714285714 15.7142857142857  C 8.48571428571429 15.7142857142857  8.40714285714286 15.7142857142857  8.25 15.6357142857143  C 8.00454043833112 15.4847821875441  7.85561600225477 15.2167182026066  7.85714285714286 14.9285714285714  L 7.85714285714286 7.07142857142857  C 7.85714285714286 6.75714285714286  8.01428571428571 6.52142857142857  8.25 6.36428571428571  C 8.48571428571429 6.20714285714286  8.8 6.20714285714286  9.03571428571428 6.36428571428571  L 15.3214285714286 10.45  C 15.5571428571429 10.6071428571429  15.7142857142857 10.8428571428571  15.7142857142857 11.1571428571429  Z " fill-rule="nonzero" fill="#999999" stroke="none" transform="matrix(1 0 0 1 109 678 )" />
  </g>
</svg>