<?xml version="1.0" encoding="utf-8"?>
<svg version="1.1" xmlns:xlink="http://www.w3.org/1999/xlink" width="22px" height="22px" xmlns="http://www.w3.org/2000/svg">
  <g transform="matrix(1 0 0 1 -109 -436 )">
    <path d="M 0 22  C 0 9.849125  9.849125 0  22 0  L 22 22  L 0 22  Z M 17.64675 9.642875  C 17.9526923564925 9.31727498327343  17.9502757101008 8.80917507943005  17.64125 8.4865  C 17.4961712433653 8.3364345275389  17.2963857353034 8.2516965087674  17.0876574630171 8.2516965087674  C 16.8756274511917 8.2516965087674  16.6729805399371 8.33912799544467  16.5275 8.493375  L 10.775875 14.515875  L 8.229375 11.807125  C 8.08359644740976 11.6490317260772  7.8783483367777 11.559103456951  7.66330213324246 11.559103456951  C 7.45683052462432 11.559103456951  7.25900897620095 11.6420244452392  7.11425 11.78925  C 6.80227956443966 12.1085203730622  6.79502702273385 12.6161982924688  7.09775 12.94425  L 10.21075 16.258  L 10.214875 16.2635  C 10.26575 16.31575  10.32625 16.346  10.385375 16.380375  C 10.41425 16.396875  10.440375 16.424375  10.472 16.438125  C 10.6610071232377 16.519311026732  10.8748725660035 16.5203034417796  11.064625 16.440875  C 11.094875 16.427125  11.119625 16.402375  11.147125 16.385875  C 11.20625 16.350125  11.2695 16.319875  11.319 16.269  C 11.32175 16.267625  11.32175 16.2635  11.33 16.256625  L 17.64675 9.642875  Z " fill-rule="nonzero" fill="#999999" stroke="none" transform="matrix(1 0 0 1 109 436 )" />
  </g>
</svg>