<?xml version="1.0" encoding="utf-8"?>
<svg version="1.1" xmlns:xlink="http://www.w3.org/1999/xlink" width="22px" height="22px" xmlns="http://www.w3.org/2000/svg">
  <g transform="matrix(1 0 0 1 -987 -364 )">
    <path d="M 21.6076219512195 10.8088414634146  C 21.6076219512195 4.86951219512195  16.7481707317073 0.0100609756097572  10.8088414634146 0.0100609756097562  C 4.86951219512195 0.0100609756097562  0.0100609756097572 4.86951219512195  0.0100609756097572 10.8088414634146  C 0.0100609756097572 16.7481707317073  4.86951219512195 21.6076219512195  10.8088414634146 21.6076219512195  C 16.7481707317073 21.6076219512195  21.6076219512195 16.7481707317073  21.6076219512195 10.8088414634146  Z M 16.1310975609756 9.88323170731707  C 16.2082317073171 10.8859756097561  15.8225609756098 11.4259146341463  15.359756097561 11.9658536585366  L 11.7344512195122 15.6682926829268  C 11.4259146341463 15.9768292682927  11.1173780487805 16.1310975609756  10.7317073170732 16.1310975609756  C 10.3460365853659 16.1310975609756  10.0375 15.9768292682927  9.72896341463414 15.6682926829268  L 6.18079268292683 11.9658536585366  C 5.79512195121951 11.5030487804878  5.33231707317073 10.8088414634146  5.33231707317073 9.88323170731707  C 5.33231707317073 8.26341463414634  6.64359756097561 6.95213414634147  8.18628048780488 6.95213414634147  C 8.95762195121951 6.95213414634147  9.65182926829268 7.26067073170732  10.1917682926829 7.80060975609756  L 10.7317073170732 8.3405487804878  C 10.9631097560976 8.10914634146341  11.194512195122 7.80060975609756  11.2716463414634 7.80060975609756  C 11.8115853658537 7.26067073170732  12.5057926829268 6.95213414634147  13.2771341463415 6.95213414634147  C 14.8969512195122 6.95213414634147  16.1310975609756 8.26341463414634  16.1310975609756 9.88323170731707  Z " fill-rule="nonzero" fill="#999999" stroke="none" transform="matrix(1 0 0 1 987 364 )" />
  </g>
</svg>