<?xml version="1.0" encoding="utf-8"?>
<svg version="1.1" xmlns:xlink="http://www.w3.org/1999/xlink" width="22px" height="22px" xmlns="http://www.w3.org/2000/svg">
  <g transform="matrix(1 0 0 1 -1149 -279 )">
    <path d="M 0.0778761061946914 10.9805309734513  C 0.0778761061946914 4.98407079646018  4.98407079646018 0.0778761061946914  10.9805309734513 0.0778761061946903  C 16.9769911504425 0.0778761061946903  21.883185840708 4.90619469026549  21.883185840708 10.9805309734513  C 21.883185840708 16.9769911504425  16.9769911504425 21.883185840708  10.9805309734513 21.883185840708  C 4.98407079646018 21.883185840708  0.0778761061946914 16.9769911504425  0.0778761061946914 10.9805309734513  Z M 15.8867256637168 9.50088495575221  C 15.8867256637168 6.77522123893805  13.7061946902655 4.59469026548673  10.9805309734513 4.59469026548673  C 8.25486725663717 4.59469026548673  6.07433628318584 6.77522123893805  6.07433628318584 9.50088495575221  C 6.07433628318584 12.070796460177  10.5132743362832 16.6654867256637  10.6690265486726 16.8991150442478  C 10.7469026548673 16.9769911504425  10.8247787610619 17.0548672566372  10.9805309734513 17.0548672566372  C 11.058407079646 17.0548672566372  11.2141592920354 16.9769911504425  11.2920353982301 16.8991150442478  L 12.7716814159292 15.1858407079646  C 14.7964601769912 12.6938053097345  15.8088495575221 10.8247787610619  15.8867256637168 9.50088495575221  Z M 10.9026548672566 7.24247787610619  C 12.149938656255 7.24247787610619  13.1610619469027 8.25360116675382  13.1610619469027 9.50088495575221  C 13.1610619469027 10.7481687447506  12.149938656255 11.7592920353982  10.9026548672566 11.7592920353982  C 9.65537107825824 11.7592920353982  8.64424778761062 10.7481687447506  8.64424778761062 9.50088495575221  C 8.64424778761062 8.25360116675382  9.65537107825824 7.24247787610619  10.9026548672566 7.24247787610619  Z " fill-rule="nonzero" fill="#999999" stroke="none" transform="matrix(1 0 0 1 1149 279 )" />
  </g>
</svg>