<?xml version="1.0" encoding="utf-8"?>
<svg version="1.1" xmlns:xlink="http://www.w3.org/1999/xlink" width="19px" height="19px" xmlns="http://www.w3.org/2000/svg">
  <g transform="matrix(1 0 0 1 -1151 -516 )">
    <path d="M 0.0127946047979798 9.57037036237374  C 0.0127946047979798 4.36982086742424  4.22908014267677 0.153535353535354  9.42962963762626 0.153535353535354  C 14.6301791325758 0.153535353535354  18.8464646464646 4.36982086742424  18.8464646464646 9.57037036237374  C 18.8464646464646 14.7709198573232  14.6301791325758 18.987205395202  9.42962963762626 18.987205395202  C 8.37330640530303 18.987205395202  7.33827341666667 18.8127892335859  6.35892256691919 18.474602020202  C 6.0413084010737 18.3536952742052  5.83138844388326 18.0491692402906  5.83138844388326 17.7093204510132  C 5.83138844388326 17.2570792057365  6.19800240946517 16.8904652401546  6.65024365474184 16.8904652401546  C 6.73220074303395 16.8904652401546  6.81369345784638 16.9027691615488  6.89199731439394 16.9269656565657  C 7.70102626262626 17.2053764229798  8.55427341666667 17.3494949494949  9.42962963762626 17.3494949494949  C 13.7259215141271 17.3494949494949  17.2087542247475 13.8666622388745  17.2087542247475 9.57037036237373  C 17.2087542247475 5.27407848587292  13.7259215141271 1.79124577525252  9.42962963762626 1.79124577525252  C 5.13333776112545 1.79124577525252  1.65050505050505 5.27407848587292  1.65050505050505 9.57037036237373  C 1.65050505050505 10.6766437550505  1.88142222222222 11.7485252525253  2.3219663219697 12.7360646464646  C 2.36880887066081 12.8410724200023  2.39301774712353 12.9547661671609  2.39301774712353 13.0697481521465  C 2.39301774712353 13.5221111523073  2.0263050797063 13.8888238197245  1.57394207954545 13.8888238197245  C 1.25065958499489 13.8888238197245  0.95761999893267 13.6986707335907  0.825917837121212 13.4034316578283  C 0.288220096367865 12.1971816654319  0.0111417796819859 10.8910350331879  0.0127946047979798 9.57037036237374  Z " fill-rule="nonzero" fill="#999999" stroke="none" transform="matrix(1 0 0 1 1151 516 )" />
  </g>
</svg>