<?xml version="1.0" encoding="utf-8"?>
<svg version="1.1" xmlns:xlink="http://www.w3.org/1999/xlink" width="11px" height="4px" xmlns="http://www.w3.org/2000/svg">
  <g transform="matrix(1 0 0 1 -1154 -527 )">
    <path d="M 0.398933341101696 1.57344  C 0.0983770160774316 1.23004295752361  0.114043318128537 0.690351559655394  0.433934455508474 0.367679999999999  C 0.581464749709989 0.218872992303636  0.776345791572941 0.136024990272585  0.978850066527434 0.136024990272585  C 1.19850487643767 0.136024990272585  1.40838336333584 0.233456066342171  1.55874351059322 0.405226674999997  C 2.60975867716358 1.61014659700542  4.07980864348472 2.29309535589808  5.61807910381356 2.291093325  C 7.09767232415255 2.291093325  8.48419435805085 1.66986665  9.51911411652542 0.579306674999998  C 9.66790716359809 0.422488638334721  9.86815571804599 0.33462050500805  10.0767457627119 0.33462050500805  C 10.5161835009395 0.33462050500805  10.8724181732976 0.71676315353767  10.8724181732976 1.18816  C 10.8724181732976 1.41714756495946  10.7866464585538 1.63653181136982  10.6343774088983 1.797013325  C 9.296933507625 3.20927527193589  7.49476835718815 3.99961326400249  5.61807910381356 3.99690667499999  C 3.64058451537978 3.99922408942714  1.75074967622958 3.12169509097381  0.398933341101696 1.57344  Z " fill-rule="nonzero" fill="#999999" stroke="none" transform="matrix(1 0 0 1 1154 527 )" />
  </g>
</svg>