<?xml version="1.0" encoding="utf-8"?>
<svg version="1.1" xmlns:xlink="http://www.w3.org/1999/xlink" width="22px" height="22px" xmlns="http://www.w3.org/2000/svg">
  <g transform="matrix(1 0 0 1 -1309 -364 )">
    <path d="M 3.84017021276596 0  L 18.159829787234 0  C 20.1813971849436 0.0155210320840479  21.8538961780324 1.58871130434234  21.9774070824468 3.60650212765957  L 22 3.84017021276596  L 22 18.159829787234  C 21.984478967916 20.1813971849436  20.4112886956577 21.8538961780324  18.3934978723404 21.9774070824468  L 18.159829787234 22  L 3.84017021276596 22  C 1.81860281505642 21.984478967916  0.146103821967642 20.4112886956577  0.0225929175531915 18.3934978723404  L 0 18.159829787234  L 0 3.84017021276596  C 0.0155210320840479 1.81860281505642  1.58871130434234 0.146103821967642  3.60650212765957 0.0225929175531915  L 3.84017021276596 0  Z M 20 3.84017021276596  C 20.0639612922712 2.88277609706928  19.3530086659679 2.07435072508667  18.4034836781915 1.95185249202128  L 18.4034836781915 8.35675461968085  C 18.4034836781915 9.17059860106383  17.6455602739362 9.81168796276596  16.7278638297872 10  L 5.27213617021277 10  C 4.353441125 9.81168793351064  3.59551772074468 9.17059857180851  3.59551772074468 8.35675461968085  L 3.59551772074468 1.95185249202128  C 2.70912647157516 2.06647417747322  2.02172197225017 2.78212249143185  1.94286525797872 3.6724085106383  L 2 3.84017021276596  L 2 18.159829787234  C 1.93566066996435 19.1466849981267  2.68939022073483 19.9701962868335  3.6724085106383 20.0571347420213  L 3.84017021276596 20  L 18.159829787234 20  C 19.1466849981267 20.0643393300356  19.9701962868335 19.3106097792652  20.0571347420213 18.3275914893617  L 20 18.159829787234  L 20 3.84017021276596  Z M 16.4822127659574 1.93487659574468  L 16.483211337766 2  L 5.51579006117021 2  L 5.51579006117021 8  L 16.4822127659574 8  L 16.4822127659574 1.93487659574468  Z M 14.4550921888298 2.88452765957447  L 14.579914893617 2.87953474202128  C 15.1920453803191 2.87953474202128  15.5405503643617 3.22803969680851  15.5405503643617 3.84017021276596  L 15.5405503643617 5.98712057712766  C 15.5405503643617 6.54832340425532  15.2479659574468 6.89383264361702  14.7047375984043 6.94276313031915  L 14.579914893617 6.94775601861702  C 13.9677844069149 6.94775601861702  13.6202780239362 6.6002496356383  13.6202780239362 5.98811914893617  L 13.6202780239362 3.84017021276596  C 13.6202780239362 3.27996595744681  13.9128624308511 2.9334581462766  14.4550921888298 2.88452765957447  Z " fill-rule="nonzero" fill="#999999" stroke="none" transform="matrix(1 0 0 1 1309 364 )" />
  </g>
</svg>