<?xml version="1.0" encoding="utf-8"?>
<svg version="1.1" xmlns:xlink="http://www.w3.org/1999/xlink" width="20px" height="22px" xmlns="http://www.w3.org/2000/svg">
  <g transform="matrix(1 0 0 1 -1390 -364 )">
    <path d="M 19.9802603600828 18.3333129504423  C 19.9802603600828 16.3083688594894  18.3047585070824 14.6667885885246  16.2378299342105 14.6666503671875  C 15.3673756075081 14.6655010867731  14.5239464277802 14.9627691185413  13.8537390131579 15.50692721875  L 7.43004245614035 11.7308758574219  C 7.52988238710507 11.2485258086548  7.52988238710507 10.7514497421264  7.43004245614035 10.2690996933594  L 13.8537390131579 6.49304833203125  C 14.5236921104435 7.03489706858272  15.3653343683588 7.33127705631412  16.2340910792841 7.33127705631412  C 18.2990524022081 7.33127705631412  19.9730343029683 5.69129791291308  19.9730343029683 3.668281116861  C 19.9730343029683 1.64526432080892  18.2990524022081 0.00528517740787137  16.2340910792841 0.00528517740787137  C 14.1691297563601 0.00528517740787137  12.4951478555999 1.64526432080892  12.4951478555999 3.668281116861  C 12.4951478555999 3.91321123115324  12.5202233146379 4.15752381426453  12.5699977412281 4.39755067382813  L 6.14630118421053 8.17360203515625  C 5.4754511526751 7.63045539720191  4.63236420384462 7.33332518359375  3.76207226869894 7.33332518359375  C 1.69504392320666 7.33332518359375  0.0193863695761335 8.97494594316616  0.0193863695761335 10.9999877753906  C 0.0193863695761335 13.0250296076151  1.69504392320666 14.6666503671875  3.76207226869894 14.6666503671875  C 4.63236420384462 14.6666503671875  5.4754511526751 14.3695201535793  6.14630118421053 13.826373515625  L 12.5699977412281 17.6024248769531  C 12.5200511983246 17.8429768366721  12.4948885618372 18.087834669701  12.4948885618372 18.3333129504423  C 12.4948885618372 20.3583547826667  14.1705461154677 21.9999755422391  16.23757446096 21.9999755422391  C 18.3046028064522 21.9999755422391  19.9802603600828 20.3583547826667  19.9802603600828 18.3333129504423  Z M 14.3664869736842 3.66666259179687  C 14.3664869857957 2.65414167814206  15.2043157639728 1.83333130664062  16.2378299342105 1.83333130664062  C 17.2713441130124 1.83333130664062  18.1091728947368 2.65414169123627  18.1091728947368 3.66666261328125  C 18.1091728947368 4.67918353532623  17.2713441130124 5.49999391992187  16.2378299342105 5.49999391992187  C 15.2043157554086 5.49999391992187  14.3664869736842 4.67918353532623  14.3664869736842 3.66666261328125  Z M 5.63355322368421 10.9999877753906  C 5.63355322368421 12.0125086974356  4.79572444195979 12.8333190820313  3.7622102631579 12.8333190820313  C 2.728696084356 12.8333190820313  1.89086730263158 12.0125086974356  1.89086730263158 10.9999877753906  C 1.89086730263158 9.98746685334565  2.728696084356 9.16665646875  3.7622102631579 9.16665646875  C 4.79572444195979 9.16665646875  5.63355322368421 9.98746685334565  5.63355322368421 10.9999877753906  Z M 18.109172872807 18.3333129589844  C 18.109172872807 19.3458338726392  17.2713441044483 20.1666442537595  16.2378299342105 20.166644265625  C 15.2043157334788 20.166644265625  14.3664869517544 19.3458338810294  14.3664869517544 18.3333129589844  C 14.3664869517544 17.3207920369394  15.2043157334788 16.4999816523437  16.2378299122807 16.4999816523437  C 17.2713440910826 16.4999816523437  18.109172872807 17.3207920369394  18.109172872807 18.3333129589844  Z " fill-rule="nonzero" fill="#999999" stroke="none" transform="matrix(1 0 0 1 1390 364 )" />
  </g>
</svg>