<?xml version="1.0" encoding="utf-8"?>
<svg version="1.1" xmlns:xlink="http://www.w3.org/1999/xlink" width="22px" height="19px" xmlns="http://www.w3.org/2000/svg">
  <g transform="matrix(1 0 0 1 -1469 -437 )">
    <path d="M 2.45583293562521 4.75101449275362  L 3.67068969329289 4.75101449275362  L 10 0.00202898550724602  L 10 18.9979710144928  L 3.67068969329289 14.2489855072464  L 2.45583293562521 14.2489855072464  C 1.11046013498082 14.2471334434876  0.0162800514050555 13.1891939387599  0 11.8744927536232  L 0 7.12550724637681  C 0.0162800514050549 5.81080606124015  1.11046013498082 4.75286655651239  2.45583293562521 4.75101449275362  Z M 18.7519214829794 9.5  L 21.8413022177283 6.48083246376812  L 20.1234947623862 4.80206608695652  L 17.0341140276373 7.82123362318841  L 13.9447332928884 4.80206608695652  L 12.2269258375463 6.48083246376812  L 15.3163065722952 9.5  L 12.2269258375463 12.5191675362319  L 13.9447332928884 14.1979339130435  L 17.0341140276373 11.1787663768116  L 20.1234947623862 14.1979339130435  L 21.8413022177283 12.5191675362319  L 18.7519214829794 9.5  Z " fill-rule="nonzero" fill="#999999" stroke="none" transform="matrix(1 0 0 1 1469 437 )" />
  </g>
</svg>