<?xml version="1.0" encoding="utf-8"?>
<svg version="1.1" xmlns:xlink="http://www.w3.org/1999/xlink" width="22px" height="22px" xmlns="http://www.w3.org/2000/svg">
  <g transform="matrix(1 0 0 1 -1549 -436 )">
    <path d="M 2.7522996875 5.5  L 4.1272996875 5.5  L 11 0  L 11 22  L 4.1272996875 16.5  L 2.7522996875 16.5  C 1.23524093129303 16.4958452035086  0.00645448399141259 15.267058756207  0.00229968750000026 13.75  L 0.00229968750000026 8.25  C 0.0064544839914126 6.73294124379303  1.23524093129303 5.50415479649141  2.7522996875 5.5  Z M 18.7806746875 3.2209375  L 16.8364246875 5.165875  C 20.052845798274 8.39032274918766  20.052845798274 13.6096772508123  16.8364246875 16.834125  L 18.7806746875 18.778375  C 23.0695879304854 14.479346239571  23.0695879304854 7.51996626042904  18.7806746875 3.2209375  Z M 14.4899871875 6.138  L 12.5443621875 8.08225  C 14.1529210105778 9.69475563266338  14.1532285164402 12.3048653925897  12.5450496875 13.91775  L 14.4892996875 15.862  C 17.1691375157992 13.1746800951129  17.1694449946794 8.82569881436362  14.4899871875 6.138  Z " fill-rule="nonzero" fill="#999999" stroke="none" transform="matrix(1 0 0 1 1549 436 )" />
  </g>
</svg>