<?xml version="1.0" encoding="utf-8"?>
<svg version="1.1" xmlns:xlink="http://www.w3.org/1999/xlink" width="22px" height="22px" xmlns="http://www.w3.org/2000/svg">
  <g transform="matrix(1 0 0 1 -1549 -364 )">
    <path d="M 21.846746998062 6.14531561821705  C 21.8484584096842 6.63234988596176  21.6551711904921 7.0998096273135  21.3100034689922 7.44341485271318  L 15.2509829786822 13.5024353430233  L 13.5195719786822 11.7716363565891  L 19.1458927170543 6.14531561821705  L 15.6836827306202 2.68371766666667  L 10.057974005814 8.30942637015504  L 8.32717501937984 6.57862738372093  L 14.3861955096899 0.519606914728681  C 15.1129939064137 -0.17246399509583  16.2549835683925 -0.172463995095831  16.9817819651163 0.51960691472868  L 21.3106154825581 4.84721638372093  C 21.655783204058 5.19082160912061  21.8490704232501 5.65828135047235  21.8473590116279 6.14531561821705  Z M 11.7887729922481 13.5024353430233  L 6.16306426744186 19.1287560813953  L 2.70085428100775 15.6665460949612  L 8.32717501937985 10.0408373914729  L 6.59637603294574 8.31003840503876  L 0.53735556395349 14.3684468604651  C -0.178399974806718 15.0858493853214  -0.178399974806719 16.2472428046011  0.53735556395349 16.9646453294574  L 4.86435301937985 21.2922548197674  C 5.58168653789902 22.0087546704865  6.74382998341881 22.0087546704865  7.46116350193799 21.2922548197674  L 13.5201839922481 15.2332343294574  L 11.7887729922481 13.5024353430233  Z M 8.11663936821705 15.443770001938  L 15.4609066162791 8.09950273255814  L 13.730107629845 6.36870374612403  L 6.38584038178295 13.7129710155039  L 8.11663936821705 15.443770001938  Z " fill-rule="nonzero" fill="#999999" stroke="none" transform="matrix(1 0 0 1 1549 364 )" />
  </g>
</svg>