<?xml version="1.0" encoding="utf-8"?>
<svg version="1.1" xmlns:xlink="http://www.w3.org/1999/xlink" width="22px" height="22px" xmlns="http://www.w3.org/2000/svg">
  <g transform="matrix(1 0 0 1 -1629 -436 )">
    <path d="M 16.2691357939815 13.3358024606481  C 15.9432098680556 13.6617283865741  15.3456789953704 13.6617283865741  15.0197530949074 13.3358024606481  L 11 9.3160493912037  L 6.98024690509259 13.3358024606481  C 6.65432097916667 13.6617283865741  6.16543209027778 13.6617283865741  5.83950616435185 13.3358024606481  C 5.51358023842593 13.0098765347222  5.51358023842593 12.5209876458333  5.83950616435185 12.1950617199074  L 10.4567901319444 7.57777777777778  C 10.6197530949074 7.41481481481482  10.837037037037 7.36049383564815  11.0543209791667 7.36049383564815  C 11.2716049212963 7.36049383564815  11.4888888888889 7.41481481481481  11.6518518518519 7.57777777777778  L 16.2691357939815 12.1950617199074  C 16.5950617199074 12.5209876458333  16.5950617199074 13.0098765347222  16.2691357939815 13.3358024606481  Z M 21.8641975393519 20.2345679097222  C 21.8641975393519 21.1580247083333  21.1580247083333 21.8641975393519  20.2345679097222 21.8641975393519  L 1.76543209027778 21.8641975393519  C 0.841975291666667 21.8641975393519  0.135802460648148 21.1580247083333  0.135802460648148 20.2345679097222  L 0.135802460648148 1.76543209027778  C 0.135802460648148 0.841975291666667  0.841975291666667 0.135802460648148  1.76543209027778 0.135802460648148  L 20.2345679097222 0.135802460648148  C 21.1580247083333 0.135802460648148  21.8641975393519 0.841975291666667  21.8641975393519 1.76543209027778  L 21.8641975393519 20.2345679097222  Z M 20 2  L 2 2  L 2 20  L 20 20  L 20 2  Z " fill-rule="nonzero" fill="#999999" stroke="none" transform="matrix(1 0 0 1 1629 436 )" />
  </g>
</svg>