<?xml version="1.0" encoding="utf-8"?>
<svg version="1.1" xmlns:xlink="http://www.w3.org/1999/xlink" width="22px" height="17px" xmlns="http://www.w3.org/2000/svg">
  <g transform="matrix(1 0 0 1 -1229 -438 )">
    <path d="M 21.8641975393519 5.96349205505952  C 21.8641975393519 5.53174601488095  21.4839506342593 5.15396824553571  21.049382724537 5.15396824553571  L 9.64197531712963 5.15396824553571  C 9.20740740740741 5.15396824553571  8.82716050231481 5.53174601488095  8.82716050231481 5.96349205505952  C 8.82716050231481 6.3952380952381  9.20740740740741 6.77301586458333  9.64197531712963 7  L 21.049382724537 7  C 21.4839506342593 6.77301586458333  21.8641975393519 6.3952380952381  21.8641975393519 5.96349205505952  Z M 21.8641975393519 11.0365079449405  C 21.8641975393519 10.6047619047619  21.4839506342593 10.2269841354167  21.049382724537 10  L 9.64197531712963 10  C 9.20740740740741 10.2269841354167  8.82716050231481 10.6047619047619  8.82716050231481 11.0365079449405  C 8.82716050231481 11.468253985119  9.20740740740741 11.8460317544643  9.64197531712963 11.8460317544643  L 21.049382724537 11.8460317544643  C 21.4839506342593 11.8460317544643  21.8641975393519 11.468253985119  21.8641975393519 11.0365079449405  Z M 0.135802460648148 0.944444436011905  C 0.135802460648148 1.37619045089286  0.516049365740741 1.75396824553571  0.950617275462963 2  L 21.049382724537 2  C 21.4839506342593 1.75396824553571  21.8641975393519 1.37619047619048  21.8641975393519 0.944444436011905  C 21.8641975393519 0.512698395833334  21.4839506342593 0.134920626488095  21.049382724537 0.134920626488095  L 0.950617275462964 0.134920626488095  C 0.516049391203704 0.134920626488095  0.135802460648148 0.512698421130953  0.135802460648148 0.944444436011905  Z M 21.8641975393519 16.0555555639881  C 21.8641975393519 15.6238095238095  21.4839506342593 15.2460317544643  21.049382724537 15  L 0.950617275462961 15  C 0.516049365740739 15.2460317544643  0.135802460648146 15.6238095238095  0.135802460648146 16.0555555639881  C 0.135802460648146 16.4873016041667  0.516049365740739 16.8650793735119  0.950617275462961 16.8650793735119  L 21.049382724537 16.8650793735119  C 21.4839506342593 16.8650793735119  21.8641975393519 16.4873016041667  21.8641975393519 16.0555555639881  Z M 5.89382716898148 8.98571428571429  L 1.00493828009259 12.1698412782738  C 0.91091072647135 12.2399040273553  0.796546776928363 12.2777778072917  0.679012328703703 12.2777778072917  C 0.379005802619022 12.2777778072917  0.135802460648147 12.0361537078011  0.135802460648147 11.7380952760417  L 0.135802460648148 5.26190476190476  C 0.135802460648148 4.83015872172619  0.624691349537037 4.56031746875  1.00493828009259 4.83015872172619  L 5.89382716898148 8.06825395982143  C 6.21975309490741 8.2841269672619  6.21975309490741 8.76984125297619  5.89382716898148 8.98571428571429  Z " fill-rule="nonzero" fill="#999999" stroke="none" transform="matrix(1 0 0 1 1229 438 )" />
  </g>
</svg>