<?xml version="1.0" encoding="utf-8"?>
<svg version="1.1" xmlns:xlink="http://www.w3.org/1999/xlink" width="22px" height="22px" xmlns="http://www.w3.org/2000/svg">
  <g transform="matrix(1 0 0 1 -1149 -436 )">
    <path d="M 21.8641975393519 0.950617275462964  C 21.8641975393519 0.516049365740742  21.4839506342593 0.135802460648149  21.049382724537 0.135802460648148  L 0.950617275462961 0.135802460648148  C 0.516049391203704 0.135802460648148  0.135802460648148 0.516049391203704  0.135802460648148 0.950617275462963  L 0.135802460648148 21.049382724537  C 0.135802460648148 21.4839506342593  0.516049365740741 21.8641975393519  0.950617275462963 21.8641975393519  L 21.049382724537 21.8641975393519  C 21.4839506342593 21.8641975393519  21.8641975393519 21.4839506342593  21.8641975393519 21.049382724537  L 21.8641975393519 0.950617275462964  Z M 20 2  L 20 13.4444444444444  L 8.55555555555556 13.4444444444444  L 8.55555555555556 2  L 20 2  Z M 2 20.2345679097222  L 2 1.76543209027778  L 7 1.76543209027778  L 7 20.2345679097222  L 2 20.2345679097222  Z M 20.2345679097222 20  L 8.55555555555556 20  L 8.55555555555556 15  L 20.2345679097222 15  L 20.2345679097222 20  Z " fill-rule="nonzero" fill="#999999" stroke="none" transform="matrix(1 0 0 1 1149 436 )" />
  </g>
</svg>