<?xml version="1.0" encoding="utf-8"?>
<svg version="1.1" xmlns:xlink="http://www.w3.org/1999/xlink" width="22px" height="19px" xmlns="http://www.w3.org/2000/svg">
  <g transform="matrix(1 0 0 1 -1069 -437 )">
    <path d="M 21.8641975393519 4.26811593342391  C 21.8641975393519 3.82753621467391  21.4839506342593 3.44202897690217  21.049382724537 3.44202897690217  L 13.8790123541667 3.44202897690217  L 11.9234567986111 0.523188414402174  C 11.8148148148148 0.302898567934782  11.5432098935185 0.137681176630434  11.2716049467593 0.137681150815217  L 0.950617275462965 0.137681150815217  C 0.516049391203704 0.137681150815218  0.135802460648148 0.523188414402174  0.135802460648148 0.963768107336957  L 0.135802460648148 18.036231892663  C 0.135802460648148 18.476811611413  0.516049365740741 18.8623188491848  0.950617275462963 18.8623188491848  L 21.049382724537 18.8623188491848  C 21.4839506342593 18.8623188491848  21.8641975393519 18.476811611413  21.8641975393519 18.036231892663  L 21.8641975393519 4.26811593342391  Z M 20 5.09420288994565  L 20 17  L 2 17  L 2 1.7898550638587  L 10.837037037037 1.7898550638587  L 12.7925925925926 4.70869565217391  C 12.9555555555556 4.92898549864131  13.1728394976852 5.09420288994565  13.4444444444444 5.09420288994565  L 20 5.09420288994565  Z M 11.8148148148148 10.3260869565217  L 11.8148148148148 8.12318841440217  C 11.8148148148148 7.68260869565218  11.4345679097222 7.29710145788044  11 7.29710145788044  C 10.5654320902778 7.29710145788044  10.1851851851852 7.68260869565218  10.1851851851852 8.12318841440217  L 10.1851851851852 10.3260869565217  L 8.0123456875 10.3260869565217  C 7.57777777777778 10.3260869565217  7.19753087268519 10.7115941942935  7.19753087268519 11.1521739130435  C 7.19753087268519 11.5927536317935  7.57777777777778 11.9782608695652  8.0123456875 11.9782608695652  L 10.1851851851852 11.9782608695652  L 10.1851851851852 14.1811594116848  C 10.1851851851852 14.6217391304348  10.5654320902778 15.0072463682065  11 15.0072463682065  C 11.4345679097222 15.0072463682065  11.8148148148148 14.6217391304348  11.8148148148148 14.1811594116848  L 11.8148148148148 11.9782608695652  L 13.9876543125 11.9782608695652  C 14.4222222222222 11.9782608695652  14.8024691273148 11.5927536317935  14.8024691273148 11.1521739130435  C 14.8024691273148 10.7115941942935  14.4222222222222 10.3260869565217  13.9876543125 10.3260869565217  L 11.8148148148148 10.3260869565217  Z " fill-rule="nonzero" fill="#999999" stroke="none" transform="matrix(1 0 0 1 1069 437 )" />
  </g>
</svg>