<?xml version="1.0" encoding="utf-8"?>
<svg version="1.1" xmlns:xlink="http://www.w3.org/1999/xlink" width="22px" height="22px" xmlns="http://www.w3.org/2000/svg">
  <g transform="matrix(1 0 0 1 -987 -436 )">
    <path d="M 10.1851851851852 13.4444444444444  C 10.1851851851852 13.8790123541667  10.5654320902778 14.2592592592593  11 14.2592592592593  C 11.4345679097222 14.2592592592593  11.8148148148148 13.8790123541667  11.8148148148148 13.4444444444444  L 11.8148148148148 0.950617275462962  C 11.8148148148148 0.51604936574074  11.4345679097222 0.135802460648148  11 0.135802460648148  C 10.5654320902778 0.135802460648148  10.1851851851852 0.51604936574074  10.1851851851852 0.950617275462962  L 10.1851851851852 13.4444444444444  Z M 21.8641975393519 11  C 21.8641975393519 7.41481481481481  20.1259259259259 4.10123457638889  17.1925925925926 2.03703703703704  C 16.8123456875 1.76543209027778  16.3234567986111 1.87407407407407  16.0518518518519 2.25432097916667  C 15.7802469050926 2.63456788425926  15.8888888888889 3.12345677314815  16.2148148148148 3.39506171990741  C 18.7135802384259 5.13333333333333  20.2345679097222 7.95802468287037  20.2345679097222 11  C 20.2345679097222 16.1061728310185  16.1061728564815 20.2345679097222  11 20.2345679097222  C 5.89382714351852 20.2345679097222  1.76543209027778 16.1061728310185  1.76543209027778 11  C 1.76543209027778 7.95802468287037  3.23209875694444 5.13333333333333  5.78518518518519 3.39506171990741  C 6.16543209027778 3.12345677314815  6.27407407407407 2.63456788425926  6.00246912731482 2.25432097916667  C 5.73086418055556 1.87407407407407  5.24197529166667 1.76543209027778  4.86172838657408 2.03703703703704  C 1.87407407407407 4.10123457638889  0.135802460648148 7.41481481481481  0.135802460648148 11  C 0.135802460648148 16.975308650463  5.02469134953704 21.8641975393519  11 21.8641975393519  C 16.975308650463 21.8641975393519  21.8641975393519 16.975308650463  21.8641975393519 11  Z " fill-rule="nonzero" fill="#999999" stroke="none" transform="matrix(1 0 0 1 987 436 )" />
  </g>
</svg>