<?xml version="1.0" encoding="utf-8"?>
<svg version="1.1" xmlns:xlink="http://www.w3.org/1999/xlink" width="22px" height="22px" xmlns="http://www.w3.org/2000/svg">
  <g transform="matrix(1 0 0 1 -907 -436 )">
    <path d="M 16.3626666757812 13.6819999980469  L 16.3626666757812 13.68066665625  C 16.0873333457031 14.3686666621094  15.6060000078125 14.9873333242187  15.1246666699219 15.5366666640625  C 14.5971340260009 16.0720345487672  13.9654697703675 16.4935978323196  13.2686666621094 16.7753333300781  C 12.5813333378906 17.05  11.8253333300781 17.2559999863281  11 17.2560000078125  C 10.1746666699219 17.2560000292969  9.41933334375 17.1186666835937  8.73133333789063 16.7753333300781  C 8.06225899874972 16.4434838910654  7.43850468523915 16.0271995846662  6.87533333007812 15.5366666640625  C 6.34031350377096 15.0091186432178  5.91919054599896 14.3774341992476  5.63800000585937 13.68066665625  C 5.362000015625 12.9939999921875  5.1560000078125 12.2366666640625  5.1560000078125 11.4119999941406  C 5.1560000078125 10.9319999980469  5.2253333515625 10.45  5.2939999921875 10.0373333242187  C 5.43066665625 9.557333328125  5.56866666210937 9.1439999921875  5.77466666992187 8.73066665625  C 5.98133333789062 8.31933332226562  6.2560000078125 7.97533333007812  6.53133333789062 7.56199999414062  C 6.82392927546328 7.19051262312867  7.17174718456448 6.86607743401541  7.56266667578125 6.6  C 7.76933334375 6.46199999414062  7.9753333515625 6.3939999921875  8.18133333789063 6.46199999414062  C 8.38800000585938 6.53199999804687  8.59400001367188 6.6  8.73133333789063 6.8060000078125  C 8.86933334375 7.012000015625  8.93800000585938 7.21933334375  8.86933334375 7.42466666992187  C 8.8 7.63133333789062  8.73133333789063 7.8366666640625  8.52466666992188 7.97466666992188  C 7.97466666992188 8.38733334570312  7.49400001367188 8.86866666210937  7.21866666210938 9.4866666640625  C 6.9439999921875 10.1066666679687  6.7366666640625 10.7246666699219  6.7366666640625 11.4119999941406  C 6.7366666640625 11.9619999941406  6.87466666992188 12.5119999941406  7.08066665625 13.0619999941406  C 7.28733332421875 13.6119999941406  7.63066665625 14.0253333300781  7.97466666992188 14.3686666621094  C 8.34688609925715 14.7498936510633  8.79100656525805 15.0535270301351  9.28133333789063 15.2619999941406  C 9.80133333007813 15.4886666601562  10.3633333417969 15.6053333261719  10.93066665625 15.6060000078125  C 11.48066665625 15.6060000078125  12.03066665625 15.4686666835937  12.5813333378906 15.2619999941406  C 13.1313333378906 15.0559999863281  13.5440000136719 14.7119999941406  13.8873333242188 14.3686666621094  C 14.2685603131727 13.9964472327741  14.5721936922445 13.5523267667732  14.78066665625 13.0619999941406  C 15.0073333222656 12.5413333203125  15.1239999882812 11.9799999902344  15.1253333300781 11.4119999941406  C 15.1253333300781 10.7253333300781  14.9880000058594 10.1059999863281  14.7133333359375 9.5560000078125  C 14.4380000058594 9.0060000078125  14.0253333300781 8.4560000078125  13.4746666699219 8.11199999414062  C 13.26933334375 7.97533333007812  13.2 7.76933332226563  13.1313333378906 7.56199999414062  C 13.0619999941406 7.35599998632812  13.1313333378906 7.15  13.26933334375 6.9439999921875  C 13.4060000078125 6.73733332421875  13.6126666757813 6.66933332226562  13.81933334375 6.6  C 14.0253333515625 6.53133333789062  14.2306666777344 6.6  14.4373333242187 6.7366666640625  C 14.7915715458249 7.02262487172771  15.1142870908446 7.34556390178231  15.4 7.7  C 15.6746666699219 8.0439999921875  15.95 8.4560000078125  16.1560000078125 8.8  C 16.3626666757812 9.21199999414062  16.5 9.62533333007812  16.6380000058594 10.0373333242187  C 16.7753333300781 10.45  16.7753333300781 10.93066665625  16.7753333300781 11.4119999941406  C 16.8439999921875 12.2373333242187  16.7059999863281 12.9939999921875  16.3626666757812 13.6819999980469  Z M 10.1746666699219 5.70666666796875  C 10.1746666699219 5.50066666015625  10.2440000136719 5.29466667382813  10.45 5.08733332421875  C 10.6106666660156 4.91599998828125  10.8340000097656 4.81733331835937  11.0686666621094 4.81266667578125  C 11.2753333300781 4.81266667578125  11.48066665625 4.8826666796875  11.6186666621094 5.08733332421875  C 11.7906666582031 5.24866665039063  11.8899999882812 5.47199999414062  11.8939999921875 5.707333328125  L 11.8939999921875 10.657333328125  C 11.8939999921875 10.8626666542969  11.8246666484375 11.0700000039063  11.6186666621094 11.2080000097656  C 11.48066665625 11.3446666738281  11.2753333300781 11.4813333378906  11.0686666621094 11.4813333378906  C 10.8619999941406 11.4813333378906  10.6559999863281 11.4126666757813  10.45 11.2066666679688  C 10.3126666757812 11.06933334375  10.1746666699219 10.8626666757813  10.1746666699219 10.6566666679688  L 10.1746666699219 5.7060000078125  Z M 22 11  C 22 4.95  17.05 0  11 0  C 4.95 0  0 4.95  0 11  C 0 17.05  4.95 22  11 22  C 17.05 22  22 17.05  22 11  Z " fill-rule="nonzero" fill="#999999" stroke="none" transform="matrix(1 0 0 1 907 436 )" />
  </g>
</svg>