<?xml version="1.0" encoding="utf-8"?>
<svg version="1.1" xmlns:xlink="http://www.w3.org/1999/xlink" width="22px" height="22px" xmlns="http://www.w3.org/2000/svg">
  <g transform="matrix(1 0 0 1 -589 -515 )">
    <path d="M 8.08329310344827 0.60101724137931  L 8.08462068965517 0.60101724137931  C 8.17315107326992 0.575863078328689  8.26474129931262 0.563103816212628  8.35677586206896 0.563103816212628  C 8.90672272065797 0.563103816212628  9.35254273551151 1.00892383106617  9.35254273551151 1.55887068965517  C 9.35254273551151 2.00400192393669  9.05711407517561 2.3950643689192  8.62893103448276 2.51672413793103  C 4.92613430058883 3.57639013801966  2.37384566713681 6.96155081022781  2.37384566713681 10.812991538615  C 2.37384566713681 15.5788280436203  6.23731950695901 19.4423018834425  11.0031560119644 19.4423018834425  C 14.8394993078045 19.4423018834425  18.2152055336905 16.9096191807674  19.2881206896552 13.2263620689655  C 19.4025065514308 12.7879461138873  19.798466003474 12.4820401978346  20.251558350619 12.4820401978346  C 20.801462562735 12.4820401978346  21.2472480057914 12.927825640891  21.2472480057914 13.477729853007  C 21.2472480057914 13.5807607211074  21.2312566084095 13.6831673687656  21.1998448275862 13.7812931034483  C 19.8798914822723 18.3153603703728  15.7247751207771 21.4333364953372  11.002483006263 21.4333364953372  C 5.13683807702566 21.4333364953372  0.381793351090638 16.6782917694021  0.381793351090638 10.8126468401647  C 0.381793351090638 6.0712812000488  3.52454303341941 1.90422326203906  8.08329310344827 0.60101724137931  Z " fill-rule="nonzero" fill="#999999" stroke="none" transform="matrix(1 0 0 1 589 515 )" />
  </g>
</svg>