<?xml version="1.0" encoding="utf-8"?>
<svg version="1.1" xmlns:xlink="http://www.w3.org/1999/xlink" width="11px" height="11px" xmlns="http://www.w3.org/2000/svg">
  <g transform="matrix(1 0 0 1 -600 -515 )">
    <path d="M 10.6282 9.35513333333333  C 10.4560342537979 4.34314681207032  6.34410897785353 0.368550533749241  1.32916666666667 0.366666666666667  C 0.797592594954529 0.366666666666667  0.366666666666667 0.797592594954528  0.366666666666667 1.32916666666667  L 0.366666666666667 9.67083333333333  C 0.366666666666667 10.2021333333333  0.797866666666667 10.6333333333333  1.32916666666667 10.6333333333333  L 9.67083333333334 10.6333333333333  C 10.2025520049845 10.6333333441952  10.6334779332724 10.2024074159074  10.6334779332724 9.67083334419523  C 10.6334779332724 9.66527191614387  10.6334297314823 9.65971059253742  10.6333333333333 9.65415  L 10.6282 9.35513333333333  Z M 2.29166666666667 8.70833333333333  L 2.29166666666667 2.35455  L 2.47133333333333 2.38021666666667  C 5.64595681634342 2.87879089419798  8.13365796126891 5.37323799550311  8.62363333333333 8.5492  L 8.64416666666667 8.70833333333333  L 2.29166666666667 8.70833333333333  Z " fill-rule="nonzero" fill="#999999" stroke="none" transform="matrix(1 0 0 1 600 515 )" />
  </g>
</svg>