<?xml version="1.0" encoding="utf-8"?>
<svg version="1.1" xmlns:xlink="http://www.w3.org/1999/xlink" width="17px" height="19px" xmlns="http://www.w3.org/2000/svg">
  <g transform="matrix(1 0 0 1 -512 -436 )">
    <path d="M 8.5 0.172727272727273  C 3.80557962643825 0.172727272727273  0 4.03935897873406  0 8.80909090909091  L 0 17.7909090909091  C 0 18.3629818181818  0.45696 18.8272727272727  1.02 18.8272727272727  L 15.98 18.8272727272727  C 16.5433304448274 18.8272727272727  17 18.3632769225519  17 17.7909090909091  L 17 8.80909090909091  C 17 4.03935897873406  13.1944203735617 0.172727272727273  8.5 0.172727272727273  Z M 8.5 2.24545454545455  L 8.79512 2.25236363636364  C 12.2444993401972 2.41264120520682  14.95997043211 5.3007109432467  14.96 8.80909090909091  L 14.96 16.7545454545455  L 2.04 16.7545454545455  L 2.04 8.80909090909091  C 2.04 5.1840946420197  4.93224051609308 2.24545454545455  8.5 2.24545454545455  Z " fill-rule="nonzero" fill="#999999" stroke="none" transform="matrix(1 0 0 1 512 436 )" />
  </g>
</svg>