<?xml version="1.0" encoding="utf-8"?>
<svg version="1.1" xmlns:xlink="http://www.w3.org/1999/xlink" width="7px" height="11px" xmlns="http://www.w3.org/2000/svg">
  <g transform="matrix(1 0 0 1 -517 -441 )">
    <path d="M 3.2256 0.570943999999998  L 3.2256 0.569536  C 3.41685844881958 0.257945340945504  3.75496883343413 0.0682441701284066  4.11906825152405 0.0682441701284066  C 4.69896723884639 0.0682441701284066  5.16906825152405 0.541031474307089  5.16906825152405 1.12424417012841  C 5.16906825152405 1.26911006368234  5.13943103827533 1.41242669697674  5.082 1.54528  L 5.0106 1.683264  L 3.0618 4.84  L 5.8268 4.841408  C 6.6808 4.841408  7.1568 5.798848  6.7032 6.48032  L 6.6136 6.597184  L 3.2088 10.469184  C 3.00950283546566 10.6957080772208  2.72318942773588 10.8254093847886  2.422438584288 10.8254093847886  C 1.84253959696566 10.8254093847886  1.372438584288 10.3526220806099  1.372438584288 9.76940938478855  C 1.372438584288 9.56553231297936  1.43112077259477 9.36601406353862  1.5414 9.194944  L 1.6352 9.069632  L 3.4972 6.952  L 1.1732 6.953408  C 0.59293200760991 6.95340806521087  0.122830994932243 6.48062076103219  0.122830994932243 5.89740806521087  C 0.122830994932243 5.74892894417358  0.153964711098661 5.60211875002537  0.2142 5.46656  L 0.2814 5.33984  L 3.2256 0.570943999999998  Z " fill-rule="nonzero" fill="#999999" stroke="none" transform="matrix(1 0 0 1 517 441 )" />
  </g>
</svg>