<?xml version="1.0" encoding="utf-8"?>
<svg version="1.1" xmlns:xlink="http://www.w3.org/1999/xlink" width="19px" height="22px" xmlns="http://www.w3.org/2000/svg">
  <g transform="matrix(1 0 0 1 -429 -436 )">
    <path d="M 9.61108516039823 20.1114214296875  L 4.2919811869469 20.1114214296875  C 4.28987020995876 20.1114270639487  4.28775922667574 20.1114298810828  4.28564824249171 20.1114298810828  C 2.94816798188768 20.1114298810828  1.8631130375566 19.00468723888  2 17.6375128574219  L 2 4.36464305664062  C 1.86021002764551 4.36464024471962  1.86021002764083 4.36463743240825  1.86021002764083 4.36463462048724  C 1.86021002764083 2.9953559474026  2.94611826268031 1.88533626306537  4.28565395573817 1.88533626306537  C 4.28776303549888 1.88533626306537  4.28987211436263 1.88533907511889  4.2919811869469 2  L 14.7150628108407 2  C 14.7168203713005 1.88534079360056  14.718577935394 1.88533884078974  14.7203355000068 1.88533884078974  C 16.0598711930646 1.88533884078974  17.1457794281041 2.99535852512698  17.1457794281041 4.36463719821162  L 17.1457794280973 8.8392376015625  C 17.1619421686304 9.3092330839769  17.5393598353562 9.6817073658209  17.9994302389381 9.6817073658209  C 18.4595006425199 9.6817073658209  18.8369183092457 9.3092330839769  18.8530810497788 8.8392376015625  L 18.8530810497788 4.36464305664062  C 18.8449432222903 2.0351279795713  16.9939903256665 0.15175575718048  14.7150628108407 0.15414768359375  L 4.2919811869469 0.15414768359375  C 2.01264225960727 0.15116096298642  0.161047054801435 2.03470674599752  0.15290842699115 4.36464305664062  L 0.15290842699115 17.6375128574219  C 0.160466952312553 19.9678705442295  2.0122320339607 21.8520713988003  4.2919811869469 21.8490861875  L 9.61108516039823 21.8490861875  C 10.0805050587115 21.8490861875  10.461045074115 21.4600966816229  10.461045074115 20.9802538085937  C 10.461045074115 20.5004109355646  10.0805050587115 20.1114214296875  9.61108516039823 20.1114214296875  Z " fill-rule="nonzero" fill="#999999" stroke="none" transform="matrix(1 0 0 1 429 436 )" />
  </g>
</svg>