<?xml version="1.0" encoding="utf-8"?>
<svg version="1.1" xmlns:xlink="http://www.w3.org/1999/xlink" width="18px" height="17px" xmlns="http://www.w3.org/2000/svg">
  <g transform="matrix(1 0 0 1 -433 -441 )">
    <path d="M 17.8530282169811 11.8116726484375  C 17.8465654764404 8.97890587223996  15.6395224619365 6.68778957139125  12.9230833160377 6.69393047005208  C 10.2214600836123 6.70676994464084  8.03786896724574 8.99427250055965  8.03786896724574 11.8116195031837  C 8.03786896724574 14.6380704618718  10.2350672067779 16.9293616815692  12.9454485922457 16.9293616815692  C 15.6558100755165 16.9293616815692  17.8530000712005 14.6381028524829  17.8530282169811 11.8116726484375  Z M 16.7752351273585 11.8127832708333  C 16.7676033855719 14.0250162733104  15.0444823145106 15.8134828624545  12.9230833160377 15.8110193359375  C 10.8126885056226 15.8006266806447  9.10714198608738 14.0136229027637  9.10714198608738 11.8128278502828  C 9.10714198608738 9.60466304530231  10.8237031056732 7.81459178517865  12.9411885568421 7.81459178517865  C 15.058657313596 7.81459178517865  16.7752115180493 9.60463587532792  16.7752351273585 11.8127832708333  Z M 10.2211480916068 1.81387843854138  C 10.6949925789917 1.81387843854138  11.0794457030386 1.41394615307327  11.0806109363208 0.919811208333334  C 11.0794380670452 0.425068547489198  10.6945103728071 0.0246478196561872  10.220083108417 0.0246478196561872  C 10.2193722216164 0.0246478196561872  10.2186613350891 0.0246487382784414  10.2179504504717 0.0246505755208336  L 0.89482720754717 0.0246505755208342  C 0.884754051060233 0.0242803967671969  0.874675423605567 0.0240952643229172  0.864596014376263 0.0240952643229172  C 0.390514548055887 0.0240952643229172  0.0061955851309801 0.424872330984191  0.0061955851309801 0.919255897135417  C 0.0061955851309801 1.41363946328664  0.390514548055887 1.81441652994792  0.864596014376263 1.81441652994792  C 0.874675423605552 1.81441652994792  0.884754051060248 1.81423139750364  0.89482720754717 1.81386121875  L 10.2158204433962 1.81386121875  C 10.2175963048082 1.81387269858335  10.2193721960751 1.81387843854138  10.2211480916068 1.81387843854138  Z M 5.68099600329053 6.49957452631183  C 6.1552508311714 6.49957452631183  6.53987457041066 6.09897511325833  6.54046079009434 5.60441113932292  C 6.53987457041066 5.1098471653875  6.1552508311714 4.70924775233401  5.68099600329053 4.70924775233401  C 5.68028577417398 4.70924775233401  5.67957554533029 4.70924867039352  5.67886531839623 4.70925050651042  L 0.89482720754717 4.70925050651042  C 0.420745705047921 4.70925050651042  0.036426742123014 5.11002757317169  0.036426742123014 5.60441113932292  C 0.036426742123014 6.09879470547415  0.420745705047921 6.49957177213542  0.894827171368297 6.49957177213542  L 5.67886531839623 6.49957177213542  C 5.67957554533029 6.49957360825232  5.68028577417398 6.49957452631183  5.68099600329053 6.49957452631183  Z M 4.3635743490566 9.61486405078125  L 0.89482720754717 9.61486405078125  C 0.420745741226793 9.61486405078125  0.0364267783018867 10.0156411174425  0.0364267783018867 10.5100246835938  C 0.0364267783018867 11.004408249745  0.420745741226793 11.4051853164063  0.89482720754717 11.4051853164063  L 4.3635743490566 11.4051853164063  C 4.83765581537698 11.4051853164063  5.22197477830189 11.004408249745  5.22197477830189 10.5100246835938  C 5.22197477830189 10.0156411174425  4.83765581537698 9.61486405078125  4.3635743490566 9.61486405078125  Z " fill-rule="nonzero" fill="#999999" stroke="none" transform="matrix(1 0 0 1 433 441 )" />
  </g>
</svg>