<?xml version="1.0" encoding="utf-8"?>
<svg version="1.1" xmlns:xlink="http://www.w3.org/1999/xlink" width="4px" height="6px" xmlns="http://www.w3.org/2000/svg">
  <g transform="matrix(1 0 0 1 -444 -450 )">
    <path d="M 2.40849248076923 3.27677128125  L 3.56056340384615 3.274419375  C 3.77531825611094 3.274419375  3.94941146153846 3.06224328088521  3.94941146153846 2.8005108046875  C 3.94941146153846 2.5387783284898  3.77531825611094 2.326602234375  3.56056340384615 2.326602234375  L 2.84365494230769 2.326602234375  L 3.53065201923077 0.883709390625002  C 3.56423516367816 0.812082839848465  3.58189976812877 0.731014994151998  3.58189976812877 0.648519035156252  C 3.58189976812877 0.386713243899758  3.40775779667199 0.174477716186813  3.19294278846154 0.174477716186813  C 3.05336291235196 0.174477716186813  2.92448456886969 0.265629256359394  2.85523355769231 0.4133286796875  L 2.02157419230769 2.166672796875  L 1.18694994230769 0.413328679687503  C 1.1176989311303 0.265629256359396  0.98882058764804 0.174477716186819  0.849240711538464 0.174477716186819  C 0.634425703328007 0.174477716186819  0.460283731871237 0.386713243899758  0.460283731871237 0.648519035156252  C 0.460283731871237 0.731014994151998  0.477948336321847 0.812082839848465  0.511531480769231 0.883709390625  L 1.19852855769231 2.326602234375  L 0.470041500000003 2.326602234375  C 0.255286647735217 2.326602234375  0.0811934423076934 2.5387783284898  0.0811934423076934 2.8005108046875  C 0.0811934423076934 3.06224328088521  0.255286647735217 3.274419375  0.470041500000003 3.274419375  L 1.62790171153846 3.274419375  L 1.62790171153846 3.6660113203125  L 0.470041500000003 3.6660113203125  C 0.255286647735215 3.6660113203125  0.0811934423076956 3.8781874144273  0.0811934423076956 4.139919890625  C 0.0811934423076956 4.40165236682271  0.255286647735217 4.6138284609375  0.470041500000003 4.6138284609375  L 1.62790171153846 4.6138284609375  L 1.62790171153846 5.34174262500001  C 1.62790171153846 5.60444929266389  1.80264290730143 5.81741512500001  2.01819709615385 5.81741512500001  C 2.23375128500627 5.81741512500001  2.40849248076923 5.60444929266389  2.40849248076923 5.34174262500001  L 2.40849248076923 4.6161803671875  L 3.56635271153846 4.6161803671875  C 3.78110756380325 4.6161803671875  3.95520076923077 4.40400427307271  3.95520076923077 4.142271796875  C 3.95520076923077 3.8805393206773  3.78110756380325 3.6683632265625  3.56635271153846 3.6683632265625  L 2.40849248076923 3.6683632265625  L 2.40849248076923 3.27677128125  Z " fill-rule="nonzero" fill="#999999" stroke="none" transform="matrix(1 0 0 1 444 450 )" />
  </g>
</svg>