<?xml version="1.0" encoding="utf-8"?>
<svg version="1.1" xmlns:xlink="http://www.w3.org/1999/xlink" width="17px" height="19px" xmlns="http://www.w3.org/2000/svg">
  <g transform="matrix(1 0 0 1 -348 -439 )">
    <path d="M 17 3.56727333217593  C 16.9603217915174 1.69038253737173  15.4749957141684 0.170132174134508  13.6430045909091 0.168917850694445  L 3.47321517929293 0.168917850694445  C 1.64122405603365 0.170132174134508  0.155897978684597 1.69038253737173  0.152929166666667 3.56727333217593  L 0.152929166666667 15.4471738148148  C 0.155897978684597 17.324064609619  1.64122405603365 18.8443149728562  3.47321517929293 18.8455292962963  L 13.6430045909091 18.8455292962963  C 15.4749957141684 18.8443149728562  16.9603217915174 17.324064609619  17 15.4471738148148  L 17 3.56727333217593  Z M 15 3.56727333217593  L 15 15.4471738148148  C 15.2303416900867 16.3453115916995  14.5196564219773 17.0729219859727  13.6430045909091 17  L 3.47321517929293 17  C 2.59656334822469 17.0729219859727  1.88587808011533 16.3453115916995  2 15.4471738148148  L 2 3.56727333217593  C 1.88587808011533 2.66913555529122  2.59656334822469 1.94152516101807  3.47321517929293 2  L 13.6430045909091 2  C 14.5196564219773 1.94152516101807  15.2303416900867 2.66913555529122  15 3.56727333217593  Z " fill-rule="nonzero" fill="#999999" stroke="none" transform="matrix(1 0 0 1 348 439 )" />
  </g>
</svg>