<?xml version="1.0" encoding="utf-8"?>
<svg version="1.1" xmlns:xlink="http://www.w3.org/1999/xlink" width="17px" height="19px" xmlns="http://www.w3.org/2000/svg">
  <g transform="matrix(1 0 0 1 -353 -436 )">
    <path d="M 16.8496663225 3.49147925227273  C 16.8467271986022 1.64871374464679  15.3762543820267 0.15610429710479  13.56258317 0.154912052272727  L 3.0754765025 0.154912052272727  C 1.89396366297435 0.155879790917741  0.803364687941818 0.799409909151585  0.21700425625 1.84161176931818  C 0.143806557711613 1.97274626486417  0.105329177756555 2.1209260279161  0.105329177756555 2.27168228579545  C 0.105329177756555 2.75315164053837  0.489474449213548 3.14345967036099  0.963341656249999 3.14345967036099  C 1.27223830122801 3.14345967036099  1.55729228642114 2.97475540465524  1.70967905625 2.70175280227273  C 1.98973308311347 2.20218016184596  2.51176141311466 1.89336400206471  3.0776088975 2  L 13.564715565 2  C 14.4325998476802 1.89431920888532  15.1352244901849 2.60966987088765  15 3.49147925227273  L 15 15.6244508886364  C 15.1334597428855 16.5058357434038  14.4300530153411 17.219557996769  13.56258317 17.2201533227273  C 13.0894470580437 17.2201533227273  12.70589445625 17.6098591748171  12.70589445625 18.0905857056818  C 12.70589445625 18.5713122365465  13.0894470580437 18.9610180886364  13.56258317 18.9610180886364  C 15.3762543820267 18.9598258438043  16.8467271986022 17.4672163962623  16.8496663225 15.6244508886364  L 16.8496663225 3.49147925227273  Z " fill-rule="nonzero" fill="#999999" stroke="none" transform="matrix(1 0 0 1 353 436 )" />
  </g>
</svg>