<?xml version="1.0" encoding="utf-8"?>
<svg version="1.1" xmlns:xlink="http://www.w3.org/1999/xlink" width="10px" height="10px" xmlns="http://www.w3.org/2000/svg">
  <g transform="matrix(1 0 0 1 -351 -443 )">
    <path d="M 9.10562333333333 0.0543395696721311  L 0.8478285625 0.0543395696721322  C 0.384258272779874 0.0543395696721334  0.00846030208333322 0.423976917898237  0.00846030208333322 0.879947694672133  C 0.00846030208333322 1.33591847144603  0.384258272779873 1.70555581967213  0.8478285625 1.70555581967213  L 9.10562333333333 1.70555581967213  C 9.56919362305346 1.70555581967213  9.94499159375 1.33591847144603  9.94499159375 0.879947694672133  C 9.94499159375 0.423976917898237  9.56919362305346 0.0543395696721334  9.10562333333333 0.0543395696721334  Z M 9.10562333333333 4.15770444672131  L 0.8478285625 4.15770444672131  C 0.383969629209526 4.15770444672131  0.00793766666666625 4.52757195086183  0.00793766666666625 4.98382663934426  C 0.00793766666666625 5.4400813278267  0.383969629209526 5.80994883196722  0.8478285625 5.80994883196722  L 9.10562333333333 5.80994883196721  C 9.5694822666238 5.80994883196721  9.94551422916667 5.4400813278267  9.94551422916667 4.98382663934426  C 9.94551422916667 4.52757195086183  9.56948226662381 4.15770444672132  9.10562333333333 4.15770444672132  Z M 6.13281722916667 8.27032272540984  L 0.8478285625 8.27032272540984  C 0.384258278532838 8.27032272540984  0.00846031250000046 8.6399600690487  0.00846031250000046 9.09593084016394  C 0.00846031250000046 9.55190161127918  0.38425827853284 9.92153895491804  0.8478285625 9.92153895491804  L 6.13281722916667 9.92153895491804  C 6.59638751313383 9.92153895491804  6.97218547916667 9.55190161127918  6.97218547916667 9.09593084016394  C 6.97218547916667 8.6399600690487  6.59638751313383 8.27032272540984  6.13281722916667 8.27032272540984  Z " fill-rule="nonzero" fill="#999999" stroke="none" transform="matrix(1 0 0 1 351 443 )" />
  </g>
</svg>