<?xml version="1.0" encoding="utf-8"?>
<svg version="1.1" xmlns:xlink="http://www.w3.org/1999/xlink" width="17px" height="17px" xmlns="http://www.w3.org/2000/svg">
  <g transform="matrix(1 0 0 1 -673 -515 )">
    <path d="M 16.3145881020408 5.32059940463918  C 16.7229367555422 4.91603107359149  16.9342525333085 4.35033152381222  16.8922924234694 3.77406521778351  C 16.8669188432572 3.14346268574826  16.5973205277761 2.54817929934279  16.141603192602 2.11651469974227  L 14.5553642219388 0.687591836340206  C 13.6397726053496 -0.225380321410943  12.1679232747524 -0.225380321410942  11.2523316581633 0.687591836340206  L 2.22230188520408 9.84149149097938  L 2.11350635204082 9.95140864948454  C 1.46073310969388 10.6109115128866  0.846038327806123 11.2704143543814  0.832982848214287 11.6760086134021  L 0.0159283494897977 16.2925286134021  C -0.013136277394772 16.4304053753193  0.0190718349978134 16.5742248416822  0.104052728316328 16.6860319948454  C 0.19007897446476 16.7973572963491  0.322197103366224 16.8622716593073  0.46199004846939 16.8618994046392  L 0.471781658163267 16.8618994046392  C 0.499850368132922 16.8618221214917  0.527739500143931 16.857373179661  0.554466275510206 16.8487093543814  L 5.52533447066327 15.9616780090206  C 5.71028688137755 15.9287028724227  6.08563150765306 15.5758688363402  6.80041819132653 14.8526140451031  C 6.87657506887755 14.7811679085052  6.95273194642857 14.6987300451031  7.01800925765306 14.6393747860825  L 16.3145881020408 5.32059940463918  Z M 4.87038531505102 14.2832432319588  L 2.06454834693878 14.7833662319588  L 2.54216076658163 12.0881979085052  C 2.57262350892857 12.0453302177835  2.6172296875 11.9892724768041  2.68033110714286 11.9156279948454  C 2.72306534657918 12.0112327449307  2.78238709259126 12.0983407793187  2.85549192984694 12.1728340953608  L 4.89432033928572 14.2326813543814  C 4.89885641858652 14.2380011716194  4.90396505714585 14.2427938113925  4.90955171045918 14.2469705773196  L 4.87038531505102 14.2832432319588  Z M 11.9616785803571 7.19248835438144  L 6.15634858035714 13.0147994046392  L 6.13132562117347 12.9873201314433  L 4.09249721173469 10.9263736997423  C 4.01267454075814 10.8456998509936  3.9180780967385 10.7814876429278  3.81398061734694 10.7373162177835  L 9.6682686007653 4.80179049097938  C 9.7105913906379 4.89914671396298  9.77076152343787 4.9875352734789  9.84560533673469 5.0622941314433  L 11.8833457895408 7.12324056314433  C 11.9081554541065 7.14778383350653  11.9343074106605 7.17090269865892  11.9616785803571 7.19248835438144  Z M 15.0895503214286 4.05325475  L 15.0895503214286 4.05765144072165  L 13.1943320357143 5.95372214561856  C 13.1717953627216 5.92400997042814  13.1474506594026 5.89574329677327  13.1214390280612 5.86908595876289  L 11.0826106186224 3.80923869974227  C 11.0077105235541 3.73314732678398  10.9195624686752 3.67166460051601  10.8225892653061 3.62787540463917  L 12.4849851135204 1.94284561340206  C 12.7187685483699 1.71203164935398  13.0921912016301 1.71203164935398  13.3259746364796 1.94284561340206  L 13.3575253354592 1.97472157731959  L 13.3912519693878 2.0043992177835  L 14.955731807398 3.41793366365979  C 15.0706559528072 3.53108664250559  15.1380552914138 3.68459375132356  15.1439480880102 3.84661052706186  L 15.1439480880102 3.89937075  C 15.1487526062449 3.95620704255433  15.1289053374889 4.01235230911899  15.0895503214286 4.05325475  Z " fill-rule="nonzero" fill="#999999" stroke="none" transform="matrix(1 0 0 1 673 515 )" />
  </g>
</svg>