<?xml version="1.0" encoding="utf-8"?>
<svg version="1.1" xmlns:xlink="http://www.w3.org/1999/xlink" width="20px" height="21px" xmlns="http://www.w3.org/2000/svg">
  <g transform="matrix(1 0 0 1 -668 -516 )">
    <path d="M 19.0709399576271 10.709612210041  C 18.6012738003112 10.709612210041  18.2205341525424 11.0962814097013  18.2205341525424 11.573262039959  L 18.2205341525424 17.5356845870902  C 18.2193630224867 18.415220736424  17.5175839323545 19.1279291730418  16.6515354237288 19  L 3.30866824152542 19  C 2.44403813474445 19.126146154622  1.7445019931121 18.4137850776557  2 17.5356845870902  L 2 3.42364626639344  C 1.7445019931121 2.54554577582795  2.44403813474445 1.83318469886161  3.30866824152542 1.83021231147541  L 10.141678940678 1.83021231147541  C 10.6139869731564 1.83021231147541  10.9968682838983 1.44136809507438  10.9968682838983 0.961704445696721  C 10.9968682838983 0.482040796319061  10.6139869731564 0.0931965799180324  10.141678940678 0.0931965799180324  L 3.30866824152542 0.0931965799180324  C 1.49907710114584 0.0961713914690239  0.0331724992543972 1.58587142616796  0 3.42364626639344  L 0 17.5356845870902  C 0.0331724992543976 19.3734594273156  1.49907710114584 20.8631594620146  3.30866824152542 20.8661342735656  L 16.6430313559322 20.8661342735656  C 18.4530376684103 20.8637540533086  19.919588850822 19.3738801975362  19.9213457627119 17.5356845870902  L 19.9213457627119 11.5775802940574  C 19.9213528494766 11.5761408872478  19.9213563928756 11.5747014646941  19.9213563928756 11.5732620398915  C 19.9213563928756 11.0962814096339  19.5406167451067 10.7096122099735  19.0709505877908 10.7096122099735  Z " fill-rule="nonzero" fill="#999999" stroke="none" transform="matrix(1 0 0 1 668 516 )" />
  </g>
</svg>