<?xml version="1.0" encoding="utf-8"?>
<svg version="1.1" xmlns:xlink="http://www.w3.org/1999/xlink" width="22px" height="19px" xmlns="http://www.w3.org/2000/svg">
  <g transform="matrix(1 0 0 1 -349 -516 )">
    <path d="M 13.7260053172607 5.52730763158724  C 13.7260053172607 6.78162296009375  14.7148099913242 7.80481490683778  15.949114331723 7.8277288371065  C 15.9629021054988 7.8279847967402  15.9766918928262 7.82811278456633  15.9904819678244 7.82811278456633  C 17.2411178882786 7.82811278456633  18.254958618388 6.79800722990966  18.254958618388 5.52730763158724  C 18.254958618388 4.25660803326481  17.2411178882786 3.22650247860815  15.9904819678244 3.22650247860815  C 15.9766918928262 3.22650247860815  15.9629021054988 3.22663046643427  15.949114331723 3.22688642606804  C 14.7148099913242 3.2498003563367  13.7260053172607 4.27299230308073  13.7260053172607 5.52730763158724  Z M 21 1.5182818351173  C 21.2310415458937 0.770448170250357  20.6457730542135 0.16187224906066  19.9097661835748 0.16187224906066  L 1.42220848094473 0.16187224906066  C 0.686182716049439 0.16187224906066  0.100933118625767 0.770448170250357  0.100933118625767 1.5182818351173  L 0.100933118625767 17.2038217928072  C 0.100933118625767 17.9516362603012  0.686182716049439 18.5602313788639  1.42220848094473 18.5602313788639  L 19.9097661835748 18.5602313788639  C 20.6457730542135 18.5602313788639  21.2310415458937 17.9516362603012  21 17.2038217928072  L 21 1.5182818351173  Z M 15.0470080515297 9.6346239777714  L 15.0486518518518 9.63462397777146  C 14.8991953488973 9.4514198022652  14.6789621314087 9.34297454444038  14.4448292002147 9.33729506488578  C 14.2046076221148 9.33729506488578  14.0353150831991 9.45196097376148  13.8410254428341 9.61005134034284  L 12.9590982286634 10.3677140601812  C 12.7752949006979 10.5020380789996  12.6285621041331 10.5929568374854  12.4173621041332 10.5929568374854  C 12.2264633676199 10.5941592053124  12.0417529018256 10.524220379726  11.8981857219538 10.3963757380569  C 11.8290605346386 10.3323676174308  11.7613271891615 10.2668247824899  11.6950346752551 10.1997946386284  L 9.15806505636068 7.41162577752514  C 8.95937568970585 7.18114734739205  8.67200589203278 7.04964602374077  8.37045797101458 7.05121429699091  C 8.05445152979063 7.05121429699091  7.76181728395063 7.21013015061097  7.57801395598497 7.42554387294366  L 2 14.7367289949796  L 2 2.25626724763971  C 1.65679957058514 1.9302574595055  1.90671390230812 1.69518562722999  2.22755727321521 2  L 19.0987680085883 2  C 19.4244483091788 1.69518562722999  19.6880798711755 1.94008651447691  19.7074086956521 2.27018534305836  L 19.7211259259259 14.746538852578  L 15.0470080515297 9.6346239777714  Z " fill-rule="nonzero" fill="#999999" stroke="none" transform="matrix(1 0 0 1 349 516 )" />
  </g>
</svg>