<?xml version="1.0" encoding="utf-8"?>
<svg version="1.1" xmlns:xlink="http://www.w3.org/1999/xlink" width="20px" height="20px" xmlns="http://www.w3.org/2000/svg">
  <g transform="matrix(1 0 0 1 -269 -599 )">
    <path d="M 19.6176470588235 18.1421568627451  L 11.5330882352941 10.0575980392157  L 19.6176470588235 1.97303921568627  C 20.0257352941176 1.56495098039216  20.0257352941176 0.892156862745098  19.6176470588235 0.48406862745098  L 19.5735294117647 0.439950980392157  C 19.1654411764706 0.0318627450980388  18.4926470588235 0.0318627450980388  18.0845588235294 0.439950980392157  L 10 8.53553921568627  L 1.91544117647059 0.439950980392157  C 1.50735294117647 0.0318627450980388  0.834558823529411 0.0318627450980388  0.426470588235294 0.439950980392157  L 0.38235294117647 0.48406862745098  C -0.0367647058823536 0.892156862745098  -0.0367647058823536 1.56495098039216  0.38235294117647 1.97303921568627  L 8.46691176470588 10.0575980392157  L 0.38235294117647 18.1421568627451  C -0.0257352941176473 18.5502450980392  -0.0257352941176473 19.2230392156863  0.38235294117647 19.6311274509804  L 0.426470588235294 19.6752450980392  C 0.834558823529411 20.0833333333333  1.50735294117647 20.0833333333333  1.91544117647059 19.6752450980392  L 10 11.5906862745098  L 18.0845588235294 19.6752450980392  C 18.4926470588235 20.0833333333333  19.1654411764706 20.0833333333333  19.5735294117647 19.6752450980392  L 19.6176470588235 19.6311274509804  C 20.0257352941176 19.2230392156863  20.0257352941176 18.5502450980392  19.6176470588235 18.1421568627451  Z " fill-rule="nonzero" fill="#999999" stroke="none" transform="matrix(1 0 0 1 269 599 )" />
  </g>
</svg>