<?xml version="1.0" encoding="utf-8"?>
<svg version="1.1" xmlns:xlink="http://www.w3.org/1999/xlink" width="22px" height="22px" xmlns="http://www.w3.org/2000/svg">
  <g>
    <path d="M 22 1.37414116210938  C 21.993129296875 0.615223954161603  21.3779053427134 0  20.6189881347656 0  L 6.32104934570313 0  C 5.56213213775535 0  4.94690818359375 0.615223954161603  4.94690818359375 1.37414116210938  L 4.94690818359375 4.12242348632812  L 1.38101186523438 4.12242348632813  C 0.622094657286604 4.12242348632813  0.00687070312500002 4.73764744048973  0 5.4965646484375  L 0 20.6121174316406  C 0.00687070312500136 21.3710346395884  0.622094657286604 21.98625859375  1.38101186523438 22  L 16.4965646484375 22  C 17.2554818563853 21.98625859375  17.8707058105469 21.3710346395884  17.8707058105469 20.6121174316406  L 17.8707058105469 17.0256090039063  L 20.6189881347656 17.0256090039063  C 21.3779053427134 17.0256090039063  21.993129296875 16.4103850497447  22 15.6514678417969  L 22 1.37414116210938  Z M 16.4965646484375 5.4965646484375  L 16.4965646484375 15.6514678417969  L 16.4965646484375 20.6121174316406  L 1.38101186523438 20.6121174316406  L 1.38101186523438 5.4965646484375  L 16.4965646484375 5.4965646484375  Z M 20.6189881347656 1.37414116210938  L 20.5640224882813 15.6514678417969  L 17.8707058105469 15.6514678417969  L 17.8707058105469 5.4965646484375  C 17.8707058105469 4.73764744048973  17.2554818563853 4.12242348632813  16.4965646484375 4.12242348632812  L 6.32104934570313 4.12242348632812  L 6.32104934570313 1.37414116210938  L 20.6189881347656 1.37414116210938  Z " fill-rule="nonzero" fill="#999999" stroke="none" />
  </g>
</svg>