<?xml version="1.0" encoding="utf-8"?>
<svg version="1.1" xmlns:xlink="http://www.w3.org/1999/xlink" width="22px" height="16px" xmlns="http://www.w3.org/2000/svg">
  <g transform="matrix(1 0 0 1 -189 -519 )">
    <path d="M 21.8435028681076 10.1609000736765  C 21.8435028681076 7.8019572051852  20.3972030531028 5.67929316340464  18.1883482773437 4.79640708510638  C 16.9437317251926 1.96640799645062  14.1233817050402 0.136410948486323  11.0064677314453 0.136410948486323  C 7.88955375785041 0.136410948486323  5.06920373769803 1.96640799645062  3.82458718554688 4.79640708510638  C 1.61292216560119 5.67791977884488  0.164119792239875 7.80200984383581  0.164119792239875 10.1630206179844  C 0.164119792239875 13.342440765296  2.75501410390183 15.9259770248633  5.965407421875 15.947832787234  C 6.44525029490413 15.947832787234  6.83423980078125 15.5626052688412  6.83423980078125 15.0874030425532  C 6.83423980078125 14.6122008162652  6.44525029490413 14.2269732978723  5.965407421875 14.2269732978723  C 5.96408190164067 14.2269745722237  5.9627563808627 14.2269752093994  5.96143086000377 14.2269752093994  C 3.69914436335313 14.2269752093994  1.86519880336315 12.4107660668175  1.86519880336315 10.170358549825  C 1.86519880336315 8.39476136116259  3.03122168418808 6.82550711149811  4.74300554492187 6.29735525531915  C 4.99631380779216 6.21832338670765  5.19872180766657 6.02811203535404  5.29168505078125 5.78173793617021  C 6.18400137900533 3.41934082333895  8.46334381588823 1.85365941720733  11.0102405810547 1.85365941720733  C 13.5571373462211 1.85365941720733  15.836479783104 3.41934082333894  16.7287961113281 5.78173793617021  C 16.8224916275156 6.027244512515  17.0240845755961 6.21706284971843  17.2763976601563 6.29735525531915  C 18.984697611802 6.8277031517625  20.1473177218137 8.39526804785372  20.1473177218137 10.1682271500888  C 20.1473177218137 12.4086346670813  18.3133721618238 14.2248438096633  16.0510856651731 14.2248438096633  C 16.048821839417 14.2248438096633  16.0465580140508 14.2248419511224  16.0442941914063 14.2248382340426  C 15.5644513183771 14.2248382340426  15.1754618125 14.6100657524354  15.1754618125 15.0852679787234  C 15.1754618125 15.5604702050114  15.5644513183771 15.9456977234043  16.0442941914063 15.9456977234043  C 19.2538687528677 15.9227162191983  21.8435028681076 13.3395173417929  21.8435028681076 10.1609000736765  Z " fill-rule="nonzero" fill="#999999" stroke="none" transform="matrix(1 0 0 1 189 519 )" />
  </g>
</svg>