<?xml version="1.0" encoding="utf-8"?>
<svg version="1.1" xmlns:xlink="http://www.w3.org/1999/xlink" width="9px" height="13px" xmlns="http://www.w3.org/2000/svg">
  <g transform="matrix(1 0 0 1 -195 -516 )">
    <path d="M 8.97757321503115 5.73932004403747  C 8.97757321503115 5.69840602408057  8.9638220990868 5.65856143341294  8.93832426 5.62559410690789  L 4.6619991225 0.240147546052629  C 4.62425508736694 0.192417360054627  4.56508575240288 0.164336337944623  4.50225783 0.164336337944623  C 4.43942990759712 0.164336337944623  4.38026057263306 0.192417360054626  4.3425165375 0.24014754605263  L 0.067320292500001 5.6255941069079  C 0.0405867554129594 5.65887674622404  0.0261053966015201 5.69958659877289  0.0261053966015201 5.74145701429732  C 0.0261053966015201 5.84671436685607  0.11573442806446 5.93212368711478  0.226497127499999 5.93241435526316  L 3.5917889175 5.93241435526316  L 3.5917889175 12.0055245246711  C 3.5917889175 12.4812940266374  3.99765072081547 12.866981412829  4.4983066275 12.866981412829  C 4.99896253418454 12.866981412829  5.4048243375 12.4812940266374  5.4048243375 12.0055245246711  L 5.4048243375 5.93134155592105  L 8.7735028725 5.93134155592105  C 8.77416777976132 5.93134779357471  8.77483271537123 5.93135091245852  8.77549765503115 5.93135091245852  C 8.88710090513267 5.93135091245852  8.97757321503115 5.84537576416318  8.97757321503115 5.73932004403747  Z " fill-rule="nonzero" fill="#999999" stroke="none" transform="matrix(1 0 0 1 195 516 )" />
  </g>
</svg>