<?xml version="1.0" encoding="utf-8"?>
<svg version="1.1" xmlns:xlink="http://www.w3.org/1999/xlink" width="22px" height="20px" xmlns="http://www.w3.org/2000/svg">
  <g transform="matrix(1 0 0 1 -109 -517 )">
    <path d="M 21.8480082304688 3.32574074786325  C 21.8444420114735 1.50085749939458  20.3563030624899 0.0232105479262504  18.5214366132813 0.0226228418803423  C 18.0430820883255 0.0226228418803426  17.6552991269531 0.408296649616609  17.6552991269531 0.884049401709402  C 17.6552991269531 1.3598021538022  18.0430820883254 1.74547596153846  18.5214366132813 1.74547596153846  C 19.3993150703519 1.74547516000016  20.1113098481652 2.45263787803331  20 3.32574074786325  L 20 16.5478611965812  C 20.1113098481652 17.4209640664111  19.3993150703519 18.1281267844443  18.5214366132813 18  L 3.47964134375 18  C 2.60158765731421 18.1281277842864  1.88928406896328 17.4211373428621  2 16.5478611965812  L 2 3.32574074786325  C 1.88928406896329 2.45246460158233  2.60158765731421 1.745474160158  3.47964134375 1.74547596153846  C 3.9579958687058 1.74547596153846  4.34577883007813 1.3598021538022  4.34577883007813 0.884049401709402  C 4.34577883007813 0.408296649616609  3.9579958687058 0.0226228418803426  3.47964134375 0.0226228418803426  C 1.64477489454134 0.0232105479262498  0.156635945557771 1.50085749939459  0.1530697265625 3.32574074786325  L 0.1530697265625 16.5478611965812  C 0.156636856843406 18.3725707723995  1.64494941971276 19.8499104574155  3.47964134375 19.849907008547  L 18.5214366132813 19.849907008547  C 20.3561285373185 19.8499104574155  21.8444411001878 18.3725707723995  21.8480082304688 16.5478611965812  L 21.8480082304688 3.32574074786325  Z " fill-rule="nonzero" fill="#999999" stroke="none" transform="matrix(1 0 0 1 109 517 )" />
  </g>
</svg>