<?xml version="1.0" encoding="utf-8"?>
<svg version="1.1" xmlns:xlink="http://www.w3.org/1999/xlink" width="12px" height="15px" xmlns="http://www.w3.org/2000/svg">
  <g transform="matrix(1 0 0 1 -114 -515 )">
    <path d="M 0.90751772459162 5.29897161713443  C 0.910745357375194 5.29897161713443  0.913972964593255 5.29895375570929  0.917200392857143 5.29891803370787  C 0.630492150000001 5.29891803370786  1.20390863571429 5.29891803370787  0.917200392857145 5.29891803370787  C 1.3922341633995 5.29891803370787  1.77732512142857 4.92031737272422  1.77732512142857 4.45328978932584  L 1.77732512142857 1.00101244382023  C 1.77732512142857 0.531357827254619  1.39006802427816 0.150627535112359  0.912362185714286 0.150627535112359  C 0.434656347150413 0.150627535112359  0.0473992500000004 0.531357827254619  0.0473992500000004 1.00101244382023  L 0.0473992500000004 4.45011865870787  C 0.0473950806839166 4.45119355850466  0.0473929960201915 4.45226846513994  0.0473929960201915 4.45334337275241  C 0.0473929960201915 4.92037095615078  0.432483954049269 5.29897161713443  0.90751772459162 5.29897161713443  Z M 11.0752674187743 5.29892863410159  C 11.076702997836 5.29892863410159  11.0781385746483 5.29892510062594  11.0795741357143 5.29891803370787  C 11.081366042466 5.29892904459886  11.0831579798421 5.29893455008467  11.0849499215931 5.29893455008467  C 11.5599836921354 5.29893455008467  11.9450746501645 4.92033388910103  11.9450746501645 4.45330630570265  L 11.94507465 1.00101244382023  C 11.94507465 0.531357827254621  11.5578175528496 0.150627535112359  11.0801117142857 0.150627535112359  C 10.6024058757218 0.150627535112359  10.2151487785714 0.531357827254619  10.2151487785714 1.00101244382023  L 10.2151487785714 4.45011865870787  C 10.2151447196626 4.4511792310198  10.2151426902028 4.45223980990035  10.2151426902028 4.45330038971956  C 10.2151426902028 4.92032797311794  10.6002336482319 5.29892863410159  11.0752674187743 5.29892863410159  Z M 4.16739672857143 3.57489343398876  L 7.68208144285714 3.57489343398876  C 8.15919348852734 3.57489343398876  8.54596922142857 3.19463639321509  8.54596922142857 2.72556556179775  C 8.54596922142857 2.25649473038042  8.15919348852734 1.87623768960674  7.68208144285714 1.87623768960674  L 4.16739672857143 1.87623768960674  C 3.69028468290123 1.87623768960674  3.30350895 2.25649473038042  3.30350895 2.72556556179775  C 3.30350895 3.19463639321509  3.69028468290123 3.57489343398876  4.16739672857143 3.57489343398876  Z M 1.53326472857143 12.3577998455056  L 1.53111441428571 12.3588568820225  L 3.82119653571429 14.6061139676966  C 4.303387476364 15.0770769792694  5.08183333077885 15.0770769792694  5.56402427142857 14.6061139676966  L 10.4699607214286 9.79131811095506  C 10.6316463624217 9.63193772084279  10.7224446013333 9.41602332411017  10.7224446013333 9.19092205407303  C 10.7224446013333 8.72136396250578  10.3352670945656 8.34071191933527  9.85765943571429 8.34071191933527  C 9.62790896065908 8.34071191933527  9.40760189852044 8.43059545683114  9.24535815 8.59052599719101  L 4.69207283571429 13.0596712921348  L 2.75679216428571 11.1570077317416  C 2.59464136074471 10.9973091412313  2.37454626350383 10.9075677758079  2.14502844642857 10.9075677758079  C 1.66763095149797 10.9075677758079  1.28062381625028 11.2880523188885  1.28062381625028 11.7574037886236  C 1.28062381625028 11.9825353205364  1.37148616291652 12.1984678635131  1.53326472857143 12.3577998455056  Z " fill-rule="nonzero" fill="#999999" stroke="none" transform="matrix(1 0 0 1 114 515 )" />
  </g>
</svg>