<?xml version="1.0" encoding="utf-8"?>
<svg version="1.1" xmlns:xlink="http://www.w3.org/1999/xlink" width="16px" height="22px" xmlns="http://www.w3.org/2000/svg">
  <g transform="matrix(1 0 0 1 -432 -515 )">
    <path d="M 15.8970583404255 3.37509658858268  C 15.8935265684312 1.51198517148449  14.4087868603937 0.0033711353939667  12.5781054042553 0.00277552952755904  L 3.48060878723404 0.00277552952755904  C 1.6515896241948 0.00336442427069387  0.167536824093155 1.50933731405701  0.161655829787234 3.37075083070866  L 0.161655829787234 18.4951327952756  C 0.16812171982838 20.3562980638233  1.65183185411864 21.8619232264788  3.48060878723404 21.8631080964567  L 12.5781054042553 21.8631080964567  C 14.4068823290667 21.8619232145605  15.8905924504212 20.3562980553798  15.8970583404255 18.4951327952756  L 15.8970583404255 3.37509658858268  Z M 1.89319063829787 15  L 1.89319063829787 5.31657138385827  L 14.1697936808511 5.31657138385827  L 14.1697936808511 15  L 1.89319063829787 15  Z M 1.88998804255319 3.37509658858268  C 1.89175515608321 2.48268173127936  2.6037282121417 1.76052648127795  3.48060878723404 1.76172777952756  L 12.5781054042553 1.76172777952756  C 13.4541526500417 1.76172596750984  14.1648248588115 2.48353063274114  14.1665910851064 3.37509658858268  L 14.1665910851064 3.55761913385827  L 1.88998804255319 3.55761913385827  L 1.88998804255319 3.37509658858268  Z M 14.1697936808511 18.4983921299213  C 14.1662630027881 19.3899577873482  13.4541558962153 20.1103063731526  12.5781054042553 20.1085016043307  L 3.48060878723404 20.1085016043307  C 2.60497829358691 20.1079045274176  1.89495582822154 19.3862748168612  1.89319063829787 18.4951327952756  L 1.89319063829787 17  L 14.1697936808511 17  L 14.1697936808511 18.4983921299213  Z " fill-rule="nonzero" fill="#999999" stroke="none" transform="matrix(1 0 0 1 432 515 )" />
  </g>
</svg>