<?xml version="1.0" encoding="utf-8"?>
<svg version="1.1" xmlns:xlink="http://www.w3.org/1999/xlink" width="22px" height="18px" xmlns="http://www.w3.org/2000/svg">
  <g transform="matrix(1 0 0 1 -349 -600 )">
    <path d="M 21.8491073749588 3.44713449840678  C 21.8491073749588 1.5999265627737  20.3655067399925 0.100631045000153  18.5311382265625 0  L 3.4710176875 0  C 1.63243363128613 0.101245505789101  0.147586570636604 1.60765268474314  0.15414768359375 3.45909610817308  L 0.15414768359375 14.5875801418269  C 0.151163432786131 16.4363061786382  1.63513923980419 17.9384298807232  3.4710176875 18  L 18.5311382265625 18  C 20.3671906137518 17.9384305118318  21.851475365681 16.4364822082265  21.8490861875 14.5875801418269  L 21.8490861875 3.45909610817308  C 21.8491003124613 3.45510892077384  21.8491073749588 3.45112171117654  21.8491073749588 3.44713449840678  Z M 1.8842667421875 3.45909610817308  C 1.88128421413792 2.57345273288991  2.59152678282498 1.85289879216039  3.4710176875 2  L 18.5311382265625 2  C 19.4089430652393 1.85229383657003  20.1189762763923 2.56971110783997  20.1189762763923 3.45365948287081  C 20.1189762763923 3.45547169520675  20.1189732272259 3.45728390624198  20.1189671289062 3.45909610817308  L 20.1189671289062 11.4917513798077  L 18.1463079960937 7.68275307692308  C 17.7315998342545 6.87807383069582  16.9062815040896 6.37304314446967  16.0059873305713 6.37304314446967  C 15.3489903133022 6.37304314446967  14.720438082901 6.64299062982991  14.265667109375 7.12046721634615  L 10.7892596367188 10.7698978990385  C 10.6519724301998 10.9125731374631  10.4263857028596 10.9178897441853  10.2826204121094 10.7818383245192  L 8.34229996875 8.92564366586539  C 7.50851669540183 8.11400055816408  6.20911196924639 8.04277126137544  5.29276298632813 8.75847760096154  L 1.8842667421875 11.4114248221154  L 1.8842667421875 3.45909610817308  Z M 20.0381204375 15.0966768028846  C 19.8224925423654 15.7508151583859  19.2155856418407 16.1927848751232  18.5311382265625 16  L 3.4710176875 16  C 2.59279225581894 16.1905218508189  1.88307111251015 15.4719534744366  1.8842667421875 14.5875801418269  L 1.8842667421875 13.6204050288462  L 6.34808173828125 10.1468243725962  C 6.58993207350314 9.95713093416752  6.93344393912379 9.97516655259993  7.15439267382812 10.1891586201923  L 9.0947131171875 12.0453533004808  C 9.92700839184448 12.8402799270599  11.2404099880624 12.80973632445  12.035376546875 11.9769671682692  L 15.5128619765625 8.32753648557693  C 15.6421178404442 8.19218351688322  15.8205498187262 8.11569086706224  16.0070275322129 8.11569086706224  C 16.2630442582964 8.11569086706224  16.4977305775693 8.25933655750697  16.6156107519531 8.48818960096154  L 20.0381204375 15.0966768028846  Z " fill-rule="nonzero" fill="#999999" stroke="none" transform="matrix(1 0 0 1 349 600 )" />
  </g>
</svg>