<?xml version="1.0" encoding="utf-8"?>
<svg version="1.1" xmlns:xlink="http://www.w3.org/1999/xlink" width="22px" height="16px" xmlns="http://www.w3.org/2000/svg">
  <g transform="matrix(1 0 0 1 -749 -439 )">
    <path d="M 21.8069387755102 13.9366666666667  C 21.8072193877551 15.025  20.9126275510204 15.9102777777778  19.8131887755102 16  L 2.13265306122449 16  C 1.03321428571429 15.9102777777778  0.13890306122449 15.025  0.13890306122449 13.9366666666667  L 0.13890306122449 2.115  C 0.13890306122449 1.02666666666667  1.03321428571429 0.141388888888888  2.13265306122449 0.141388888888888  L 19.8131887755102 0.141388888888888  C 20.9126275510204 0.141388888888888  21.8069387755102 1.02666666666667  21.8069387755102 2.115  L 21.8069387755102 13.9366666666667  Z M 19.8131887755102 1.45722222222222  L 2.13265306122449 1.45722222222222  C 1.76617346938775 1.45722222222222  1.46816326530612 1.7525  1.46816326530612 2.115  L 1.46816326530612 13.9366666666667  C 1.46816326530612 14.2994444444444  1.76617346938775 14.5944444444444  2.13265306122449 14.5944444444444  L 19.8131887755102 14.5944444444444  C 20.1796683673469 14.5944444444444  20.4776785714286 14.2991666666667  20.4776785714286 13.9366666666667  L 20.4776785714286 2.115  C 20.4776785714286 1.75222222222222  20.1796683673469 1.45722222222222  19.8131887755102 1.45722222222222  Z " fill-rule="nonzero" fill="#999999" stroke="none" transform="matrix(1 0 0 1 749 439 )" />
  </g>
</svg>