<?xml version="1.0" encoding="utf-8"?>
<svg version="1.1" xmlns:xlink="http://www.w3.org/1999/xlink" width="22px" height="19px" xmlns="http://www.w3.org/2000/svg">
  <g transform="matrix(1 0 0 1 -1069 -516 )">
    <path d="M 20.8541666666667 6.40522959183674  L 4.21184210526316 6.40522959183674  C 3.7836613110331 6.40491444190333  3.40648730771154 6.68812022635759  3.28552631578947 7.10076530612245  L 0.219517543859649 17.5701530612245  C 0.193916507538518 17.658335162478  0.180921052631578 17.7497252771807  0.180921052631578 17.8415816326531  C 0.180921052631578 18.3769597064686  0.612926995777304 18.8109693877551  1.14583333333333 18.8109693877551  L 17.7881578947368 18.8109693877551  C 18.2163386889669 18.8112845376885  18.5935126922885 18.5280787532342  18.7144736842105 18.1154336734694  L 21.7804824561403 7.64604591836735  C 21.8060834924615 7.55786381711386  21.8190789473684 7.46647370241116  21.8190789473684 7.37461734693878  C 21.8190789473684 6.83923927312321  21.3870730042227 6.40522959183674  20.8541666666667 6.40522959183674  Z M 0.217105263157895 12.7125797971879  C 0.229179552013845 12.7125797971879  0.239436964697737 12.7037052704536  0.241228070175439 12.6917091836735  L 1.99013157894737 6.71543367346939  C 2.12977680525378 6.23629959415644  2.42004925898966 5.81545030419338  2.81754385964912 5.51581632653061  C 3.22963598497024 5.20858540482755  3.73004698864766 5.0444106505862  4.24320175438597 5  L 18.6228070175439 5  C 18.6760976512995 5.04808673469388  18.719298245614 5.00468576656523  18.719298245614 4.95114795918367  L 18.719298245614 4.28469387755102  C 18.719298245614 3.74931580373545  18.2872923024683 3.31530612244898  17.7543859649123 3.31530612244898  L 9.45614035087719 3.31530612244898  L 6.65065789473684 0.475  C 6.46965891224025 0.291308636388258  6.22284775205267 0.188284695976269  5.9655701754386 0.189030612244898  L 1.1578947368421 0.189030612244898  C 0.624988399286076 0.189030612244898  0.192982456140351 0.623040293531373  0.192982456140351 1.15841836734694  L 0.192982456140351 12.6844387755102  C 0.192802790982865 12.6856420987357  0.19271258414718 12.6868571942831  0.19271258414718 12.6880739795918  C 0.19271258414718 12.7016081689323  0.203633558532759 12.7125797971879  0.217105263157895 12.7125797971879  Z " fill-rule="nonzero" fill="#999999" stroke="none" transform="matrix(1 0 0 1 1069 516 )" />
  </g>
</svg>