<?xml version="1.0" encoding="utf-8"?>
<svg version="1.1" xmlns:xlink="http://www.w3.org/1999/xlink" width="22px" height="16px" xmlns="http://www.w3.org/2000/svg">
  <g transform="matrix(1 0 0 1 -589 -601 )">
    <path d="M 2 0.1  C 1.76785714285714 0.0447715250169203  1.72388510935838 0  1.66964285714286 0  L 0.0982142857142857 0  C 0.0439720334987614 0  0 0.0447715250169203  0 0.1  L 0 15.9  C 0 15.9552284749831  0.0439720334987614 16  0.0982142857142857 16  L 1.66964285714286 16  C 1.72388510935838 16  1.76785714285714 15.9552284749831  2 15.9  L 2 0.1  Z M 8 0.1  C 8.05357142857143 0.0447715250169203  8.00959939507267 0  7.95535714285714 0  L 3.63392857142857 0  C 3.57968631921305 0  3.53571428571429 0.0447715250169203  3.53571428571429 0.1  L 3.53571428571429 13.5  C 3.53571428571429 13.5552284749831  3.57968631921305 13.6  3.63392857142857 13.6  L 7.95535714285714 13.6  C 8.00959939507267 13.6  8.05357142857143 13.5552284749831  8 13.5  L 8 0.1  Z M 11 0.1  C 10.6071428571429 0.0447715250169203  10.5631708236441 0  10.5089285714286 0  L 9.33035714285714 0  C 9.27611489064162 0  9.23214285714286 0.0447715250169203  9.23214285714286 0.1  L 9.23214285714286 13.5  C 9.23214285714286 13.5552284749831  9.27611489064162 13.6  9.33035714285714 13.6  L 10.5089285714286 13.6  C 10.5631708236441 13.6  10.6071428571429 13.5552284749831  11 13.5  L 11 0.1  Z M 22 0.1  C 22 0.0447715250169203  21.9560279665012 0  21.9017857142857 0  L 20.7232142857143 0  C 20.6689720334988 0  20.625 0.0447715250169203  20.625 0.1  L 20.625 15.9  C 20.625 15.9552284749831  20.6689720334988 16  20.7232142857143 16  L 21.9017857142857 16  C 21.9560279665012 16  22 15.9552284749831  22 15.9  L 22 0.1  Z M 13 0.1  C 13.1607142857143 0.0447715250169203  13.1167422522155 0  13.0625 0  L 11.8839285714286 0  C 11.829686319213 0  11.7857142857143 0.0447715250169203  11.7857142857143 0.1  L 11.7857142857143 13.5  C 11.7857142857143 13.5552284749831  11.829686319213 13.6  11.8839285714286 13.6  L 13.0625 13.6  C 13.1167422522155 13.6  13.1607142857143 13.5552284749831  13 13.5  L 13 0.1  Z M 19.4464285714286 0.1  C 19.4464285714286 0.0447715250169203  19.4024565379298 0  19.3482142857143 0  L 14.4375 0  C 14.3832577477845 0  14.3392857142857 0.0447715250169203  14 0.1  L 14 13.5  C 14.3392857142857 13.5552284749831  14.3832577477845 13.6  14.4375 13.6  L 19.3482142857143 13.6  C 19.4024565379298 13.6  19.4464285714286 13.5552284749831  19.4464285714286 13.5  L 19.4464285714286 0.1  Z M 7.95784481852533 14.3949670938651  C 7.95701548833943 14.3949670938651  7.95618619314508 14.3949780635023  7.95535714285714 14.395  L 3.63392857142857 14.395  C 3.63309952114055 14.3949780635023  3.63227022594637 14.3949670938651  3.63144089576039 14.3949670938651  C 3.57855469985025 14.3949670938651  3.53568196718896 14.4386193307566  3.53568196718896 14.4924670938651  C 3.53568196718896 14.4933115027817  3.53569274093977 14.4941558760704  3.53571428571429 14.495  L 3.53571428571429 15.895  C 3.53571428571429 15.9502284749831  3.57968631921305 15.995  3.63392857142857 15.995  L 7.95535714285714 15.995  C 8.00959939507267 15.995  8.05357142857143 15.9502284749831  8.05357142857143 15.895  L 8.05357142857143 14.495  C 8.05359297334595 14.4941558760704  8.05360374709676 14.4933115027817  8.05360374709676 14.4924670938651  C 8.05360374709676 14.4386193307566  8.01073101443547 14.3949670938651  7.95784481852533 14.3949670938651  Z M 10.5114162470968 14.3949670938651  C 10.5105869169109 14.3949670938651  10.5097576217165 14.3949780635023  10.5089285714286 14.395  L 9.33035714285714 14.395  C 9.32952809256912 14.3949780635023  9.32869879737494 14.3949670938651  9.32786946718896 14.3949670938651  C 9.27498327127882 14.3949670938651  9.23211053861753 14.4386193307566  9.23211053861753 14.4924670938651  C 9.23211053861753 14.4933115027817  9.23212131236834 14.4941558760704  9.23214285714286 14.495  L 9.23214285714286 15.895  C 9.23214285714286 15.9502284749831  9.27611489064162 15.995  9.33035714285714 15.995  L 10.5089285714286 15.995  C 10.5631708236441 15.995  10.6071428571429 15.9502284749831  10.6071428571429 15.895  L 10.6071428571429 14.495  C 10.6071644019174 14.4941558760704  10.6071751756682 14.4933115027817  10.6071751756682 14.4924670938651  C 10.6071751756682 14.4386193307566  10.5643024430069 14.3949670938651  10.5114162470968 14.3949670938651  Z M 13.0649876756682 14.3949670938651  C 13.0641583454823 14.3949670938651  13.0633290502879 14.3949780635023  13.0625 14.395  L 11.8839285714286 14.395  C 11.8830995211405 14.3949780635023  11.8822702259464 14.3949670938651  11.8814408957604 14.3949670938651  C 11.8285546998502 14.3949670938651  11.785681967189 14.4386193307566  11.785681967189 14.4924670938651  C 11.785681967189 14.4933115027817  11.7856927409398 14.4941558760704  11.7857142857143 14.495  L 11.7857142857143 15.895  C 11.7857142857143 15.9502284749831  11.829686319213 15.995  11.8839285714286 15.995  L 13.0625 15.995  C 13.1167422522155 15.995  13.1607142857143 15.9502284749831  13.1607142857143 15.895  L 13.1607142857143 14.495  C 13.1607358304888 14.4941558760705  13.1607466042396 14.4933115027817  13.1607466042396 14.4924670938651  C 13.1607466042396 14.4386193307566  13.1178738715783 14.3949670938651  13.0649876756682 14.3949670938651  Z M 19.3507019613825 14.3949670938651  C 19.3498726311966 14.3949670938651  19.3490433360022 14.3949780635023  19.3482142857143 14.395  L 14.4375 14.395  C 14.436670949712 14.3949780635023  14.4358416545178 14.3949670938651  14.4350123243318 14.3949670938651  C 14.3821261284217 14.3949670938651  14.3392533957604 14.4386193307566  14.3392533957604 14.4924670938651  C 14.3392533957604 14.4933115027817  14.3392641695112 14.4941558760704  14.3392857142857 14.495  L 14.3392857142857 15.895  C 14.3392857142857 15.9502284749831  14.3832577477845 15.995  14.4375 15.995  L 19.3482142857143 15.995  C 19.4024565379298 15.995  19.4464285714286 15.9502284749831  19.4464285714286 15.895  L 19.4464285714286 14.495  C 19.4464501162031 14.4941558760705  19.4464608899539 14.4933115027817  19.4464608899539 14.4924670938651  C 19.4464608899539 14.4386193307566  19.4035881572926 14.3949670938651  19.3507019613825 14.3949670938651  Z " fill-rule="nonzero" fill="#999999" stroke="none" transform="matrix(1 0 0 1 589 601 )" />
  </g>
</svg>