<?xml version="1.0" encoding="utf-8"?>
<svg version="1.1" xmlns:xlink="http://www.w3.org/1999/xlink" width="22px" height="22px" xmlns="http://www.w3.org/2000/svg">
  <g transform="matrix(1 0 0 1 -509 -515 )">
    <path d="M 10.1538461538462 3.27884615384615  C 10.1538461538462 3.33726088700133  10.2012006514602 3.38461538461539  10.2596153846154 3.38461538461539  L 11.7403846153846 3.38461538461539  C 11.7987993485398 3.38461538461539  11.8461538461538 3.33726088700133  11.8461538461538 3.27884615384615  L 11.8461538461538 0.105769230769231  C 11.8461538461538 0.0473544976140507  11.7987993485398 0  11.7403846153846 0  L 10.2596153846154 0  C 10.2012006514602 0  10.1538461538462 0.0473544976140507  10.1538461538462 0.105769230769231  L 10.1538461538462 3.27884615384615  Z M 2.69711538461538 3.89495192307692  L 4.94206730769231 6.13990384615385  C 4.9624396057689 6.15819770545324  4.98872913834324 6.16852573610745  5.01610576923077 6.16899038461539  C 5.04434985849313 6.16892400941684  5.07160541408985 6.15858569522498  5.09278846153846 6.13990384615385  L 6.13990384615385 5.09278846153846  C 6.17921317220518 5.05023722543597  6.17921317220518 4.9846185437948  6.13990384615385 4.94206730769231  L 3.89495192307692 2.69711538461538  C 3.87457962500033 2.67882152531599  3.84829009242599 2.66849349466178  3.82091346153846 2.66802884615385  C 3.7926693722761 2.66809522135239  3.76541381667938 2.67843353554425  3.74423076923077 2.69711538461538  L 2.69711538461538 3.74423076923077  C 2.65780605856405 3.78678200533326  2.65780605856405 3.85240068697443  2.69711538461538 3.89495192307692  Z M 3.27884615384615 11.8461538461538  C 3.33726088700133 11.8461538461538  3.38461538461539 11.7987993485398  3.38461538461539 11.7403846153846  L 3.38461538461539 10.2596153846154  C 3.38461538461539 10.2012006514602  3.33726088700133 10.1538461538462  3.27884615384615 10.1538461538462  L 0.105769230769231 10.1538461538462  C 0.0473544976140507 10.1538461538462  0 10.2012006514602  0 10.2596153846154  L 0 11.7403846153846  C 0 11.7987993485398  0.0473544976140507 11.8461538461538  0.105769230769231 11.8461538461538  L 3.27884615384615 11.8461538461538  Z M 22 10.2596153846154  C 22 10.2012006514602  21.9526455023859 10.1538461538462  21.8942307692308 10.1538461538462  L 18.7211538461538 10.1538461538462  C 18.6627391129987 10.1538461538462  18.6153846153846 10.2012006514602  18.6153846153846 10.2596153846154  L 18.6153846153846 11.7403846153846  C 18.6153846153846 11.7987993485398  18.6627391129987 11.8461538461538  18.7211538461538 11.8461538461538  L 21.8942307692308 11.8461538461538  C 21.9526455023859 11.8461538461538  22 11.7987993485398  22 11.7403846153846  L 22 10.2596153846154  Z M 15.8600961538462 5.09278846153846  L 16.9072115384615 6.13990384615385  C 16.9283945859102 6.15858569522498  16.9556501415069 6.16892400941685  16.9838942307692 6.16899038461538  C 17.0112708616568 6.16852573610745  17.0375603942311 6.15819770545324  17.0579326923077 6.13990384615385  L 19.3028846153846 3.89495192307692  C 19.3421939414359 3.85240068697443  19.3421939414359 3.78678200533326  19.3028846153846 3.74423076923077  L 18.2557692307692 2.69711538461539  C 18.2345861833206 2.67843353554425  18.2073306277239 2.66809522135239  18.1790865384615 2.66802884615385  C 18.151709907574 2.66849349466178  18.1254203749997 2.67882152531599  18.1050480769231 2.69711538461538  L 15.8600961538462 4.94206730769231  C 15.8207868277948 4.9846185437948  15.8207868277948 5.05023722543597  15.8600961538462 5.09278846153846  Z M 5.07692307692308 10.1538461538462  L 5.07692307692308 17.7692307692308  C 5.07692307692308 17.8276455023859  5.12427757453713 17.875  5.18269230769231 17.875  L 16.8173076923077 17.875  C 16.8757224254629 17.875  16.9230769230769 17.8276455023859  16.9230769230769 17.7692307692308  L 16.9230769230769 10.2040865384615  C 16.9230769230769 6.94110576923077  14.2524038461538 4.22548076923077  10.9894230769231 4.23076923076923  C 7.72644230769231 4.23605769230769  5.07692307692308 6.88557692307692  5.07692307692308 10.1538461538462  Z M 19.4615384615385 20.4134615384615  C 19.4615384615385 19.8293142069097  18.987993485398 19.3557692307692  18.4038461538462 19  L 3.59615384615385 19  C 3.01200651460205 19.3557692307692  2.53846153846154 19.8293142069097  2.53846153846154 20.4134615384615  L 2.53846153846154 21.8942307692308  C 2.53846153846154 21.9526455023859  2.58581603607559 22  2.64423076923077 22  L 19.3557692307692 22  C 19.4141839639244 22  19.4615384615385 21.9526455023859  19.4615384615385 21.8942307692308  L 19.4615384615385 20.4134615384615  Z " fill-rule="nonzero" fill="#999999" stroke="none" transform="matrix(1 0 0 1 509 515 )" />
  </g>
</svg>