<?xml version="1.0" encoding="utf-8"?>
<svg version="1.1" xmlns:xlink="http://www.w3.org/1999/xlink" width="22px" height="22px" xmlns="http://www.w3.org/2000/svg">
  <g transform="matrix(1 0 0 1 -668 -598 )">
    <path d="M 22 11  C 22 4.92544642857143  17.0745535714286 0  11 0  C 4.92544642857143 0  0 4.92544642857143  0 11  C 0 17.0745535714286  4.92544642857143 22  11 22  C 17.0745535714286 22  22 17.0745535714286  22 11  Z M 5.71116071428572 10.0178571428571  L 5.71116071428572 8.64285714285714  C 5.71116071428572 8.58861489064162  5.75513274778448 8.54464285714286  5.809375 8.54464285714286  L 12.8071428571429 8.54464285714286  L 12.8071428571429 6.48705357142857  C 12.8071428571429 6.11875  13.2662946428571 5.95424107142857  13.5020089285714 6.23415178571428  L 16.1979910714286 9.47276785714286  C 16.2562797165646 9.54321230583264  16.2881717582412 9.63178189103582  16.2881717582412 9.72321485283297  C 16.2881717582412 9.93992322172092  16.1126901989104 10.1157032061972  15.8959821428571 10.1160714285714  L 5.809375 10.1160714285714  C 5.75513274778448 10.1160714285714  5.71116071428572 10.0720993950727  5.71116071428572 10.0178571428571  Z M 16.2888392857143 11.9821428571429  L 16.2888392857143 13.3571428571429  C 16.2888392857143 13.4113851093584  16.2448672522155 13.4553571428571  16.190625 13.4553571428571  L 9.19285714285714 13.4553571428571  L 9.19285714285714 15.5129464285714  C 9.19285714285714 15.88125  8.73370535714286 16.0457589285714  8.49799107142857 15.7633928571429  L 5.80200892857143 12.5272321428571  C 5.74372028343543 12.4567876941674  5.71182824175882 12.3682181089642  5.71182824175882 12.276785147167  C 5.71182824175882 12.0600767782791  5.88730980108965 11.8842967938028  6.10401785714286 11.8839285714286  L 16.190625 11.8839285714286  C 16.2448672522155 11.8839285714286  16.2888392857143 11.9279006049273  16.2888392857143 11.9821428571429  Z " fill-rule="nonzero" fill="#999999" stroke="none" transform="matrix(1 0 0 1 668 598 )" />
  </g>
</svg>