<?xml version="1.0" encoding="utf-8"?>
<svg version="1.1" xmlns:xlink="http://www.w3.org/1999/xlink" width="22px" height="22px" xmlns="http://www.w3.org/2000/svg">
  <g transform="matrix(1 0 0 1 -189 -754 )">
    <path d="M 22 11  C 22 4.92421875  17.07578125 0  11 0  C 4.92421875 0  0 4.92421875  0 11  C 0 17.07578125  4.92421875 22  11 22  C 17.07578125 22  22 17.07578125  22 11  Z M 16.84375 6.875  L 16.84375 15.125  L 15.46875 15.125  L 15.46875 11.2921875  L 10.4478515625 15.571875  C 10.3361328125 15.66640625  10.1642578125 15.5869140625  10.1642578125 15.4408203125  L 10.1642578125 11.837890625  L 5.78359375 15.571875  C 5.671875 15.66640625  5.5 15.5869140625  5.5 15.4408203125  L 5.5 6.5591796875  C 5.5 6.4130859375  5.671875 6.33359375  5.78359375 6.428125  L 10.1642578125 10.162109375  L 10.1642578125 6.5591796875  C 10.1642578125 6.4130859375  10.3361328125 6.33359375  10.4478515625 6.428125  L 15.46875 10.7078125  L 15.46875 6.875  L 16.84375 6.875  Z " fill-rule="nonzero" fill="#999999" stroke="none" transform="matrix(1 0 0 1 189 754 )" />
  </g>
</svg>