<?xml version="1.0" encoding="utf-8"?>
<svg version="1.1" xmlns:xlink="http://www.w3.org/1999/xlink" width="22px" height="22px" xmlns="http://www.w3.org/2000/svg">
  <g transform="matrix(1 0 0 1 -1067 -598 )">
    <path d="M 2.4028888984375 0.4791111015625  C 1.57450023081959 0.901036246223959  0.901036246223958 1.5745002308196  0.4791111015625 2.4028888984375  C 0 3.344  0 4.576  0 7.04  L 0 14.96  C 0 17.424  0 18.656  0.4791111015625 19.5971111015625  C 0.901036246223959 20.4254997691804  1.5745002308196 21.098963753776  2.4028888984375 21.5208888984375  C 3.344 22  4.576 22  7.04 22  L 14.96 22  C 17.424 22  18.656 22  19.5971111015625 21.5208888984375  C 20.4254997691804 21.098963753776  21.098963753776 20.4254997691804  21.5208888984375 19.5971111015625  C 22 18.656  22 17.424  22 14.96  L 22 7.04  C 22 4.576  22 3.344  21.5208888984375 2.4028888984375  C 21.098963753776 1.5745002308196  20.4254997691804 0.901036246223959  19.5971111015625 0.479111101562499  C 18.656 0  17.424 0  14.96 0  L 7.04 0  C 4.576 0  3.344 0  2.4028888984375 0.4791111015625  Z M 5.80555556510417 10.0833333333333  C 5.80555556510417 10.0833333333333  5.80555556510417 10.0833333333333  5.80555556510417 10  L 16.1944444348958 10  C 16.1944444348958 10.0833333333333  16.1944444348958 10.0833333333333  16.1944444348958 10.0833333333333  C 16.7007054555741 10.0833333333333  17.1111111015625 10.4937389793218  17.1111111015625 11  C 17.1111111015625 11.5062610206782  16.7007054555741 11.9166666666667  16.1944444348958 11.9166666666667  C 16.1944444348958 11.9166666666667  16.1944444348958 11.9166666666667  16.1944444348958 12  L 5.80555556510417 12  C 5.80555556510417 11.9166666666667  5.80555556510417 11.9166666666667  5.80555556510417 11.9166666666667  C 5.29929454442594 11.9166666666667  4.8888888984375 11.5062610206782  4.8888888984375 11  C 4.8888888984375 10.4937389793218  5.29929454442594 10.0833333333333  5.80555556510417 10.0833333333333  Z " fill-rule="nonzero" fill="#999999" stroke="none" transform="matrix(1 0 0 1 1067 598 )" />
  </g>
</svg>