<?xml version="1.0" encoding="utf-8"?>
<svg version="1.1" xmlns:xlink="http://www.w3.org/1999/xlink" width="22px" height="22px" xmlns="http://www.w3.org/2000/svg">
  <g transform="matrix(1 0 0 1 -829 -436 )">
    <path d="M 21.8641975393519 11  C 21.8641975393519 4.9997037037037  17.0002962962963 0.135802460648148  11 0.135802460648148  C 4.9997037037037 0.135802460648148  0.135802460648148 4.9997037037037  0.135802460648148 11  C 0.135802460648148 17.0002962962963  4.9997037037037 21.8641975393519  11 21.8641975393519  C 17.0002962962963 21.8641975393519  21.8641975393519 17.0002962962963  21.8641975393519 11  Z M 6.38271605787037 10.1851851851852  L 15.6172839421296 10.1851851851852  C 16.0672937382881 10.1851851851852  16.4320987569444 10.5499902038416  16.4320987569444 11  C 16.4320987569444 11.4500097961584  16.0672937382881 11.8148148148148  15.6172839421296 11.8148148148148  L 6.38271605787037 11.8148148148148  C 5.93270626171195 11.8148148148148  5.56790124305556 11.4500097961584  5.56790124305556 11  C 5.56790124305556 10.5499902038416  5.93270626171195 10.1851851851852  6.38271605787037 10.1851851851852  Z " fill-rule="nonzero" fill="#999999" stroke="none" transform="matrix(1 0 0 1 829 436 )" />
  </g>
</svg>