<?xml version="1.0" encoding="utf-8"?>
<svg version="1.1" xmlns:xlink="http://www.w3.org/1999/xlink" width="22px" height="22px" xmlns="http://www.w3.org/2000/svg">
  <g transform="matrix(1 0 0 1 -750 -515 )">
    <path d="M 0.135802460648148 11  C 0.135802460648148 5.00296296296296  5.00296296296296 0.135802460648148  11 0.135802460648148  C 16.997037037037 0.135802460648148  21.8641975393519 5.00296296296296  21.8641975393519 11  C 21.8641975393519 16.997037037037  16.997037037037 21.8641975393519  11 21.8641975393519  C 5.00296296296296 21.8641975393519  0.135802460648148 16.997037037037  0.135802460648148 11  Z M 9.43881481481482 4.48148148148148  L 9.4322962962963 4.48148148148148  C 10.1819259259259 5.31259259259259  9.36928394212963 7.61037037037037  8.57076542361111 8.42844444444445  C 7.6397037037037 9.38014814814815  7.20839505324074 10.9739259259259  7.20839505324074 10.9739259259259  C 7.28444444444444 10.6371357939815  6.73471603240741 9.93530865046296  6.73471605787037 9.93530865046296  C 4.51733333333333 15.7118024861111  8.86953087268518 17.2664691527778  9.62350616435185 17.4891851851852  L 9.6919506087963 17.5076543125  L 9.73214814814815 17.5185185185185  C 8.40780246064815 16.0898765347222  9.73214814814815 14.506962962963  9.73323457638889 14.5047901319444  C 10.208 13.8822716134259  11.0010864282407 12.1157530949074  11.0010864282407 12.1157530949074  C 14.1473580416667 15.1990123541667  12.9664197615741 17.080691375  12.7991111111111 17.3120987569444  L 12.7828148148148 17.3338271689815  C 18.0736790208333 15.4412839675926  15.0023703703704 9.83209878240741  15.0023703703704 9.83209875694444  C 14.7036049467593 8.74024690509259  15.0023703703704 8.01234566203704  15.0023703703704 8.0123456875  C 14.0289382800926 8.14380248611111  13.5541728310185 9.46814814814815  13.5541728310185 9.46814814814815  C 13.1706666666667 5.60918518518519  9.94617283101852 4.61728394212963  9.48661727546296 4.49560494675926  L 9.43881481481482 4.48148148148148  Z " fill-rule="nonzero" fill="#999999" stroke="none" transform="matrix(1 0 0 1 750 515 )" />
  </g>
</svg>