<?xml version="1.0" encoding="utf-8"?>
<svg version="1.1" xmlns:xlink="http://www.w3.org/1999/xlink" width="22px" height="22px" xmlns="http://www.w3.org/2000/svg">
  <g transform="matrix(1 0 0 1 -1229 -279 )">
    <path d="M 0.0211929714912281 11  C 0.0211929714912281 4.93684209429825  4.93684209429825 0.0211929714912281  11 0.0211929714912281  C 17.0631579057018 0.0211929714912281  21.9788070285088 4.93684209429825  21.9788070285088 11  C 21.9788070285088 17.0631579057018  17.0631579057018 21.9788070285088  11 21.9788070285088  C 4.93684209429825 21.9788070285088  0.0211929714912281 17.0631579057018  0.0211929714912281 11  Z M 8.91157895833333 5.50498244517544  C 8.47929825657894 5.05810525000001  8.09529826754386 4.82456140350878  7.64280701973684 4.82456140350877  C 6.90287718421053 4.82456140350877  6.31228069517544 5.36575438377193  5.73740351973684 6.13263158991228  C 5.20856139254386 6.83775438596491  4.82456140350877 7.61698244517544  4.82456140350877 8.41754387061403  C 4.82456140350877 9.18778948903509  5.19845613157895 10.0748070307018  5.79466667324561 11.0426666600877  C 6.41450277490671 12.0262995362287  7.13757007760737 12.9409552135825  7.9515789495614 13.7710877236842  L 8.22217542763158 14.0416842017544  C 9.08673683114035 14.8837894671053  10.0523508684211 15.6472982368421  10.9573333399123 16.2053333267544  C 11.9240701732456 16.8004210482456  12.8122105350877 17.1754385964912  13.582456129386 17.1754385964912  C 14.3830175307018 17.1754385964912  15.1633684100877 16.7914386074561  15.8673684100877 16.2625964802632  C 16.6342455921053 15.6877192807018  17.1754385964912 15.0971227916667  17.1754385964912 14.3571929802632  C 17.1754385964912 13.9047017565789  16.9418947258772 13.5207017434211  16.4950175548246 13.0884210416667  C 16.189901933592 12.8019296626113  15.8633369284952 12.53917621524  15.5181754364035 12.3024561337719  C 15.1779977719954 12.0630865676383  14.8236679733858 11.8444894510763  14.4571228179825 11.6478596425439  C 13.9597193179825 11.3851228092105  13.6240000175439 11.2807017390351  13.3242105285088 11.2807017631579  C 12.8503859627193 11.2807017631579  12.4461754517544 11.5243508947368  12.1609824561403 11.937543870614  C 12.0767719320175 12.0610526425439  12.0150175460526 12.1677193048246  11.9431578991228 12.3226666557018  C 11.4906314872851 12.0247670658907  11.0659774858896 11.6865470678515  10.6743859605263 11.3121403421053  C 10.3052544233186 10.9242878802743  9.97157270332871 10.5041795836651  9.67733334429825 10.0568421008772  C 9.83228071929824 9.98385963377193  9.93894738157895 9.92322806798246  10.062456129386 9.83901754385965  C 10.4756491052632 9.55382457236843  10.7192982368421 9.14961403728071  10.7192982368421 8.67578947149123  C 10.7192982368421 8.37600000657895  10.6148771907895 8.04028070614036  10.3521403574561 7.54175438596492  C 10.1554736074726 7.17559141630344  9.93687701559868 6.82163741578537  9.69754386622807 6.4818245635965  C 9.46082378475995 6.13666307150484  9.19807033738872 5.81009806640804  8.91157895833333 5.50498244517544  Z M 6.83438597368421 6.95564912938597  C 7.12519299780702 6.56940352412281  7.53052632894737 6.19663159210527  7.64280701973684 6.19663156798246  C 7.63270175877193 6.19663156798246  7.72589474780702 6.2527719254386  7.92350878289474 6.45712280921053  C 8.13122807894737 6.67270175  8.35691228070175 6.96014036184211  8.57249122149123 7.26891229166667  C 8.79143859868421 7.58105263377193  8.99354384210526 7.90778949342105  9.13838595614035 8.18287720394737  C 9.30343859210526 8.4972631622807  9.34610525219298 8.62863157894737  9.34610525219298 8.6746666754386  C 9.34610525219298 8.66568421052632  9.34385963596491 8.66792982675439  9.28322807017544 8.70947369078947  C 9.2012631622807 8.76561404824561  9.10582455701755 8.81277194078947  8.87115789035088 8.9138245504386  C 8.79256139473684 8.94750876973684  8.79256139473684 8.94750876973684  8.69712281359649 8.99129825  L 8.59943859210526 9.03621052631579  C 8.48715790131579 9.09235088377193  8.40070176096491 9.14175439254386  8.31985964912281 9.2046315745614  L 7.97964911622807 9.47635087280702  L 8.08070175 9.89964913377193  C 8.13908772368421 10.1500350899123  8.32435088157895 10.5127017609649  8.63087719517544 10.9618245723684  C 8.94077192105263 11.4176842324561  9.33936842763158 11.9072280877193  9.70428069078948 12.2822456118421  C 10.118016255694 12.680886140993  10.564185186879 13.0444311960326  11.0381754276316 13.3691228048246  C 11.4872982390351 13.6756491184211  11.8499649100877 13.8609122763158  12.1003508662281 13.91929825  L 12.523649127193 14.0203508837719  L 12.7942456052632 13.6801403508772  C 12.8582456074561 13.6004210592105  12.9065262960526 13.5139649188596  12.9626666776316 13.3994385877193  C 12.9873684320175 13.351157875  12.9873684320175 13.351157875  13.00870175 13.3028771864035  L 13.0861754495614 13.1299649057018  C 13.1872280833333 12.8941754429825  13.2343859758772 12.7987368377193  13.2905263092105 12.7178947258772  C 13.3320701732456 12.6561403399123  13.3343157894737 12.6538947236842  13.3253333245614 12.6527719276316  C 13.3702456008772 12.6538947236842  13.5027368377193 12.6954385877193  13.8171227960526 12.8616140438596  C 14.0922105065789 13.0075789539474  14.4178245460526 13.2085614013158  14.7310877083333 13.4275087785088  C 15.0398596381579 13.6430877192982  15.3261754298246 13.8687719451754  15.5428771907895 14.0776140372807  C 15.630456127193 14.1618245614035  15.6899649210526 14.2269473596491  15.7303859649123 14.2729824561404  L 15.7865263223684 14.340350870614  C 15.7977544035088 14.3549473640351  15.8033684320175 14.3605613925439  15.8033684320175 14.3571929802632  C 15.8033684320175 14.4694736710526  15.4305965 14.8748070263158  15.044350870614 15.1656140263158  C 14.5615438640351 15.5282806973684  14.0001403377193 15.8033684078947  13.582456129386 15.8033684320175  C 13.1423157828947 15.8033684320175  12.4394385789474 15.506947379386  11.677052629386 15.0376140460526  C 10.7793128152859 14.4702003265557  9.94448624598914 13.808888202408  9.18666666885965 13.0648421074561  L 8.92842104385965 12.8065964824561  C 8.18738973769022 12.0505934265934  7.52872667298832 11.2180433118399  6.96350877412281 10.322947370614  C 6.49192982456141 9.55943860087719  6.19663159210527 8.85768421710526  6.19663156798246 8.41754387061404  C 6.19663156798246 7.99873684210526  6.47171927850878 7.44070177631579  6.83438597368421 6.95564912938597  Z " fill-rule="nonzero" fill="#999999" stroke="none" transform="matrix(1 0 0 1 1229 279 )" />
  </g>
</svg>