<?xml version="1.0" encoding="utf-8"?>
<svg version="1.1" xmlns:xlink="http://www.w3.org/1999/xlink" width="22px" height="21px" xmlns="http://www.w3.org/2000/svg">
  <g transform="matrix(1 0 0 1 -426 -679 )">
    <path d="M 0.0477037152777794 13.8456256801471  L 21.9463703657407 13.8456256801471  L 21.9463703657407 15.3357647058824  C 21.9463703657407 16.1011978492647  21.333629625 16.7192941176471  20.5774814768519 16.7192941176471  L 11.7442962847222 16.7192941176471  L 11.7442962847222 19.4048983933824  L 15.9991111041667 19.4048983933824  C 16.3990470868424 19.4048983933824  16.7232592592593 19.7325780756646  16.7232592592593 20.1367914485294  C 16.7232592592593 20.5410048213942  16.3990470868424 20.8686845036765  15.9991111041667 20.8686845036765  L 5.99614815046296 20.8686845036765  C 5.59621216778722 20.8686845036765  5.27199999537037 20.5410048213942  5.27199999537037 20.1367914485294  C 5.27199999537037 19.7325780756646  5.59621216778722 19.4048983933824  5.99614815046296 19.4048983933824  L 10.2474073981481 19.4048983933824  L 10.2474073981481 16.7192941176471  L 1.41777777777778 16.7192941176471  C 0.711407405092594 16.7192941176471  0.130666657407409 16.1802566727941  0.056000006944446 15.4866951801471  L 0.0477037152777794 15.3357647058824  L 0.0477037152777794 13.8456256801471  Z M 1.41659260416667 0.120534749999999  L 20.5762963032407 0.12053475  C 21.3324444513889 0.12053475  21.9451851921296 0.739828867647059  22 1.5028663125  L 22 12  L 0 12  L 0 1.5028663125  C 0.047703715277778 0.739828867647059  0.66162962962963 0.120534749999999  1.41659260416667 0.120534749999999  Z " fill-rule="nonzero" fill="#999999" stroke="none" transform="matrix(1 0 0 1 426 679 )" />
  </g>
</svg>