<?xml version="1.0" encoding="utf-8"?>
<svg version="1.1" xmlns:xlink="http://www.w3.org/1999/xlink" width="20px" height="22px" xmlns="http://www.w3.org/2000/svg">
  <g transform="matrix(1 0 0 1 -1151 -598 )">
    <path d="M 2.51152546730324 21.1125424859914  C 2.51152546730324 21.5544871627155  2.15614910011574 21.9184415801455  1.72462062789352 21.9184415801455  C 1.28886151186343 21.9184415801455  0.937715788483797 21.5588199507004  0.937715788483797 21.1125424859914  C 0.937715788483797 19.3620950066002  2.95574592013889 18.0969201089709  6.50527897280092 17.5899835872845  L 6.50527897280092 17.3473473089978  C 4.0980271021412 15.4582505385237  4.0980271021412 11.9573555797414  4.0980271021412 9.8256225309806  C 4.0980271021412 6.30739642025862  6.12028790219907 4.20599291258082  9.50482478877315 4.20599291258082  L 9.68674365306713 4.20599291258082  C 13.0712805396412 4.20599291258082  15.0935413396991 6.3073964454472  15.0935413396991 9.8256225309806  C 15.0935413396991 10.0855899863955  15.0893106712963 10.3455574166218  15.0850800028935 10.6141904480065  C 15.0723879976852 11.0604678875269  14.7170116059028 11.4114239410022  14.2770218214699 11.3984255770474  C 13.8412627054398 11.3854272130927  13.4985783434607 11.0171399824892  13.511270348669 10.5708625429687  C 13.5197316854745 10.3195606887123  13.5197316854745 10.0725915972522  13.5197316854745 9.8256225309806  C 13.5197316854745 7.16528899542026  12.2293769864005 5.81779107570043  9.68674365306713 5.81779107570043  L 9.50482478877315 5.81779107570043  C 6.96219145543981 5.81779107570043  5.67183675636574 7.16528899542026  5.67183675636574 9.8256225309806  C 5.67183675636574 12.3993002564655  5.82837158564815 15.0206386749731  7.7152508984375 16.2511512435345  C 7.94370713975694 16.3984661357759  8.07908862702546 16.6541007780172  8.07908862702546 16.9313993853718  L 8.07908865162037 18.3048940833782  C 8.07908865162037 18.7165092190194  7.77448032986111 19.0631324593211  7.37679725405093 19.1064603643588  C 4.21648591579861 19.4487508418642  2.51152546730324 20.3976320150862  2.51152546730324 21.1125424859914  Z M 18.3257741391782 21.11254251118  C 18.3300047829861 21.5544871627155  17.9788590842014 21.9184415801455  17.5430999681713 21.9184415801455  C 17.1073408521412 21.9184415801455  16.7561951287616 21.5588199507004  16.7561951287616 21.1125424859914  C 16.7561951287616 20.3932992271013  15.0512346556713 19.4487508418642  11.8909233420139 19.1064603643588  C 11.489009573206 19.0631324593211  11.1844012760417 18.7165091938308  11.1844012760417 18.3048940833782  L 11.1844012760417 16.9270666225754  C 11.1844012760417 16.480789183055  11.5355469748264 16.1211675284213  11.9713061154514 16.1211675284213  C 12.4070652560764 16.1211675284213  12.7582109548611 16.4807891578664  12.7582109548611 16.9270666225754  L 12.7582109548611 17.5899836124731  C 16.3077440321181 18.0925873461746  18.3257741391782 19.3620950317888  18.3257741391782 21.11254251118  Z M 17.4034877879051 12.6072742056843  C 16.5827376258681 14.3577216850754  13.9427988454861 14.6870137986261  12.0939955483218 14.6870137986261  C 11.0109437485532 14.6870137986261  10.2028855671296 14.5743612354526  10.1817322005208 14.5700284474677  C 9.7925104615162 14.4487103083244  9.55982355179398 14.0457607738416  9.64443696903935 13.6341456382004  C 9.72481971788195 13.2268633157328  10.0971187832755 12.9582302843481  10.5032631958912 12.9972254014009  C 12.4662945891204 13.2181977397629  15.4616097612847 13.0275549424838  15.986212962963 11.9096949119073  C 16.1723624956597 11.5110781654095  16.6419669835069 11.33776652007  17.0354193909144 11.5327421053341  C 17.4288717983218 11.7233849026132  17.5938679890046 12.2086574591864  17.4034877879051 12.6072742056843  Z M 19.8615077531829 13.0362204932651  C 19.861507728588 13.4824979579741  19.5103620298032 13.8421195874192  19.0746029137731 13.8421195874192  C 18.6388437977431 13.8421195874192  18.2876980743634 13.4824979579741  18.2876980743634 13.0362204932651  L 18.2876980743634 10.2199064894935  L 17.2342609534144 9.83428810695043  C 16.9211912948495 9.72163554377694  16.7096577271412 9.41400739533944  16.7096577271412 9.07604973100754  C 16.7096577271412 5.03355594665948  13.5324237152778 1.74063496228448  9.62751427083334 1.74063496228448  C 5.72260482638889 1.74063496228448  2.54537081452547 5.03355594665948  2.54537081452547 9.07604973100754  C 2.54537081452547 9.33601718642241  2.42268135706019 9.57865346470905  2.21537845775463 9.73030114493534  L 1.75846597511574 10.0639260464709  L 1.75846597511574 13.0362205184537  C 1.75846597511574 13.4824979579741  1.40732027633102 13.8421196126078  0.97156113570602 13.8421196126078  C 0.535801995081019 13.8421196126078  0.184656296296297 13.4824979831627  0.184656296296297 13.0362205184537  L 0.184656296296297 9.65231093601832  C 0.184656296296297 9.39234348060344  0.307345753761576 9.14970720231681  0.514648653067131 8.99805952209051  L 0.980022472511575 8.65576904458513  C 1.1957867578125 3.92002872925647  4.99069875 0.133169587149784  9.62751429542824 0.133169587149784  C 14.2135617954282 0.133169587149784  17.9788590842014 3.83770570716595  18.2665447323495 8.50412136435884  L 19.3369045269097 8.89407253488685  C 19.6499741854745 9.00672509806035  19.8615077531829 9.31435324649784  19.8615077531829 9.65231091082974  L 19.8615077531829 13.0362204932651  Z " fill-rule="nonzero" fill="#999999" stroke="none" fill-opacity="0.996078431372549" transform="matrix(1 0 0 1 1151 598 )" />
  </g>
</svg>