<?xml version="1.0" encoding="utf-8"?>
<svg version="1.1" xmlns:xlink="http://www.w3.org/1999/xlink" width="20px" height="22px" xmlns="http://www.w3.org/2000/svg">
  <g transform="matrix(1 0 0 1 -1150 -678 )">
    <path d="M 17.438883059731 12.566093203125  C 16.6010967662184 14.3356409604779  13.8580909068434 14.6486813465074  12.0166621588212 14.6486813465074  C 11.1703704262263 14.6486813465074  10.511198477057 14.5834645909926  10.3240786936313 14.5617256893382  C 9.89030102848101 14.5095523000919  9.5755995846519 14.1139040372243  9.62663224386867 13.6704301401654  C 9.6734121835443 13.2269562683824  10.060409909019 12.9095681020221  10.4984403184335 12.9573937109375  C 12.4674507268592 13.1791306594669  15.486883554193 12.9878281985294  16.0142210986946 11.8661001401654  C 16.2013408821202 11.4661040969669  16.6733930478639 11.2921927573529  17.0688962124209 11.4878429986213  C 17.4643993769778 11.6791454595588  17.6302555626978 12.1660971599265  17.438883059731 12.566093203125  Z M 19.9097147201345 13.0356537821691  C 19.9054619758703 13.4834754595588  19.5524860314478 13.8443414545037  19.1144556467563 13.8443414545037  C 18.6764252620649 13.8443414545037  18.3234492929193 13.4834754595588  18.3234492929193 13.0356537821691  L 18.3234492929193 10.2487247954963  L 17.2645214349288 9.86177209329044  C 16.9498199910997 9.74872972886029  16.7371838657041 9.44003712316176  16.7371838657041 9.10091005514706  C 16.7371838657041 5.08790623161765  13.5433894382911 1.82272110523897  9.61812678006329 1.82272110523897  C 5.69286412183545 1.82272110523897  2.49906969442247 5.08790623161765  2.49906969442247 9.10091005514706  C 2.49906969442247 9.36177705193015  2.37574075356013 9.60525290211397  2.1673573477057 9.75742531479779  L 1.70806334058545 10.0922046277574  L 1.70806334058545 13.031306027114  C 1.70806334058545 13.4791276792279  1.35508739616298 13.8399936994485  0.917056986748419 13.8399936994485  C 0.479026577333862 13.8399936994485  0.126050632911394 13.4791277045037  0.126050632911394 13.031306027114  L 0.126050632911394 9.67481746323529  C 0.126050632911394 9.4139504664522  0.249379573773736 9.17047461626838  0.457762979628165 9.01830220358456  L 0.925562425830697 8.67482732996323  C 1.14245127076741 3.96617819852941  4.95714314675633 0.20099803079044  9.61812675534019 0.20099803079044  C 14.2280777541535 0.205345785845588  18.0130005686313 3.88791810202206  18.3064384147547 8.52700269761029  L 19.3823771509098 8.91830318014706  C 19.6970785947389 9.03134554457721  19.9097147201345 9.34003815027573  19.9097147201345 9.67916521829044  L 19.9097147201345 13.0356537821691  Z M 18.1831095480617 21.0747047702206  C 18.1873621934335 19.3138526240809  15.9504302808544 17.9877787890625  12.7821521706883 17.4790881617647  L 12.7821521706883 17.2356122863051  C 13.4753459009098 16.6834438304228  14.0281997873813 16.148666495864  14.355659414557 15.3965000183824  C 13.6369493423655 15.5138901631434  12.8331848299051 15.4704123345588  12.1867710640823 15.4704123345588  C 11.3957647102452 15.4704123345588  10.7195818829114 15.492151261489  10.3070678154668 15.4443256272978  C 9.43951246044304 15.3443266038603  8.81436229232594 14.4660744209559  8.90792219640031 13.5791266773897  C 9.00573482001582 12.6921789085478  9.7924884295886 12.0443592348346  10.6557910403481 12.1487060386029  C 12.4164180676424 12.3400084995404  14.3599121340981 12.1313149172794  15.1381603293117 11.7965356043199  C 15.1721821103639 11.0574124678309  15.1636766712816 10.2791592830882  15.1636766712816 9.68786077895221  C 15.1636766712816 6.22702541130515  13.1053591030459 4.17487178079044  9.80524661293513 4.10095946461397  C 9.78823573477057 4.10095946461397  9.34169988627373 4.10095946461397  9.32468900810917 4.10095946461397  C 6.02457651799842 4.17052400045956  4.0470606704905 6.2487643382353  4.0470606704905 9.71394748621324  C 4.0470606704905 11.8530567738971  4.08108245154272 15.344326629136  6.45410148833069 17.239960066636  L 6.45410148833069 17.4834359168199  C 3.29007612242879 17.9877787637868  0.866024426424047 19.3182004044118  0.866024426424047 21.0747047702206  C 0.866024426424047 21.5225264223346  1.23175855419304 21.9399136121324  1.66978893888449 22  L 17.1964779717168 22  C 17.6345083564082 21.9399136121324  18.1831095480617 21.5225264223346  18.1831095480617 21.0747047702206  Z " fill-rule="nonzero" fill="#999999" stroke="none" fill-opacity="0.996078431372549" transform="matrix(1 0 0 1 1150 678 )" />
  </g>
</svg>