<?xml version="1.0" encoding="utf-8"?>
<svg version="1.1" xmlns:xlink="http://www.w3.org/1999/xlink" width="22px" height="22px" xmlns="http://www.w3.org/2000/svg">
  <g transform="matrix(1 0 0 1 -269 -364 )">
    <path d="M 11.70688440625 11.8590211027132  C 11.29947383877 12.0773359029642  10.8086413155269 12.0773359029642  10.4012307480469 11.8590211027132  L 0.5928789453125 6.8482470620155  C 0.248104073979508 6.70940349921355  0.0225575647571028 6.3770465916005  0.0225575647571028 6.0078427877907  C 0.0225575647571028 5.63863898398089  0.248104073979508 5.30628207636785  0.5928789453125 5.16743851356589  L 10.2923346152344 0.156664451550388  C 10.6869076592552 -0.0507641623540041  11.1594167977761 -0.0507641623540049  11.5539898417969 0.156664451550388  L 21.4283393027344 5.16743851356589  C 21.7731141740674 5.30628207636785  21.9986606832898 5.63863898398089  21.9986606832898 6.0078427877907  C 21.9986606832898 6.3770465916005  21.7731141740674 6.70940349921355  21.4283393027344 6.8482470620155  L 11.70688440625 11.8590211027132  Z M 21.3722412792969 10.0690691472868  L 21.3733412363281 10.0723434593023  C 21.716236303239 10.2157181200114  21.9391806367028 10.5489929261023  21.9391806367028 10.9182049060078  C 21.9391806367028 11.2874168859132  21.716236303239 11.6206916920041  21.3733412363281 11.7640663527132  L 11.6518863613281 16.7748403934109  C 11.2510482663256 16.9724776629815  10.7800696379713 16.9724776629815  10.3792315429688 16.7748403934109  L 0.570879740234375 11.7607920406977  C 0.227984673323474 11.6174173799886  0.00504033985973541 11.2841425738977  0.00504033985973541 10.9149305939922  C 0.00504033985973541 10.5457186140868  0.227984673323475 10.2124438079959  0.570879740234375 10.0690691472868  L 1.32765286328125 9.68706720155039  L 10.4012307480469 14.3158393178295  C 10.8023473900527 14.5122957533328  11.2727689244004 14.5122957533328  11.6738855664063 14.3158393178295  L 20.6374673613281 9.69798154651163  L 21.3722412792969 10.0690691472868  Z M 21.3722412792969 14.9816141472868  L 21.3733412363281 14.9837970077519  C 21.7181161076611 15.1226405705539  21.9436626168835 15.4549974781669  21.9436626168835 15.8242012819767  C 21.9436626168835 16.1934050857866  21.7181161076611 16.5257619933996  21.3733412363281 16.6646055562016  L 11.6518863613281 21.675379618217  C 11.2534786386551 21.8830351817156  10.7776392656418 21.8830351817156  10.3792315429688 21.6753796182171  L 0.570879740234375 16.6624226957364  C 0.226104868901383 16.5235791329345  0.000558359678977891 16.1912222253214  0.000558359678977891 15.8220184215116  C 0.000558359678977891 15.4528146177018  0.226104868901383 15.1204577100888  0.570879740234375 14.9816141472868  L 1.32765286328125 14.5886978565891  L 10.4012307480469 19.2283842965116  C 10.8023473900527 19.424840732015  11.2727689244004 19.424840732015  11.6738855664063 19.2283842965116  L 20.6374673613281 14.5996122015504  L 21.3722412792969 14.9816141472868  Z " fill-rule="nonzero" fill="#999999" stroke="none" transform="matrix(1 0 0 1 269 364 )" />
  </g>
</svg>