<?xml version="1.0" encoding="utf-8"?>
<svg version="1.1" xmlns:xlink="http://www.w3.org/1999/xlink" width="22px" height="20px" xmlns="http://www.w3.org/2000/svg">
  <g transform="matrix(1 0 0 1 -189 -200 )">
    <path d="M 21.8096757957945 8.916196484375  C 22.0612921791888 8.59999407169118  22.0101826109541 8.137548046875  21.6917306225067 7.88458612132353  L 12.4212394261137 0.517069990808824  C 11.6231437146775 -0.119287362132353  10.3729247818318 -0.119287362132353  9.57482907039561 0.517069990808824  L 0.308269377493351 7.88458612132353  C -0.0101826109541224 8.137548046875  -0.0612921791888299 8.59999407169117  0.186392700714761 8.916196484375  C 0.434077580618351 9.23239889705882  0.886200779172208 9.28773430606618  1.20465276761968 9.03872490808824  L 1.4916527052859 8.80157309283088  L 1.4916527052859 17.7066234375  C 1.4916527052859 18.9674805376838  2.81657022731051 19.9121352481618  3.97636451130319 20  L 18.6015668903757 20  C 19.7495666410406 19.9121352481618  20.5044157912234 19.0267684972426  20.5044157912234 17.7066234375  L 20.5044157912234 8.833193359375  L 20.7717582114362 9.03872493106618  C 20.9054294215426 9.14544324448529  21.0705526595745 9.19682612591912  21.2317444169714 9.19682612591912  C 21.4479772460938 9.19682612591912  21.6642100752161 9.10196539522059  21.8096757957945 8.916196484375  Z M 10.266774119016 18.4417940487132  L 10.266774119016 14.3627829733456  C 10.266774119016 14.1612039292279  10.6324041722074 14.0584381433824  10.9980342482547 14.0584381433824  C 11.3636643243019 14.0584381433824  11.7292943774934 14.1612039292279  11.7292943774934 14.3627829733456  L 11.7292943774934 18.4378415211397  L 10.266774119016 18.4417940487132  Z M 19 17.7066234604779  L 19.0458270590924 17.7066234604779  C 19.0458270590924 18.1927846737132  18.912155848986 18.4417940716912  18.6054983938664 18.4417940716912  L 13.2075406270778 18.4417940487132  C 13.2075406270778 18.4299364659927  13.191814613115 18.4220313878676  13.191814613115 18.4101738051471  L 13.191814613115 14.3627829733456  C 13.191814613115 13.5090364659926  12.5077325714761 12.5880969439338  10.9980342482547 12.5880969439338  C 9.48833592503325 12.5880969439338  8.80425388339428 13.5090364659926  8.80425388339428 14.3627829733456  L 8.80425388339428 18.4101738051471  C 8.80425388339428 18.4220313878676  8.82391142370346 18.4299364659926  8.82391142370346 18.4417940487132  L 3.98029601479388 18.4417940487132  C 3.52030980925864 18.4417940487132  2.95810444439827 18.0425885110294  3 17.7066234375  L 3 7.63557672334559  L 10.4712124376662 1.67120877757353  C 10.7424863613697 1.45777215073529  11.2299930913398 1.45777215073529  11.4973355115525 1.67120877757353  L 19 7.67114949448529  L 19 17.7066234604779  Z " fill-rule="nonzero" fill="#999999" stroke="none" fill-opacity="0.996078431372549" transform="matrix(1 0 0 1 189 200 )" />
  </g>
</svg>