<?xml version="1.0" encoding="utf-8"?>
<svg version="1.1" xmlns:xlink="http://www.w3.org/1999/xlink" width="22px" height="20px" xmlns="http://www.w3.org/2000/svg">
  <g transform="matrix(1 0 0 1 -189 -280 )">
    <path d="M 21.6306718338816 8.91619646139706  C 21.883529765625 8.59604154411765  21.8251779317434 8.13359551930147  21.5139681887336 7.88063359375  L 12.2710389185855 0.517069990808824  C 11.4813442146382 -0.119287362132353  10.2442854810855 -0.119287362132353  9.45459077713816 0.517069990808824  L 0.281683721217105 7.88458612132353  C -0.0334161410361842 8.137548046875  -0.0839877138157895 8.59999407169117  0.161089956825658 8.916196484375  C 0.406167627467105 9.23239889705882  0.8652019921875 9.28773430606618  1.17641173519737 9.03872490808824  L 1.47206097861842 8.80157309283088  L 1.47206097861842 17.7066234375  C 1.47206097861842 18.9674805376838  2.75969128495066 19.9121352481618  3.9111673046875 20  L 18.3824201850329 20  C 19.5183357277961 19.9121352481618  20.2846897162829 19.0267684972426  20.2846897162829 17.7066234375  L 20.2846897162829 8.77785792738971  L 20.6114599362664 9.03872490808824  C 20.7437240810033 9.14544322150735  20.8993289412007 9.19682610294118  21.0588239432566 9.19682610294118  C 21.2727806373355 9.19682610294118  21.4867373314145 9.10196537224265  21.6306718338816 8.91619646139706  Z M 13.0529534066612 16.9042598345588  L 13.0529534066612 18.4378415211397  L 11.6058281208882 18.4378415211397  L 10.1587028351151 18.4378415211397  L 8.71157754934211 18.4378415211397  L 8.71157754934211 16.9042598345588  L 8.71157754934211 14.3232576746324  C 8.71157754934211 13.4695111672794  9.39234884662829 12.5485716452206  10.8822654893092 12.5485716452206  C 12.3760722286184 12.5485716452206  13.0529534292763 13.4695111672794  13.0529534292763 14.3232576746324  L 13.0529534066612 16.9042598345588  Z " fill-rule="nonzero" fill="#999999" stroke="none" fill-opacity="0.996078431372549" transform="matrix(1 0 0 1 189 280 )" />
  </g>
</svg>