<?xml version="1.0" encoding="utf-8"?>
<svg version="1.1" xmlns:xlink="http://www.w3.org/1999/xlink" width="22px" height="21px" xmlns="http://www.w3.org/2000/svg">
  <g transform="matrix(1 0 0 1 -1469 -515 )">
    <path d="M 16.8049264705882 12.0766006097561  C 16.7264705882353 12.4567454268293  16.3891911764706 12.7184451219512  16.0122794117647 12.7184451219512  C 15.9597058823529 12.7184451219512  15.9047058823529 12.7136432926829  15.8513235294118 12.7024390243902  C 15.41375 12.6144054878049  15.1298529411765 12.1918445121951  15.2188235294118 11.7588795731707  C 15.3142647058823 11.2931021341463  15.3627941176471 10.8153201219512  15.3627941176471 10.3391387195122  C 15.3627941176471 8.8297637195122  14.8888235294118 7.3796112804878  13.9918382352941 6.14474085365854  C 13.7313970588235 5.78620426829268  13.8138970588235 5.2860137195122  14.1770588235294 5.02751524390244  C 14.5394117647059 4.76901676829268  15.0441176470588 4.85064786585366  15.3061764705882 5.21078506097561  C 16.4013235294118 6.71935975609756  16.9804411764706 8.49283536585366  16.9804411764706 10.3391387195122  C 16.9804411764706 10.9225609756098  16.9213970588235 11.5067835365854  16.8049264705882 12.0766006097561  Z M 20.8013235294118 15.8292301829268  C 20.6638235294118 16.1165396341463  20.3742647058824 16.2838033536585  20.0725735294118 16.2838033536585  C 19.9544852941176 16.2838033536585  19.8355882352941 16.258993902439  19.7223529411765 16.2045731707317  C 19.3203676470588 16.0133003048781  19.1505147058824 15.5347179878049  19.3438235294118 15.1361661585366  C 20.0264705882353 13.731631097561  20.3718382352941 12.2254573170732  20.3718382352941 10.6600609756098  C 20.3718382352941 8.14550304878049  19.4433088235294 5.71257621951219  17.7561029411765 3.81025152439024  C 17.4616911764706 3.47732469512195  17.4956617647059 2.97233231707317  17.8313235294118 2.68022103658537  C 18.1653676470588 2.38891006097561  18.6773529411765 2.42252286585366  18.9725735294118 2.75384908536585  C 20.9177941176471 4.94908536585366  21.9894852941176 7.75655487804878  21.9894852941176 10.6592606707317  C 21.9894852941176 12.4671493902439  21.5899264705882 14.2070121951219  20.8013235294118 15.8292301829268  Z M 20.0814705882353 19.8699695121951  C 19.92375 20.0260289634146  19.7166911764706 20.1044588414634  19.5096323529412 20.1044588414634  C 19.3025735294118 20.1044588414634  19.0955147058824 20.0260289634146  18.9377941176471 19.8699695121951  L 1.16470588235294 2.28407012195122  C 0.849264705882353 1.97195121951219  0.849264705882353 1.46535823170732  1.16470588235294 1.15243902439024  C 1.48014705882353 0.839519817073171  1.99213235294118 0.839519817073171  2.30838235294118 1.15243902439024  L 20.0814705882353 18.7383384146341  C 20.3977205882353 19.0512576219512  20.3977205882353 19.557050304878  20.0814705882353 19.8699695121951  Z M 12.2294117647059 1.51017530487805  C 12.2294117647059 0.689862804878049  11.6988235294118 0.117644817073171  10.9377205882353 0.117644817073171  C 10.3917647058824 0.117644817073171  9.78272058823529 0.428163109756098  9.22220588235294 0.994778963414634  L 6.86448529411765 3.39729420731707  L 12.2294117647059 8.70571646341463  L 12.2294117647059 1.51017530487805  Z M 2.34477941176471 5.71497713414634  C 1.0725 5.80221036585366  0.0970588235294118 6.78978658536585  0.0970588235294118 8.04866615853659  L 0.0970588235294118 12.9521341463415  C 0.0970588235294118 14.2694359756098  1.16227941176471 15.3018292682927  2.52352941176471 15.3018292682927  L 4.59735294117647 15.3018292682927  L 9.22705882352941 20.0524390243902  C 9.77220588235294 20.6022484756098  10.3715441176471 20.9047637195122  10.9158823529412 20.9047637195122  C 11.6891176470588 20.9047637195122  12.2294117647059 20.3229420731707  12.2294117647059 19.489824695122  L 12.2294117647059 15.4955030487805  L 2.34477941176471 5.71497713414634  Z " fill-rule="nonzero" fill="#999999" stroke="none" fill-opacity="0.996078431372549" transform="matrix(1 0 0 1 1469 515 )" />
  </g>
</svg>