<?xml version="1.0" encoding="utf-8"?>
<svg version="1.1" xmlns:xlink="http://www.w3.org/1999/xlink" width="22px" height="17px" xmlns="http://www.w3.org/2000/svg">
  <g transform="matrix(1 0 0 1 -1549 -517 )">
    <path d="M 8.05357142857143 8.85416666666667  C 8.05357142857143 10.48417374082  9.37273243353427 11.8055555555556  11 11.8055555555556  C 12.6272675664657 11.8055555555556  13.9464285714286 10.48417374082  13.9464285714286 8.85416666666667  C 13.9464285714286 7.22415959251328  12.6272675664657 5.90277777777778  11 5.90277777777778  C 9.37273243353427 5.90277777777778  8.05357142857143 7.22415959251328  8.05357142857143 8.85416666666667  Z M 21.8035714285714 3.73842592592593  C 21.8035714285714 2.16435185185185  20.625 0.983796296296296  19.0535714285714 1  L 7.07142857142857 1  C 7.07142857142857 0.393518518518518  6.67857142857143 0  6.08928571428571 0  L 4.125 0  C 3.53571428571429 0  3.14285714285714 0.393518518518518  3.14285714285714 0.983796296296296  L 2.94642857142857 0.983796296296296  C 1.375 0.983796296296296  0.196428571428571 2.16435185185185  0.196428571428571 3.73842592592593  L 0.196428571428571 13.9699074074074  C 0.196428571428571 15.5439814814815  1.375 16.724537037037  2.94642857142857 16.724537037037  L 19.0535714285714 16.724537037037  C 20.625 16.724537037037  21.8035714285714 15.5439814814815  21.8035714285714 13.9699074074074  L 21.8035714285714 3.73842592592593  Z M 15.9107142857143 8.85416666666667  C 15.9107142857143 11.6087962962963  13.75 13.7731481481481  11 13.7731481481481  C 8.25 13.7731481481481  6.08928571428571 11.6087962962963  6.08928571428571 8.85416666666667  C 6.08928571428571 6.09953703703704  8.25 3.93518518518519  11 3.93518518518519  C 13.75 3.93518518518519  15.9107142857143 6.09953703703704  15.9107142857143 8.85416666666667  Z M 18.8571428571429 4.91898148148148  C 18.8571428571429 5.50925925925926  18.4642857142857 5.90277777777778  17.875 5.90277777777778  C 17.2857142857143 5.90277777777778  16.8928571428571 5.50925925925926  16.8928571428571 4.91898148148148  C 16.8928571428571 4.3287037037037  17.2857142857143 3.93518518518519  17.875 3.93518518518519  C 18.4642857142857 3.93518518518519  18.8571428571429 4.3287037037037  18.8571428571429 4.91898148148148  Z " fill-rule="nonzero" fill="#999999" stroke="none" fill-opacity="0.996078431372549" transform="matrix(1 0 0 1 1549 517 )" />
  </g>
</svg>