<?xml version="1.0" encoding="utf-8"?>
<svg version="1.1" xmlns:xlink="http://www.w3.org/1999/xlink" width="22px" height="19px" xmlns="http://www.w3.org/2000/svg">
  <g transform="matrix(1 0 0 1 -349 -680 )">
    <path d="M 19.9201423267327 0.176564719460227  L 2.23154586943069 0.176564719460227  C 1.10314820544555 0.176564719460227  0.18880724009901 1.07446400035511  0.18880724009901 2.18171497691761  L 0.18880724009901 16.8765636097301  C 0.18880724009901 17.9837935014205  1.10316947710396 18.8817138671875  2.23154586943069 18.8817138671875  L 19.9201635983911 18.8817138671875  C 21.0486038056931 18.8817138671875  21.9629022277228 17.9838145862926  22 16.8765636097301  L 22 2.18171497691761  C 21.9628809560644 1.07307239879261  21.0485399907178 0.176564719460227  19.9201423267327 0.176564719460227  Z M 2.22937616027228 1.51290283203125  L 19.9208442914604 1.51290283203125  C 20.2972037438119 1.51290283203125  20.6012821008663 1.81078990589489  20.6012821008663 2.18032337535511  L 20.6012821008663 10.0489868164063  C 19.5047493811881 9.16525656960227  17.6045095915842 7.97368718927557  15.3235922029703 7.97368718927557  C 13.2213142017327 7.97368718927557  11.1473913211634 9.57411332563921  9.14292040532178 11.1210893110795  C 7.60695776608911 12.3056374289773  6.01856048886139 13.5323131214489  4.90432974938119 13.5323131214489  C 3.34075649752475 13.5323131214489  2.00323715965347 12.4039772727273  1.54889580754951 11.9726229580966  L 1.54889580754951 2.18034446022727  C 1.54889580754951 1.81218150745738  1.8536974009901 1.51290283203125  2.22933361695545 1.51290283203125  Z M 19.9208655631188 17.5440052379261  L 2.22939743193069 17.5440052379261  C 1.85373994430693 17.5440052379261  1.54895962252475 17.2447054776278  1.54895962252475 16.8765636097301  L 1.54895962252475 13.7051458185369  C 2.36479153774753 14.2713800603693  3.54490060334159 14.8686090642756  4.90439356435644 14.8686090642756  C 6.48925974628713 14.8686090642756  8.18682317450495 13.5576149680398  9.9843208539604 12.1721491033381  C 11.8073445235149 10.7656194513494  13.6920347308168 9.31139581853693  15.3236560179455 9.31139581853693  C 18.247445467203 9.31139581853693  20.5672899907178 11.8391557173295  20.5914120513614 11.8644153941761  L 20.6020478805693 11.8545687588778  L 20.6020478805693 16.876542524858  C 20.6020478805693 17.2460759943182  20.2972462871287 17.5453968394886  19.9209081064357 17.5453968394886  L 19.9209081064357 17.5440052379261  Z M 6.98608060024752 9.53476895419034  C 8.49153968131188 9.53476895419034  9.71210744121287 8.33761208274148  9.71210744121287 6.86082763671875  C 9.71210744121287 5.3826094193892  8.49158222462871 4.18401877663352  6.98608060024752 4.18401877663352  C 5.48132348391089 4.18401877663352  4.26077699566832 5.3826094193892  4.26077699566832 6.86082763671875  C 4.26077699566832 8.33759099786932  5.48132348391089 9.53476895419034  6.98608060024752 9.53476895419034  Z M 6.99603573638614 5.52031471946023  C 7.74522354579208 5.52031471946023  8.35335898824257 6.1160888671875  8.35335898824257 6.85239368785511  C 8.35335898824257 7.58869850852273  7.74522354579208 8.18447265625  6.99603573638614 8.18447265625  C 6.24614596225248 8.18447265625  5.6387124845297 7.58869850852273  5.6387124845297 6.85239368785511  C 5.6387124845297 6.11752263849432  6.2468479269802 5.52031471946023  6.99603573638614 5.52031471946023  Z " fill-rule="nonzero" fill="#272636" stroke="none" transform="matrix(1 0 0 1 349 680 )" />
  </g>
</svg>