<?xml version="1.0" encoding="utf-8"?>
<svg version="1.1" xmlns:xlink="http://www.w3.org/1999/xlink" width="22px" height="19px" xmlns="http://www.w3.org/2000/svg">
  <g transform="matrix(1 0 0 1 -349 -761 )">
    <path d="M 21.8561579777644 17.0845171440972  C 21.8575627253606 18.1302180989583  21.0071739783654 18.9788888888889  19.9579514723558 19  L 2.04204852764423 19  C 0.992826021634615 18.9788888888889  0.142437274639423 18.1288161892361  0.142437274639423 17.083115234375  L 0.142437274639423 12.2894911024306  C 0.486538461538462 12.5118587239583  1.49911358173077 14.7777777777778  4.81039287860577 14.8931879340278  C 8.01730769230769 15.0001453993056  11.3835993840144 9.65340603298611  15.1517934945913 9.28466254340278  C 17.8820443960337 9.01724826388889  20.5812875600962 11.8039149305556  21.8561579777644 13.2366666666667  L 21.8561579777644 17.0845171440972  Z M 14.8810283954327 7.95748697916667  C 12.7712834284856 8.26007269965278  11.813720703125 9.17067491319444  10.6474290114183 9.93347873263889  C 8.031396484375 11.6434787326389  6.52242901141827 13.7630425347222  4.26884202223558 13.5378504774306  C 2.48487454927885 13.3563031684028  0.562684044471154 11.1269574652778  0.143842022235577 10.6681412760417  L 0.143842022235577 1.916884765625  C 0.143842022235577 0.868359375  0.994230769230769 0.0197092013888895  2.04345327524038 0  L 19.9579308143029 0  C 21.0071533203125 0.0197092013888895  21.8589468149038 0.868379991319445  21.8589468149038 1.916884765625  L 21.8589468149038 11.4379958767361  C 19.9734243539663 9.08903428819445  16.9710036057692 7.65628255208334  14.8810077373798 7.95748697916667  Z M 9.64332369290865 6.79214952256944  C 9.64332369290865 5.29608506944444  8.42767991286058 4.08289713541667  6.92858698918269 4.08289713541667  C 5.42949406550481 4.08289713541667  4.21525503305288 5.29608506944444  4.21525503305288 6.79214952256944  C 4.21525503305288 8.28821397569444  5.42949406550481 9.50140190972222  6.92858698918269 9.50140190972222  C 8.42767991286058 9.50140190972222  9.64332369290865 8.28821397569444  9.64332369290865 6.79214952256944  Z " fill-rule="nonzero" fill="#999999" stroke="none" fill-opacity="0.996078431372549" transform="matrix(1 0 0 1 349 761 )" />
  </g>
</svg>