<?xml version="1.0" encoding="utf-8"?>
<svg version="1.1" xmlns:xlink="http://www.w3.org/1999/xlink" width="18px" height="22px" xmlns="http://www.w3.org/2000/svg">
  <g transform="matrix(1 0 0 1 -1391 -515 )">
    <path d="M 4.17857142857143 11.0421875  C 4.17857142857143 13.6265625  6.34098214285714 15.7296875  9 15.7296875  C 11.6590178571429 15.7296875  13.8214285714286 13.62734375  13.8214285714286 11.0421875  L 13.8214285714286 4.79765625  C 13.8214285714286 2.2125  11.6590178571429 0.11015625  9 0.11015625  C 6.34098214285714 0.11015625  4.17857142857143 2.2125  4.17857142857143 4.79765625  L 4.17857142857143 11.0421875  Z M 9.80357142857143 18.828125  C 14.3019642857143 18.428125  17.8392857142857 14.7203125  17.8392857142857 10.21328125  L 17.8392857142857 7.09375  C 17.8392857142857 6.6625  17.4800892857143 6.3125  17.0357142857143 6.3125  C 16.5913392857143 6.3125  16.2321428571429 6.6625  16.2321428571429 7.09375  L 16.2321428571429 10.21328125  C 16.2321428571429 14.1234375  12.988125 17.3046875  9 17.3046875  C 5.01267857142857 17.3046875  1.76785714285714 14.1234375  1.76785714285714 10.21328125  L 1.76785714285714 7.09375  C 1.76785714285714 6.6625  1.40785714285714 6.3125  0.964285714285714 6.3125  C 0.520714285714286 6.3125  0.160714285714286 6.6625  0.160714285714286 7.09375  L 0.160714285714286 10.21328125  C 0.160714285714286 14.7203125  3.69803571428571 18.428125  8.19642857142857 18.82734375  L 8.19642857142857 20.375  L 3.375 20.375  C 2.93142857142857 20.375  2.57142857142857 20.72421875  2.57142857142857 21.15625  C 2.57142857142857 21.58828125  2.93142857142857 21.9375  3.375 22  L 14.625 22  C 15.069375 21.9375  15.4285714285714 21.58828125  15.4285714285714 21.15625  C 15.4285714285714 20.72421875  15.069375 20.375  14.625 20.375  L 9.80357142857143 20.375  L 9.80357142857143 18.828125  Z " fill-rule="nonzero" fill="#999999" stroke="none" fill-opacity="0.996078431372549" transform="matrix(1 0 0 1 1391 515 )" />
  </g>
</svg>