<?xml version="1.0" encoding="utf-8"?>
<svg version="1.1" xmlns:xlink="http://www.w3.org/1999/xlink" width="22px" height="17px" xmlns="http://www.w3.org/2000/svg">
  <g transform="matrix(1 0 0 1 -1629 -202 )">
    <path d="M 21.6469883661685 15.5143204996745  L 18.2044420367697 11.0760820692274  C 19.4256020019531 9.925868359375  20.1928439453125 8.31556916097005  20.1928439453125 6.52282227240668  C 20.1928439453125 3.04838361002604  17.3207078655741 0.220444377983941  13.7938050993546 0.220444377983941  C 10.2628853621773 0.220444377983941  7.39476625339674 3.04838361002604  7.39476625339674 6.52282227240668  C 7.39476625339674 9.99726093478733  10.2669023331352 12.8252001668294  13.7938050993546 12.8252001668294  C 14.9306086043648 12.8252001668294  15.9951066087806 12.5277311102973  16.9230274838655 12.0160843044705  L 20.3776247261379 16.4701877414279  C 20.5342866869056 16.6724667127821  20.7712881368886 16.7795555759006  21.0163235287874 16.7795555759006  C 21.1850364257813 16.7795555759006  21.3577662703804 16.727994281684  21.4983603473166 16.6169391438802  C 21.8478370308254 16.3512001464844  21.9161255838145 15.8593846218533  21.6469883661685 15.5143204996745  Z M 8.87702949431046 6.52282229546441  C 8.87702949431046 3.8535332438151  11.0823479746943 1.68399219699436  13.7938050993546 1.68399219699436  C 16.5052622240149 1.68399219699436  18.7105807043988 3.85353322075738  18.7105807043988 6.52282229546441  C 18.7105807043988 9.19211137017144  16.5052622240149 11.3616523939345  13.7938050993546 11.3616523939345  C 11.0823479746943 11.3616523939345  8.87702949431046 9.19211134711372  8.87702949431046 6.52282229546441  Z M 5.77994287746264 3.35378521592882  L 0.987693442170517 3.35378521592882  C 0.54582635657269 3.35378521592882  0.188315707795516 3.00078859049479  0.188315707795516 2.56846688639323  C 0.188315707795516 2.13614518229167  0.54582635657269 1.78314855685764  0.987693442170517 1.78314855685764  L 5.77994287746264 1.78314855685764  C 6.22180996306046 1.78314855685764  6.57932061183764 2.13614518229167  6.57932061183764 2.56846688639323  C 6.57932061183763 3.00078859049479  6.22180998641304 3.35378521592882  5.77994287746264 3.35378521592882  Z M 5.58712815472147 11.1316096381293  L 0.987693442170517 11.1316096381293  C 0.54582635657269 11.1316096381293  0.188315707795516 10.7786130126953  0.188315707795516 10.3462913085937  C 0.188315707795516 9.91396960449219  0.54582635657269 9.56097297905816  0.987693442170517 9.56097297905816  L 5.58712815472147 9.56097297905816  C 6.02899524031929 9.56097297905816  6.38650588909647 9.91396960449219  6.38650588909647 10.3462913085937  C 6.38650588909647 10.778613035753  6.02899524031929 11.1316096381293  5.58712815472147 11.1316096381293  Z M 4.64313937245245 7.23278179796007  L 0.987693442170517 7.23278179796007  C 0.54582635657269 7.23278179796007  0.188315707795516 6.87978517252604  0.188315707795516 6.44349721679687  C 0.188315707795516 6.00720926106771  0.54582635657269 5.65421263563368  0.987693442170517 5.65421263563368  L 4.64313937245245 5.65421263563368  C 5.08500645805027 5.65421263563368  5.44251710682745 6.00720926106771  5.44251710682745 6.44349721679687  C 5.43850013586957 6.87978517252604  5.08098948709239 7.23278179796007  4.64313937245245 7.23278179796007  Z M 9.78888248556386 15.1692564005534  L 0.987693442170517 15.1692564005534  C 0.54582635657269 15.1692564005534  0.188315707795516 14.8162597751194  0.188315707795516 14.3799718193902  C 0.188315707795516 13.943683863661  0.54582635657269 13.590687238227  0.987693442170517 13.590687238227  L 9.78888246221128 13.590687238227  C 10.2307495478091 13.590687238227  10.5882601965863 13.943683863661  10.5882601965863 14.3799718193902  C 10.5882602199389 14.8162597751194  10.2307495711617 15.1692564005534  9.78888248556386 15.1692564005534  Z " fill-rule="nonzero" fill="#999999" stroke="none" fill-opacity="0.996078431372549" transform="matrix(1 0 0 1 1629 202 )" />
  </g>
</svg>