<?xml version="1.0" encoding="utf-8"?>
<svg version="1.1" xmlns:xlink="http://www.w3.org/1999/xlink" width="22px" height="22px" xmlns="http://www.w3.org/2000/svg">
  <g transform="matrix(1 0 0 1 -1549 -598 )">
    <path d="M 9.57308174262153 2.28450640190972  L 1.44272729600694 10.4148608485243  C 1.13065309461806 10.7269350499132  0.629691848958333 10.7269350499132  0.317617647569444 10.4148608485243  C 0.0055434461805555 10.1027866471354  0.00964968315972214 9.60182540147569  0.317617647569444 9.2897512000868  L 8.44797209418403 1.15939675347222  C 8.76004629557292 0.847322552083333  9.26100754123264 0.847322552083333  9.57308174262153 1.15939675347222  C 9.88515594401042 1.47147097873264  9.88515594401042 1.97243220052083  9.57308174262153 2.28450640190972  Z M 20.8406032465278 13.5479216927083  L 12.7102487999132 21.6782761393229  C 12.3981745985243 21.9903503407118  11.8972133528646 21.9903503407118  11.5851391514757 21.6782761393229  C 11.2730649500868 21.366201937934  11.277171187066 20.8652406922743  11.5851391514757 20.5531664908854  L 19.7154935980903 12.4228120442708  C 20.0275677994792 12.1107378428819  20.5285290451389 12.1107378428819  20.8406032465278 12.4228120442708  C 21.1526774479167 12.7348862456597  21.1485712109375 13.2399537044271  20.8406032465278 13.5479216927083  Z M 9.548444296875 13.5971965603299  L 7.08880677083333 16.0568340863715  C 6.77673256944444 16.3689082877604  6.27577132378472 16.3689082877604  5.96369712239583 16.0568340863715  C 5.65162292100694 15.7447598849826  5.65572915798611 15.2437986393229  5.96369712239583 14.931724437934  L 8.4233346484375 12.4720869118924  C 8.73540884982639 12.1600127105035  9.23637009548611 12.1600127105035  9.548444296875 12.4720869118924  C 9.86051849826389 12.7841611132813  9.86051849826389 13.2892285959201  9.548444296875 13.5971965603299  Z M 5.90210351996528 11.3100210828993  L 4.11999552517361 13.092129077691  C 3.80792132378472 13.4042032790799  3.306960078125 13.4042032790799  2.99488587673611 13.092129077691  C 2.68281167534722 12.7800548763021  2.68691791232639 12.2790936306424  2.99488587673611 11.9670194292535  L 4.77699387152778 10.1849114344618  C 5.08906807291667 9.87283723307292  5.59002931857639 9.87283723307292  5.90210351996528 10.1849114344618  C 6.210071484375 10.4969856358507  6.210071484375 11.0020531184896  5.90210351996528 11.3100210828993  Z M 11.7945573567708 17.2065811805556  L 10.0124493619792 18.9886891753472  C 9.70037516059028 19.3007633767361  9.19941391493056 19.3007633767361  8.88733971354167 18.9886891753472  C 8.57526551215278 18.6766149739583  8.57937174913194 18.1756537282986  8.88733971354167 17.8635795269097  L 10.6694477083333 16.0814715321181  C 10.9815219097222 15.7693973307292  11.4824831553819 15.7693973307292  11.7945573567708 16.0814715321181  C 12.1066315820312 16.3935457335069  12.1066315820312 16.8945069791667  11.7945573567708 17.2065811805556  Z M 11.5810329144965 21.6782761154514  L 0.317617623697917 10.4189670855035  C 0.00554342230902789 10.1068928841146  0.00554342230902789 9.60593163845486  0.317617623697917 9.29385743706597  C 0.629691825086806 8.98178323567708  1.13065307074653 8.98588947265625  1.44272727213542 9.29385743706597  L 12.7061425390625 20.5572727039931  C 13.0182167404514 20.8693469053819  13.0182167404514 21.3703081510417  12.7061425390625 21.6823823524306  C 12.3940683615451 21.9903503407118  11.8931071158854 21.9903503407118  11.5810329144965 21.6782761154514  Z M 16.2580398415799 17.0053754492188  L 4.99462455078125 5.74196015842014  C 4.68255034939236 5.42988595703125  4.68255034939236 4.92892471137153  4.99462455078125 4.61685050998264  C 5.30669875217014 4.30477630859375  5.80765999782986 4.30888254557292  6.11973419921875 4.61685050998264  L 17.3790432530382 15.8802657769097  C 17.6911174544271 16.1923399782986  17.6911174544271 16.6933012239583  17.3790432530382 17.0053754253472  C 17.0710752647569 17.3174496506076  16.5660078059896 17.3133434136285  16.2580398415799 17.0053754492188  Z M 20.5572727039931 4.01733952907986  L 17.9867667078993 1.44272729600694  C 17.6746925065104 1.13065309461806  17.6746925065104 0.629691848958333  17.9867667078993 0.317617647569444  C 18.2988409092882 0.0055434461805555  18.7998021549479 0.00964968315972214  19.1118763563368 0.317617647569444  L 21.6823823524306 2.89222988064236  C 21.9944565538194 3.20430408203125  21.9944565538194 3.70526532769097  21.6823823524306 4.01733952907986  C 21.3703081510417 4.32941373046875  20.8652406922743 4.32941373046875  20.5572727039931 4.01733952907986  Z M 12.7964798242187 6.62480168185764  L 8.45618456814236 2.28450640190972  C 8.14411036675347 1.97243220052083  8.14411036675347 1.47147095486111  8.45618456814236 1.15939675347222  C 8.76825876953125 0.847322552083333  9.26922001519097 0.8514287890625  9.58129421657986 1.15939675347222  L 13.9256957335069 5.5037982703993  C 14.2377699348958 5.81587247178819  14.2377699348958 6.31683371744792  13.9256957335069 6.6289079188368  C 13.6136215082465 6.93687590711806  13.1085540494792 6.93687590711806  12.7964798242187 6.62480168185764  Z M 19.7154935980903 13.5438154318576  L 15.3751983181424 9.20352017578125  C 15.0631241167535 8.89144597439236  15.0631241167535 8.39048472873264  15.3751983181424 8.07841052734375  C 15.6872725195312 7.76633632595486  16.188233765191 7.77044256293403  16.5003079665799 8.07841052734375  L 20.8447094835069 12.4228120442708  C 21.1567836848958 12.7348862456597  21.1567836848958 13.2358474913194  20.8447094835069 13.5479216927083  C 20.5326352821181 13.8558896571181  20.0275677994792 13.8558896571181  19.7154935980903 13.5438154318576  Z M 21.6782761154514 4.01733952907986  L 16.4962017296007 9.19941393880208  C 16.1841275282118 9.51148814019097  15.6831662825521 9.51148814019097  15.3710920811632 9.19941393880208  C 15.0590178797743 8.88733973741319  15.0631241167535 8.38637849175347  15.3710920811632 8.07430429036458  L 20.5531664670139 2.89222990451389  C 20.8652406684028 2.580155703125  21.3662019140625 2.580155703125  21.6782761154514 2.89222990451389  C 21.9903503407118 3.20019784505208  21.9903503407118 3.70526532769097  21.6782761154514 4.01733952907986  Z M 19.1077701193576 1.44272729600694  L 13.9215894965278 6.62480168185764  C 13.6095152951389 6.93687588324653  13.1085540494792 6.93687588324653  12.7964798480903 6.62480168185764  C 12.4844056467014 6.31272748046875  12.4885118836806 5.81176623480903  12.7964798480903 5.49969203342014  L 17.9826604709201 0.317617623697917  C 18.294734672309 0.00554342230902789  18.7956959179688 0.00554342230902789  19.1077701193576 0.317617623697917  C 19.4198443446181 0.629691848958333  19.4157381076389 1.13065307074653  19.1077701193576 1.44272729600694  Z " fill-rule="nonzero" fill="#999999" stroke="none" fill-opacity="0.996078431372549" transform="matrix(1 0 0 1 1549 598 )" />
  </g>
</svg>