<?xml version="1.0" encoding="utf-8"?>
<svg version="1.1" xmlns:xlink="http://www.w3.org/1999/xlink" width="22px" height="21px" xmlns="http://www.w3.org/2000/svg">
  <g transform="matrix(1 0 0 1 -1469 -599 )">
    <path d="M 20.5486111111111 10.8  C 20.5486111111111 5.55  16.3472222222222 1.425  11 1.425  C 5.65277777777778 1.425  1.45138888888889 5.55  1.45138888888889 10.8  C 1.45138888888889 16.05  5.65277777777778 20.175  11 20.175  C 16.3472222222222 20.175  20.5486111111111 16.05  20.5486111111111 10.8  Z M 18.6388888888889 10.8  C 18.6388888888889 14.925  15.2013888888889 18.3  11 18.3  C 6.79861111111111 18.3  3.36111111111111 14.925  3.36111111111111 10.8  C 3.36111111111111 6.675  6.79861111111111 3.3  11 3.3  C 15.2013888888889 3.3  18.6388888888889 6.675  18.6388888888889 10.8  Z M 14.8194444444444 13.2375  L 11.9548611111111 10.425  L 11.9548611111111 5.175  C 11.9548611111111 4.6125  11.5729166666667 4.2375  11 4.2375  C 10.4270833333333 4.2375  10.0451388888889 4.6125  10.0451388888889 5.175  L 10.0451388888889 10.8  C 10.0451388888889 10.9875  10.2361111111111 11.3625  10.2361111111111 11.55  L 13.2916666666667 14.55  C 13.4826388888889 14.7375  13.6736111111111 14.7375  14.0555555555556 14.7375  C 14.4375 14.7375  14.6284722222222 14.7375  14.8194444444444 14.55  C 15.2013888888889 14.175  15.2013888888889 13.6125  14.8194444444444 13.2375  Z M 1.45138888888889 6.4875  C 2.40625 4.2375  4.31597222222222 2.3625  6.60763888888889 1.425  C 6.60763888888889 1.2375  6.41666666666667 1.05  6.41666666666667 0.8625  C 5.27083333333333 -0.0749999999999995  3.36111111111111 -0.0749999999999995  2.21527777777778 0.8625  L 0.878472222222222 2.175  C -0.0763888888888884 3.3  -0.0763888888888884 5.175  0.878472222222222 6.3  C 1.06944444444444 6.3  1.26041666666667 6.4875  1.45138888888889 6.4875  Z M 21.1215277777778 6.1125  C 22.0763888888889 5.175  22.0763888888889 3.3  21.1215277777778 2.175  L 19.7847222222222 0.8625  C 18.6388888888889 -0.2625  16.9201388888889 -0.2625  15.7743055555556 0.8625  C 15.5833333333333 1.05  15.5833333333333 1.2375  15.3923611111111 1.425  C 17.6840277777778 2.55  19.59375 4.2375  20.5486111111111 6.4875  C 20.7395833333333 6.3  20.9305555555556 6.3  21.1215277777778 6.1125  Z M 5.07986111111111 18.675  C 4.69791666666667 18.3  3.93402777777778 18.3  3.55208333333333 18.675  L 2.78819444444444 19.425  C 2.40625 19.8  2.40625 20.3625  2.78819444444444 20.7375  C 2.97916666666667 20.925  3.17013888888889 20.925  3.55208333333333 20.925  C 3.93402777777778 20.925  4.125 20.925  4.31597222222222 20.7375  L 5.07986111111111 19.9875  C 5.46180555555556 19.6125  5.46180555555556 19.05  5.07986111111111 18.675  Z M 19.4027777777778 19.425  L 18.4479166666667 18.675  C 18.0659722222222 18.3  17.4930555555556 18.3  17.1111111111111 18.675  C 16.7291666666667 19.05  16.7291666666667 19.6125  17.1111111111111 19.9875  L 17.875 20.7375  C 18.0659722222222 20.925  18.2569444444444 20.925  18.6388888888889 20.925  C 19.0208333333333 20.925  19.2118055555556 20.925  19.4027777777778 20.7375  C 19.7847222222222 20.3625  19.7847222222222 19.8  19.4027777777778 19.425  Z " fill-rule="nonzero" fill="#999999" stroke="none" fill-opacity="0.996078431372549" transform="matrix(1 0 0 1 1469 599 )" />
  </g>
</svg>