<?xml version="1.0" encoding="utf-8"?>
<svg version="1.1" xmlns:xlink="http://www.w3.org/1999/xlink" width="22px" height="19px" xmlns="http://www.w3.org/2000/svg">
  <g transform="matrix(1 0 0 1 -1389 -600 )">
    <path d="M 18.9366425897507 19  L 3.00149985351563 19  C 1.40006640857515 18.9995055045114  0.097801836867559 17.6688945848922  0 16.0326027935189  L 0 3.00520272199604  C 0.0978018368675594 1.3689109306228  1.40006640857515 0.0383000110035213  3.00149985351563 0  L 18.9366425897507 0  C 20.5380760346912 0.0383000110035213  21.8403406063988 1.3689109306228  21.8403406063988 3.00520272199604  L 21.8403406063988 16.0326027935189  C 21.8403406063988 17.6688945848922  20.5380760346912 18.9995055045114  18.9366425897507 19  Z M 18.9366425897507 2  L 3.00149985351563 2  C 2.26237671130952 1.62963873376981  1.65523986002604 2.24549580765845  2 3.00520272199604  L 2 16.0326027935189  C 1.65523986002604 16.7878144036092  2.25797717168899 17.4081667817452  3.00149985351563 17.4081667817452  L 18.9366425897507 17.4081667817452  C 19.6757657319569 17.4081667817452  20.2829025832403 16.7923097078565  20 16.0326027935189  L 20 3.00520272199604  C 20.2829025832403 2.24999111190581  19.6801652715774 1.62963873376981  18.9366425897507 2  Z M 18.6638709542411 13.3174372771787  C 18.6594714146205 13.7534820766395  18.3075080147879 14.1131066516285  17.8763528506324 14.1131066516285  C 17.4451976864769 14.1131066516285  17.0976338262649 13.7534820766395  17.0976338262649 13.3174372771787  C 17.0976338262649 11.9598545320753  16.0197459286644 10.8585042858715  14.6910841192336 10.8585042858715  C 13.3624223098028 10.8585042858715  12.2845344122024 11.9598545320753  12.2845344122024 13.3174372771787  C 12.2845344122024 13.7579773808869  11.9325710123698 14.1131066516285  11.5058153878348 14.1131066516285  C 11.0746602236793 14.1131066516285  10.7270963634673 13.7534820766395  10.7270963634673 13.3174372771787  C 10.7270963634673 11.9283873762104  11.4266236235119 10.6472248294454  12.5793037458147 9.90549915823063  C 12.0733563569568 9.3570717003191  11.7917856422061 8.63782255034111  11.7917856422061 7.88710624449824  C 11.7917856422061 6.250814453125  13.0940502139137 4.92020353350572  14.6954836588542 4.92020353350572  C 16.2969171037946 4.92020353350572  17.5991816755022 6.250814453125  17.5991816755022 7.88710624449824  C 17.5991816755022 8.63782252420775  17.313211421131 9.35257636993838  16.8116635718936 9.90549915823063  C 17.9599441545759 10.6472248294454  18.6638709542411 11.923892071963  18.6638709542411 13.3174372771787  Z M 16.0373441127232 7.89160157487896  C 16.0373441127232 7.13189466054137  15.4302072614397 6.51603758665273  14.6910841192336 6.51603758665273  C 13.9519609770275 6.51603758665273  13.344824125744 7.13189466054137  13.344824125744 7.89160157487896  C 13.344824125744 8.65130848921655  13.947561437407 9.26716556310519  14.6910841192336 9.26716556310519  C 15.4346068010603 9.26716556310519  16.0373441127232 8.65130848921655  16.0373441127232 7.89160157487896  Z M 9.57441626674107 5.69789169096611  C 9.57441626674107 6.16090834204445  9.20925424804688 6.53401882977553  8.75610136021205 6.53401882977553  L 3.99139688197545 6.53401882977553  C 3.53824401971726 6.53401882977553  3.17308197544643 6.16090834204445  3.17308197544643 5.69789169096611  C 3.17308197544643 5.23487506602113  3.53824399414063 4.86176455215669  3.99139688197545 4.86176455215669  L 8.75610136021205 4.86176455215669  C 9.20925422247024 4.86176455215669  9.57441626674107 5.23487503988777  9.57441626674107 5.69789169096611  Z M 9.57441626674107 9.51440745351012  C 9.57441626674107 9.97742410458847  9.20925424804688 10.3505345923195  8.75610136021205 10.3505345923195  L 3.99139688197545 10.3505345923195  C 3.53824401971726 10.3505345923195  3.17308197544643 9.97742410458847  3.17308197544643 9.51440745351012  C 3.17308197544643 9.05139080243177  3.53824399414063 8.6782803147007  3.99139688197545 8.6782803147007  L 8.75610136021205 8.6782803147007  C 9.20925422247024 8.6782803147007  9.57441626674107 9.05139080243178  9.57441626674107 9.51440745351012  Z M 9.57441626674107 13.2904654516945  C 9.57441626674107 13.7534821027729  9.20925424804688 14.126592590504  8.75610136021205 14.126592590504  L 3.99139688197545 14.126592590504  C 3.53824401971726 14.126592590504  3.17308197544643 13.7534821027729  3.17308197544643 13.2904654516945  C 3.17308197544643 12.8274488006162  3.53824399414063 12.4543383128851  3.99139688197545 12.4543383128851  L 8.75610136021205 12.4543383128851  C 9.20925422247024 12.4543383128851  9.57441626674107 12.8274488006162  9.57441626674107 13.2904654516945  Z " fill-rule="nonzero" fill="#999999" stroke="none" fill-opacity="0.996078431372549" transform="matrix(1 0 0 1 1389 600 )" />
  </g>
</svg>