<?xml version="1.0" encoding="utf-8"?>
<svg version="1.1" xmlns:xlink="http://www.w3.org/1999/xlink" width="20px" height="22px" xmlns="http://www.w3.org/2000/svg">
  <g transform="matrix(1 0 0 1 -1471 -199 )">
    <path d="M 20 21.1945880615234  L 19.9170953125 21.1945880615234  C 19.9170953125 21.3864080078125  19.8444416015625 21.5776783203125  19.6980098632813 21.7235544189453  C 19.5516281005859 21.8694055419922  19.3602999755859 21.9426308837891  19.1690218261719 22  L 0.830403540039063 22  C 0.639100390625 21.9426309082031  0.447822241210938 21.8694055664062  0.301940161132813 21.7235544433594  C 0.155533422851563 21.5776783447266  0.082854711914063 21.3864080322266  0 21.1945880859375  L 0 3.06932700195313  C 0.0828547119140626 2.87750705566406  0.155533422851562 2.68623674316406  0.301940161132813 2.54036064453125  C 0.447822241210938 2.39448454589844  0.639100390625 2.3212841796875  0.830403540039063 2.3212841796875  L 3.13388623046875 2.3212841796875  L 3.13388623046875 3.07572268066406  C 3.13388623046875 4.32652463378906  4.1587333984375 5.34011242675781  5.42242841796875 5.34011242675781  C 6.68664812011719 5.34011242675781  7.71094562988281 4.32652463378906  7.71094562988281 3.07572268066406  L 7.71094562988281 2.3212841796875  L 12.2885297119141 2.3212841796875  L 12.2885297119141 3.07572268066406  C 12.2885297119141 4.32652463378906  13.3128272460938 5.34011242675781  14.5770718994141 5.34011242675781  C 15.8407419433594 5.34011242675781  16.865039453125 4.32652463378906  16.865039453125 3.07572268066406  L 16.865039453125 2.3212841796875  L 19.1690717773437 2.3212841796875  C 19.3603499267578 2.3212841796875  19.5516530761719 2.39448454589844  19.6980598144531 2.54036064453125  C 19.8444665527344 2.68621176757813  19.9171452636719 2.87750705566406  20 3.06932700195313  L 20 21.1945880615234  Z M 18 7.60397751464844  L 18.3916170410156 8  L 2 8  L 2 20  L 18 20  L 18 7.60397751464844  Z M 5.42240341796875 9.11337912597656  L 5.42240341796875 11.3772442382813  L 3.13386123046875 11.3772442382813  L 3.13386123046875 9.11337912597656  L 5.42240341796875 9.11337912597656  Z M 5.42240341796875 12.8866458740234  L 5.42240341796875 15.1505109619141  L 3.13386123046875 15.1505109619141  L 3.13386123046875 12.8866458740234  L 5.42240341796875 12.8866458740234  Z M 5.42240341796875 16.6599125732422  L 5.42240341796875 18.9243023193359  L 3.13386123046875 18.9243023193359  L 3.13386123046875 16.6599125732422  L 5.42240341796875 16.6599125732422  Z M 9.23697355957031 9.11337912597656  L 9.23697355957031 11.3772442382813  L 6.94790668945313 11.3772442382813  L 6.94790668945313 9.11337912597656  L 9.23697355957031 9.11337912597656  Z M 9.23697355957031 12.8866458740234  L 9.23697355957031 15.1505109619141  L 6.94790668945313 15.1505109619141  L 6.94790668945313 12.8866458740234  L 9.23697355957031 12.8866458740234  Z M 9.23697355957031 16.6599125732422  L 9.23697355957031 18.9243023193359  L 6.94790668945313 18.9243023193359  L 6.94790668945313 16.6599125732422  L 9.23697355957031 16.6599125732422  Z M 13.0509939941406 9.11337912597656  L 13.0509940185547 11.3772442382813  L 10.7624518310547 11.3772442382813  L 10.7624518066406 9.11337912597656  L 13.0509939941406 9.11337912597656  Z M 13.0509940185547 12.8866458740234  L 13.0509940185547 15.1505109619141  L 10.7624518310547 15.1505109619141  L 10.7624518310547 12.8866458740234  L 13.0509940185547 12.8866458740234  Z M 13.0509940185547 16.6599125732422  L 13.0509940185547 18.9243023193359  L 10.7624518310547 18.9243023193359  L 10.7624518310547 16.6599125732422  L 13.0509940185547 16.6599125732422  Z M 16.8650144775391 9.11337912597656  L 16.8650144775391 11.3772442382813  L 14.5770469238281 11.3772442382813  L 14.5770469238281 9.11337912597656  L 16.8650144775391 9.11337912597656  Z M 16.8650144775391 12.8866458740234  L 16.8650144775391 15.1505109619141  L 14.5770469238281 15.1505109619141  L 14.5770469238281 12.8866458740234  L 16.8650144775391 12.8866458740234  Z M 16.8650144775391 16.6599125732422  L 16.8650144775391 18.9243023193359  L 14.5770469238281 18.9243023193359  L 14.5770469238281 16.6599125732422  L 16.8650144775391 16.6599125732422  Z M 16.0549804931641 3.09978134765625  C 16.05498046875 3.91992529296875  15.382283984375 4.58514926757813  14.5529872558594 4.58514926757813  C 13.7237155029297 4.58514926757813  13.0509940185547 3.91995026855469  13.0509940185547 3.09978134765625  L 13.0509940185547 1.54336159667969  C 13.0509940185547 0.722668017578124  13.7237155029297 0.0574440429687495  14.5529872558594 0.0574440429687495  C 15.3822590087891 0.0574440429687495  16.0549804931641 0.722643041992187  16.0549804931641 1.54336159667969  L 16.0549804931641 3.09978134765625  Z M 6.90088664550781 3.09978134765625  C 6.90088664550781 3.91992529296875  6.22816516113281 4.58514926757813  5.39889340820313 4.58514926757813  C 4.56962165527344 4.58514926757813  3.89690017089844 3.91995026855469  3.89690017089844 3.09978134765625  L 3.89690017089844 1.54336159667969  C 3.89690017089844 0.722668017578124  4.56962165527344 0.0574440429687495  5.39889340820313 0.0574440429687495  C 6.22816516113281 0.0574440429687495  6.90088664550781 0.722643041992187  6.90088664550781 1.54336159667969  L 6.90088664550781 3.09978134765625  Z " fill-rule="nonzero" fill="#999999" stroke="none" fill-opacity="0.996078431372549" transform="matrix(1 0 0 1 1471 199 )" />
  </g>
</svg>