<?xml version="1.0" encoding="utf-8"?>
<svg version="1.1" xmlns:xlink="http://www.w3.org/1999/xlink" width="22px" height="22px" xmlns="http://www.w3.org/2000/svg">
  <g transform="matrix(1 0 0 1 -668 -279 )">
    <path d="M 11 0.0625  C 4.9687744140625 0.0625  0.0625 4.9687744140625  0.0625 11  C 0.0625 17.0312255859375  4.9687744140625 21.9375  11 21.9375  C 17.0312255859375 21.9375  21.9375 17.0312255859375  21.9375 11  C 21.9375 4.9687744140625  17.0312255859375 0.0625  11 0.0625  Z M 11.58515625 7.3437255859375  L 15.4546875 11.256201171875  C 15.6047119140625 11.4085205078125  15.68046875 11.6070068359375  15.68046875 11.8054443359375  C 15.68046875 12.006982421875  15.6031005859375 12.2085693359375  15.4484375 12.360888671875  C 15.14140625 12.664013671875  14.6476318359375 12.661669921875  14.34375 12.354638671875  L 11.0257568359375 8.999951171875  L 7.6890380859375 12.327294921875  C 7.383544921875 12.631982421875  6.8890380859375 12.6311767578125  6.5843505859375 12.325732421875  C 6.278857421875 12.0202392578125  6.28046875 11.525732421875  6.5859130859375 11.221044921875  L 10.476513671875 7.341357421875  C 10.4773193359375 7.3405517578125  10.478076171875 7.3405517578125  10.478857421875 7.339794921875  C 10.479638671875 7.3390380859375  10.4796630859375 7.338232421875  10.480419921875 7.337451171875  C 10.553076171875 7.2656005859375  10.637451171875 7.214013671875  10.725732421875 7.17651367187499  C 10.7288330078125 7.17495117187499  10.731982421875 7.1710693359375  10.7351318359375 7.170263671875  C 11.0187744140625 7.054638671875  11.356298828125 7.1124755859375  11.585205078125 7.343701171875  Z " fill-rule="nonzero" fill="#999999" stroke="none" fill-opacity="0.996078431372549" transform="matrix(1 0 0 1 668 279 )" />
  </g>
</svg>