<?xml version="1.0" encoding="utf-8"?>
<svg version="1.1" xmlns:xlink="http://www.w3.org/1999/xlink" width="21px" height="22px" xmlns="http://www.w3.org/2000/svg">
  <g transform="matrix(1 0 0 1 -590 -279 )">
    <path d="M 11.3172052556818 21.4076450892857  L 3.07057883522727 11  L 11.3172052556818 0.592354910714285  C 11.4446022727273 0.432756696428571  11.3296342329545 0.19642857142857  11.1214488636364 0.19642857142857  L 8.71954900568182 0.19642857142857  C 8.56729403409091 0.19642857142857  8.42125355113636 0.267020089285714  8.32803622159091 0.383649553571427  L 0.395241477272727 10.3953683035714  C 0.112482244318182 10.7513950892857  0.112482244318182 11.2516741071429  0.395241477272727 11.6077008928571  L 8.32803622159091 21.6163504464286  C 8.42125355113636 21.7360491071429  8.56729403409091 21.8035714285714  8.71954900568182 21.8035714285714  L 11.1214488636364 21.8035714285714  C 11.3296342329545 21.8035714285714  11.4446022727273 21.5672433035714  11.3172052556818 21.4076450892857  Z M 20.7632279829545 21.4076450892857  L 12.5166015625 11  L 20.7632279829545 0.592354910714285  C 20.890625 0.432756696428571  20.7756569602273 0.19642857142857  20.5674715909091 0.19642857142857  L 18.1655717329545 0.19642857142857  C 18.0133167613636 0.19642857142857  17.8672762784091 0.267020089285714  17.7740589488636 0.383649553571427  L 9.84126420454546 10.3953683035714  C 9.55850497159091 10.7513950892857  9.55850497159091 11.2516741071429  9.84126420454546 11.6077008928571  L 17.7740589488636 21.6163504464286  C 17.8672762784091 21.7360491071429  18.0133167613636 21.8035714285714  18.1655717329545 21.8035714285714  L 20.5674715909091 21.8035714285714  C 20.7756569602273 21.8035714285714  20.890625 21.5672433035714  20.7632279829545 21.4076450892857  Z " fill-rule="nonzero" fill="#999999" stroke="none" fill-opacity="0.996078431372549" transform="matrix(1 0 0 1 590 279 )" />
  </g>
</svg>