<?xml version="1.0" encoding="utf-8"?>
<svg version="1.1" xmlns:xlink="http://www.w3.org/1999/xlink" width="18px" height="22px" xmlns="http://www.w3.org/2000/svg">
  <g transform="matrix(1 0 0 1 -1229 -598 )">
    <path d="M 17.7688773261066 8.28111320686543  C 17.7759419379581 8.23179901590748  17.7796813034774 8.1820654545009  17.7800700993675 8.13224932249324  C 17.7804454654067 7.81212600946623  17.6433902665176 7.50724187929768  17.4037130984643 7.29502988256553  L 10.4541201806685 0.345436964769647  C 10.2292302528567 0.121453222745401  9.91966390551625 0.00373152549872202  9.60276986449867 0.0216859981932771  C 9.57604711833778 0.0197272628726068  9.54960419150848 0.0174887082204123  9.52260162601624 0.0174887082204123  L 1.26793134598006 0.0174887082204123  C 0.649771547939963 0.0174887082204123  0.148654019873447 0.518606236286985  0.148654019873447 1.13676603432697  L 0.148654019873447 20.7241192411925  C 0.148654019873447 21.3422790392325  0.649771547939963 21.8433965672991  1.26793134598006 21.8433965672991  L 16.6579945799458 21.8433965672991  C 17.2761543779859 21.8433965672991  17.7772719060524 21.3422790392325  17.7772719060524 20.7241192411925  L 17.7772719060524 8.41206865401989  C 17.7772719060524 8.36771728997292  17.7740539837398 8.32420538392051  17.7688773261066 8.28111320686543  Z M 10.7817886178862 7.01297199638663  L 10.7817886178862 3.83884140921413  L 13.9559192050588 7.01297199638663  L 10.7817886178862 7.01297199638663  Z M 15.5387172538392 19.6048419150858  L 2.38720867208667 19.6048419150858  L 2.38720867208667 2.25604336043358  L 8.54323396567293 2.25604336043358  L 8.54323396567293 8.13224932249324  C 8.54323396567293 8.75040912053328  9.04435149373944 9.25152664859985  9.66251129177954 9.25152664859985  L 15.5387172538392 9.25152664859985  L 15.5387172538392 19.6048419150858  Z M 5.11544715447144 14.9878229448961  L 8.75309846431787 14.9878229448961  C 9.37125821518407 14.9878229448961  9.87237574325059 14.4867054168296  9.87237574325059 13.8685456187895  C 9.87237574325059 13.2503858207495  9.37125821518407 12.7492682926829  8.75309841714397 12.7492682926829  L 5.11544715447144 12.7492682926829  C 4.49728740360547 12.7492682926829  3.99616987553895 13.2503858207495  3.99616987553895 13.8685456187895  C 3.99616987553895 14.4867054168296  4.49728740360547 14.9878229448961  5.11544720164557 14.9878229448961  Z M 12.7405239385728 15.9671906052394  L 4.90558265582649 15.9671906052394  C 4.2874228577864 15.9671906052394  3.78630532971988 16.468308133306  3.78630532971988 17.086467931346  C 3.78630532971988 17.7046277293861  4.2874228577864 18.2057452574526  4.90558265582649 18.2057452574526  L 12.7405239385728 18.2057452574526  C 13.3586837366126 18.2057452574526  13.8598012646792 17.7046277293861  13.8598012646792 17.086467931346  C 13.8598012646792 16.468308133306  13.3586837366126 15.9671906052394  12.7405239385728 15.9671906052394  Z " fill-rule="nonzero" fill="#999999" stroke="none" transform="matrix(1 0 0 1 1229 598 )" />
  </g>
</svg>