<?xml version="1.0" encoding="utf-8"?>
<svg version="1.1" xmlns:xlink="http://www.w3.org/1999/xlink" width="22px" height="16px" xmlns="http://www.w3.org/2000/svg">
  <g transform="matrix(1 0 0 1 -426 -764 )">
    <path d="M 17.2470020263672 13.9376242919922  C 17.2470020263672 14.3199900634766  17.5518203613281 14.6310541503906  17.9264163818359 14.6310541503906  C 18.3010623779297 14.6310541503906  18.6058307373047 14.3199900634766  18.6058307373047 13.9376242919922  C 18.6058307373047 13.5552585205078  18.3010623779297 13.2441944335938  17.9264163818359 13.2441944335938  C 17.5518203613281 13.2441944335938  17.2470020263672 13.5552585205078  17.2470020263672 13.9376242919922  Z M 22 4.45170573730469  C 21.9278034423828 3.89430866699219  21.4838794189453 3.44081613769531  20.9381494384766 3.44081613769531  L 14.9146833496094 3.44081613769531  C 14.3689533447266 3.44081613769531  13.9250293457031 3.89430866699219  14 4.45170576171875  L 14 14.79391875  C 13.9250293457031 15.3513408203125  14.3689783447266 15.8048083740234  14.9146833496094 15.8048083740234  L 20.9381494384766 15.8048083740234  C 21.4838794433594 15.8048083740234  21.9278034423828 15.3513408203125  22 14.79391875  L 22 4.45170573730469  Z M 21.1738146728516 12.9511681152344  L 21.1738146484375 14.7939437011719  C 21.1738146484375 14.9278279296875  21.0681363037109 15.0367790527344  20.9381244384766 15.0367790527344  L 14.9146833496094 15.0367790527344  C 14.784696484375 15.0367790527344  14.6789431884766 14.9278529052734  14.6789431884766 14.7939437011719  L 14.6789431884766 12.9511681152344  L 21.1738146728516 12.9511681152344  Z M 21.1738146484375 12.1294502441406  L 14.6789681640625 12.1294502441406  L 14.6789681640625 4.45170573730469  C 14.6789681640625 4.31779653320312  14.784696484375 4.20889536132812  14.9147083251953 4.20889536132812  L 20.9381744140625 4.20889536132812  C 21.0681612792969 4.20889536132812  21.1738646240234 4.31779653320312  21.1738646240234 4.45170573730469  L 21.1738646240234 12.1294502441406  Z M 1 12.5426950439453  L 1 1  L 18.8997814453125 1  L 18.8997814453125 3.12867775878906  L 19.8820155029297 3.12867775878906  L 19.8820155029297 0.195166674804688  L 0 0.195166674804688  L 0 13.4463573730469  L 7.23781325683594 13.4463573730469  L 7.23781325683594 14.8922770263672  L 4.56859799804687 14.8922770263672  L 4.56859799804687 15.7958893798828  L 13.5251004882813 15.7958893798828  L 13.5251004882813 14.8922770263672  L 12.7131509765625 14.8922770263672  L 12.7131509765625 13.4463573730469  L 13.5251004882813 13.4463573730469  L 13.5251004882813 12.5426950439453  L 1 12.5426950439453  Z " fill-rule="nonzero" fill="#999999" stroke="none" fill-opacity="0.996078431372549" transform="matrix(1 0 0 1 426 764 )" />
  </g>
</svg>