<?xml version="1.0" encoding="utf-8"?>
<svg version="1.1" xmlns:xlink="http://www.w3.org/1999/xlink" width="19px" height="22px" xmlns="http://www.w3.org/2000/svg">
  <g transform="matrix(1 0 0 1 -431 -598 )">
    <path d="M 14.1765792724609 19.5906505371094  C 14.1765792724609 20.0183855224609  13.8298393798828 20.3651254394531  13.4021043701172 20.3651254394531  L 5.55742307128906 20.3651254394531  C 5.1296880859375 20.3651254394531  4.78294816894531 20.0183855224609  4.78294816894531 19.5906505371094  C 4.78294816894531 19.1629155517578  5.1296880859375 18.8161756347656  5.55742307128906 18.8161756347656  L 13.4021043701172 18.8161756347656  C 13.8298393554687 18.8161756347656  14.1765792724609 19.1629155517578  14.1765792724609 19.5906505371094  Z M 18.8525839599609 2.03565283203125  C 18.8525839599609 0.918035571289063  17.9465732177734 0.0120248535156251  16.8289559570313 0  L 2.13891579589844 0  C 1.02129853515625 0.0120248535156251  0.115287817382813 0.918035571289063  0.115287817382813 2.03565283203125  L 0.115287817382813 19.8976673828125  C 0.115287817382813 21.0152846435547  1.02129853515625 21.9212953613281  2.13891579589844 22  L 16.8289559570313 22  C 17.9465732177734 21.9212953613281  18.8525839355469 21.0152846435547  18.8525839355469 19.8976673828125  L 18.8525839599609 2.03565283203125  Z M 15.7202826416016 3.18304990234375  L 15.7202826416016 15.6739061035156  L 3.23812055664063 15.6739061035156  L 3.23812055664063 3.18304990234375  L 15.7202826416016 3.18304990234375  Z " fill-rule="nonzero" fill="#999999" stroke="none" fill-opacity="0.996078431372549" transform="matrix(1 0 0 1 431 598 )" />
  </g>
</svg>