<?xml version="1.0" encoding="utf-8"?>
<svg version="1.1" xmlns:xlink="http://www.w3.org/1999/xlink" width="20px" height="20px" xmlns="http://www.w3.org/2000/svg">
  <g transform="matrix(1 0 0 1 -110 -200 )">
    <path d="M 3.83333333333314 0.887500000000045  L 9.99930555555568 7.05347222222218  L 16.1652777777776 0.887500000000045  C 16.9777777777778 0.0743055555555543  18.2986111111111 0.0743055555555543  19.1111111111109 0.887500000000045  C 19.9243055555555 1.70069444444442  19.9243055555555 3.02083333333331  19.1111111111109 3.83402777777769  L 12.9458333333332 10  L 19.1111111111109 16.1652777777778  C 19.9243055555555 16.9784722222222  19.9243055555555 18.2986111111111  19.1111111111109 19.1118055555555  C 18.2986111111111 19.925  16.9777777777778 19.925  16.1652777777776 19.1118055555555  L 9.99930555555568 12.9458333333333  L 3.83333333333314 19.1118055555555  C 3.02083333333337 19.925  1.69999999999993 19.925  0.887499999999932 19.1118055555555  C 0.0743055555554974 18.2986111111111  0.0743055555554974 16.9784722222222  0.887499999999932 16.1652777777778  L 7.05347222222224 10  L 0.887499999999932 3.83402777777769  C 0.0743055555554974 3.02083333333331  0.0743055555554974 1.70069444444442  0.887499999999932 0.887500000000045  C 1.69999999999993 0.0743055555555543  3.02083333333337 0.0743055555555543  3.83333333333314 0.887500000000045  Z " fill-rule="nonzero" fill="#999999" stroke="none" transform="matrix(1 0 0 1 110 200 )" />
  </g>
</svg>