<?xml version="1.0" encoding="utf-8"?>
<svg version="1.1" xmlns:xlink="http://www.w3.org/1999/xlink" width="32px" height="22px" xmlns="http://www.w3.org/2000/svg">
  <g transform="matrix(1 0 0 1 -421 -838 )">
    <path d="M 30 17  L 30 3.18714128288718  C 30.2466045272969 0.346101749391615  27.393266121362 0.346101749391615  27.393266121362 0.346101749391615  L 4.56655887388244 0.346101749391615  C 4.56655887388244 0.346101749391615  1.7132204679475 0.346101749391615  2 3.18714128288718  L 2 17  L 30 17  Z M 0.286551264980027 20.2333784838606  C 0.286551264980027 21.6538982506084  1.67185340181346 21.6538982506084  1.67185340181346 21.6538982506084  L 30.2423435419441 21.6538982506084  C 30.2423435419441 21.6538982506084  31.6732990932725 21.6538982506084  31.6732990932725 20.2333784838606  C 31.6732990932725 18.8128587171128  30.2423435419441 18.8128587171128  30.2423435419441 18.8128587171128  L 1.67187876482151 18.8128587171128  C 1.67187876482151 18.8128587171128  0.286576627988079 18.8128587171128  0.286576627988079 20.2333784838606  Z M 11.6999048887198 20.2333784838606  C 11.6999048887198 19.5231186004867  12.4132394902035 19.5231186004867  12.4132394902035 19.5231186004867  L 18.1199163020734 19.5231186004867  C 18.1199163020734 19.5231186004867  18.8332509035572 19.5231186004867  18.8332509035572 20.2333784838606  C 18.8332509035572 20.9436383672345  18.1199163020734 20.9436383672345  18.1199163020734 20.9436383672345  L 12.4132394902035 20.9436383672345  C 12.4132394902035 20.9436383672345  11.6999048887198 20.9436383672345  11.6999048887198 20.2333784838606  Z " fill-rule="nonzero" fill="#999999" stroke="none" fill-opacity="0.996078431372549" transform="matrix(1 0 0 1 421 838 )" />
  </g>
</svg>