<?xml version="1.0" encoding="utf-8"?>
<svg version="1.1" xmlns:xlink="http://www.w3.org/1999/xlink" width="22px" height="22px" xmlns="http://www.w3.org/2000/svg">
  <g transform="matrix(1 0 0 1 -1629 -515 )">
    <path d="M 21.8953059332127 3.45328239567454  C 21.8998127524771 3.91748779296875  21.5257443430831 4.2915562023628  21.0615389719893 4.2915562023628  L 13.5125679711319 4.2915562023628  C 13.0483626000381 4.2915562023628  12.6742941644436 3.91748779296875  12.6742941644436 3.45328239567454  C 12.6742941644436 2.98907702458079  13.0483625738377 2.61500858898628  13.5125679711319 2.61500858898628  L 21.0570321265244 2.61500858898628  C 21.5212374976181 2.61500858898628  21.8953059332127 2.98907699838034  21.8953059332127 3.45328239567454  Z M 21.8953059332127 7.64465137671494  C 21.8953059332127 8.10885677400914  21.5257443430831 8.4829251834032  21.0615389719893 8.4829251834032  L 13.5125679711319 8.4829251834032  C 13.0483626000381 8.4829251834032  12.6742941644436 8.10885677400914  12.6742941644436 7.64465137671494  C 12.6742941644436 7.18044597942073  13.0483625738377 6.80637757002668  13.5125679711319 6.80637757002668  L 21.0570321265244 6.80637757002668  C 21.5212374976181 6.80637757002668  21.8953059332127 7.18044597942073  21.8953059332127 7.64465137671494  Z M 21.8953059332127 14.3553485970846  C 21.8953059332127 14.8195539943788  21.5257443430831 15.1936224037729  21.0615389719893 15.1936224037729  L 13.5125679711319 15.1936224037729  C 13.0483626000381 15.1936224037729  12.6742941644436 14.8195539943788  12.6742941644436 14.3553485970846  C 12.6742941644436 13.8911431997904  13.0483625738377 13.5170747903963  13.5125679711319 13.5170747903963  L 21.0570321265244 13.5170747903963  C 21.5212374976181 13.5170747903963  21.8953059332127 13.8911431997904  21.8953059332127 14.3553485970846  Z M 21.8953059332127 18.546717578125  C 21.8953059332127 19.0109229754192  21.5257443430831 19.3849913848133  21.0615389719893 19.3849913848133  L 13.5125679711319 19.3849913848133  C 13.0483626000381 19.3849913848133  12.6742941644436 19.0109229754192  12.6742941644436 18.546717578125  C 12.6742941644436 18.0825121808308  13.0483625738377 17.7084437714367  13.5125679711319 17.7084437714367  L 21.0570321265244 17.7084437714367  C 21.5212374976181 17.7084437714367  21.8953059332127 18.0825121808308  21.8953059332127 18.546717578125  Z M 10.1594727967797 7.64465137671494  C 10.1594727705793 9.03276069693217  9.03276069693217 10.1594727705793  7.6446514029154 10.1594727705793  L 2.61500861518674 10.1594727705793  C 1.22689932116997 10.1594727705793  0.100187221322409 9.03276067073171  0.100187221322409 7.64465137671494  L 0.100187247522866 2.61500861518674  C 0.100187247522866 1.22689932116997  1.22689934737043 0.100187221322409  2.61500864138719 0.100187221322409  L 7.6446514029154 0.100187221322409  C 9.03276069693217 0.100187221322409  10.1594727967797 1.22689932116997  10.1594727967797 2.61500861518674  L 10.1594727967797 7.64465137671494  Z M 2.61500861518674 1.77673483469893  C 2.15531008955793 1.77673483469893  1.77673480849848 2.15531008955793  1.77673480849848 2.61500864138719  L 1.77673480849848 7.64465140291539  C 1.77673480849848 8.10434992854421  2.15531006335747 8.48292520960366  2.61500861518674 8.48292520960366  L 7.64465137671494 8.48292520960366  C 8.10434990234375 8.48292520960366  8.4829251834032 8.10434995474466  8.4829251834032 7.64465140291539  L 8.4829251834032 2.61500861518674  C 8.4829251834032 2.15531008955793  8.10434992854421 1.77673480849848  7.64465137671494 1.77673480849848  L 2.61500861518674 1.77673483469893  Z M 10.1594727967797 19.3804845131479  C 10.1594727705793 20.7685938333651  9.03276069693217 21.8998127524771  7.6446514029154 21.8998127524771  L 2.61500861518674 21.8998127524771  C 1.22689932116997 21.8998127524771  0.100187221322409 20.7731006526296  0.100187221322409 19.3849913586128  L 0.100187247522866 14.3508417516197  C 0.100187247522866 12.9627324576029  1.22689934737043 11.8360203577553  2.61500864138719 11.8360203577553  L 7.6446514029154 11.8360203577553  C 9.03276069693217 11.8360203577553  10.1594727967797 12.9627324576029  10.1594727967797 14.3508417516197  L 10.1594727967797 19.3804845131479  Z M 2.61500861518674 13.5125679711319  C 2.15531008955793 13.5125679711319  1.77673480849848 13.8866363805259  1.77673480849848 14.3508417778201  L 1.77673480849848 19.3804845393483  C 1.77673480849848 19.8446899104421  2.15531006335747 20.2187583460366  2.61500861518674 20.2187583460366  L 7.64465137671494 20.2187583460366  C 8.10434990234375 20.2187583460366  8.4829251834032 19.8446899366425  8.4829251834032 19.3804845393483  L 8.4829251834032 14.3508417516197  C 8.4829251834032 13.8866363805259  8.10434992854421 13.5125679449314  7.64465137671494 13.5125679449314  L 2.61500861518674 13.5125679711319  Z " fill-rule="nonzero" fill="#999999" stroke="none" fill-opacity="0.996078431372549" transform="matrix(1 0 0 1 1629 515 )" />
  </g>
</svg>