<?xml version="1.0" encoding="utf-8"?>
<svg version="1.1" xmlns:xlink="http://www.w3.org/1999/xlink" width="22px" height="22px" xmlns="http://www.w3.org/2000/svg">
  <g transform="matrix(1 0 0 1 -1629 -598 )">
    <path d="M 10.1594727967797 7.64465137671494  C 10.1594727705793 9.03276069693217  9.03276069693217 10.1594727705793  7.6446514029154 10.1594727705793  L 2.61500861518674 10.1594727705793  C 1.22689932116997 10.1594727705793  0.100187221322409 9.03276067073171  0.100187221322409 7.64465137671494  L 0.100187247522866 2.61500861518674  C 0.100187247522866 1.22689932116997  1.22689934737043 0.100187221322409  2.61500864138719 0.100187221322409  L 7.6446514029154 0.100187221322409  C 9.03276069693217 0.100187221322409  10.1594727967797 1.22689932116997  10.1594727967797 2.61500861518674  L 10.1594727967797 7.64465137671494  Z M 2.61500861518674 1.77673483469893  C 2.15531008955793 1.77673483469893  1.77673480849848 2.15531008955793  1.77673480849848 2.61500864138719  L 1.77673480849848 7.64465140291539  C 1.77673480849848 8.10434992854421  2.15531006335747 8.48292520960366  2.61500861518674 8.48292520960366  L 7.64465137671494 8.48292520960366  C 8.10434990234375 8.48292520960366  8.4829251834032 8.10434995474466  8.4829251834032 7.64465140291539  L 8.4829251834032 2.61500861518674  C 8.4829251834032 2.15531008955793  8.10434992854421 1.77673480849848  7.64465137671494 1.77673480849848  L 2.61500861518674 1.77673483469893  Z M 10.1594727967797 19.3804845131479  C 10.1594727705793 20.7685938333651  9.03276069693217 21.8998127524771  7.6446514029154 21.8998127524771  L 2.61500861518674 21.8998127524771  C 1.22689932116997 21.8998127524771  0.100187221322409 20.7731006526296  0.100187221322409 19.3849913586128  L 0.100187247522866 14.3508417516197  C 0.100187247522866 12.9627324576029  1.22689934737043 11.8360203577553  2.61500864138719 11.8360203577553  L 7.6446514029154 11.8360203577553  C 9.03276069693217 11.8360203577553  10.1594727967797 12.9627324576029  10.1594727967797 14.3508417516197  L 10.1594727967797 19.3804845131479  Z M 2.61500861518674 13.5125679711319  C 2.15531008955793 13.5125679711319  1.77673480849848 13.8866363805259  1.77673480849848 14.3508417778201  L 1.77673480849848 19.3804845393483  C 1.77673480849848 19.8446899104421  2.15531006335747 20.2187583460366  2.61500861518674 20.2187583460366  L 7.64465137671494 20.2187583460366  C 8.10434990234375 20.2187583460366  8.4829251834032 19.8446899366425  8.4829251834032 19.3804845393483  L 8.4829251834032 14.3508417516197  C 8.4829251834032 13.8866363805259  8.10434992854421 13.5125679449314  7.64465137671494 13.5125679449314  L 2.61500861518674 13.5125679711319  Z M 21.8953059070122 19.3849913586128  C 21.8998127524771 20.7685938333651  20.7685938333651 21.8998127524771  19.3849913848133 21.8998127524771  L 14.3508417516197 21.8998127524771  C 12.9627324576029 21.8998127524771  11.8360203577553 20.7731006526296  11.8360203577553 19.3849913586128  L 11.8360203577553 17.7084437714367  C 11.8360203577553 16.32033447742  12.9627324576029 15.1936223775724  14.3508417516197 15.1936223775724  L 19.3804845131479 15.1936223775724  C 20.7685938071646 15.1936223775724  21.8953059070122 16.32033447742  21.8953059070122 17.7084437714367  L 21.8953059070122 19.3849913586128  Z M 14.3508417516197 16.8701699909489  C 13.8866363805259 16.8701699909489  13.5125679449314 17.244238400343  13.5125679449314 17.7084437976372  L 13.5125679449314 19.3849913848133  C 13.5125679449314 19.849196755907  13.8866363543255 20.2232651915015  14.3508417516197 20.2232651915015  L 19.3804845131479 20.2232651915015  C 19.8446898842416 20.2232651915015  20.2187583198361 19.8491967821075  20.2187583198361 19.3849913848133  L 20.2187583198361 17.7084437976372  C 20.2187583198361 17.2442384265434  19.8446899104421 16.8701699909489  19.3804845131479 16.8701699909489  L 14.3508417516197 16.8701699909489  Z M 21.8953059070122 10.9977465772675  C 21.8998127524771 12.3858558712843  20.7685938333651 13.5125679711319  19.3849913848133 13.5125679711319  L 14.3508417516197 13.5125679711319  C 12.9627324576029 13.5125679711319  11.8360203577553 12.3858558712843  11.8360203577553 10.9977465772675  L 11.8360203577553 2.61500861518674  C 11.8360203577553 1.22689932116997  12.9627324576029 0.10018722132241  14.3508417516197 0.10018722132241  L 19.3804845131479 0.10018722132241  C 20.7685938071646 0.10018722132241  21.8953059070122 1.22689932116997  21.8953059070122 2.61500861518674  L 21.8953059070122 10.9977465772675  Z M 14.3508417516197 1.77673483469893  C 13.8866363805259 1.77673483469893  13.5125679449314 2.15531008955793  13.5125679449314 2.61500864138719  L 13.5125679449314 10.997746603468  C 13.5125679449314 11.4574451290968  13.8866363543255 11.8360204101562  14.3508417516197 11.8360204101562  L 19.3804845131479 11.8360204101562  C 19.8446898842416 11.8360204101562  20.2187583198361 11.4574451552973  20.2187583198361 10.997746603468  L 20.2187583198361 2.61500864138719  C 20.2187583198361 2.15531011575838  19.8446899104421 1.77673483469893  19.3804845131479 1.77673483469893  L 14.3508417516197 1.77673483469893  Z " fill-rule="nonzero" fill="#999999" stroke="none" fill-opacity="0.996078431372549" transform="matrix(1 0 0 1 1629 598 )" />
  </g>
</svg>