<?xml version="1.0" encoding="utf-8"?>
<svg version="1.1" xmlns:xlink="http://www.w3.org/1999/xlink" width="15px" height="22px" xmlns="http://www.w3.org/2000/svg">
  <g transform="matrix(1 0 0 1 -834 -918 )">
    <path d="M 3.53588023792614 12.3342233007813  L 2.91759556995739 19.0625835039063  L 1.17733374023438 20.5468292949219  L 0.653117276278409 20.0186927617188  C 0.388015957919034 19.7215124863281  0.225534534801136 19.4251599824219  0.198169211647727 19.1279797285156  C 0.189617542613636 19.0294715058594  0.210996693004261 18.8970234707031  0.20244502397017 18.7993430410156  L 0.810467706853693 12.3342233222656  L 2.26082843572443 11.0478217695312  L 3.53588023792614 12.3342233007813  Z M 4.36966663707386 3.10011182421875  L 3.77447141335227 9.6960239921875  L 2.26082845791903 11.0486495410156  L 1.04820374644886 9.6960239921875  L 1.55189624023438 3.957712859375  C 1.61859916548296 3.561196546875  1.63142662464489 3.33106808203125  1.65366093306108 3.198620046875  C 1.69470887340199 2.90226756445312  1.84436283735795 2.67048351367187  2.12998812588778 2.44035504882812  L 3.0467255637429 1.64897803125  L 4.36966663707386 3.10011182421875  Z M 3.38708147638494 19.3597638222656  L 10.0650689808239 19.3597637792969  L 11.5368088378906 20.9425177929688  L 10.7791321910511 21.6031023613281  C 10.4652864435369 21.8986270292969  10.099275612571 21.998790859375  9.45191530539772 21.998790859375  L 3.45549469549006 21.9987909023438  C 2.80813438831676 21.9987909023438  2.4215995871804 21.8663428671875  2.15906378728693 21.6031024042969  L 1.55360660067471 20.9425178359375  L 3.38708147638494 19.3597638222656  Z M 11.6539665083452 2.6390271015625  L 4.87421428888494 2.6390271015625  L 3.45121883877841 1.221005328125  L 4.10713079279119 0.560420759765625  C 4.51418958629261 0.164732240234375  4.9084208984375 0  5.41895470081676 0  L 11.6539664861506 0  C 12.1311488591974 0  12.594648548473 0.2309562578125  12.8973771528764 0.56042073828125  L 13.431000443892 1.18789330859375  L 11.6539665083452 2.6390271015625  Z M 10.6482918146307 19.029471484375  L 11.2357905495384 12.3342233007813  L 12.7511438432173 11.0155375429688  L 13.9612030362216 12.3342233007813  L 13.4549450683594 18.0402502285156  C 13.4258694291548 18.4690507460938  13.381400834517 18.7331190019531  13.3899524813565 18.8324550390625  C 13.3489045410156 19.1279797070312  13.1958299005682 19.32665178125  12.8794186567827 19.5898922441406  L 11.8917024813565 20.3481572421875  L 10.6482918146307 19.029471484375  Z M 11.5077331986861 9.69602401367188  L 12.1046387162642 3.10011184570312  L 13.8782520197088 1.61586603320312  L 14.2947176180753 2.0777785703125  C 14.5974462224787 2.40724307226563  14.7599276455966 2.70442334765625  14.7898584428267 3.033887828125  C 14.8018307439631 3.16633586328125  14.8138030894886 3.29795610546875  14.7915687810724 3.42957632617188  L 14.2340008655895 9.69602401367188  L 12.6835857821378 11.0163653789063  L 11.5077331986861 9.69602401367188  Z " fill-rule="nonzero" fill="#999999" stroke="none" fill-opacity="0.996078431372549" transform="matrix(1 0 0 1 834 918 )" />
  </g>
</svg>