<?xml version="1.0" encoding="utf-8"?>
<svg version="1.1" xmlns:xlink="http://www.w3.org/1999/xlink" width="15px" height="22px" xmlns="http://www.w3.org/2000/svg">
  <g transform="matrix(1 0 0 1 -196 -918 )">
    <path d="M 3.62588714044744 12.5989839848013  L 3.01526538085937 19.0305174051771  L 0.0758998579545453 21.571175907654  L 0.796844038529829 13.7215427968989  C 0.813948286576704 13.5236876729954  0.830197332208806 13.3250046916991  0.883220503373579 13.1602633908501  C 0.937098899147727 12.9955220900012  0.992687699751419 12.8638946336912  1.08590587269176 12.7637252856503  C 1.08590587269176 12.7637252856503  1.27576305042614 12.5989839848013  1.58877086292614 12.3017873702497  L 2.49957222123579 11.4449670429504  L 3.62588714044744 12.5989839848013  Z M 3.52155122514205 19.3608278427834  L 10.7104679066051 19.3608278427834  L 11.9548021573153 20.6804139213917  L 10.4727188165838 22  L 0.454759011008523 22  L 3.52155122514205 19.3608278427834  Z M 12.4747713955966 10.9846848638197  L 11.4647653808594 11.8737911567808  C 11.0884718572443 12.2363875815332  10.7908578879616 12.3357290721814  10.0074831986861 12.3357290721814  L 4.14756680575284 12.3357290721814  L 2.90665338689631 11.0492568166277  L 3.87646442205256 10.0930950201646  C 4.00132546164773 9.96146754237028  4.1621054243608 9.8621260732065  4.32630621892756 9.79589840561295  C 4.49050703568892 9.73049859541216  4.62392018821023 9.69738477235757  4.79410748845881 9.69738477235757  L 5.33973308771307 9.69738477235757  L 11.2347132013494 9.69738477235757  L 12.4747713955966 10.9846848638197  Z M 11.8906612437855 2.63917213573223  L 4.63418275035511 2.6391721572166  L 3.39326933149858 1.3518720657545  L 4.83772332208807 0  L 11.7888909357244 0  C 12.4696401145241 0  12.7920552645597 0.164741300848939  13.1709144176136 0.593565371710592  L 13.6275979225852 1.1217309332204  L 11.8906612437855 2.63917213573223  Z M 11.6469256258878 9.36707431326692  L 12.2370223055753 3.06716839216986  L 14.007312278054 1.54972718965803  L 14.6119475541548 2.20952022896218  C 14.6863510520241 2.27574789655574  14.7693066628196 2.4404891759203  14.8582487792969 2.6714581443628  C 14.9010094105114 2.77079963501095  14.9104167480469 2.8701411256591  14.918968860973 2.96865475891448  C 14.9309418279474 3.10028223670883  14.9181136585582 3.33125118366695  14.9104167258523 3.62844779821863  L 14.4314976917614 8.50942615005924  C 14.3827505770597 9.1038193791626  14.2681520996094 9.33478832612072  13.829428067294 9.76278456107398  L 12.884418190696 10.6204327242817  L 11.6469256258878 9.36707431326692  Z " fill-rule="nonzero" fill="#999999" stroke="none" fill-opacity="0.996078431372549" transform="matrix(1 0 0 1 196 918 )" />
  </g>
</svg>