<?xml version="1.0" encoding="utf-8"?>
<svg version="1.1" xmlns:xlink="http://www.w3.org/1999/xlink" width="13px" height="22px" xmlns="http://www.w3.org/2000/svg">
  <g transform="matrix(1 0 0 1 -273 -918 )">
    <path d="M 1.7385750374349 19.3608278505153  L 8.49498797688802 19.360827829031  L 9.82800778645833 20.8782690270972  L 9.13744645345052 21.5380620644683  C 8.77626739420573 21.8667168078106  8.36535485026042 21.9999999785156  7.61853764648438 21.9999999785156  L 1.28445147949219 22  L 0.101447353515625 20.7135277482152  L 1.7385750374349 19.3608278505153  Z M 9.3192589436849 9.69655690804129  L 10.5674872688802 10.983856995732  L 9.09178949707031 12.33490122162  L 2.36798867838542 12.33490122162  L 1.08144111816406 10.983029159826  L 2.5946428108724 9.69572907213532  L 9.3192589436849 9.69572907213532  Z M 9.94622666341146 2.63917214948465  L 3.18899843098958 2.63917214948465  L 1.9741974983724 1.35187206179394  L 3.41646787760417 0  L 9.8157782438151 0  C 10.1084718896484 0  10.3057751367188 0.0322859870516079  10.3709993359375 0.0322859870516079  C 10.6017299755859 0.0653998100091869  10.946602985026 0.296368777775017  11.2344048307292 0.627507050319556  L 11.6697764388021 1.15484477437603  L 9.94622666341146 2.63917214948465  Z M 8.92872893554688 19.0967450597919  L 9.48313475585937 12.7306114682677  L 10.9555713134766 11.3456255835162  L 11.5270984554036 11.9391909749722  C 11.85077359375 12.3017873986624  11.9706230777995 12.5658701893858  12.0024198844401 12.929294448982  C 12.0170953271484 13.0940357493482  12.030955476888 13.2579491923242  12.0122035058594 13.4235183500808  L 11.5466656982422 18.5694073357355  C 11.5001934488932 19.1629727271915  11.3607767008464 19.4270554964305  10.9099143359375 19.8558795875202  L 10.1549440966797 20.5156726248914  L 8.92872893554688 19.0967450597919  Z M 9.74484690917969 9.36624644991834  L 10.3343107080078 3.00094073726886  L 12.0276942838542 1.54972718511781  L 12.4573587776693 2.0116650991651  C 12.7109178955078 2.30886171284609  12.8658254003906 2.60605832652708  12.8943609928385 2.93554092725967  C 12.9057752213542 3.06716840466839  12.8935456998698 3.29813735094985  12.8617488932292 3.6938475975976  L 12.429638499349 8.47631232365607  C 12.3864274641927 9.10299153806966  12.2763616015625 9.33396048435111  11.9176284423828 9.69655690804129  L 10.9580172347005 10.6196048787455  L 9.74484690917969 9.36624644991834  Z " fill-rule="nonzero" fill="#999999" stroke="none" fill-opacity="0.996078431372549" transform="matrix(1 0 0 1 273 918 )" />
  </g>
</svg>