<?xml version="1.0" encoding="utf-8"?>
<svg version="1.1" xmlns:xlink="http://www.w3.org/1999/xlink" width="13px" height="22px" xmlns="http://www.w3.org/2000/svg">
  <g transform="matrix(1 0 0 1 -354 -918 )">
    <path d="M 3.22217830729167 1.35855603125  L 2.51440479654948 9.41407057421875  L 1.16043805989583 10.7084748203125  L 0.562229497070312 10.0612726972656  C 0.247930079752604 9.73807765820313  0.0575909733072914 9.3815886484375  0.0295999462890623 9.058393609375  C 0.0184035270182295 8.93009006054688  0.0303996875000004 8.70271666601563  0.0343984147135422 8.37870956054688  L 0.673393927408854 1.35855603125  L 2.08574196289063 0  L 3.22217830729167 1.35855603125  Z M 9.35781490397136 9.70478370898438  L 10.5238417789714 11.0316698808594  L 8.97553722981771 12.2935922226563  L 3.71881939778646 12.2935922011719  C 3.43171126627604 12.2935922011719  3.24057243977865 12.2935922011719  3.14220391113281 12.261110296875  C 2.85589552083333 12.261110296875  2.49121223795573 12.0995127773438  2.31766776041667 11.9379152578125  L 1.50992623860677 11.0649638300781  L 2.95426404947917 9.70559575390625  L 9.35781490397136 9.70559575390625  Z M 12.003368351237 12.6809390253906  L 11.2931955957031 20.7055957539062  L 9.90723910481771 22  L 8.74441121582031 20.7055957539062  L 9.45458395019531 12.6809390253906  L 10.8141488964844 11.451498609375  L 12.003368351237 12.6809390253906  Z M 12.9750573925781 1.39103793554687  L 12.2640848958333 9.41407057421875  L 10.8781284049479 10.7084748203125  L 9.74409130533854 9.3815886484375  L 10.4254732714844 1.39103793554687  L 11.8354220833333 0  L 12.9750573925781 1.39103793554687  Z " fill-rule="nonzero" fill="#999999" stroke="none" fill-opacity="0.996078431372549" transform="matrix(1 0 0 1 354 918 )" />
  </g>
</svg>