<?xml version="1.0" encoding="utf-8"?>
<svg version="1.1" xmlns:xlink="http://www.w3.org/1999/xlink" width="13px" height="22px" xmlns="http://www.w3.org/2000/svg">
  <g transform="matrix(1 0 0 1 -434 -918 )">
    <path d="M 3.40803505859375 2.96782689282691  L 2.83619865301724 9.36624647140272  L 1.40154715618265 10.6196049002299  L 0.768984758890085 9.92752587580712  C 0.436678650323275 9.59804327507452  0.27305583748653 9.26773283843596  0.241006017645473 8.90596425065175  C 0.229198195043103 8.77350893733706  0.214860109105603 8.60876763697076  0.230885029970366 8.41008465625654  L 0.961283743601831 0.395710246647755  L 3.40803505859375 2.96782689282691  Z M 1.94555079640355 19.3608278505153  L 9.03531005017511 19.360827829031  L 10.4480327148438 20.8782690270972  L 9.76402192887931 21.5049482415108  C 9.3625556758486 21.9006584881585  9.00157339540679 21.9999999785156  8.22900387425916 21.9999999785156  L 1.71023759765625 22  L 0.453546977707435 20.7135277482153  L 1.94555079640355 19.3608278505153  Z M 11.0730043440194 2.63917217096903  L 3.949508457368 2.63917214948465  L 1.4631165544181 0  L 11.3083175646552 0  L 12.5734423373518 1.38581374214186  L 11.0730043440194 2.63917217096903  Z M 9.18290794214709 9.69655690804129  C 9.98921413995151 9.69655690804129  10.0963280374461 9.76195671805048  10.6892498467807 10.3902916257604  L 11.2830150845232 11.016970840174  L 9.68642760977909 12.33490122162  L 4.2430174063847 12.33490122162  C 3.20139800983297 12.33490122162  2.95680720804149 12.2363875886532  2.402682558257 11.6751081842488  L 1.80891732051455 11.0484289698352  L 3.36839447063577 9.69572907213532  L 9.18290794214709 9.69572907213532  Z M 9.58606100821659 19.1290310253592  L 10.1528369308998 12.6652116582585  L 11.6507446608971 11.3787394064738  L 12.3145134496228 12.038532443845  C 12.5734423154634 12.301787377178  12.7421256330819 12.6983254812161  12.7691149481412 12.9946942589911  C 12.7834530340787 13.1594355593574  12.7733320245151 13.4235183500808  12.7665847066945 13.7207149637618  L 12.3566842790275 18.1728692316974  C 12.2925846174569 18.9642897464772  12.0985988197064 19.4270554964305  11.7865347083782 19.6903104297636  L 10.8520292093211 20.514844767501  L 9.58606100821659 19.1290310253592  Z " fill-rule="nonzero" fill="#999999" stroke="none" fill-opacity="0.996078431372549" transform="matrix(1 0 0 1 434 918 )" />
  </g>
</svg>