<?xml version="1.0" encoding="utf-8"?>
<svg version="1.1" xmlns:xlink="http://www.w3.org/1999/xlink" width="14px" height="22px" xmlns="http://www.w3.org/2000/svg">
  <g transform="matrix(1 0 0 1 -512 -918 )">
    <path d="M 3.47652292086694 12.5981561334687  L 2.90297876764113 19.0305173923924  L 1.2367267641129 20.4486171001015  L 0.635142675781251 19.7888240627303  C 0.371737200730847 19.4932831423457  0.249381130292339 19.2614863386739  0.225589664188509 18.9974035479505  C 0.213693942162299 18.8649482346358  0.226439349168348 18.6348071242603  0.242583562247984 18.4361241435461  L 0.752400592237903 12.7960112567925  L 2.3175388703377 11.3779115490834  L 3.47652292086694 12.5981561334687  Z M 4.37125178931452 2.96782691431128  L 3.79600826612903 9.36624647140272  L 2.35152666645665 10.6196049002299  L 1.08718042149698 9.36624647140272  L 1.58425202242944 3.59450610724049  C 1.66072457472278 2.93471306986933  1.77203463016633 2.67063027914592  2.24446508001512 2.27492003249816  L 3.06187171118952 1.58201317216942  L 4.37125178931452 2.96782691431128  Z M 3.40684795866936 19.360827829031  L 10.0421166015625 19.360827829031  L 11.433917092994 20.9113828715391  L 10.8688698777722 21.405606772638  C 10.3038226625504 21.9006585096429  10.0081287833921 22  9.05986912172379 22  L 3.91411588961694 22  C 2.79676688823085 22  2.62172970955141 21.9337723326005  2.13485446068548 21.405606772638  L 1.65052828881048 20.9113828715391  L 3.40684795866936 19.360827829031  Z M 10.2579391444052 9.69655690804129  C 10.9351461000504 9.69655690804129  11.143321389869 9.76195671805048  11.5945094506048 10.2578363124457  L 12.237728610131 11.016970840174  L 10.6972314831149 12.33490122162  L 4.02797502205141 12.33490122162  L 2.75853062310988 11.0161429827836  L 4.26503995400706 9.69572905065094  L 10.2579391444052 9.69572907213532  Z M 12.0609920394405 2.63917214948466  L 4.85047982925907 2.63917214948465  L 3.47312415889617 1.25335842882717  L 4.25399391696068 0.528165581446819  C 4.69328625567036 0.131627477408719  5.0195691469254 0  5.83187762411794 0  L 12.2980569713962 0  L 13.6320782006048 1.28647225178475  L 12.0609920394405 2.63917214948466  Z M 10.5587311995968 19.0959172453703  L 11.1671128559728 12.6652116582585  L 12.6149932176159 11.4449670738733  L 13.3967126606603 12.2363875886532  C 13.6575690366683 12.4996425219863  13.7399894720262 12.6652116797429  13.766330015121 12.9615804360336  C 13.7841736202117 13.1594355593574  13.7858730122228 13.5559736633955  13.7501858020413 13.9177422511797  L 13.3627248645413 18.2713828861485  C 13.2641602381552 19.0636312368344  13.1248102476058 19.393113837567  12.6549288967994 19.8219379286567  L 11.8740591387349 20.5479586334274  L 10.5587311995968 19.0959172453703  Z " fill-rule="nonzero" fill="#999999" stroke="none" fill-opacity="0.996078431372549" transform="matrix(1 0 0 1 512 918 )" />
  </g>
</svg>