<?xml version="1.0" encoding="utf-8"?>
<svg version="1.1" xmlns:xlink="http://www.w3.org/1999/xlink" width="15px" height="22px" xmlns="http://www.w3.org/2000/svg">
  <g transform="matrix(1 0 0 1 -673 -918 )">
    <path d="M 3.48275759055398 12.5658701893858  L 2.88239837091619 19.1290310253592  L 1.20190569513494 20.514844767501  L 0.554509787819602 19.7557102397728  C 0.366363037109375 19.5578551164489  0.239791570490057 19.2937723257255  0.213279984907671 18.9974035694348  C 0.201307017933239 18.8649482561201  0.220976895419034 18.7010347916598  0.239791570490057 18.5354656553875  L 0.675949973366477 13.5551458060052  C 0.736670055042614 13.0932078919579  0.873504083806818 12.7297836323618  1.15657943448153 12.4673565349347  L 2.32223415305398 11.4118532509157  L 3.48275759055398 12.5658701893858  Z M 4.36106085759943 3.06716838318402  L 3.7752402565696 9.3993602943603  L 2.35216657049006 10.6196048787455  L 1.67654865056818 9.92752585432275  C 1.37636905184659 9.63115707654773  1.17111803089489 9.234618993994  1.14375122070312 8.93825021621899  C 1.12921260209517 8.77350891585269  1.14546164772727 8.57565379252881  1.15828983931108 8.34385698885701  L 1.57050228604403 3.85858887647953  C 1.61582854669744 3.23190966206594  1.76206989080256 2.96865472873288  2.23158158735796 2.50671681468559  L 3.07482117808949 1.64906867547492  L 4.36106085759943 3.06716838318402  Z M 3.38184248490767 19.3608278505153  L 10.1953208895597 19.360827829031  L 11.5628057528409 20.9113828715391  L 10.8666627308239 21.5049482629951  C 10.3945854048295 21.9337723540848  10.1953208673651 22  9.31017589222301 22  L 3.61959157492898 22  C 2.76779987127131 22  2.41801793323864 21.9006585096429  2.07593292791193 21.5049482629951  L 1.54826677911932 20.9436688585907  L 3.38184248490767 19.3608278505153  Z M 11.0932940784801 9.69655690804129  L 12.3401939808239 11.0492568057412  L 10.8213364923651 12.33490122162  L 4.04035615678267 12.33490122162  L 2.76523424183239 11.0484289698352  L 4.27896044921875 9.69572907213532  L 11.0932940784801 9.69572907213532  Z M 11.7167440518466 2.63917212800028  L 4.86820190429687 2.63917214948465  L 3.51611086203835 1.25335842882717  L 4.20284654651989 0.560451568498427  C 4.60736208274148 0.131627477408719  4.90241040039063 0  5.48138931551847 0  L 11.6483270374645 0  C 12.1939526367188 0  12.5120917080966 0.131627477408719  12.8575975896662 0.560451547014052  L 13.4972965864702 1.22107242029119  L 11.7167440518466 2.63917212800028  Z M 10.616085493608 19.1290310038748  L 11.200195645419 12.7637252912253  L 12.7164875044389 11.444967052389  L 13.4665089222301 12.2032737227269  C 13.6914298206676 12.4342426690083  13.8205669167259 12.7306114467834  13.8504993563565 13.0609218834219  C 13.8684588290128 13.2579491708398  13.8522097833807 13.4566321300697  13.8385263893821 13.6876010978355  L 13.3938158513849 18.5685794568607  C 13.3835533114347 18.8326622475842  13.3330957697088 19.030517370908  13.3074393865412 19.1290310038748  C 13.2569818448153 19.3268861271987  13.1363968838778 19.4924552849553  12.7883253728693 19.788824041246  L 11.9365336692116 20.5479585689742  L 10.616085493608 19.1290310038748  Z M 11.5097826038707 9.3993602943603  L 12.093037553267 3.03405456022644  L 13.8393815917969 1.61595485251734  L 14.4063874955611 2.24263404544655  C 14.6347292480469 2.50671683616996  14.7604454900568 2.770799605409  14.7843914462003 3.03405456022644  C 14.7989300648082 3.19879586059274  14.7801153897372 3.36353716095903  14.7638663441051 3.56222012018888  L 14.3473778409091 8.37697083329896  C 14.2515940385298 9.20150517103643  14.0796963112571 9.56492943063257  13.6050533558239 9.9606396987647  L 12.784904518821 10.6858325461451  L 11.5097826038707 9.3993602943603  Z " fill-rule="nonzero" fill="#999999" stroke="none" fill-opacity="0.996078431372549" transform="matrix(1 0 0 1 673 918 )" />
  </g>
</svg>