<?xml version="1.0" encoding="utf-8"?>
<svg version="1.1" xmlns:xlink="http://www.w3.org/1999/xlink" width="14px" height="22px" xmlns="http://www.w3.org/2000/svg">
  <g transform="matrix(1 0 0 1 -752 -918 )">
    <path d="M 3.4389794890373 2.90242708281772  L 2.83314690965222 9.33396048435112  L 1.41925434412802 10.5542050687363  L 0.606096181955645 9.79507054100806  C 0.345239805947581 9.53264344358096  0.259420608618951 9.33396048435112  0.235629142515121 9.06987769362771  C 0.215236460433467 8.83973658325222  0.213537068422379 8.44319847921412  0.24837457157258 8.08060205552395  L 0.63583550907258 3.72696142055518  C 0.734400135458669 2.9355409057753  0.873750126008064 2.60605832652708  1.34363147681452 2.17640637804702  L 2.12450123487903 1.45121353066667  L 3.4389794890373 2.90242708281772  Z M 1.93926772618448 19.3608278505153  L 9.14977993636593 19.360827829031  L 10.4956969096522 20.7789275367401  L 9.74541618573589 21.4718343970688  C 9.30952263104839 21.9006584881585  8.97984093371976 21.9999999570312  8.16753247857863 21.9999999570312  L 1.70220279422883 22  L 0.36818156502016 20.7135277482153  L 1.93926772618448 19.3608278505153  Z M 9.73776891066028 12.33490122162  L 3.74571940524194 12.33490122162  C 3.06851244959677 12.33490122162  2.85608869077621 12.2363875886532  2.40575031502016 11.741335830164  L 1.76253115549395 10.983029159826  L 3.30557735950101 9.69572907213532  L 9.97483382056452 9.69572907213532  L 11.2417291425151 10.983029159826  L 9.73776891066028 12.33490122162  Z M 10.5925620999244 2.63917214948465  L 3.9581431640625 2.63917214948465  L 2.56889174962198 1.1209030940281  L 3.13138986580141 0.59273753406566  C 3.69558739604335 0.0985136329667659  3.9581431640625 0  4.93954093686996 0  L 10.0852941689768 0  C 11.2017934633317 0  11.3776803490423 0.0653998100091869  11.8645555979083 0.593565391456006  L 12.3522805538054 1.12173095141845  L 10.5925620999244 2.63917214948465  Z M 9.62815824722782 19.0313452712671  L 10.2068005764869 12.6652116582585  L 11.7124602003528 11.3456255835162  L 12.9147786920363 12.6652116582585  L 12.4143083070817 18.4046660353692  C 12.3412345388105 19.0967450597919  12.2265256993448 19.3277140060734  11.7549449565272 19.7234242742055  L 10.9400874023437 20.4494449789762  L 9.62815824722782 19.0313452712671  Z M 10.5220374306956 9.39936027287593  L 11.0964312909526 2.96865475021725  L 12.7626832944808 1.54972718511781  L 13.3668164818548 2.24263404544656  C 13.6276728578629 2.50671683616996  13.7525780273437 2.770799605409  13.7729707094254 3.00094071578449  C 13.7882652154738 3.16650985205675  13.7695719254032 3.33125115242305  13.7559768113659 3.56222012018888  L 13.2410616053427 9.13527750363689  L 11.684420265247 10.6527187017031  L 10.5220374306956 9.39936027287593  Z " fill-rule="nonzero" fill="#999999" stroke="none" fill-opacity="0.996078431372549" transform="matrix(1 0 0 1 752 918 )" />
  </g>
</svg>