<?xml version="1.0" encoding="utf-8"?>
<svg version="1.1" xmlns:xlink="http://www.w3.org/1999/xlink" width="20px" height="20px" xmlns="http://www.w3.org/2000/svg">
  <g transform="matrix(1 0 0 1 -191 -840 )">
    <path d="M 19.8157051282051 0.935496794871795  C 19.8157051282051 0.522335737179487  19.4776642628205 0.184294871794872  19.0645032051282 0.184294871794872  L 12.7544070512821 0.184294871794872  C 12.6717748397436 0.184294871794872  12.6041666666667 0.251903044871795  12.6041666666667 0.334535256410256  L 12.6041666666667 1.73677884615385  C 12.6041666666667 1.81941105769231  12.6717748397436 1.88701923076923  12.7544070512821 1.88701923076923  L 16.7708333333333 1.88701923076923  L 11.7803485576923 6.87750400641026  C 10.5283453525641 5.91346153846154  9.00090144230769 5.3926282051282  7.39583333333333 5.3926282051282  C 5.47025240384615 5.3926282051282  3.65735176282051 6.14383012820513  2.29767628205128 7.50600961538462  C 0.938000801282052 8.8681891025641  0.184294871794872 10.6785857371795  0.184294871794872 12.6041666666667  C 0.184294871794872 14.5297475961538  0.935496794871795 16.3426482371795  2.29767628205128 17.7023237179487  C 3.65735176282051 19.0645032051282  5.47025240384615 19.8157051282051  7.39583333333333 19.8157051282051  C 9.32141426282051 19.8157051282051  11.1343149038462 19.0645032051282  12.4939903846154 17.7023237179487  C 13.8561698717949 16.3426482371795  14.6073717948718 14.5297475961538  14.6073717948718 12.6041666666667  C 14.6073717948718 10.9990985576923  14.0865384615385 9.47666266025641  13.125 8.2246594551282  L 18.1129807692308 3.23667868589744  L 18.1129807692308 7.24559294871795  C 18.1129807692308 7.32822516025641  18.1805889423077 7.39583333333333  18.2632211538462 7.39583333333333  L 19.6654647435897 7.39583333333333  C 19.7480969551282 7.39583333333333  19.8157051282051 7.32822516025641  19.8157051282051 7.24559294871795  L 19.8157051282051 0.935496794871795  Z M 12.7043269230769 12.6041666666667  C 12.7043269230769 15.5313501602564  10.3230168269231 17.9126602564103  7.39583333333333 17.9126602564103  C 4.46864983974359 17.9126602564103  2.08733974358974 15.5313501602564  2.08733974358974 12.6041666666667  C 2.08733974358974 9.67698317307692  4.46864983974359 7.29567307692308  7.39583333333333 7.29567307692308  C 10.3230168269231 7.29567307692308  12.7043269230769 9.67698317307692  12.7043269230769 12.6041666666667  Z " fill-rule="nonzero" fill="#999999" stroke="none" fill-opacity="0.996078431372549" transform="matrix(1 0 0 1 191 840 )" />
  </g>
</svg>