<?xml version="1.0" encoding="utf-8"?>
<svg version="1.1" xmlns:xlink="http://www.w3.org/1999/xlink" width="14px" height="22px" xmlns="http://www.w3.org/2000/svg">
  <g transform="matrix(1 0 0 1 -113 -838 )">
    <path d="M 7.927734375 13.86865234375  C 9.42919921875 13.66845703125  10.8134765625 12.9873046875  11.90234375 11.8984375  C 13.2109375 10.58984375  13.93359375 8.8466796875  13.93359375 6.99609375  C 13.93359375 5.14306640625  13.21337890625 3.40234375  11.90234375 2.09375  C 10.59375 0.78515625  8.8505859375 0.0625  7 0.0625  C 5.1494140625 0.0625  3.40625 0.78271484375  2.09765625 2.09375  C 0.789062500000001 3.40478515625  0.06640625 5.14306640625  0.06640625 6.99609375  C 0.06640625 8.5537109375  0.57666015625 10.033203125  1.5166015625 11.24169921875  C 1.69482421875 11.47119140625  1.8876953125 11.6884765625  2.09521484375 11.8984375  C 2.302734375 12.10595703125  2.5224609375 12.298828125  2.74951171875 12.47705078125  C 3.71630859375 13.22900390625  4.8564453125 13.70751953125  6.072265625 13.86865234375  L 6.072265625 16.46875  L 3.2890625 16.46875  C 3.181640625 16.46875  3.09375 16.556640625  3.09375 16.6640625  L 3.09375 18.12890625  C 3.09375 18.236328125  3.181640625 18.32421875  3.2890625 18.32421875  L 6.072265625 18.32421875  L 6.072265625 21.7421875  C 6.072265625 21.849609375  6.16015625 21.9375  6.267578125 21.9375  L 7.732421875 21.9375  C 7.83984375 21.9375  7.927734375 21.849609375  7.927734375 21.7421875  L 7.927734375 18.32421875  L 10.7109375 18.32421875  C 10.818359375 18.32421875  10.90625 18.236328125  10.90625 18.12890625  L 10.90625 16.6640625  C 10.90625 16.556640625  10.818359375 16.46875  10.7109375 16.46875  L 7.927734375 16.46875  L 7.927734375 13.86865234375  Z M 10.59130859375 10.58740234375  C 9.62939453125 11.546875  8.357421875 12.07421875  7 12.07421875  C 5.642578125 12.07421875  4.37060546875 11.546875  3.40869140625 10.58740234375  C 2.44921875 9.6279296875  1.921875 8.353515625  1.921875 6.99609375  C 1.921875 5.638671875  2.44921875 4.36669921875  3.40869140625 3.40478515625  C 4.3681640625 2.44287109375  5.642578125 1.91796875  7 1.91796875  C 8.357421875 1.91796875  9.62939453125 2.4453125  10.59130859375 3.40478515625  C 11.55078125 4.3642578125  12.078125 5.638671875  12.078125 6.99609375  C 12.078125 8.353515625  11.55078125 9.62548828125  10.59130859375 10.58740234375  Z " fill-rule="nonzero" fill="#999999" stroke="none" fill-opacity="0.996078431372549" transform="matrix(1 0 0 1 113 838 )" />
  </g>
</svg>