<?xml version="1.0" encoding="utf-8"?>
<svg version="1.1" xmlns:xlink="http://www.w3.org/1999/xlink" width="19px" height="18px" xmlns="http://www.w3.org/2000/svg">
  <g transform="matrix(1 0 0 1 -1631 -762 )">
    <path d="M 18.875 16.2321428571429  C 18.875 16.1216517857143  18.787109375 16.03125  18.6796875 16  L 2 16  L 2 0.361607142857143  C 1.8828125 0.251116071428571  1.794921875 0.160714285714286  1.6875 0.160714285714286  L 0.3203125 0.160714285714286  C 0.212890625 0.160714285714286  0.125 0.251116071428571  0.125 0.361607142857143  L 0.125 17.6383928571429  C 0.125 17.7488839285714  0.212890625 17.8392857142857  0.3203125 17.8392857142857  L 18.6796875 17.8392857142857  C 18.787109375 17.8392857142857  18.875 17.7488839285714  18.875 17.6383928571429  L 18.875 16.2321428571429  Z M 3.4453125 14.2232142857143  C 3.4453125 14.3337053571429  3.533203125 14.4241071428571  3.640625 14.4241071428571  L 16.7265625 14.4241071428571  C 16.833984375 14.4241071428571  16.921875 14.3337053571429  17 14.2232142857143  L 17 3.27455357142857  C 16.921875 3.09375  16.70947265625 3.005859375  16.58740234375 3.13141741071429  L 11.453125 8.41238839285714  L 8.3916015625 5.29854910714286  C 8.31591796875 5.220703125  8.19140625 5.220703125  8.11572265625 5.29854910714286  L 3.50146484375 10.0597098214286  C 3.46484375 10.0973772321429  3.4453125 10.1476004464286  3.4453125 10.2003348214286  L 3.4453125 14.2232142857143  Z " fill-rule="nonzero" fill="#999999" stroke="none" fill-opacity="0.996078431372549" transform="matrix(1 0 0 1 1631 762 )" />
  </g>
</svg>