<?xml version="1.0" encoding="utf-8"?>
<svg version="1.1" xmlns:xlink="http://www.w3.org/1999/xlink" width="19px" height="18px" xmlns="http://www.w3.org/2000/svg">
  <g transform="matrix(1 0 0 1 -1551 -762 )">
    <path d="M 18.875 16.2321428571429  C 18.875 16.1216517857143  18.787109375 16.03125  18.6796875 16  L 2 16  L 2 0.361607142857143  C 1.8828125 0.251116071428571  1.794921875 0.160714285714286  1.6875 0.160714285714286  L 0.3203125 0.160714285714286  C 0.212890625 0.160714285714286  0.125 0.251116071428571  0.125 0.361607142857143  L 0.125 17.6383928571429  C 0.125 17.7488839285714  0.212890625 17.8392857142857  0.3203125 17.8392857142857  L 18.6796875 17.8392857142857  C 18.787109375 17.8392857142857  18.875 17.7488839285714  18.875 17.6383928571429  L 18.875 16.2321428571429  Z M 3.50146484375 11.1595982142857  L 4.4658203125 12.1565290178571  C 4.54150390625 12.234375  4.66357421875 12.234375  4.74169921875 12.1565290178571  L 8.1181640625 8.701171875  L 11.2333984375 11.9255022321429  C 11.30908203125 12.0033482142857  11.43359375 12.0033482142857  11.50927734375 11.9255022321429  L 18.23291015625 5.01227678571429  C 18.30859375 4.93443080357143  18.30859375 4.80636160714286  18.23291015625 4.728515625  L 17.26611328125 3.73409598214286  C 17.1904296875 3.65625  17.06591796875 3.65625  16.990234375 3.73409598214286  L 11.375 9.50725446428571  L 8.2646484375 6.28794642857143  C 8.18896484375 6.21010044642857  8.064453125 6.21010044642857  7.98876953125 6.28794642857143  L 3.50146484375 10.8758370535714  C 3.42578125 10.9536830357143  3.42578125 11.0817522321429  3.50146484375 11.1595982142857  Z " fill-rule="nonzero" fill="#999999" stroke="none" fill-opacity="0.996078431372549" transform="matrix(1 0 0 1 1551 762 )" />
  </g>
</svg>