<?xml version="1.0" encoding="utf-8"?>
<svg version="1.1" xmlns:xlink="http://www.w3.org/1999/xlink" width="19px" height="18px" xmlns="http://www.w3.org/2000/svg">
  <g transform="matrix(1 0 0 1 -1471 -762 )">
    <path d="M 18.875 16.2321428571429  C 18.875 16.1216517857143  18.787109375 16.03125  18.6796875 16  L 2 16  L 2 0.361607142857143  C 1.8828125 0.251116071428571  1.794921875 0.160714285714286  1.6875 0.160714285714286  L 0.3203125 0.160714285714286  C 0.212890625 0.160714285714286  0.125 0.251116071428571  0.125 0.361607142857143  L 0.125 17.6383928571429  C 0.125 17.7488839285714  0.212890625 17.8392857142857  0.3203125 17.8392857142857  L 18.6796875 17.8392857142857  C 18.787109375 17.8392857142857  18.875 17.7488839285714  18.875 17.6383928571429  L 18.875 16.2321428571429  Z M 3.8359375 13.8214285714286  C 3.8359375 13.9319196428571  3.923828125 14.0223214285714  4.03125 14.0223214285714  L 5.3984375 14.0223214285714  C 5.505859375 14.0223214285714  5.59375 13.9319196428571  5.59375 13.8214285714286  L 5.59375 10.2053571428571  C 5.59375 10.0948660714286  5.505859375 10.0044642857143  5.3984375 10.0044642857143  L 4.03125 10.0044642857143  C 3.923828125 10.0044642857143  3.8359375 10.0948660714286  3.8359375 10.2053571428571  L 3.8359375 13.8214285714286  Z M 7.546875 13.8214285714286  C 7.546875 13.9319196428571  7.634765625 14.0223214285714  7.7421875 14.0223214285714  L 9.109375 14.0223214285714  C 9.216796875 14.0223214285714  9.3046875 13.9319196428571  9.3046875 13.8214285714286  L 9.3046875 5.78571428571429  C 9.3046875 5.67522321428571  9.216796875 5.58482142857143  9.109375 5.58482142857143  L 7.7421875 5.58482142857143  C 7.634765625 5.58482142857143  7.546875 5.67522321428571  7.546875 5.78571428571429  L 7.546875 13.8214285714286  Z M 11.2578125 13.8214285714286  C 11.2578125 13.9319196428571  11.345703125 14.0223214285714  11.453125 14.0223214285714  L 12.8203125 14.0223214285714  C 12.927734375 14.0223214285714  13.015625 13.9319196428571  13.015625 13.8214285714286  L 13.015625 7.74441964285714  C 13.015625 7.63392857142857  12.927734375 7.54352678571429  12.8203125 7.54352678571429  L 11.453125 7.54352678571429  C 11.345703125 7.54352678571429  11.2578125 7.63392857142857  11.2578125 7.74441964285714  L 11.2578125 13.8214285714286  Z M 15 13.8214285714286  C 14.96875 13.9319196428571  15.056640625 14.0223214285714  15.1640625 14.0223214285714  L 16.53125 14.0223214285714  C 16.638671875 14.0223214285714  16.7265625 13.9319196428571  16.7265625 13.8214285714286  L 16.7265625 3.77678571428571  C 16.7265625 3.66629464285714  16.638671875 3.57589285714286  16.53125 3.57589285714286  L 15.1640625 3.57589285714286  C 15.056640625 3.57589285714286  14.96875 3.66629464285714  15 3.77678571428571  L 15 13.8214285714286  Z " fill-rule="nonzero" fill="#999999" stroke="none" fill-opacity="0.996078431372549" transform="matrix(1 0 0 1 1471 762 )" />
  </g>
</svg>