<?xml version="1.0" encoding="utf-8"?>
<svg version="1.1" xmlns:xlink="http://www.w3.org/1999/xlink" width="22px" height="22px" xmlns="http://www.w3.org/2000/svg">
  <g transform="matrix(1 0 0 1 -1391 -758 )">
    <path d="M 19.9934593023256 11.3497456395349  C 19.9934593023256 11.2398255813953  19.9035247093023 11.1498909883721  19.7936046511628 11.1498909883721  L 10.8501090116279 11.1498909883721  L 10.8501090116279 2.20639534883721  C 10.8501090116279 2.09647529069767  10.7601744186047 2.00654069767442  10.6502543604651 2.00654069767442  L 10.000726744186 2.00654069767442  C 8.65170784883721 2.00654069767442  7.34265988372093 2.27134811046512  6.11105559593023 2.79097020348837  C 4.92192042151163 3.29310501453488  3.8526980377907 4.01507994186047  2.9358648255814 4.93191315406977  C 2.01903161337209 5.84874636627907  1.29705668604651 6.91796875  0.794921875 8.10710392441861  C 0.272801598837209 9.34120639534884  0.00799418604651163 10.6502543604651  0.00799418604651163 11.999273255814  C 0.00799418604651163 13.3482921511628  0.272801598837209 14.6573401162791  0.792423691860465 15.8889444040698  C 1.29455850290698 17.0780795784884  2.01653343023256 18.1473019622093  2.93336664244186 19.0641351744186  C 3.85019985465116 19.9809683866279  4.91942223837209 20.7029433139535  6.1085574127907 21.205078125  C 7.34265988372093 21.7271984011628  8.65170784883721 21.9920058139535  10.000726744186 21.9920058139535  C 11.3497456395349 21.9920058139535  12.6587936046512 21.7271984011628  13.8903978924419 21.2075763081395  C 15.0795330668605 20.705441497093  16.1487554505814 19.9834665697674  17.0655886627907 19.0666333575581  C 17.982421875 18.1498001453488  18.7043968023256 17.0805777616279  19.2065316133721 15.8914425872093  C 19.7286518895349 14.6573401162791  19.9934593023256 13.3482921511628  19.9934593023256 11.999273255814  L 19.9934593023256 11.3497456395349  Z M 18.2522256540698 12.8486555232558  C 18.0598655523256 14.7547692587209  17.2204760174419 16.5209847383721  15.8389807412791 17.8899890988372  C 14.2751180959302 19.4413608284884  12.1641533430233 20.3032340116279  9.96075581395349 20.2932412790698  C 7.75985646802326 20.2832485465116  5.69136082848837 19.4213753633721  4.13499273255814 17.8650072674419  C 2.56863190406977 16.2986464389535  1.70675872093023 14.2151617005814  1.70675872093023 11.999273255814  C 1.70675872093023 9.78338481104651  2.56863190406977 7.69990007267442  4.13499273255814 6.13353924418605  C 5.49900072674419 4.76953125  7.25522347383721 3.93763626453488  9.15134447674419 3.74777434593023  L 9.15134447674419 12.8486555232558  L 18.2522256540698 12.8486555232558  Z M 21.7921511627907 9.9757449127907  C 21.9095657703488 9.9757449127907  22.0019985465116 9.8758175872093  21.9920058139535 9.7609011627907  L 21.9270530523256 9.05641351744186  C 21.7147074854651 6.75558684593023  20.6929505813953 4.58466569767442  19.0491460755814 2.94585755813953  C 17.4053415697674 1.30455123546512  15.2319222383721 0.285292514534884  12.9236010174419 0.0729469476744184  L 12.2166151889535 0.00799418604651163  C 12.0992005813953 -0.00199854651162813  11.999273255814 0.0879360465116279  11.999273255814 0.205350654069768  L 11.999273255814 9.80087209302326  C 11.999273255814 9.91079215116279  12.0892078488372 10.000726744186  12.1991279069767 10.000726744186  L 21.7921511627907 9.9757449127907  Z M 20.098382994186 8.28947129360465  L 13.6930414244186 8.3069585755814  L 13.6930414244186 1.89662063953488  C 15.2569040697674 2.22388263081395  16.7083484738372 3.0008175872093  17.8500181686047 4.13998909883721  C 18.9916878633721 5.27916061046512  19.7736191860465 6.72810683139535  20.098382994186 8.28947129360465  Z " fill-rule="nonzero" fill="#999999" stroke="none" fill-opacity="0.996078431372549" transform="matrix(1 0 0 1 1391 758 )" />
  </g>
</svg>