<?xml version="1.0" encoding="utf-8"?>
<svg version="1.1" xmlns:xlink="http://www.w3.org/1999/xlink" width="18px" height="22px" xmlns="http://www.w3.org/2000/svg">
  <g transform="matrix(1 0 0 1 -1551 -678 )">
    <path d="M 12.19921875 0.2919921875  L 17.6032366071429 5.54833984375  C 17.75390625 5.69482421875  17.8392857142857 5.892578125  17.8392857142857 6.10009765625  L 17.8392857142857 21.15625  C 17.8392857142857 21.58837890625  17.4801897321429 21.9375  17.0357142857143 22  L 0.964285714285714 22  C 0.519810267857143 21.9375  0.160714285714286 21.58837890625  0.160714285714286 21.15625  L 0.160714285714286 0.84375  C 0.160714285714286 0.41162109375  0.519810267857143 0.0625  0.964285714285714 0  L 11.6291852678571 0  C 11.8426339285714 0.0625  12.0485491071429 0.1455078125  12.19921875 0.2919921875  Z M 11.2600446428571 6.458984375  L 15.9860491071429 6.458984375  L 11.2600446428571 1.8642578125  L 11.2600446428571 6.458984375  Z M 13.1904994419643 14.3783935546875  C 12.9755440848214 14.1730712890625  12.5802873883929 14.0748291015625  12.0439536830357 14.0580078125  C 11.66291015625 14.0460693359375  11.2576088169643 14.074365234375  10.7971623883929 14.13037109375  C 10.1870005580357 13.7644775390625  9.77627511160714 13.261669921875  9.48447823660714 12.5232666015625  C 9.49150948660714 12.4951416015625  9.50607421875 12.4368896484375  9.511171875 12.4163330078125  C 9.52307477678572 12.3685302734375  9.53294363839285 12.3285888671875  9.54238560267857 12.28974609375  C 9.65018973214286 11.847119140625  9.70849888392857 11.524169921875  9.72570033482143 11.1985595703125  C 9.73870814732143 10.9526123046875  9.72469587053572 10.7257080078125  9.67982142857143 10.5155517578125  C 9.59700334821429 10.0618408203125  9.26663504464286 9.796484375  8.85061104910714 9.7800537109375  C 8.46273716517857 9.76474609375  8.10607700892857 9.9751953125  8.01487165178571 10.30185546875  C 7.86638671875 10.8294921875  7.95334821428571 11.524267578125  8.26799665178571 12.708642578125  C 7.86711495535714 13.637744140625  7.33756138392857 14.7267333984375  6.98220703125 15.3341064453125  C 6.50797433035714 15.5718994140625  6.13835658482143 15.788330078125  5.82825334821428 16.028125  C 5.41885881696428 16.344677734375  5.16329799107143 16.669970703125  5.09283482142857 17.012158203125  C 5.05880859375 17.170361328125  5.11021205357143 17.3775390625  5.22743303571428 17.547119140625  C 5.36042410714286 17.7394775390625  5.56096540178571 17.8642822265625  5.80135881696429 17.8824462890625  C 6.40785435267857 17.928271484375  7.15311662946428 17.3203369140625  7.97577287946428 15.9474365234375  C 8.058515625 15.9208251953125  8.14602957589286 15.892333984375  8.25265345982143 15.8573486328125  C 8.31098772321428 15.838232421875  8.51542131696428 15.7709716796875  8.55173270089286 15.7590576171875  C 8.74059709821429 15.6970458984375  8.87768136160714 15.6526123046875  9.01318359375 15.6097412109375  C 9.60069475446428 15.4239013671875  10.0451702008929 15.306298828125  10.4498186383929 15.23955078125  C 11.152265625 15.6051025390625  11.9644503348214 15.844921875  12.5114313616071 15.844921875  C 12.9629129464286 15.844921875  13.2679436383929 15.6174072265625  13.3781584821429 15.2593505859375  C 13.4750139508929 14.9447509765625  13.3980970982143 14.5800537109375  13.1904994419643 14.3783935546875  Z M 5.84851841517857 17.2399169921875  C 5.82918463022845 17.2320432251258  5.81661543704403 17.2136409292205  5.81665178571429 17.19326171875  L 5.81665178571429 17.18447265625  L 5.81981584821428 17.176220703125  C 5.85183314732143 17.0927001953125  5.89909319196428 17.005126953125  5.96044084821428 16.91357421875  C 6.06801897321429 16.75302734375  6.21590122767857 16.583984375  6.39919084821428 16.4041748046875  C 6.49762834821429 16.3076171875  6.60013392857143 16.2137451171875  6.72036830357143 16.1082763671875  C 6.74731305803571 16.084619140625  6.91900111607143 15.9359375  6.95111886160714 15.9068603515625  L 7.23176618303571 15.652783203125  L 7.02785993303571 15.9685546875  C 6.71833426339286 16.447998046875  6.43874162946429 16.79326171875  6.19885044642857 17.01845703125  C 6.11078404017857 17.1011474609375  6.03311383928571 17.1625  5.97056082589286 17.2016845703125  C 5.94477120535714 17.2178466796875  5.92244698660714 17.2296142578125  5.90494419642857 17.2364501953125  C 5.89467354910714 17.2404296875  5.88558314732143 17.2429931640625  5.87656808035714 17.2438232421875  C 5.86702792085809 17.2449118958167  5.85736061649805 17.2435656085289  5.84851841517857 17.2399169921875  Z M 9.12209263392857 10.994189453125  C 9.12751674107143 11.342822265625  9.07111607142857 11.7056640625  8.97905691964286 11.8644287109375  L 8.9223046875 11.962255859375  L 8.88739955357143 11.8552001953125  C 8.80920200892857 11.615234375  8.75212332589286 11.25361328125  8.736328125 10.9275390625  C 8.71834821428571 10.5565185546875  8.7486328125 10.3337158203125  8.86906808035714 10.3337158203125  C 9.0383203125 10.3337158203125  9.11594029017857 10.5975830078125  9.12209263392857 10.994189453125  Z M 8.83315848214285 13.2917724609375  L 8.8716796875 13.1928955078125  L 8.92411272321428 13.285546875  C 9.21766741071429 13.8042236328125  9.59856026785714 14.2368896484375  10.017421875 14.5383544921875  L 10.1076981026786 14.6033447265625  L 9.99770926339286 14.6254150390625  C 9.58768694196429 14.7077392578125  9.20558872767857 14.831884765625  8.68336774553571 15.0365966796875  C 8.73796037946428 15.0152099609375  8.14037946428571 15.252978515625  7.98933314732143 15.30927734375  L 7.85744698660714 15.3584228515625  L 7.92780970982143 15.23935546875  C 8.23793805803571 14.71455078125  8.52441127232143 14.083935546875  8.83313337053571 13.2917724609375  Z M 12.8457924107143 15.122412109375  C 12.8345424107143 15.1328369140625  12.8167885044643 15.143896484375  12.7914006696429 15.15361328125  C 12.5939229910714 15.22939453125  12.1692103794643 15.1616455078125  11.4210853794643 14.8511962890625  L 11.2312165178571 14.772412109375  L 11.4371065848214 14.7575927734375  C 12.0220814732143 14.7155029296875  12.4367243303571 14.7468505859375  12.6781724330357 14.8327880859375  C 12.78087890625 14.8693603515625  12.8495340401786 14.9155029296875  12.8799944196429 14.968359375  C 12.912890625 15.025390625  12.8978236607143 15.085791015625  12.8457924107143 15.122412109375  Z " fill-rule="nonzero" fill="#999999" stroke="none" fill-opacity="0.996078431372549" transform="matrix(1 0 0 1 1551 678 )" />
  </g>
</svg>