<?xml version="1.0" encoding="utf-8"?>
<svg version="1.1" xmlns:xlink="http://www.w3.org/1999/xlink" width="18px" height="22px" xmlns="http://www.w3.org/2000/svg">
  <g transform="matrix(1 0 0 1 -1469 -678 )">
    <path d="M 12.19921875 0.2919921875  L 17.6032366071429 5.54833984375  C 17.75390625 5.69482421875  17.8392857142857 5.892578125  17.8392857142857 6.10009765625  L 17.8392857142857 21.15625  C 17.8392857142857 21.58837890625  17.4801897321429 21.9375  17.0357142857143 22  L 0.964285714285714 22  C 0.519810267857143 21.9375  0.160714285714286 21.58837890625  0.160714285714286 21.15625  L 0.160714285714286 0.84375  C 0.160714285714286 0.41162109375  0.519810267857143 0.0625  0.964285714285714 0  L 11.6291852678571 0  C 11.8426339285714 0.0625  12.0485491071429 0.1455078125  12.19921875 0.2919921875  Z M 11.2600446428571 6.458984375  L 15.9860491071429 6.458984375  L 11.2600446428571 1.8642578125  L 11.2600446428571 6.458984375  Z M 7.67375558035714 17.1305419921875  L 9 12.3206787109375  L 10.3262444196429 17.1305419921875  C 10.3615526574357 17.2586020217793  10.4809188263186 17.3476474558117  10.6172879464286 17.34765625  L 11.4153348214286 17.34765625  C 11.5515685916411 17.3476588472086  11.6708595275286 17.2587966345078  11.7063030133929 17.130908203125  L 13.5739787946429 10.392626953125  C 13.5808647636669 10.367773300824  13.5843518151561 10.3421457708113  13.5843498883929 10.31640625  C 13.5843498883929 10.1546142578125  13.4494252232143 10.0234375  13.2830106026786 10.0234375  L 12.3896400669643 10.0234375  C 12.2492358293587 10.0234330621483  12.1274337713009 10.1177022194761  12.0959598214286 10.250732421875  L 10.9460993303571 15.1116943359375  L 9.69654575892857 10.245458984375  C 9.66305397211914 10.115002308899  9.54252211007371 10.0234578482989  9.40422154017857 10.0234375  L 8.59582868303571 10.0234375  C 8.45750938768193 10.0234354378246  8.33695056375061 10.114984647338  8.30345424107143 10.245458984375  L 7.05641183035714 15.1020751953125  L 5.8988671875 10.2502197265625  C 5.86719357507577 10.1174377272004  5.74551292395874 10.0234347690977  5.6053125 10.0234375  L 4.71683872767857 10.0234375  C 4.6904248617016 10.0234347018193  4.66412526249045 10.0268083395459  4.63861607142857 10.0334716796875  C 4.47790178571428 10.0754638671875  4.38262834821428 10.236181640625  4.4258203125 10.392431640625  L 6.28842354910714 17.130712890625  C 6.32379106252766 17.2586788180802  6.44310074026697 17.3476350786253  6.57939174107143 17.34765625  L 7.38271205357143 17.34765625  C 7.51908117368136 17.3476474558117  7.63844734256433 17.2586020217793  7.67375558035714 17.1305419921875  Z " fill-rule="nonzero" fill="#999999" stroke="none" fill-opacity="0.996078431372549" transform="matrix(1 0 0 1 1469 678 )" />
  </g>
</svg>