<?xml version="1.0" encoding="utf-8"?>
<svg version="1.1" xmlns:xlink="http://www.w3.org/1999/xlink" width="18px" height="22px" xmlns="http://www.w3.org/2000/svg">
  <g transform="matrix(1 0 0 1 -1391 -678 )">
    <path d="M 12.19921875 0.2919921875  L 17.6032366071429 5.54833984375  C 17.75390625 5.69482421875  17.8392857142857 5.892578125  17.8392857142857 6.10009765625  L 17.8392857142857 21.15625  C 17.8392857142857 21.58837890625  17.4801897321429 21.9375  17.0357142857143 22  L 0.964285714285714 22  C 0.519810267857143 21.9375  0.160714285714286 21.58837890625  0.160714285714286 21.15625  L 0.160714285714286 0.84375  C 0.160714285714286 0.41162109375  0.519810267857143 0.0625  0.964285714285714 0  L 11.6291852678571 0  C 11.8426339285714 0.0625  12.0485491071429 0.1455078125  12.19921875 0.2919921875  Z M 11.2600446428571 6.458984375  L 15.9860491071429 6.458984375  L 11.2600446428571 1.8642578125  L 11.2600446428571 6.458984375  Z M 5.18303571428571 1.8203125  L 3.57589285714286 1.8203125  L 3.57589285714286 3.3828125  L 5.18303571428571 3.3828125  L 5.18303571428571 1.8203125  Z M 6.79017857142857 3.3828125  L 5.18303571428571 3.3828125  L 5.18303571428571 4.9453125  L 6.79017857142857 4.9453125  L 6.79017857142857 3.3828125  Z M 5.18303571428571 4.9453125  L 3.57589285714286 4.9453125  L 3.57589285714286 6.5078125  L 5.18303571428571 6.5078125  L 5.18303571428571 4.9453125  Z M 6.79017857142857 6.5078125  L 5.18303571428571 6.5078125  L 5.18303571428571 8.0703125  L 6.79017857142857 8.0703125  L 6.79017857142857 6.5078125  Z M 5.18303571428571 8.0703125  L 3.57589285714286 8.0703125  L 3.57589285714286 9.6328125  L 5.18303571428571 9.6328125  L 5.18303571428571 8.0703125  Z M 6.79017857142857 9.6328125  L 5.18303571428571 9.6328125  L 5.18303571428571 11.1953125  L 6.79017857142857 11.1953125  L 6.79017857142857 9.6328125  Z M 5.18303571428571 11.1953125  L 3.57589285714286 11.1953125  L 3.57589285714286 12.7578125  L 5.18303571428571 12.7578125  L 5.18303571428571 11.1953125  Z M 6.79017857142857 12.7578125  L 3.57589285714286 12.7578125  L 3.57589285714286 16.6640625  L 6.79017857142857 16.6640625  L 6.79017857142857 12.7578125  Z M 4.78125 15.4921875  L 4.78125 13.9296875  L 5.58482142857143 13.9296875  L 5.58482142857143 15.4921875  L 4.78125 15.4921875  Z " fill-rule="nonzero" fill="#999999" stroke="none" fill-opacity="0.996078431372549" transform="matrix(1 0 0 1 1391 678 )" />
  </g>
</svg>