<?xml version="1.0" encoding="utf-8"?>
<svg version="1.1" xmlns:xlink="http://www.w3.org/1999/xlink" width="18px" height="22px" xmlns="http://www.w3.org/2000/svg">
  <g transform="matrix(1 0 0 1 -1313 -678 )">
    <path d="M 12.19921875 0.2919921875  L 17.6032366071429 5.54833984375  C 17.75390625 5.69482421875  17.8392857142857 5.892578125  17.8392857142857 6.10009765625  L 17.8392857142857 21.15625  C 17.8392857142857 21.58837890625  17.4801897321429 21.9375  17.0357142857143 22  L 0.964285714285714 22  C 0.519810267857143 21.9375  0.160714285714286 21.58837890625  0.160714285714286 21.15625  L 0.160714285714286 0.84375  C 0.160714285714286 0.41162109375  0.519810267857143 0.0625  0.964285714285714 0  L 11.6291852678571 0  C 11.8426339285714 0.0625  12.0485491071429 0.1455078125  12.19921875 0.2919921875  Z M 11.2600446428571 6.458984375  L 15.9860491071429 6.458984375  L 11.2600446428571 1.8642578125  L 11.2600446428571 6.458984375  Z M 7.60695870535714 17.34765625  C 7.7733984375 17.34765625  7.90829799107143 17.2164794921875  7.90829799107143 17.0546875  L 7.90829799107143 14.8198974609375  L 9.39683872767857 14.8198974609375  C 10.9178487723214 14.8198974609375  11.9129464285714 13.8517578125  11.9129464285714 12.424267578125  C 11.9129464285714 11.00283203125  10.9191294642857 10.0234375  9.4021875 10.0234375  L 6.79017857142857 10.0234375  C 6.62376395089286 10.0234375  6.48883928571429 10.1546142578125  6.48883928571429 10.31640625  L 6.48883928571429 17.0546875  C 6.48883928571429 17.2164794921875  6.62376395089286 17.34765625  6.79017857142857 17.34765625  L 7.60695870535714 17.34765625  Z M 7.90829799107143 11.2006103515625  L 7.90829799107143 13.653173828125  L 8.78486886160714 13.653173828125  C 9.98558035714286 13.653173828125  10.4720172991071 13.3373291015625  10.4720172991071 12.424267578125  C 10.4720172991071 11.6419189453125  10.0170703125 11.2006103515625  9.21970145089286 11.2006103515625  L 7.90829799107143 11.2006103515625  Z " fill-rule="nonzero" fill="#999999" stroke="none" fill-opacity="0.996078431372549" transform="matrix(1 0 0 1 1313 678 )" />
  </g>
</svg>