<?xml version="1.0" encoding="utf-8"?>
<svg version="1.1" xmlns:xlink="http://www.w3.org/1999/xlink" width="18px" height="22px" xmlns="http://www.w3.org/2000/svg">
  <g transform="matrix(1 0 0 1 -1229 -678 )">
    <path d="M 17.8392857142857 6.10009765625  C 17.8392857142857 5.892578125  17.75390625 5.69482421875  17.6032366071429 5.54833984375  L 12.19921875 0.2919921875  C 12.0485491071429 0.1455078125  11.8426339285714 0.0625  11.6291852678571 0  L 0.964285714285714 0  C 0.519810267857143 0.0625  0.160714285714286 0.41162109375  0.160714285714286 0.84375  L 0.160714285714286 21.15625  C 0.160714285714286 21.58837890625  0.519810267857143 21.9375  0.964285714285714 22  L 17.0357142857143 22  C 17.4801897321429 21.9375  17.8392857142857 21.58837890625  17.8392857142857 21.15625  L 17.8392857142857 6.10009765625  Z M 5.18303571428571 9.291015625  C 5.18303571428571 8.75146484375  5.63253348214286 8.314453125  6.1875 8.314453125  C 6.74246651785714 8.314453125  7.19196428571429 8.75146484375  7.19196428571429 9.291015625  C 7.19196428571429 9.83056640625  6.74246651785714 10.267578125  6.1875 10.267578125  C 5.63253348214286 10.267578125  5.18303571428571 9.83056640625  5.18303571428571 9.291015625  Z M 13.7737165178571 15.17724609375  C 13.8816964285714 15.30419921875  13.7862723214286 15.4921875  13.6205357142857 15.4921875  L 4.37946428571429 15.4921875  C 4.21121651785714 15.4921875  4.11830357142857 15.30419921875  4.22126116071429 15.17724609375  L 6.72739955357143 12.07177734375  C 6.80775669642857 11.9716796875  6.96344866071429 11.9716796875  7.04380580357143 12.07177734375  L 8.07589285714286 13.35107421875  L 10.0295758928571 10.92919921875  C 10.1099330357143 10.8291015625  10.265625 10.8291015625  10.3459821428571 10.92919921875  L 13.7737165178571 15.17724609375  Z M 15.9860491071429 6.458984375  L 11.2600446428571 6.458984375  L 11.2600446428571 1.8642578125  L 15.9860491071429 6.458984375  Z " fill-rule="nonzero" fill="#999999" stroke="none" fill-opacity="0.996078431372549" transform="matrix(1 0 0 1 1229 678 )" />
  </g>
</svg>