<?xml version="1.0" encoding="utf-8"?>
<svg version="1.1" xmlns:xlink="http://www.w3.org/1999/xlink" width="18px" height="22px" xmlns="http://www.w3.org/2000/svg">
  <g transform="matrix(1 0 0 1 -1629 -678 )">
    <path d="M 12.19921875 0.2919921875  L 17.6032366071429 5.54833984375  C 17.75390625 5.69482421875  17.8392857142857 5.892578125  17.8392857142857 6.10009765625  L 17.8392857142857 21.15625  C 17.8392857142857 21.58837890625  17.4801897321429 21.9375  17.0357142857143 22  L 0.964285714285714 22  C 0.519810267857143 21.9375  0.160714285714286 21.58837890625  0.160714285714286 21.15625  L 0.160714285714286 0.84375  C 0.160714285714286 0.41162109375  0.519810267857143 0.0625  0.964285714285714 0  L 11.6291852678571 0  C 11.8426339285714 0.0625  12.0485491071429 0.1455078125  12.19921875 0.2919921875  Z M 11.2600446428571 6.458984375  L 15.9860491071429 6.458984375  L 11.2600446428571 1.8642578125  L 11.2600446428571 6.458984375  Z M 10.5905943080357 10.1659912109375  L 9.05336216517857 12.663720703125  L 7.50048549107143 10.1649169921875  C 7.44592596107487 10.0771125585558  7.34810328460592 10.0234479357201  7.24258928571428 10.0234375  L 6.27737444196428 10.0234375  C 6.22043343467802 10.0234380599152  6.16465785335117 10.0391235514984  6.11650948660714 10.0686767578125  C 5.97578404017857 10.1550537109375  5.93372209821429 10.335986328125  6.02256696428572 10.472802734375  L 8.09008091517857 13.65693359375  L 5.99454241071428 16.8988037109375  C 5.96435521595783 16.945500628846  5.94833933955186 16.9995336599424  5.94833705357143 17.0546875  C 5.94833705357143 17.2164794921875  6.08326171875 17.34765625  6.24967633928571 17.34765625  L 7.11517299107143 17.34765625  C 7.21961599318597 17.3476538162491  7.31661007202173 17.2950720710338  7.37151227678571 17.20869140625  L 8.94618582589286 14.731298828125  L 10.5103878348214 17.2079833984375  C 10.5652069194772 17.2947832622969  10.6624628256861 17.347671945812  10.7672293526786 17.34765625  L 11.7085630580357 17.34765625  C 11.7662946893382 17.3476532437346  11.8228103619914 17.3315271111301  11.87138671875 17.3011962890625  C 12.0114341517857 17.2137939453125  12.0520647321429 17.0325439453125  11.9621400669643 16.8964111328125  L 9.85700892857143 13.709130859375  L 11.9989285714286 10.475  C 12.0302433686818 10.4277075545992  12.0468940105654 10.3726509819021  12.0468917410714 10.31640625  C 12.0468917410714 10.1546142578125  11.9119921875 10.0234375  11.7455524553571 10.0234375  L 10.8491936383929 10.0234375  C 10.7432152337544 10.0234432826981  10.6450304988098 10.0775731893509  10.5906194196429 10.1659912109375  Z " fill-rule="nonzero" fill="#999999" stroke="none" fill-opacity="0.996078431372549" transform="matrix(1 0 0 1 1629 678 )" />
  </g>
</svg>