<?xml version="1.0" encoding="utf-8"?>
<svg version="1.1" xmlns:xlink="http://www.w3.org/1999/xlink" width="19px" height="22px" xmlns="http://www.w3.org/2000/svg">
  <g transform="matrix(1 0 0 1 -1631 -838 )">
    <path d="M 18.7377240349265 10.5643237304687  C 18.7376967486213 9.41329833984375  17.8755859375 8.480205078125  16.697554285386 8.480205078125  L 16.6415900735294 8.480205078125  C 16.2279569738051 8.480205078125  15.8884880514706 8.59716064453125  15.5615162568934 8.79632080078125  C 15.2753920611213 7.97497314453125  14.5475844439338 7.3833203125  13.6101907169118 7.3833203125  C 13.1965303308824 7.3833203125  12.8014792049632 7.5002490234375  12.4745346966912 7.6994091796875  C 12.188383214614 6.87808837890625  11.4602481617647 6.28640869140625  10.5228271484375 6.28640869140625  C 10.1572179457721 6.28640869140625  9.81747616038603 6.3765625  9.51669921875 6.5349560546875  L 9.51669921875 4.42167236328125  C 9.51669921875 3.2706201171875  8.63213177849264 2.33752685546875  7.45412741268382 2.33752685546875  C 6.27609576056985 2.33752685546875  5.32115693933823 3.2706201171875  5.32115693933823 4.42167236328125  L 5.32115693933823 12.5127416992187  L 4.02533030790441 11.2426123046875  C 3.19233398437499 10.42873046875  1.71805491727941 10.5445849609375  1.00882927389705 11.2426123046875  C 0.2996036305147 11.9406396484375  -0.165518727022065 13.3456103515625  0.850077550551464 14.3451708984375  L 6.80684168198529 20.1694506835937  C 6.92973920036764 20.289521484375  7.06483369715073 20.3896655273438  7.20694077435661 20.4743408203125  C 8.29301757812499 21.346337890625  9.5375186695772 21.8625537109375  12.1691463694853 21.8625537109375  C 18.1809742647059 21.8625537109375  18.7377240349265 18.6703784179687  18.7377240349265 14.7326416015625  L 18.7377240349265 10.5643237304687  Z M 17.6150290096507 10.6959692382812  C 17.6150290096507 10.6959692382812  17.6150290096507 13.8454443359375  17.6150290096507 14.732587890625  C 17.6150290096507 18.0645190429687  17.5988482306985 20.7655883789063  12.169091796875 20.7655883789063  C 9.86891084558824 20.7655883789063  8.48797822840073 20.2608129882812  7.44184857536765 19.2386401367188  L 1.80264246323529 13.7246215820313  C 1.30371237362132 13.2335693359375  1.4291748046875 12.6057153320313  1.83762350643382 12.2037158203125  C 2.246044921875 11.8017431640625  2.99568158318015 11.78783203125  3.39026884191177 12.1733422851563  C 3.39026884191177 12.1733422851563  4.37964298023897 13.14134765625  5.23203986672794 13.9753442382813  C 5.87711540670956 14.6065014648438  6.44377010569853 15.16087890625  6.44377010569853 15.16087890625  L 6.44377010569853 4.6410546875  C 6.44377010569853 4.0958349609375  6.89612247242647 3.65384765625  7.45412741268382 3.65384765625  C 8.01210506663603 3.65384765625  8.3940860523897 4.09586181640625  8.3940860523897 4.6410546875  L 8.3940860523897 11.3322021484375  L 8.40540986902574 11.3322021484375  C 8.39804256663603 11.3676513671875  8.3940860523897 11.4043090820312  8.3940860523897 11.4419067382813  C 8.3940860523897 11.7447827148437  8.64539292279412 11.9903759765625  8.95539263556985 11.9903759765625  C 9.26536506204044 11.9903759765625  9.51667193244486 11.7448095703125  9.51667193244486 11.4419067382813  C 9.51667193244486 11.4043090820313  9.51274270450368 11.3676513671875  9.50534811580883 11.3322021484375  L 9.51667193244486 11.3322021484375  L 9.51667193244485 8.58990966796875  C 9.51667193244485 8.04468994140625  9.92037281709559 7.60267578125  10.4783777573529 7.60267578125  C 10.4783777573529 7.60267578125  11.4670151654412 7.5895166015625  11.4670151654412 8.58990966796875  L 11.4670151654412 12.209677734375  L 11.4783389820772 12.209677734375  C 11.4709716796875 12.2451538085937  11.4670151654412 12.2818115234375  11.4670151654412 12.3193823242188  C 11.4670151654412 12.62228515625  11.7183220358456 12.8678515625  12.0282944623162 12.8678515625  C 12.3382941750919 12.8678515625  12.5896010454963 12.6223120117188  12.5896010454963 12.3193823242188  C 12.5896010454963 12.2818115234375  12.5856718175551 12.2451538085937  12.5782772288603 12.209677734375  L 12.5896010454963 12.209677734375  L 12.5896010454963 9.6868212890625  C 12.5896010454963 9.14157470703125  12.9868623621324 8.699560546875  13.5448945886949 8.699560546875  C 13.5448945886949 8.699560546875  14.5540240119485 8.76140869140625  14.5540240119485 9.6868212890625  L 14.5540240119485 12.8678247070312  L 14.5653478285846 12.8678247070312  C 14.5580078125 12.9032739257812  14.5540240119485 12.9399584960937  14.5540240119485 12.977529296875  C 14.5540240119485 13.2804321289062  14.8053308823529 13.5259985351562  15.1153305951287 13.5259985351562  C 15.4253303079044 13.5259985351562  15.6625574448529 13.280458984375  15.6625574448529 12.977529296875  C 15.6625574448529 12.9399584960937  15.6588465073529 12.9032739257812  15.6518612132353 12.8678247070312  L 15.6625574448529 12.8678247070312  L 15.6625574448529 10.6959692382812  C 15.6625574448529 10.1507495117187  16.0788100298713 9.7087353515625  16.6367876838235 9.7087353515625  C 16.6367876838235 9.7087353515625  17.6150290096507 9.669794921875  17.6150290096507 10.6959692382812  Z M 3.09061063878676 4.4  C 3.09063792509191 5.63857421875  3.63066119025735 6.75025634765625  4.48769674862132 7.52906494140625  L 4.48769674862132 5.685947265625  C 4.30948988970588 5.29275634765625  4.20828498391544 4.85834228515625  4.20828498391544 4.4  C 4.20828498391544 2.65340087890625  5.64690085018382 1.2375  7.42152027803309 1.2375  C 9.19613970588235 1.2375  10.6347555721507 2.65340087890625  10.6347555721507 4.4  C 10.6347555721507 4.638583984375  10.6061049517463 4.87021240234375  10.5546702665441 5.093408203125  C 10.9588350183824 5.1089306640625  11.3234892003676 5.2740380859375  11.5889303768382 5.53912841796875  C 11.6918270335478 5.17609619140625  11.7523753446691 4.795634765625  11.7523753446691 4.4  C 11.7523753446691 2.0459033203125  9.81335592830882 0.1375  7.42149299172794 0.1375  C 5.02963005514706 0.1375  3.09061063878676 2.0459033203125  3.09061063878676 4.4  Z " fill-rule="nonzero" fill="#999999" stroke="none" fill-opacity="0.996078431372549" transform="matrix(1 0 0 1 1631 838 )" />
  </g>
</svg>