<?xml version="1.0" encoding="utf-8"?>
<svg version="1.1" xmlns:xlink="http://www.w3.org/1999/xlink" width="22px" height="22px" xmlns="http://www.w3.org/2000/svg">
  <g transform="matrix(1 0 0 1 -829 -515 )">
    <path d="M 14.125 11  C 14.125 9.2765625  12.7234375 7.875  11 7.875  C 9.2765625 7.875  7.875 9.2765625  7.875 11  C 7.875 12.7234375  9.2765625 14.125  11 14.125  C 12.7234375 14.125  14.125 12.7234375  14.125 11  Z M 12.5625 11  C 12.5625 11.86171875  11.86171875 12.5625  11 12.5625  C 10.13828125 12.5625  9.4375 11.86171875  9.4375 11  C 9.4375 10.13828125  10.13828125 9.4375  11 9.4375  C 11.86171875 9.4375  12.5625 10.13828125  12.5625 11  Z M 21.9375 11  C 21.9375 10.56875  21.58828125 10.21875  21.15625 10.21875  L 21.13359375 10.21875  C 20.7515625 5.2328125  16.7671875 1.2484375  11.78125 0.86640625  L 11.78125 0.84375  C 11.78125 0.4125  11.43125 0.0625  11 0.0625  C 10.56875 0.0625  10.21875 0.4125  10.21875 0.84375  L 10.21875 0.86640625  C 5.2328125 1.2484375  1.2484375 5.2328125  0.86640625 10.21875  L 0.84375 10.21875  C 0.4125 10.21875  0.0625 10.56875  0.0625 11  C 0.0625 11.43125  0.4125 11.78125  0.84375 11.78125  L 0.86640625 11.78125  C 1.2484375 16.7671875  5.2328125 20.7515625  10.21875 21.13359375  L 10.21875 21.15625  C 10.21875 21.58828125  10.56875 21.9375  11 21.9375  C 11.43125 21.9375  11.78125 21.58828125  11.78125 21.15625  L 11.78125 21.13359375  C 16.7671875 20.7515625  20.7515625 16.7671875  21.13359375 11.78125  L 21.15625 11.78125  C 21.58828125 11.78125  21.9375 11.43125  21.9375 11  Z M 19.57109375 11.78125  C 19.19765625 15.90546875  15.90546875 19.19765625  11.78125 19.57109375  L 11.78125 18.03125  C 11.78125 17.59921875  11.43125 17.25  11 17.25  C 10.56875 17.25  10.21875 17.59921875  10.21875 18.03125  L 10.21875 19.57109375  C 6.09375 19.19765625  2.80234375 15.90546875  2.42890625 11.78125  L 3.96875 11.78125  C 4.4 11.78125  4.75 11.43125  4.75 11  C 4.75 10.56875  4.4 10.21875  3.96875 10.21875  L 2.42890625 10.21875  C 2.80234375 6.09375  6.09375 2.80234375  10.21875 2.42890625  L 10.21875 3.96875  C 10.21875 4.4  10.56875 4.75  11 4.75  C 11.43125 4.75  11.78125 4.4  11.78125 3.96875  L 11.78125 2.42890625  C 15.90546875 2.80234375  19.19765625 6.09375  19.57109375 10.21875  L 18.03125 10.21875  C 17.59921875 10.21875  17.25 10.56875  17.25 11  C 17.25 11.43125  17.59921875 11.78125  18.03125 11.78125  L 19.57109375 11.78125  Z " fill-rule="nonzero" fill="#999999" stroke="none" fill-opacity="0.996078431372549" transform="matrix(1 0 0 1 829 515 )" />
  </g>
</svg>