<?xml version="1.0" encoding="utf-8"?>
<svg version="1.1" xmlns:xlink="http://www.w3.org/1999/xlink" width="22px" height="22px" xmlns="http://www.w3.org/2000/svg">
  <g transform="matrix(1 0 0 1 -1389 -278 )">
    <path d="M 6.78116037597657 12.3880089355469  L 6.78116037597656 18.3119924804687  L 8.28014406738281 18.3119924804687  L 8.28014406738281 9.91768381347656  L 7.1649001953125 9.91768381347656  C 7.11693271484375 10.1736352783203  7.01500183105469 10.3894889404297  6.85910751953125 10.5652447753906  C 6.70321320800781 10.7411754882812  6.51526564941406 10.8851029052734  6.2954896484375 10.9969520751953  C 6.07551379394531 11.1090010986328  5.82968046875 11.1888219970703  5.55798967285156 11.236789453125  C 5.28612399902344 11.2847569335937  5.006363671875 11.3087406738281  4.71855881347656 11.3087406738281  L 4.71855881347656 12.3880089355469  L 6.78116037597657 12.3880089355469  Z M 11.1221921630859 15.5538624755859  C 11.1300618164063 15.9936143310547  11.1980906982422 16.3932933349609  11.3260539306641 16.7530244384766  C 11.4538422851563 17.1127805175781  11.6397162597656 17.4206468017578  11.8836758789063 17.6763984130859  C 12.1274356201172 17.9323498779297  12.4311796630859 18.1302157226562  12.7950329589844 18.2700209228516  C 13.1587363769531 18.4098011474609  13.5844477294922 18.4798536621094  14.0721670654297 18.4798536621094  C 14.47182109375 18.4798536621094  14.8516385742188 18.4199192871094  15.2113946777344 18.2999756103516  C 15.5711507568359 18.1800569091797  15.8868866943359 18.0102970214844  16.15877734375 17.7903461425781  C 16.4304681396484 17.5705451660156  16.6463217773438 17.3028017089844  16.8063383056641 16.9868908935547  C 16.9661549560547 16.6711549560547  17.0461757080078 16.3134724609375  17.0461756835938 15.9136185546875  C 17.0461756835938 15.3700620849609  16.9122165039063 14.9083750976563  16.6444480712891 14.5285826171875  C 16.3765047363281 14.1489649902344  16.0028830566406 13.9109763427734  15.5232082763672 13.81504140625  L 15.5232082763672 13.7910576660156  C 15.9309318359375 13.6471552246094  16.2307285888672 13.4174359863281  16.4225984863281 13.1015251708984  C 16.6144684082031 12.7857892333984  16.7104033447266 12.4160898925781  16.7104033447266 11.9922772460938  C 16.7104033447266 11.6246514892578  16.6343299316406 11.2988224121094  16.4825828125 11.0149398681641  C 16.3306108398438 10.7312572021484  16.12882265625 10.4974157470703  15.8769934082031 10.3134155029297  C 15.6251641601563 10.1296151123047  15.3413065917969 9.98963503417969  15.0255706542969 9.89370007324219  C 14.7096348632813 9.79776511230469  14.3879529541016 9.74979763183594  14.0602251708984 9.74979763183594  C 13.6363625488281 9.74979763183594  13.256769921875 9.82174885253906  12.9209725830078 9.96565129394531  C 12.5852252197266 10.1095537353516  12.2992690917969 10.3094931640625  12.06355390625 10.5652447753906  C 11.8276638427734 10.8211962402344  11.6417898681641 11.1228666992187  11.5059569580078 11.4706309082031  C 11.3699241943359 11.8183951171875  11.2940506347656 12.1961390136719  11.2781114501953 12.6038625732422  L 12.6451845703125 12.6038625732422  C 12.6371400146484 12.3879839355469  12.6611237548828 12.1781511962891  12.7171357910156 11.9742894287109  C 12.7729729248047 11.7704276367187  12.8589896240234 11.5866022705078  12.9749609863281 11.4226634277344  C 13.0907574707031 11.2588994628906  13.2367334960938 11.1288626220703  13.4126642089844 11.0329276855469  C 13.5884200439453 10.9369927246094  13.7964040283203 10.8890252441406  14.0362414306641 10.8890252441406  C 14.41998125 10.8890252441406  14.7336436035156 10.9969520751953  14.9776281738281 11.2128057128906  C 15.2213879150391 11.4286843505859  15.3433802001953 11.7164642333984  15.3433802001953 12.0762453125  C 15.3433802001953 12.3321967773438  15.289416796875 12.5480504394531  15.1815149414063 12.72380625  C 15.0735881103516 12.8997369628906  14.9315593994141 13.0376434570312  14.7558035644531 13.1375257568359  C 14.5798478515625 13.2375829101562  14.3799333984375 13.3074855224609  14.1562100830078 13.3473834716797  C 13.9347105488634 13.387255833046  13.7095833509216 13.4033363483539  13.4846654052734 13.3953509521484  L 13.4846654052734 14.4146598632812  C 13.7563562011719 14.4068151855469  14.0222259277344 14.4146598632812  14.2821247314453 14.4386436035156  C 14.5418236572266 14.46262734375  14.7756651123047 14.5246353027344  14.9836490966797 14.624517578125  C 15.1914332275391 14.7245747314453  15.3593193847656 14.8703509033203  15.4872826171875 15.0622208251953  C 15.6150709716797 15.2541157226562  15.6791775146484 15.5139895263672  15.6791775146484 15.8416923339844  C 15.6791775146484 16.3213671142578  15.5251569335938 16.6912413330078  15.2174905517578 16.9509152832031  C 14.9096492675781 17.2108140625  14.5279580566406 17.3406760253906  14.0722669921875 17.3406760253906  C 13.5365801757813 17.3406760253906  13.1348525634766 17.1709161132813  12.8670841064453 16.8310215576172  C 12.5991407714844 16.4913018798828  12.4732261474609 16.0655905273438  12.489340234375 15.5539124511719  L 11.1221921630859 15.5539124511719  Z M 21.8607364257813 4.48546684570313  C 21.8607114501953 2.8876001953125  20.5618420654297 1.58615756835938  18.9596283691406 1.58615759277344  L 17.5083123535156 1.58615759277344  L 17.5083123535156 0.434513403320312  C 17.5083123535156 0.270374682617187  17.3705557617187 0.135341235351562  17.2006209716797 0.135341235351562  L 16.3651874023438 0.135341235351562  C 16.1914052246094 0.135341235351562  16.0575209960938 0.269275439453125  16.0575209960938 0.434513403320312  L 16.0575209960938 2  L 5.90190651855469 2  L 5.90190651855469 0.434513403320312  C 5.90190651855469 0.270374682617187  5.76414992675781 0.135341235351562  5.59424011230469 0.135341235351562  L 4.75878154296875 0.135341235351562  C 4.58499936523438 0.135341235351562  4.45111513671875 0.269275439453125  4.45111513671875 0.434513403320312  L 4.45111513671875 1.58615759277344  L 2.99979914550781 1.58615759277344  C 1.3948623046875 1.58615759277344  0.0987160888671872 2.88422749023437  0 4.48546684570312  L 0 18.99802734375  C 0.0987160644531249 20.5958939941406  1.39756044921875 21.8973366210938  2.99979914550781 21.8973365966797  L 18.9596533447266 21.8973365966797  C 20.5645901855469 21.8973365966797  21.8607364013672 20.5992666992187  21.8607364257813 18.99802734375  L 21.8607364257813 4.48546684570313  Z M 20 7.38934802246094  L 20 18.9980523193359  C 20.4098950927734 19.7989842773437  19.7623591308594 20.4465702148437  18.9596283691406 20.4465702148437  L 2.99977414550781 20.4465702148437  C 2.20004135742187 20.4465702148437  1.549507421875 19.7958863769531  1.549507421875 18.9980523193359  L 1.549507421875 7.38934802246094  L 20 7.38934802246094  Z M 20.4098451171875 5.93855666503906  L 20.4098950927734 6  L 1.549507421875 6  L 1.549507421875 4.48546684570312  C 1.549507421875 3.68453488769531  2.19704338378906 3.03694895019531  2.99977414550781 3.03694895019531  L 4.45109016113281 3.03694895019531  L 4.45109016113281 4.18859313964844  C 4.45109016113281 4.35273186035156  4.58884675292969 4.48776530761719  4.75875656738281 4.48776528320312  L 5.59421511230469 4.48776528320312  C 5.76799729003906 4.48776528320312  5.90188151855469 4.35383107910156  5.90188151855469 4.18859313964844  L 5.90188151855469 3  L 16.0574710449219 3  L 16.0574710449219 4.18859313964844  C 16.0574710449219 4.35273186035156  16.1952276367187 4.48776530761719  16.3651374267578 4.48776528320312  L 17.2005710205078 4.48776528320312  C 17.3743781738281 4.48776528320312  17.5082624023438 4.35383107910156  17.5082624023438 4.18859313964844  L 17.5082624023438 3.03694895019531  L 18.9595784179688 3.03694895019531  C 19.7593112060547 3.03694895019531  20.4098451416016 3.68763278808594  20.4098451171875 4.48546684570312  L 20.4098451171875 5.93855666503906  Z " fill-rule="nonzero" fill="#999999" stroke="none" fill-opacity="0.996078431372549" transform="matrix(1 0 0 1 1389 278 )" />
  </g>
</svg>