<?xml version="1.0" encoding="utf-8"?>
<svg version="1.1" xmlns:xlink="http://www.w3.org/1999/xlink" width="22px" height="22px" xmlns="http://www.w3.org/2000/svg">
  <g transform="matrix(1 0 0 1 -1225 -758 )">
    <path d="M 21.7421875 15.296875  C 21.7421875 11.738525390625  18.855224609375 8.8515625  15.296875 8.8515625  C 12.066162109375 8.8515625  9.391357421875 11.228271484375  8.924072265625 14.330078125  L 5.84375 14.330078125  C 5.427490234375 14.330078125  5.091796875 13.994384765625  5.091796875 13.578125  L 5.091796875 3.802734375  L 12.90673828125 3.802734375  C 13.2880859375 4.748046875  14.214599609375 5.4140625  15.296875 5.4140625  C 16.72021484375 5.4140625  17.875 4.25927734375  17.875 2.8359375  C 17.875 1.41259765625  16.72021484375 0.2578125  15.296875 0.2578125  C 14.214599609375 0.2578125  13.2880859375 0.923828125  12.90673828125 2  L 0.2578125 2  L 0.2578125 3.802734375  L 3.158203125 3.802734375  L 3.158203125 13.578125  C 3.158203125 15.060546875  4.361328125 16.263671875  5.84375 16.263671875  L 8.924072265625 16.263671875  C 9.391357421875 19.365478515625  12.066162109375 21.7421875  15.296875 21.7421875  C 18.855224609375 21.7421875  21.7421875 18.855224609375  21.7421875 15.296875  Z M 18.734375 14.5986328125  L 18.734375 15.9951171875  C 18.734375 16.11328125  18.6376953125 16.2099609375  18.51953125 16.2099609375  L 16.2099609375 16.2099609375  L 16.2099609375 18.51953125  C 16.2099609375 18.6376953125  16.11328125 18.734375  15.9951171875 18.734375  L 14.5986328125 18.734375  C 14.48046875 18.734375  14.3837890625 18.6376953125  14.3837890625 18.51953125  L 14.3837890625 16.2099609375  L 12.07421875 16.2099609375  C 11.9560546875 16.2099609375  11.859375 16.11328125  11.859375 15.9951171875  L 11.859375 14.5986328125  C 11.859375 14.48046875  11.9560546875 14.3837890625  12.07421875 14.3837890625  L 14.3837890625 14.3837890625  L 14.3837890625 12.07421875  C 14.3837890625 11.9560546875  14.48046875 11.859375  14.5986328125 11.859375  L 15.9951171875 11.859375  C 16.11328125 11.859375  16.2099609375 11.9560546875  16.2099609375 12.07421875  L 16.2099609375 14.3837890625  L 18.51953125 14.3837890625  C 18.6376953125 14.3837890625  18.734375 14.48046875  18.734375 14.5986328125  Z " fill-rule="nonzero" fill="#999999" stroke="none" fill-opacity="0.996078431372549" transform="matrix(1 0 0 1 1225 758 )" />
  </g>
</svg>