<?xml version="1.0" encoding="utf-8"?>
<svg version="1.1" xmlns:xlink="http://www.w3.org/1999/xlink" width="22px" height="14px" xmlns="http://www.w3.org/2000/svg">
  <g transform="matrix(1 0 0 1 -1309 -762 )">
    <path d="M 21.9375 7  C 21.9375 3.19719328703704  18.9638671875 0.113425925925926  15.296875 0.113425925925926  C 11.927734375 0.113425925925926  9.14453125 2.71614583333333  8.71484375 6.08854166666667  L 4.5791015625 6.08854166666667  C 4.232421875 5.19733796296296  3.39013671875 4.56944444444444  2.40625 4.56944444444444  C 1.1123046875 4.56944444444444  0.0625 5.65813078703704  0.0625 7  C 0.0625 8.34186921296296  1.1123046875 9.43055555555556  2.40625 9.43055555555556  C 3.39013671875 9.43055555555556  4.232421875 8.80266203703704  4.5791015625 7.91145833333333  L 8.71240234375 7.91145833333333  C 9.14453125 11.2838541666667  11.927734375 13.8865740740741  15.296875 13.8865740740741  C 18.9638671875 13.8865740740741  21.9375 10.802806712963  21.9375 7  Z M 18.421875 6.34172453703704  L 18.421875 7.65827546296296  C 18.421875 7.76967592592593  18.333984375 7.86082175925926  18.2265625 7.86082175925926  L 16.126953125 7.86082175925926  L 16.126953125 10.0381944444444  C 16.126953125 10.1495949074074  16.0390625 10.2407407407407  15.931640625 10.2407407407407  L 14.662109375 10.2407407407407  C 14.5546875 10.2407407407407  14.466796875 10.1495949074074  14.466796875 10.0381944444444  L 14.466796875 7.86082175925926  L 12.3671875 7.86082175925926  C 12.259765625 7.86082175925926  12.171875 7.76967592592593  12.171875 7.65827546296296  L 12.171875 6.34172453703704  C 12.171875 6.23032407407407  12.259765625 6.13917824074074  12.3671875 6.13917824074074  L 14.466796875 6.13917824074074  L 14.466796875 3.96180555555556  C 14.466796875 3.85040509259259  14.5546875 3.75925925925926  14.662109375 3.75925925925926  L 15.931640625 3.75925925925926  C 16.0390625 3.75925925925926  16.126953125 3.85040509259259  16.126953125 3.96180555555556  L 16.126953125 6.13917824074074  L 18.2265625 6.13917824074074  C 18.333984375 6.13917824074074  18.421875 6.23032407407407  18.421875 6.34172453703704  Z " fill-rule="nonzero" fill="#999999" stroke="none" fill-opacity="0.996078431372549" transform="matrix(1 0 0 1 1309 762 )" />
  </g>
</svg>