<?xml version="1.0" encoding="utf-8"?>
<svg version="1.1" xmlns:xlink="http://www.w3.org/1999/xlink" width="22px" height="19px" xmlns="http://www.w3.org/2000/svg">
  <g transform="matrix(1 0 0 1 -907 -516 )">
    <path d="M 9.70463541666667 15.367919921875  C 9.7934375 15.4353915127841  9.93953125 15.4353915127841  10.0283333333333 15.367919921875  L 20.8621875 7.39151278409091  C 20.9108854166667 7.35566850142046  20.9338020833333 7.30717329545455  20.9280729166667 7.25867808948864  L 20.1976041666667 0.903697620738637  C 20.1775520833333 0.739235617897728  20.0028125 0.610617897727273  19.779375 0.595858487215909  L 11.1455208333333 0.060302734375  C 11.0796354166667 0.0560857599431816  11.0108854166667 0.0729536576704544  10.9650520833333 0.108797940340909  L 0.131197916666666 8.08309659090909  C 0.0423958333333333 8.14845969460227  0.0423958333333333 8.25599254261364  0.131197916666666 8.32135564630682  L 9.70463541666667 15.367919921875  Z M 13.5431770833333 5.55291193181818  C 13.0075 5.15862482244318  13.0075 4.51764470880682  13.5431770833333 4.12124911221591  C 14.0788541666667 3.72696200284091  14.9496875 3.72696200284091  15.4882291666667 4.12124911221591  C 16.02390625 4.51553622159091  16.02390625 5.15651633522727  15.4882291666667 5.55291193181818  C 14.9525520833333 5.94719904119318  14.08171875 5.94719904119318  13.5431770833333 5.55291193181818  Z M 21.6728645833333 10.3244185014204  C 21.7616666666667 10.2590553977273  21.7616666666667 10.1515225497159  21.6728645833333 10.0861594460227  L 20.5384895833333 9.25330699573863  C 20.4496875 9.18794389204545  20.30359375 9.18794389204545  20.2147916666667 9.25330699573863  L 9.845 16.8712713068182  L 3.03875 11.8741566051136  C 2.94994791666667 11.8087935014205  2.80385416666667 11.8087935014205  2.71505208333334 11.8741566051136  L 1.58067708333334 12.7070090553977  C 1.491875 12.7723721590909  1.491875 12.8799050071023  1.58067708333334 12.9452681107955  L 8.54734375 18.0646750710227  L 9.68171875 18.8975275213068  C 9.77052083333334 18.962890625  9.91661458333334 18.962890625  10.0054166666667 18.8975275213068  L 21.6728645833333 10.3244185014204  Z " fill-rule="nonzero" fill="#999999" stroke="none" fill-opacity="0.996078431372549" transform="matrix(1 0 0 1 907 516 )" />
  </g>
</svg>