<?xml version="1.0" encoding="utf-8"?>
<svg version="1.1" xmlns:xlink="http://www.w3.org/1999/xlink" width="10px" height="10px" xmlns="http://www.w3.org/2000/svg">
  <g transform="matrix(1 0 0 1 -993 -684 )">
    <path d="M 0.0657894736842105 5.61677631578947  C 0.0657894736842105 5.72985197368421  0.158305921052632 5.82236842105263  0.271381578947368 5.82236842105263  L 4.17763157894737 5.82236842105263  L 4.17763157894737 9.72861842105263  C 4.17763157894737 9.84169407894737  4.27014802631579 9.93421052631579  4.38322368421053 9.93421052631579  L 5.61677631578947 9.93421052631579  C 5.72985197368421 9.93421052631579  5.82236842105263 9.84169407894737  5.82236842105263 9.72861842105263  L 5.82236842105263 5.82236842105263  L 9.72861842105263 5.82236842105263  C 9.84169407894737 5.82236842105263  9.93421052631579 5.72985197368421  9.93421052631579 5.61677631578947  L 9.93421052631579 4.38322368421053  C 9.93421052631579 4.27014802631579  9.84169407894737 4.17763157894737  9.72861842105263 4.17763157894737  L 5.82236842105263 4.17763157894737  L 5.82236842105263 0.271381578947368  C 5.82236842105263 0.158305921052632  5.72985197368421 0.0657894736842105  5.61677631578947 0.0657894736842105  L 4.38322368421053 0.0657894736842105  C 4.27014802631579 0.0657894736842105  4.17763157894737 0.158305921052632  4.17763157894737 0.271381578947368  L 4.17763157894737 4.17763157894737  L 0.271381578947368 4.17763157894737  C 0.158305921052632 4.17763157894737  0.0657894736842105 4.27014802631579  0.0657894736842105 4.38322368421053  L 0.0657894736842105 5.61677631578947  Z " fill-rule="nonzero" fill="#999999" stroke="none" fill-opacity="0.996078431372549" transform="matrix(1 0 0 1 993 684 )" />
  </g>
</svg>