<?xml version="1.0" encoding="utf-8"?>
<svg version="1.1" xmlns:xlink="http://www.w3.org/1999/xlink" width="18px" height="22px" xmlns="http://www.w3.org/2000/svg">
  <g transform="matrix(1 0 0 1 -430 -364 )">
    <path d="M 17.8235294117647 11  C 17.8235294117647 6.59601449275362  13.875 3.02898550724638  9 3.02898550724638  L 9 0.0398550724637682  L 4.58823529411765 4.02536231884058  L 9 8.01086956521739  L 9 5.02173913043478  C 12.6507352941176 5.02173913043478  15.6176470588235 7.70199275362319  15.6176470588235 11  C 15.6176470588235 12.0063405797101  15.3419117647059 12.9628623188406  14.8455882352941 13.7898550724638  L 16.4558823529412 15.2445652173913  C 17.3161764705882 14.0190217391304  17.8235294117647 12.5643115942029  17.8235294117647 11  Z M 9 13.9891304347826  L 9 16.9782608695652  C 5.34926470588235 16.9782608695652  2.38235294117647 14.2980072463768  2.38235294117647 11  C 2.38235294117647 9.99365942028986  2.65808823529412 9.03713768115942  3.15441176470588 8.21014492753623  L 1.54411764705882 6.7554347826087  C 0.683823529411765 7.98097826086957  0.176470588235294 9.4356884057971  0.176470588235294 11  C 0.176470588235294 15.4039855072464  4.125 18.9710144927536  9 18.9710144927536  L 9 21.9601449275362  L 13.4117647058824 17.9746376811594  L 9 13.9891304347826  Z " fill-rule="nonzero" fill="#999999" stroke="none" fill-opacity="0.996078431372549" transform="matrix(1 0 0 1 430 364 )" />
  </g>
</svg>