<?xml version="1.0" encoding="utf-8"?>
<svg version="1.1" xmlns:xlink="http://www.w3.org/1999/xlink" width="22px" height="20px" xmlns="http://www.w3.org/2000/svg">
  <g transform="matrix(1 0 0 1 -509 -600 )">
    <path d="M 21.9126984126984 8.90350877192983  C 21.9126984126984 7.08333333333333  20.4503968253968 5.6140350877193  18.6388888888889 6  L 3.36111111111111 6  C 1.54960317460317 5.6140350877193  0.0873015873015874 7.08333333333333  0.0873015873015874 8.90350877192983  L 0.0873015873015874 15.4824561403509  L 4.45238095238095 15.4824561403509  L 4.45238095238095 19.8684210526316  L 17.547619047619 19.8684210526316  L 17.547619047619 15.4824561403509  L 21.9126984126984 15.4824561403509  L 21.9126984126984 8.90350877192983  Z M 15.3650793650794 12.1929824561404  L 15.3650793650794 17.6754385964912  L 6.63492063492064 17.6754385964912  L 6.63492063492064 12.1929824561404  L 15.3650793650794 12.1929824561404  Z M 19.7301587301587 8.90350877192983  C 19.7301587301587 9.50657894736842  19.2390873015873 10  18.6388888888889 10  C 18.0386904761905 10  17.547619047619 9.50657894736842  17.547619047619 8.90350877192983  C 17.547619047619 8.30043859649123  18.0386904761905 7.80701754385965  18.6388888888889 7.80701754385965  C 19.2390873015873 7.80701754385965  19.7301587301587 8.30043859649123  19.7301587301587 8.90350877192983  Z M 17.547619047619 4.51754385964912  L 17.547619047619 0.131578947368421  L 4.45238095238095 0.131578947368421  L 4.45238095238095 4.51754385964912  L 17.547619047619 4.51754385964912  Z " fill-rule="nonzero" fill="#999999" stroke="none" fill-opacity="0.996078431372549" transform="matrix(1 0 0 1 509 600 )" />
  </g>
</svg>