<?xml version="1.0" encoding="utf-8"?>
<svg version="1.1" xmlns:xlink="http://www.w3.org/1999/xlink" width="20px" height="22px" xmlns="http://www.w3.org/2000/svg">
  <g transform="matrix(1 0 0 1 -510 -679 )">
    <path d="M 19.8039215686275 0.144736842105263  L 17.3529411764706 0.144736842105263  L 17.3529411764706 2.55701754385965  L 14.9019607843137 2.55701754385965  L 14.9019607843137 0.144736842105263  L 5.09803921568628 0.144736842105263  L 5.09803921568628 2.55701754385965  L 2.64705882352941 2.55701754385965  L 2.64705882352941 0.144736842105263  L 0.196078431372549 0.144736842105263  L 0.196078431372549 21.8552631578947  L 2.64705882352941 21.8552631578947  L 2.64705882352941 19.4429824561404  L 5.09803921568628 19.4429824561404  L 5.09803921568628 21.8552631578947  L 14.9019607843137 21.8552631578947  L 14.9019607843137 19.4429824561404  L 17.3529411764706 19.4429824561404  L 17.3529411764706 21.8552631578947  L 19.8039215686275 21.8552631578947  L 19.8039215686275 0.144736842105263  Z M 5.09803921568628 14.6184210526316  L 5.09803921568628 17.030701754386  L 2.64705882352941 17.030701754386  L 2.64705882352941 14.6184210526316  L 5.09803921568628 14.6184210526316  Z M 5.09803921568628 9.79385964912281  L 5.09803921568628 12.2061403508772  L 2.64705882352941 12.2061403508772  L 2.64705882352941 9.79385964912281  L 5.09803921568628 9.79385964912281  Z M 5.09803921568628 4.96929824561404  L 5.09803921568628 7.38157894736842  L 2.64705882352941 7.38157894736842  L 2.64705882352941 4.96929824561404  L 5.09803921568628 4.96929824561404  Z M 17.3529411764706 14.6184210526316  L 17.3529411764706 17.030701754386  L 14.9019607843137 17.030701754386  L 14.9019607843137 14.6184210526316  L 17.3529411764706 14.6184210526316  Z M 17.3529411764706 9.79385964912281  L 17.3529411764706 12.2061403508772  L 14.9019607843137 12.2061403508772  L 14.9019607843137 9.79385964912281  L 17.3529411764706 9.79385964912281  Z M 17.3529411764706 4.96929824561404  L 17.3529411764706 7.38157894736842  L 14.9019607843137 7.38157894736842  L 14.9019607843137 4.96929824561404  L 17.3529411764706 4.96929824561404  Z " fill-rule="nonzero" fill="#999999" stroke="none" fill-opacity="0.996078431372549" transform="matrix(1 0 0 1 510 679 )" />
  </g>
</svg>