<?xml version="1.0" encoding="utf-8"?>
<svg version="1.1" xmlns:xlink="http://www.w3.org/1999/xlink" width="22px" height="20px" xmlns="http://www.w3.org/2000/svg">
  <g transform="matrix(1 0 0 1 -1229 -517 )">
    <path d="M 21.9710297526042 7.78345989912975  C 21.9710297772988 7.31991314774525  21.8945687634698 6.8606191653481  21.7586380612428 6.44385237836234  C 21.7586380612428 6.43109421973892  21.7543902298851 6.42258875593354  21.7543902298851 6.40983059731013  C 21.7458945671695 6.3630506576345  21.7331510484016 6.3205234375  21.7161597229705 6.27799621736551  L 19.8598562342852 1.65953980419304  C 19.5412686848958 0.706930008900316  18.6534713631466 0.111548902294304  17.540538831268 0.111548902294304  L 4.53791867367098 0.111548902294304  C 3.44622532327586 0.111548902294304  2.59665848374641 0.694171850276899  2.290814453125 1.61275986451741  L 0.298580262212644 6.32477615704114  C 0.290084599497126 6.35454521855222  0.277341080729166 6.39281971914557  0.268845418013649 6.43534693928006  C 0.124419053071121 6.8818827877769  0.0522058705998562 7.33692405063291  0.0522058705998562 7.79621805775316  C 0.0522058705998562 9.40799980221519  0.935755360991379 10.8794417029272  2.35453194818606 11.636426275712  C 2.93648521461925 11.9511277195411  3.62463433908046 12.1084784414557  4.39774014008621 12.1084784414557  C 4.39774014008621 12.1084784414557  4.39774014008621 12.1084784414557  4.40198797144397 12.1084784414557  C 5.6975773751796 12.1042257219146  6.89971441496049 11.5343609325554  7.71954638559626 10.560487539557  C 8.53513052487428 11.5301082130142  9.7245240705819 12.0957202828323  11.0201134743175 12.1042257219146  C 12.3029593592852 12.0957202828323  13.4923529049928 11.5258554934731  14.3036892129131 10.5562348200158  C 15.1235211835489 11.5343609325554  16.3256582480244 12.0999730023734  17.6297433144756 12.0999730023734  C 18.419840465607 12.0957202828323  19.1164852527838 11.9298641218354  19.7069341819325 11.606657214201  C 21.1044715876437 10.8411672023339  21.9710297526042 9.37823074070412  21.9710297526042 7.78345989912975  Z M 17.9483308885596 6.42258875593354  C 17.9483308885596 6.8606191653481  17.5915128322557 7.21359510977057  17.1539859060704 7.21359510977057  L 4.51243166082974 7.21359510977057  C 4.07490475933908 7.21359510977057  3.72233450969828 6.8606191653481  3.72233450969828 6.42258875593354  C 3.72233450969828 5.98455834651899  4.0749047346444 5.63158240209652  4.51243166082974 6  L 17.1582337374282 6  C 17.5957606389188 5.63158240209652  17.9483308885596 5.98455834651899  17.9483308885596 6.42258875593354  Z M 20.3356136426904 17.8581589695411  L 20.3313658113326 13.5416458415744  C 20.3313658113326 13.1036154568829  19.9787955863865 12.7506394877373  19.5412686602011 12.7506394877373  C 19.4605598150144 12.7506394877373  19.3883466325431 12.7719031101661  19.3118856187141 12.797419427413  C 18.7256845209231 13.0313191505142  17.9780657080639 13.1546480913766  17.4131037917565 13.1248790545886  C 16.1684884137033 13.0568354924842  15.2169735721983 12.8101776107595  14.3036892376078 12.031929440269  C 13.4031484217852 12.8016721716772  12.2519853829921 13.2397025563687  11.0286091617277 13.2524607397152  C 9.78824161503233 13.2439553006329  8.62858291352371 12.9335065763449  7.72379424164871 12.1595111253956  C 6.81050990705819 12.9377592958861  5.64660337419181 13.3162515822785  4.40623582749641 13.3162515822785  L 4.40198799613865 13.3162515822785  C 3.64587352056394 13.3162515822785  3.21684228178879 13.1716590189873  2.52869315732759 12.9164956981804  C 2.51170183189655 12.9079902590981  2.49046265041308 12.903737539557  2.4692234689296 12.8952320757516  C 2.43524079337285 12.8824739171282  2.40975378053161 12.8739684533228  2.37577112966954 12.8612102946994  C 2.37577112966954 12.8612102946994  2.26107960892601 12.8399466722706  2.20160992052802 12.8399466722706  C 1.76408301903736 12.8399466722706  1.41151276939655 13.1971753362342  1.41151276939655 13.6309530261076  L 1.41576060075431 17.8709171281646  C 1.41576060075431 18.985130364913  2.32479710398707 19.8952129400712  3.44197746722342 19.8952129400712  L 18.313644607579 19.8867075009889  C 19.4265771394576 19.8824547814478  20.3356136426904 18.9723722062896  20.3356136426904 17.8581589695411  Z " fill-rule="nonzero" fill="#999999" stroke="none" transform="matrix(1 0 0 1 1229 517 )" />
  </g>
</svg>