<?xml version="1.0" encoding="utf-8"?>
<svg version="1.1" xmlns:xlink="http://www.w3.org/1999/xlink" width="20px" height="20px" xmlns="http://www.w3.org/2000/svg">
  <g transform="matrix(1 0 0 1 -270 -200 )">
    <path d="M 19.7584561504425 10.1817283602579  L 10.015585 0.0880154438261229  L 0.27271387168139 10.1520774887848  C 0.082111769911478 10.348972299169  0.0714711946902753 10.6800736891133  0.249621570796478 10.8910413796485  C 0.427568185840698 11.1018585541637  0.726749402654889 11.1137741034001  0.917215663716831 10.9164277449562  L 10.0148832079646 1.51928448508323  L 19.1129582522124 10.945050106636  C 19.2042407964602 11.0395465643615  19.3201098451327 11.0862554850097  19.4357525 11.0862554850097  C 19.5616508628319 11.0862554850097  19.6876171238938 11.0308419826931  19.7805297123894 10.9205919152796  C 19.9588158849558 10.7097747407643  19.9490129867257 10.3789493050278  19.7584561504425 10.1817283602579  Z M 16.7853894247788 10.3890586865394  C 16.5246048230089 10.3890586865394  16.3130611725664 10.6233055671316  16.3130611725664 10.9118873090972  L 16.3130611725664 18.9288854460324  L 12.5343445353982 18.9288854215184  L 12.5343445353982 13.3518628931434  L 7.49612365044248 13.3518628931434  L 7.49612365044248 18.9288854460324  L 3.71754287610622 18.9288854215184  L 3.71754287610622 10.9118873090972  C 3.71754287610622 10.6233055671316  3.50622561946903 10.3890586865394  3.24523725663715 10.3890586865394  C 2.98411305309736 10.3890586865394  2.77281845132745 10.6233055671316  2.77281845132745 10.9118873090972  L 2.77281845132745 19.974517588802  L 8.44084809734511 19.974517588802  L 8.44084807522125 14.397520113745  L 11.5897333185841 14.397520113745  L 11.5897333185841 19.974517564288  L 17.2576271238938 19.974517564288  L 17.2576271238938 10.9118873090972  C 17.2576497566372 10.6233055671316  17.0460608185841 10.3890586865394  16.7853894247788 10.3890586865394  Z M 13.4790916150442 2.89498950800382  L 16.3130611504425 2.89498950800382  L 16.3130611504425 5.68342551418138  C 16.3130611504425 5.97243370186061  16.5246274336283 6.20637955041309  16.7853894026549 6.20637955041309  C 17.0460834513274 6.20637955041309  17.2576497345133 5.97243367734663  17.2576497345133 5.68342551418138  L 17.2576497566372 1.84933228740226  L 13.4790916150442 1.84933228740226  C 13.2182617256637 1.84933228740226  13.0066728097345 2.0831527222808  13.0066728097345 2.37216090996003  C 13.0066501548673 2.66109381511535  13.2182390929203 2.89498950800382  13.4790916150442 2.89498950800382  Z " fill-rule="nonzero" fill="#999999" stroke="none" transform="matrix(1 0 0 1 270 200 )" />
  </g>
</svg>