<?xml version="1.0" encoding="utf-8"?>
<svg version="1.1" xmlns:xlink="http://www.w3.org/1999/xlink" width="20px" height="20px" xmlns="http://www.w3.org/2000/svg">
  <g transform="matrix(1 0 0 1 -270 -280 )">
    <path d="M 13.0833333333333 17.44  L 10.5833333333333 19.84  L 9.41666666666669 19.84  L 7.58333333333331 18.08  L 8.16666666666669 16.72  C 9 16.72  9.66666666666669 16.08  9.66666666666669 15.28  C 9.66666666666669 14.48  9 13.84  8.16666666666669 13.84  C 7.33333333333331 13.84  6.66666666666669 14.48  6.66666666666669 15.28  L 5.25 15.84  L 0.166666666666686 10.96  L 0.166666666666686 9.84  L 3.5 6.64000000000001  L 4.91666666666669 7.12  C 5 7.84  5.66666666666669 8.31999999999999  6.41666666666669 8.31999999999999  C 7.25 8.31999999999999  7.91666666666669 7.68000000000001  7.91666666666669 6.88  C 7.91666666666669 6.16  7.33333333333331 5.52000000000001  6.66666666666669 5.44  L 6.16666666666669 4.08000000000001  L 9.5 0.879999999999995  L 10.6666666666667 0.879999999999995  L 11.5 1.68000000000001  C 12 0.719999999999999  13.0833333333333 0.0800000000000125  14.3333333333333 0.0800000000000125  C 16.0833333333333 0.0800000000000125  17.5 1.44  17.5 3.12  C 17.5 4.31999999999999  16.8333333333333 5.28  15.8333333333333 5.84  L 19.9166666666667 9.75999999999999  L 19.9166666666667 10.88  L 17.5 13.2  C 18.3333333333333 13.76  18.9166666666667 14.72  18.9166666666667 15.76  C 18.9166666666667 17.44  17.5 18.8  15.75 18.8  C 14.6666666666667 18.8  13.6666666666667 18.24  13.0833333333333 17.44  Z M 11.3333333333333 15.28  C 11.3333333333333 16.4  10.6666666666667 17.36  9.75 17.92  L 10 18.16  L 12.75 15.52  L 14.1666666666667 16  C 14.25 16.72  14.9166666666667 17.28  15.6666666666667 17.28  C 16.5 17.28  17.1666666666667 16.64  17.1666666666667 15.84  C 17.1666666666667 15.12  16.5833333333333 14.48  15.8333333333333 14.4  L 15.3333333333333 13.04  L 18.0833333333333 10.4  L 13.5 6  L 14.1666666666667 4.64000000000001  L 14.25 4.64000000000001  C 15.0833333333333 4.64000000000001  15.75 4  15.75 3.20000000000002  C 15.75 2.40000000000001  15.0833333333333 1.75999999999999  14.25 1.75999999999999  C 13.4166666666667 1.75999999999999  12.75 2.40000000000001  12.75 3.20000000000002  L 12.75 3.28000000000003  L 11.3333333333333 3.92000000000002  L 10 2.63999999999999  L 8.16666666666669 4.40000000000001  C 9 4.96000000000001  9.5 5.84  9.5 6.88  C 9.5 8.56  8.08333333333331 9.91999999999999  6.33333333333331 9.91999999999999  C 5.25 9.91999999999999  4.33333333333331 9.44  3.75 8.64000000000001  L 1.91666666666669 10.4  L 5.41666666666669 13.76  C 6 12.88  7 12.24  8.16666666666669 12.24  C 9.91666666666669 12.24  11.3333333333333 13.6  11.3333333333333 15.28  Z " fill-rule="nonzero" fill="#999999" stroke="none" transform="matrix(1 0 0 1 270 280 )" />
  </g>
</svg>