<?xml version="1.0" encoding="utf-8"?>
<svg version="1.1" xmlns:xlink="http://www.w3.org/1999/xlink" width="20px" height="20px" xmlns="http://www.w3.org/2000/svg">
  <g transform="matrix(1 0 0 1 -350 -200 )">
    <path d="M 4.98046875 1.34114583333334  C 6.51258680555554 0.447048611111114  8.18576388888891 0  10 0  C 11.8142361111111 0  13.4874131944445 0.447048611111114  15.01953125 1.34114583333334  C 16.5516493055555 2.23524305555557  17.7647569444445 3.44835069444443  18.6588541666666 4.98046875  C 19.5529513888889 6.51258680555557  20 8.18576388888889  20 10  C 20 11.8142361111111  19.5529513888889 13.4874131944444  18.6588541666666 15.01953125  C 17.7647569444445 16.5516493055556  16.5516493055555 17.7647569444444  15.01953125 18.6588541666667  C 13.4874131944445 19.5529513888889  11.8142361111111 20  10 20  C 8.18576388888891 20  6.51258680555554 19.5529513888889  4.98046875 18.6588541666667  C 3.44835069444446 17.7647569444444  2.23524305555554 16.5516493055556  1.34114583333337 15.01953125  C 0.447048611111086 13.4874131944444  0 11.8142361111111  0 10  C 0 8.18576388888889  0.447048611111086 6.51258680555557  1.34114583333337 4.98046875  C 2.23524305555554 3.44835069444443  3.44835069444446 2.23524305555557  4.98046875 1.34114583333334  Z M 11.5494791666666 16.54296875  C 11.6276041666666 16.4605034722222  11.6666666666666 16.3585069444444  11.6666666666666 16.2369791666667  L 11.6666666666666 13.7630208333333  C 11.6666666666666 13.6414930555556  11.6276041666666 13.5394965277778  11.5494791666666 13.45703125  C 11.4713541666666 13.3745659722222  11.3758680555555 13.3333333333333  11.2630208333334 13.3333333333333  L 8.76302083333337 13.3333333333333  C 8.65017361111109 13.3333333333333  8.55034722222229 13.3767361111111  8.46354166666663 13.4635416666667  C 8.37673611111109 13.5503472222222  8.33333333333337 13.6501736111111  8.33333333333337 13.7630208333333  L 8.33333333333337 16.2369791666667  C 8.33333333333337 16.3498263888889  8.37673611111109 16.4496527777778  8.46354166666663 16.5364583333333  C 8.55034722222229 16.6232638888889  8.65017361111109 16.6666666666667  8.76302083333337 16.6666666666667  L 11.2630208333334 16.6666666666667  C 11.3758680555555 16.6666666666667  11.4713541666666 16.6254340277778  11.5494791666666 16.54296875  Z M 11.50390625 11.9856770833333  C 11.5863715277777 11.9205729166667  11.6319444444445 11.8446180555556  11.640625 11.7578125  L 11.875 3.671875  C 11.875 3.56770833333334  11.8315972222223 3.48958333333334  11.7447916666666 3.4375  C 11.6579861111111 3.36805555555557  11.5538194444445 3.33333333333334  11.4322916666666 3.33333333333334  L 8.56770833333337 3.33333333333334  C 8.44618055555554 3.33333333333334  8.34201388888891 3.36805555555557  8.25520833333337 3.4375  C 8.16840277777771 3.48958333333334  8.125 3.56770833333334  8.125 3.671875  L 8.34635416666663 11.7578125  C 8.34635416666663 11.8446180555556  8.38975694444446 11.9205729166667  8.4765625 11.9856770833333  C 8.56336805555554 12.05078125  8.66753472222229 12.0833333333333  8.7890625 12.0833333333333  L 11.1979166666666 12.0833333333333  C 11.3194444444445 12.0833333333333  11.4214409722223 12.05078125  11.50390625 11.9856770833333  Z " fill-rule="nonzero" fill="#999999" stroke="none" transform="matrix(1 0 0 1 350 200 )" />
  </g>
</svg>