<?xml version="1.0" encoding="utf-8"?>
<svg version="1.1" xmlns:xlink="http://www.w3.org/1999/xlink" width="20px" height="20px" xmlns="http://www.w3.org/2000/svg">
  <g transform="matrix(1 0 0 1 -430 -200 )">
    <path d="M 19.9405309734514 9.91150442477874  C 19.9419469026549 4.43893805309739  15.5044247787611 0  10.0290265486726 0  C 4.55504424778758 0  0.117522123893821 4.43893805309739  0.117522123893821 9.91150442477874  C 0.117522123893821 15.3854867256637  4.55504424778758 19.8230088495575  10.0290265486726 19.8230088495575  C 15.5044247787611 19.8230088495575  19.9405309734514 15.3854867256637  19.9405309734514 9.91150442477874  Z M 7.89946902654867 7.37415929203542  L 5.66796460176994 7.41663716814156  C 5.66796460176994 7.41663716814156  5.34371681415928 2.99185840707958  10.009203539823 2.99185840707958  C 14.6746902654867 2.99185840707958  14.3915044247788 7.37415929203542  14.3915044247788 7.37415929203542  C 14.3915044247788 7.37415929203542  14.4297345132744 8.75469026548672  12.8495575221239 9.97097345132738  C 11.2679646017699 11.1886725663717  10.9423008849557 11.1051327433628  10.9423008849557 12.9330973451327  L 8.79150442477879 12.9330973451327  C 8.79150442477879 12.9330973451327  8.12601769911504 10.2626548672566  11.2240707964602 8.7150442477876  C 11.8753982300885 8.38938053097348  12.1203539823009 8.02407079646008  12.1203539823009 6.80778761061953  C 12.1203539823009 5.59150442477875  11.3472566371681 4.85805309734513  10.2116814159292 4.85805309734513  C 9.07610619469028 4.85805309734513  7.89946902654867 5.06194690265488  7.89946902654867 7.37415929203542  Z M 8.75185840707962 16.8297345132743  L 8.75185840707962 14.6378761061947  L 10.9423008849557 14.6378761061947  L 10.9423008849557 16.8297345132743  L 8.75185840707962 16.8297345132743  Z " fill-rule="nonzero" fill="#999999" stroke="none" transform="matrix(1 0 0 1 430 200 )" />
  </g>
</svg>