<?xml version="1.0" encoding="utf-8"?>
<svg version="1.1" xmlns:xlink="http://www.w3.org/1999/xlink" width="20px" height="20px" xmlns="http://www.w3.org/2000/svg">
  <g transform="matrix(1 0 0 1 -510 -200 )">
    <path d="M 9.99999985183501 0.056818181818187  C 4.50853216885844 0.056818181818187  0.0568180336532578 4.50853231702337  0.0568180336532578 10  C 0.0568180336532578 15.4914676829766  4.50853216885844 19.9431818181818  9.99999985183501 19.9431818181818  C 15.4914675348117 19.9431818181818  19.9431816700169 15.4914676829766  19.9431816700169 10  C 19.9431816700169 4.50853231702337  15.4914675348117 0.056818181818187  9.99999985183501 0.056818181818187  Z M 9.93636368101068 3.54090909090908  C 11.5911259428143 3.54090909090908  12.9325758022228 4.88235895031758  12.9325758022228 6.53712121212121  C 12.9325758022228 8.19188347392486  11.5911259428143 9.53333333333333  9.93636368101068 9.53333333333333  C 8.28160141920705 9.53333333333333  6.94015155979855 8.19188347392486  6.94015155979855 6.53712121212121  C 6.94015155979855 4.88235895031758  8.28160141920705 3.54090909090908  9.93636368101068 3.54090909090908  Z M 15.3017045454545 15.4329545454545  C 11.9647727272727 16.7560606060606  8.4475378787879 16.8515151515151  4.69696969696975 15.430303030303  C 4.66647727272732 12.3598484848485  6.1672348484849 10.4534090909091  8.0484848484848 9.70435606060607  L 9.98011363636363 12.9272727272727  L 12.0151515151515 9.77859848484849  C 13.8301136363636 10.574053030303  15.2725378787878 12.4579545454545  15.3017045454545 15.4329545454545  Z " fill-rule="nonzero" fill="#999999" stroke="none" transform="matrix(1 0 0 1 510 200 )" />
  </g>
</svg>