<?xml version="1.0" encoding="utf-8"?>
<svg version="1.1" xmlns:xlink="http://www.w3.org/1999/xlink" width="17px" height="16px" xmlns="http://www.w3.org/2000/svg">
  <g transform="matrix(1 0 0 1 -594 -365 )">
    <path d="M 16 1.7255859375  C 16.00185546875 0.77744140625  15.2244140625 0  14.2744140625 0  L 2.18232421875 0  C 1.23232421875 0  0.4548828125 0.77744140625  0.4548828125 1.7255859375  L 0.4548828125 2.1560546875  C 0.4548828125 2.41396484375  0.62744140625 2.5865234375  0.88720703125 2.5865234375  C 1.14697265625 2.5865234375  1.31953125 2.41396484375  1.31953125 2.1560546875  L 1.31953125 1.7255859375  C 1.31953125 1.2505859375  1.70732421875 0.86279296875  2.18232421875 1  L 14.2744140625 1  C 14.7494140625 0.86279296875  15.13720703125 1.2505859375  15 1.7255859375  L 15 13.8009765625  C 15.13720703125 14.2759765625  14.7494140625 14.66376953125  14.2744140625 14.66376953125  L 13.84208984375 14.66376953125  C 13.58232421875 14.66376953125  13.409765625 14.836328125  13.409765625 15.09423828125  C 13.409765625 15.3521484375  13.58232421875 15.52470703125  13.84208984375 15.52470703125  L 14.2744140625 15.52470703125  C 15.2244140625 15.52470703125  16.00185546875 14.74912109375  16 13.79912109375  L 16 1.7255859375  Z " fill-rule="nonzero" fill="#999999" stroke="none" transform="matrix(1 0 0 1 594 365 )" />
  </g>
</svg>