<?xml version="1.0" encoding="utf-8"?>
<svg version="1.1" xmlns:xlink="http://www.w3.org/1999/xlink" width="16px" height="16px" xmlns="http://www.w3.org/2000/svg">
  <g transform="matrix(1 0 0 1 -591 -368 )">
    <path d="M 15.54697265625 5.8208984375  C 15.54697265625 5.58154296875  15.35400390625 5.38857421875  15.1146484375 5.38857421875  C 14.87529296875 5.38857421875  14.68232421875 5.58154296875  14.68232421875 5.8208984375  L 14.68232421875 14.2521484375  C 14.68232421875 14.7271484375  14.29453125 15.11494140625  13.81953125 15  L 1.72744140625 15  C 1.25244140625 15.11494140625  0.8646484375 14.7271484375  0.8646484375 14.2521484375  L 0.8646484375 4.76328125  L 0.86650390625 4.76328125  L 0.86650390625 3.90048828125  L 0.8646484375 3.90048828125  L 0.8646484375 2.17490234375  C 0.8646484375 1.69990234375  1.25244140625 1.312109375  1.72744140625 1.312109375  L 11.689453125 1.312109375  C 11.926953125 1.312109375  12.119921875 1.119140625  12.119921875 0.881640625  C 12.119921875 0.644140624999999  11.926953125 0.451171875  11.689453125 0.451171875  L 1.72744140625 0.451171875  C 0.77744140625 0.451171875  0 1.2267578125  0 2.1767578125  L 0 14.2521484375  C 0 15.20029296875  0.77744140625 15.977734375  1.72744140625 16  L 13.81953125 16  C 14.76953125 15.977734375  15.54697265625 15.2021484375  15.54697265625 14.2521484375  L 15.54697265625 5.8208984375  Z " fill-rule="nonzero" fill="#999999" stroke="none" transform="matrix(1 0 0 1 591 368 )" />
  </g>
</svg>