<?xml version="1.0" encoding="utf-8"?>
<svg version="1.1" xmlns:xlink="http://www.w3.org/1999/xlink" width="8px" height="4px" xmlns="http://www.w3.org/2000/svg">
  <g transform="matrix(1 0 0 1 -594 -376 )">
    <path d="M 7.3943359375 0.52431640625  C 7.3943359375 0.266406250000001  7.22177734375 0.0938476562500004  6.96201171875 0.0938476562500004  L 0.91689453125 0.0938476562500004  C 0.65712890625 0.0938476562500004  0.4845703125 0.266406249999999  0.4845703125 0.52431640625  C 0.4845703125 0.7822265625  0.65712890625 0.954785156250001  0.91689453125 0.954785156250001  L 6.96201171875 0.954785156250001  C 7.22177734375 0.954785156250001  7.3943359375 0.782226562500002  7.3943359375 0.52431640625  Z M 7.3943359375 3.190625  C 7.3943359375 2.93271484375  7.22177734375 2.76015625  6.96201171875 2.76015625  L 0.91689453125 2.76015625  C 0.65712890625 2.76015625  0.4845703125 2.93271484375  0.4845703125 3.190625  C 0.4845703125 3.44853515625  0.65712890625 3.62109375  0.91689453125 3.62109375  L 6.96201171875 3.62109375  C 7.22177734375 3.62109375  7.3943359375 3.44853515625  7.3943359375 3.190625  Z " fill-rule="nonzero" fill="#999999" stroke="none" transform="matrix(1 0 0 1 594 376 )" />
  </g>
</svg>