<?xml version="1.0" encoding="utf-8"?>
<svg version="1.1" xmlns:xlink="http://www.w3.org/1999/xlink" width="20px" height="20px" xmlns="http://www.w3.org/2000/svg">
  <g transform="matrix(1 0 0 1 -830 -200 )">
    <path d="M 19.9145122544643 10  C 19.9145122544643 15.4756018303571  15.4756018303572 19.9145122544643  10 19.9145122544643  C 4.52439816964284 19.9145122544643  0.0854877455357155 15.4756018303571  0.0854877455357155 10  C 0.0854877455357155 4.5242839732143  4.52439816964284 0.0854877455357155  10 0.0854877455357155  C 15.4756018303572 0.0854877455357155  19.9145122544643 4.52428395089285  19.9145122544643 10  Z M 11.0785373214286 10  L 15.0332503124999 6.04521848214287  L 13.9547129910715 4.96672685267856  L 10 8.92139415178571  L 6.04528700892854 4.96672685267856  L 4.96674968750006 6.04521848214287  L 8.9214626785714 9.99997716517856  L 4.96672685267856 13.9546672991071  L 6.04526417410716 15.0332731473214  L 9.99997716517862 11.0785144642857  L 13.9547129910715 15.0332503125  L 15.0332503125001 13.9546444642857  L 11.0785373214286 10  Z " fill-rule="nonzero" fill="#999999" stroke="none" transform="matrix(1 0 0 1 830 200 )" />
  </g>
</svg>