<?xml version="1.0" encoding="utf-8"?>
<svg version="1.1" xmlns:xlink="http://www.w3.org/1999/xlink" width="21px" height="21px" xmlns="http://www.w3.org/2000/svg">
  <g transform="matrix(1 0 0 1 -89 -90 )">
    <path d="M 5.2294921875 1.408203125  C 6.83821614583337 0.469401041666657  8.59505208333337 0  10.5 0  C 12.4049479166666 0  14.1617838541666 0.469401041666657  15.7705078125 1.408203125  C 17.3792317708334 2.34700520833334  18.6529947916666 3.62076822916666  19.591796875 5.2294921875  C 20.5305989583334 6.83821614583334  21 8.59505208333334  21 10.5  C 21 12.4049479166667  20.5305989583334 14.1617838541667  19.591796875 15.7705078125  C 18.6529947916666 17.3792317708333  17.3792317708334 18.6529947916667  15.7705078125 19.591796875  C 14.1617838541666 20.5305989583333  12.4049479166666 21  10.5 21  C 8.59505208333337 21  6.83821614583337 20.5305989583333  5.2294921875 19.591796875  C 3.62076822916663 18.6529947916667  2.34700520833337 17.3792317708333  1.408203125 15.7705078125  C 0.469401041666629 14.1617838541667  0 12.4049479166667  0 10.5  C 0 8.59505208333334  0.469401041666629 6.83821614583334  1.408203125 5.2294921875  C 2.34700520833337 3.62076822916666  3.62076822916663 2.34700520833334  5.2294921875 1.408203125  Z M 12.126953125 17.3701171875  C 12.208984375 17.2835286458333  12.25 17.1764322916667  12.25 17.048828125  L 12.25 14.451171875  C 12.25 14.3235677083333  12.208984375 14.2164713541667  12.126953125 14.1298828125  C 12.044921875 14.0432942708333  11.9446614583334 14  11.826171875 14  L 9.201171875 14  C 9.08268229166663 14  8.97786458333337 14.0455729166667  8.88671875 14.13671875  C 8.79557291666663 14.2278645833333  8.75 14.3326822916667  8.75 14.451171875  L 8.75 17.048828125  C 8.75 17.1673177083333  8.79557291666663 17.2721354166667  8.88671875 17.36328125  C 8.97786458333337 17.4544270833333  9.08268229166663 17.5  9.201171875 17.5  L 11.826171875 17.5  C 11.9446614583334 17.5  12.044921875 17.4567057291667  12.126953125 17.3701171875  Z M 12.0791015625 12.5849609375  C 12.1656901041666 12.5166015625  12.2135416666666 12.4368489583333  12.22265625 12.345703125  L 12.46875 3.85546875  C 12.46875 3.74609375  12.4231770833334 3.6640625  12.33203125 3.609375  C 12.2408854166666 3.53645833333334  12.1315104166666 3.5  12.00390625 3.5  L 8.99609375 3.5  C 8.86848958333337 3.5  8.75911458333337 3.53645833333334  8.66796875 3.609375  C 8.57682291666663 3.6640625  8.53125 3.74609375  8.53125 3.85546875  L 8.763671875 12.345703125  C 8.763671875 12.4368489583333  8.80924479166663 12.5166015625  8.900390625 12.5849609375  C 8.99153645833337 12.6533203125  9.10091145833337 12.6875  9.228515625 12.6875  L 11.7578125 12.6875  C 11.8854166666666 12.6875  11.9925130208334 12.6533203125  12.0791015625 12.5849609375  Z " fill-rule="nonzero" fill="#ff9900" stroke="none" transform="matrix(1 0 0 1 89 90 )" />
  </g>
</svg>